G75*
G70*
%OFA0B0*%
%FSLAX24Y24*%
%IPPOS*%
%LPD*%
%AMOC8*
5,1,8,0,0,1.08239X$1,22.5*
%
%ADD10C,0.0000*%
%ADD11C,0.0827*%
%ADD12R,0.0631X0.0434*%
%ADD13C,0.0520*%
%ADD14R,0.0552X0.0631*%
%ADD15R,0.0631X0.0552*%
%ADD16R,0.0276X0.0906*%
%ADD17OC8,0.0520*%
%ADD18R,0.0434X0.0591*%
%ADD19R,0.0512X0.0512*%
%ADD20R,0.0290X0.0440*%
%ADD21R,0.0631X0.0827*%
%ADD22R,0.1536X0.0827*%
%ADD23C,0.0690*%
%ADD24R,0.0160X0.0430*%
%ADD25C,0.0740*%
%ADD26C,0.0700*%
D10*
X002374Y000180D02*
X002374Y015534D01*
X015384Y015534D01*
X015384Y000180D01*
X002374Y000180D01*
X004983Y014515D02*
X004985Y014554D01*
X004991Y014593D01*
X005001Y014631D01*
X005014Y014668D01*
X005031Y014703D01*
X005051Y014737D01*
X005075Y014768D01*
X005102Y014797D01*
X005131Y014823D01*
X005163Y014846D01*
X005197Y014866D01*
X005233Y014882D01*
X005270Y014894D01*
X005309Y014903D01*
X005348Y014908D01*
X005387Y014909D01*
X005426Y014906D01*
X005465Y014899D01*
X005502Y014888D01*
X005539Y014874D01*
X005574Y014856D01*
X005607Y014835D01*
X005638Y014810D01*
X005666Y014783D01*
X005691Y014753D01*
X005713Y014720D01*
X005732Y014686D01*
X005747Y014650D01*
X005759Y014612D01*
X005767Y014574D01*
X005771Y014535D01*
X005771Y014495D01*
X005767Y014456D01*
X005759Y014418D01*
X005747Y014380D01*
X005732Y014344D01*
X005713Y014310D01*
X005691Y014277D01*
X005666Y014247D01*
X005638Y014220D01*
X005607Y014195D01*
X005574Y014174D01*
X005539Y014156D01*
X005502Y014142D01*
X005465Y014131D01*
X005426Y014124D01*
X005387Y014121D01*
X005348Y014122D01*
X005309Y014127D01*
X005270Y014136D01*
X005233Y014148D01*
X005197Y014164D01*
X005163Y014184D01*
X005131Y014207D01*
X005102Y014233D01*
X005075Y014262D01*
X005051Y014293D01*
X005031Y014327D01*
X005014Y014362D01*
X005001Y014399D01*
X004991Y014437D01*
X004985Y014476D01*
X004983Y014515D01*
D11*
X005377Y014515D03*
D12*
X007213Y014120D03*
X007954Y014120D03*
X007674Y010160D03*
X006933Y010160D03*
X005794Y010170D03*
X005053Y010170D03*
X005093Y009230D03*
X005834Y009230D03*
X005824Y008100D03*
X005083Y008100D03*
X006733Y008100D03*
X007474Y008100D03*
X008513Y008140D03*
X009254Y008140D03*
X014043Y008140D03*
X014784Y008140D03*
D13*
X010454Y006090D03*
X010454Y004190D03*
D14*
X009018Y003300D03*
X008349Y003300D03*
X007388Y003290D03*
X006719Y003290D03*
X005638Y003260D03*
X004969Y003260D03*
X006899Y009250D03*
X007568Y009250D03*
X009209Y013140D03*
X009878Y013140D03*
X007968Y014970D03*
X007299Y014970D03*
D15*
X005094Y006045D03*
X005094Y005375D03*
D16*
X006844Y011176D03*
X007344Y011176D03*
X007844Y011176D03*
X008344Y011176D03*
X008344Y013224D03*
X007844Y013224D03*
X007344Y013224D03*
X006844Y013224D03*
D17*
X010904Y013880D03*
X011904Y014880D03*
X012904Y013880D03*
X011904Y012040D03*
X012904Y011040D03*
X010904Y011040D03*
D18*
X012340Y008673D03*
X013088Y008673D03*
X012714Y007807D03*
D19*
X004017Y005700D03*
X003190Y005700D03*
X003180Y004570D03*
X004007Y004570D03*
X004017Y003330D03*
X003190Y003330D03*
D20*
X010640Y008774D03*
X011388Y008774D03*
X011014Y007986D03*
D21*
X012518Y003700D03*
X013424Y003700D03*
X014329Y003700D03*
D22*
X013424Y006180D03*
D23*
X013893Y001727D03*
X013893Y000727D03*
X012893Y000727D03*
X011893Y000727D03*
X010893Y000727D03*
X009893Y000727D03*
X008893Y000727D03*
X007893Y000727D03*
X006893Y000727D03*
X005893Y000727D03*
X004893Y000727D03*
X003893Y000727D03*
X002893Y000727D03*
X002893Y001727D03*
X003893Y001727D03*
X004893Y001727D03*
X005893Y001727D03*
X006893Y001727D03*
X007893Y001727D03*
X008893Y001727D03*
X009893Y001727D03*
X010893Y001727D03*
X011893Y001727D03*
X012893Y001727D03*
X014893Y001727D03*
X014893Y000727D03*
D24*
X008501Y004641D03*
X008245Y004641D03*
X007989Y004641D03*
X007733Y004641D03*
X007477Y004641D03*
X007221Y004641D03*
X006966Y004641D03*
X006710Y004641D03*
X006454Y004641D03*
X006198Y004641D03*
X005942Y004641D03*
X005686Y004641D03*
X005686Y006939D03*
X005942Y006939D03*
X006198Y006939D03*
X006454Y006939D03*
X006710Y006939D03*
X006966Y006939D03*
X007221Y006939D03*
X007477Y006939D03*
X007733Y006939D03*
X007989Y006939D03*
X008245Y006939D03*
X008501Y006939D03*
D25*
X013844Y012620D03*
X014844Y012620D03*
X014844Y013620D03*
X014844Y014620D03*
X013844Y014620D03*
X013844Y013620D03*
D26*
X005064Y012820D03*
X005064Y011460D03*
M02*
