G75*
G70*
%OFA0B0*%
%FSLAX24Y24*%
%IPPOS*%
%LPD*%
%AMOC8*
5,1,8,0,0,1.08239X$1,22.5*
%
%ADD10C,0.0000*%
%ADD11C,0.0827*%
%ADD12R,0.0631X0.0434*%
%ADD13C,0.0520*%
%ADD14R,0.0552X0.0631*%
%ADD15R,0.0434X0.0631*%
%ADD16OC8,0.0520*%
%ADD17C,0.0690*%
%ADD18C,0.0740*%
%ADD19C,0.0700*%
%ADD20R,0.0355X0.0512*%
D10*
X002374Y000180D02*
X002374Y015534D01*
X015384Y015534D01*
X015384Y000180D01*
X002374Y000180D01*
X004983Y014515D02*
X004985Y014554D01*
X004991Y014593D01*
X005001Y014631D01*
X005014Y014668D01*
X005031Y014703D01*
X005051Y014737D01*
X005075Y014768D01*
X005102Y014797D01*
X005131Y014823D01*
X005163Y014846D01*
X005197Y014866D01*
X005233Y014882D01*
X005270Y014894D01*
X005309Y014903D01*
X005348Y014908D01*
X005387Y014909D01*
X005426Y014906D01*
X005465Y014899D01*
X005502Y014888D01*
X005539Y014874D01*
X005574Y014856D01*
X005607Y014835D01*
X005638Y014810D01*
X005666Y014783D01*
X005691Y014753D01*
X005713Y014720D01*
X005732Y014686D01*
X005747Y014650D01*
X005759Y014612D01*
X005767Y014574D01*
X005771Y014535D01*
X005771Y014495D01*
X005767Y014456D01*
X005759Y014418D01*
X005747Y014380D01*
X005732Y014344D01*
X005713Y014310D01*
X005691Y014277D01*
X005666Y014247D01*
X005638Y014220D01*
X005607Y014195D01*
X005574Y014174D01*
X005539Y014156D01*
X005502Y014142D01*
X005465Y014131D01*
X005426Y014124D01*
X005387Y014121D01*
X005348Y014122D01*
X005309Y014127D01*
X005270Y014136D01*
X005233Y014148D01*
X005197Y014164D01*
X005163Y014184D01*
X005131Y014207D01*
X005102Y014233D01*
X005075Y014262D01*
X005051Y014293D01*
X005031Y014327D01*
X005014Y014362D01*
X005001Y014399D01*
X004991Y014437D01*
X004985Y014476D01*
X004983Y014515D01*
D11*
X005377Y014515D03*
D12*
X007223Y012630D03*
X007964Y012630D03*
X007954Y011770D03*
X007213Y011770D03*
X007444Y008630D03*
X006703Y008630D03*
X010433Y008480D03*
X011174Y008480D03*
X011214Y009540D03*
X010473Y009540D03*
X012203Y006960D03*
X012944Y006960D03*
X014003Y006940D03*
X014744Y006940D03*
X003734Y005130D03*
X002993Y005130D03*
X003003Y003860D03*
X003744Y003860D03*
X003734Y002800D03*
X002993Y002800D03*
D13*
X010454Y004190D03*
X010454Y006090D03*
D14*
X010159Y006970D03*
X010828Y006970D03*
X012299Y008430D03*
X012968Y008430D03*
X014009Y005840D03*
X014678Y005840D03*
X014678Y004670D03*
X014009Y004670D03*
X014029Y003360D03*
X014698Y003360D03*
X010708Y003300D03*
X010039Y003300D03*
X006498Y003490D03*
X005829Y003490D03*
X005718Y008660D03*
X005049Y008660D03*
X008509Y008660D03*
X009178Y008660D03*
X009189Y012080D03*
X009858Y012080D03*
D15*
X011114Y005440D03*
X011114Y004700D03*
D16*
X010904Y011040D03*
X011904Y012040D03*
X012904Y011040D03*
X012904Y013880D03*
X011904Y014880D03*
X010904Y013880D03*
D17*
X010893Y001727D03*
X010893Y000727D03*
X009893Y000727D03*
X008893Y000727D03*
X007893Y000727D03*
X006893Y000727D03*
X005893Y000727D03*
X004893Y000727D03*
X003893Y000727D03*
X002893Y000727D03*
X002893Y001727D03*
X003893Y001727D03*
X004893Y001727D03*
X005893Y001727D03*
X006893Y001727D03*
X007893Y001727D03*
X008893Y001727D03*
X009893Y001727D03*
X011893Y001727D03*
X011893Y000727D03*
X012893Y000727D03*
X013893Y000727D03*
X014893Y000727D03*
X014893Y001727D03*
X013893Y001727D03*
X012893Y001727D03*
D18*
X013844Y012620D03*
X014844Y012620D03*
X014844Y013620D03*
X014844Y014620D03*
X013844Y014620D03*
X013844Y013620D03*
D19*
X005064Y012820D03*
X005064Y011460D03*
D20*
X014099Y008720D03*
X014729Y008720D03*
M02*
