G75*
G70*
%OFA0B0*%
%FSLAX24Y24*%
%IPPOS*%
%LPD*%
%AMOC8*
5,1,8,0,0,1.08239X$1,22.5*
%
%ADD10C,0.0827*%
%ADD11R,0.0631X0.0434*%
%ADD12C,0.0520*%
%ADD13R,0.0552X0.0631*%
%ADD14R,0.0631X0.0552*%
%ADD15R,0.0276X0.0906*%
%ADD16OC8,0.0520*%
%ADD17R,0.0434X0.0591*%
%ADD18R,0.0512X0.0512*%
%ADD19R,0.0290X0.0440*%
%ADD20R,0.0631X0.0827*%
%ADD21R,0.1536X0.0827*%
%ADD22C,0.0690*%
%ADD23R,0.0160X0.0430*%
%ADD24C,0.0740*%
%ADD25C,0.0700*%
D10*
X005377Y014515D03*
D11*
X007213Y014120D03*
X007954Y014120D03*
X007674Y010160D03*
X006933Y010160D03*
X005794Y010170D03*
X005053Y010170D03*
X005093Y009230D03*
X005834Y009230D03*
X005824Y008100D03*
X005083Y008100D03*
X006733Y008100D03*
X007474Y008100D03*
X008513Y008140D03*
X009254Y008140D03*
X014043Y008140D03*
X014784Y008140D03*
D12*
X010454Y006090D03*
X010454Y004190D03*
D13*
X009018Y003300D03*
X008349Y003300D03*
X007388Y003290D03*
X006719Y003290D03*
X005638Y003260D03*
X004969Y003260D03*
X006899Y009250D03*
X007568Y009250D03*
X009209Y013140D03*
X009878Y013140D03*
X007968Y014970D03*
X007299Y014970D03*
D14*
X005094Y006045D03*
X005094Y005375D03*
D15*
X006844Y011176D03*
X007344Y011176D03*
X007844Y011176D03*
X008344Y011176D03*
X008344Y013224D03*
X007844Y013224D03*
X007344Y013224D03*
X006844Y013224D03*
D16*
X010904Y013880D03*
X011904Y014880D03*
X012904Y013880D03*
X011904Y012040D03*
X012904Y011040D03*
X010904Y011040D03*
D17*
X012340Y008673D03*
X013088Y008673D03*
X012714Y007807D03*
D18*
X004017Y005700D03*
X003190Y005700D03*
X003180Y004570D03*
X004007Y004570D03*
X004017Y003330D03*
X003190Y003330D03*
D19*
X010640Y008774D03*
X011388Y008774D03*
X011014Y007986D03*
D20*
X012518Y003700D03*
X013424Y003700D03*
X014329Y003700D03*
D21*
X013424Y006180D03*
D22*
X002893Y000727D03*
X003893Y000727D03*
X004893Y000727D03*
X005893Y000727D03*
X006893Y000727D03*
X007893Y000727D03*
X008893Y000727D03*
X009893Y000727D03*
X010893Y000727D03*
X011893Y000727D03*
X012893Y000727D03*
X013893Y000727D03*
X014893Y000727D03*
X014893Y001727D03*
X013893Y001727D03*
X012893Y001727D03*
X011893Y001727D03*
X010893Y001727D03*
X009893Y001727D03*
X008893Y001727D03*
X007893Y001727D03*
X006893Y001727D03*
X005893Y001727D03*
X004893Y001727D03*
X003893Y001727D03*
X002893Y001727D03*
D23*
X005686Y004641D03*
X005942Y004641D03*
X006198Y004641D03*
X006454Y004641D03*
X006710Y004641D03*
X006966Y004641D03*
X007221Y004641D03*
X007477Y004641D03*
X007733Y004641D03*
X007989Y004641D03*
X008245Y004641D03*
X008501Y004641D03*
X008501Y006939D03*
X008245Y006939D03*
X007989Y006939D03*
X007733Y006939D03*
X007477Y006939D03*
X007221Y006939D03*
X006966Y006939D03*
X006710Y006939D03*
X006454Y006939D03*
X006198Y006939D03*
X005942Y006939D03*
X005686Y006939D03*
D24*
X013844Y012620D03*
X014844Y012620D03*
X014844Y013620D03*
X014844Y014620D03*
X013844Y014620D03*
X013844Y013620D03*
D25*
X005064Y012820D03*
X005064Y011460D03*
M02*
