G75*
G70*
%OFA0B0*%
%FSLAX24Y24*%
%IPPOS*%
%LPD*%
%AMOC8*
5,1,8,0,0,1.08239X$1,22.5*
%
%ADD10C,0.0000*%
%ADD11R,0.0050X0.5050*%
%ADD12R,0.0050X0.1900*%
%ADD13R,0.0050X0.0200*%
%ADD14R,0.0050X0.0650*%
%ADD15R,0.0050X0.0100*%
%ADD16R,0.0050X0.0150*%
%ADD17R,0.0050X0.0700*%
%ADD18R,0.0050X0.0500*%
%ADD19R,0.0050X0.0850*%
%ADD20R,0.0050X0.0600*%
%ADD21R,0.0050X0.0050*%
%ADD22R,0.0050X0.0550*%
%ADD23R,0.0050X0.0450*%
%ADD24R,0.0050X0.0750*%
%ADD25R,0.0050X0.0400*%
%ADD26R,0.0050X0.0350*%
%ADD27R,0.0050X0.0300*%
%ADD28R,0.0050X0.0250*%
%ADD29R,0.0050X0.3600*%
%ADD30R,0.0050X0.3550*%
%ADD31R,0.0050X0.3500*%
%ADD32R,0.0050X0.4950*%
%ADD33C,0.0060*%
D10*
X002374Y000180D02*
X002374Y015534D01*
X015384Y015534D01*
X015384Y000180D01*
X002374Y000180D01*
X004983Y014515D02*
X004985Y014554D01*
X004991Y014593D01*
X005001Y014631D01*
X005014Y014668D01*
X005031Y014703D01*
X005051Y014737D01*
X005075Y014768D01*
X005102Y014797D01*
X005131Y014823D01*
X005163Y014846D01*
X005197Y014866D01*
X005233Y014882D01*
X005270Y014894D01*
X005309Y014903D01*
X005348Y014908D01*
X005387Y014909D01*
X005426Y014906D01*
X005465Y014899D01*
X005502Y014888D01*
X005539Y014874D01*
X005574Y014856D01*
X005607Y014835D01*
X005638Y014810D01*
X005666Y014783D01*
X005691Y014753D01*
X005713Y014720D01*
X005732Y014686D01*
X005747Y014650D01*
X005759Y014612D01*
X005767Y014574D01*
X005771Y014535D01*
X005771Y014495D01*
X005767Y014456D01*
X005759Y014418D01*
X005747Y014380D01*
X005732Y014344D01*
X005713Y014310D01*
X005691Y014277D01*
X005666Y014247D01*
X005638Y014220D01*
X005607Y014195D01*
X005574Y014174D01*
X005539Y014156D01*
X005502Y014142D01*
X005465Y014131D01*
X005426Y014124D01*
X005387Y014121D01*
X005348Y014122D01*
X005309Y014127D01*
X005270Y014136D01*
X005233Y014148D01*
X005197Y014164D01*
X005163Y014184D01*
X005131Y014207D01*
X005102Y014233D01*
X005075Y014262D01*
X005051Y014293D01*
X005031Y014327D01*
X005014Y014362D01*
X005001Y014399D01*
X004991Y014437D01*
X004985Y014476D01*
X004983Y014515D01*
D11*
X004354Y012770D03*
X004304Y012770D03*
D12*
X004254Y014345D03*
D13*
X003854Y013995D03*
X003804Y013945D03*
X003604Y014195D03*
X003254Y014195D03*
X002954Y014045D03*
X002904Y014095D03*
X003254Y014595D03*
X003604Y014595D03*
X003054Y014895D03*
X003004Y014845D03*
X002954Y014795D03*
X003854Y015195D03*
X003604Y013345D03*
X003604Y012895D03*
X003604Y012245D03*
X003604Y011795D03*
X003604Y011145D03*
X003604Y010695D03*
X003154Y011045D03*
X004254Y013095D03*
D14*
X004254Y012620D03*
X004204Y012620D03*
X004154Y012620D03*
X004004Y014420D03*
D15*
X003504Y014495D03*
X003354Y014495D03*
X003404Y014345D03*
X003454Y014345D03*
X003504Y014095D03*
X003354Y014095D03*
X003204Y013845D03*
X003204Y013545D03*
X003254Y013545D03*
X003304Y013545D03*
X003354Y013545D03*
X003404Y013545D03*
X003454Y013495D03*
X003154Y013545D03*
X003104Y013545D03*
X003054Y013545D03*
X003004Y013495D03*
X003604Y013845D03*
X004054Y013295D03*
X004154Y013295D03*
X004204Y013295D03*
X004004Y013145D03*
X003454Y012745D03*
X003404Y012695D03*
X003354Y012695D03*
X003304Y012695D03*
X003254Y012695D03*
X003204Y012695D03*
X003154Y012695D03*
X003104Y012695D03*
X003054Y012695D03*
X003104Y012445D03*
X003154Y012445D03*
X003204Y012445D03*
X003254Y012445D03*
X003304Y012445D03*
X003354Y012445D03*
X003404Y012445D03*
X003454Y012395D03*
X003054Y012145D03*
X003004Y012395D03*
X003054Y011895D03*
X003004Y011645D03*
X002954Y011645D03*
X003054Y011595D03*
X003104Y011595D03*
X003154Y011595D03*
X003204Y011595D03*
X003254Y011595D03*
X003304Y011595D03*
X003454Y011645D03*
X003354Y011895D03*
X003354Y011345D03*
X003404Y011345D03*
X003454Y011295D03*
X003304Y011345D03*
X003254Y011345D03*
X003204Y011345D03*
X003154Y011345D03*
X003104Y011345D03*
X003054Y011345D03*
X003004Y011295D03*
X003304Y011095D03*
X003304Y010745D03*
X003254Y010745D03*
X003204Y010745D03*
X003154Y010745D03*
X003004Y010545D03*
X003054Y010495D03*
X003104Y010495D03*
X003154Y010495D03*
X003204Y010495D03*
X003254Y010495D03*
X003304Y010495D03*
X003354Y010495D03*
X003404Y010495D03*
X003454Y010545D03*
X004104Y010845D03*
X004204Y010845D03*
X004254Y010845D03*
X004254Y010995D03*
X004204Y011095D03*
X004054Y011095D03*
X004054Y010945D03*
X004054Y011895D03*
X004204Y011895D03*
X004204Y012045D03*
X004154Y012045D03*
X004104Y012045D03*
X004054Y012045D03*
X004004Y012195D03*
X004204Y012195D03*
X004254Y012195D03*
X003454Y014745D03*
X003404Y014745D03*
X003554Y014995D03*
X003604Y014995D03*
X003704Y014945D03*
X003254Y014995D03*
D16*
X003304Y015020D03*
X003354Y015020D03*
X003404Y015020D03*
X003454Y015020D03*
X003504Y015020D03*
X003654Y014970D03*
X003754Y014920D03*
X003804Y014870D03*
X003854Y014820D03*
X003504Y014720D03*
X003354Y014720D03*
X003204Y014970D03*
X003154Y014970D03*
X003104Y014920D03*
X003354Y014320D03*
X003504Y014320D03*
X003754Y013920D03*
X003704Y013870D03*
X003654Y013870D03*
X003554Y013820D03*
X003504Y013820D03*
X003454Y013820D03*
X003404Y013820D03*
X003354Y013820D03*
X003304Y013820D03*
X003254Y013820D03*
X003154Y013870D03*
X003104Y013920D03*
X003054Y013920D03*
X003004Y013970D03*
X002954Y013470D03*
X002904Y013420D03*
X002854Y013370D03*
X002954Y013120D03*
X003004Y013120D03*
X002854Y012870D03*
X002904Y012820D03*
X002954Y012770D03*
X003004Y012720D03*
X002954Y012370D03*
X002904Y012320D03*
X002854Y012270D03*
X002954Y012020D03*
X002854Y011770D03*
X002904Y011720D03*
X002954Y011270D03*
X002904Y011220D03*
X002854Y011170D03*
X003104Y011070D03*
X003354Y011070D03*
X003554Y011220D03*
X003504Y011270D03*
X003404Y011620D03*
X003504Y011670D03*
X003554Y011720D03*
X003454Y012020D03*
X003354Y012120D03*
X003554Y012320D03*
X003504Y012370D03*
X003504Y012770D03*
X003554Y012820D03*
X003504Y013120D03*
X003454Y013120D03*
X003404Y013120D03*
X003354Y013120D03*
X003304Y013120D03*
X003554Y013420D03*
X003504Y013470D03*
X004004Y012970D03*
X004154Y013070D03*
X004204Y013070D03*
X004104Y013120D03*
X004004Y012020D03*
X004254Y012020D03*
X004104Y011020D03*
X004004Y010970D03*
X003554Y010620D03*
X003504Y010570D03*
X003354Y010770D03*
X003104Y010770D03*
X002954Y010570D03*
X002904Y010620D03*
X002854Y010670D03*
D17*
X004004Y011495D03*
X004254Y011495D03*
X004154Y013745D03*
X004204Y014945D03*
D18*
X004004Y013645D03*
X003654Y013095D03*
X003654Y011995D03*
X004104Y010495D03*
X004154Y010495D03*
X004204Y010495D03*
X004254Y010495D03*
D19*
X004154Y011520D03*
X004204Y013820D03*
D20*
X004104Y013695D03*
X004104Y012595D03*
X004054Y011495D03*
X004204Y011495D03*
D21*
X004204Y010970D03*
X004154Y010970D03*
X003804Y010270D03*
X003754Y010270D03*
X003704Y010270D03*
X003654Y010270D03*
X003604Y010270D03*
X003554Y010270D03*
X003504Y010270D03*
X003454Y010270D03*
X003404Y010270D03*
X003354Y010270D03*
X003304Y010270D03*
X003254Y010270D03*
X003204Y010270D03*
X003154Y010270D03*
X003104Y010270D03*
X003054Y010270D03*
X003004Y010270D03*
X002954Y010270D03*
X002904Y010270D03*
X002854Y010270D03*
X002804Y010270D03*
X002754Y010270D03*
X002704Y010270D03*
X002654Y010270D03*
X003004Y011120D03*
X002904Y012020D03*
X003504Y012020D03*
X004054Y012170D03*
X004104Y012170D03*
X004154Y012220D03*
X004054Y012970D03*
X004054Y013120D03*
X002904Y013120D03*
X002904Y015270D03*
X002954Y015270D03*
X003004Y015270D03*
X003054Y015270D03*
X003104Y015270D03*
X003154Y015270D03*
X003204Y015270D03*
X003254Y015270D03*
X003304Y015270D03*
X003354Y015270D03*
X003404Y015270D03*
X003454Y015270D03*
X003504Y015270D03*
X003554Y015270D03*
X003604Y015270D03*
X003654Y015270D03*
X003704Y015270D03*
X003754Y015270D03*
X003804Y015270D03*
X002854Y015270D03*
X002804Y015270D03*
X002754Y015270D03*
X002704Y015270D03*
X002654Y015270D03*
D22*
X002804Y014420D03*
X002804Y013120D03*
X002804Y012020D03*
X002804Y010920D03*
X003654Y010920D03*
X004004Y010520D03*
X004054Y010520D03*
X004054Y012570D03*
X004004Y012570D03*
X004054Y013670D03*
X004154Y015020D03*
D23*
X004104Y015070D03*
X004054Y014420D03*
D24*
X002854Y014420D03*
X004104Y011570D03*
D25*
X003054Y010945D03*
X004054Y015095D03*
D26*
X004004Y015120D03*
X002754Y013120D03*
X002754Y012020D03*
X002754Y010920D03*
X003404Y010920D03*
D27*
X003104Y012195D03*
X003304Y014195D03*
X003554Y014195D03*
X003954Y014145D03*
X003554Y014595D03*
X003304Y014595D03*
X002754Y014395D03*
X003954Y015145D03*
D28*
X003904Y015170D03*
X003904Y014770D03*
X003954Y014670D03*
X003904Y014070D03*
X003704Y013120D03*
X003254Y013120D03*
X003204Y013120D03*
X003154Y013120D03*
X003104Y013120D03*
X003054Y012370D03*
X003154Y012120D03*
X003204Y012020D03*
X003254Y011920D03*
X003284Y011850D03*
X003354Y011670D03*
X003404Y012020D03*
X003704Y012020D03*
X003004Y012020D03*
X003004Y010920D03*
X003454Y010920D03*
X003704Y010920D03*
X002904Y014720D03*
D29*
X003954Y012045D03*
D30*
X003904Y012020D03*
D31*
X003854Y011995D03*
D32*
X002604Y012770D03*
D33*
X005565Y009370D02*
X005652Y009327D01*
X005739Y009240D01*
X005609Y009240D01*
X005565Y009197D01*
X005565Y009153D01*
X005609Y009110D01*
X005696Y009110D01*
X005739Y009153D01*
X005739Y009240D01*
X005860Y009153D02*
X005903Y009110D01*
X005990Y009110D01*
X006034Y009153D01*
X006034Y009327D01*
X005990Y009370D01*
X005903Y009370D01*
X005860Y009327D01*
X007011Y008950D02*
X007184Y008950D01*
X007098Y008950D02*
X007098Y009210D01*
X007184Y009123D01*
X007305Y009123D02*
X007305Y009167D01*
X007349Y009210D01*
X007436Y009210D01*
X007479Y009167D01*
X007600Y009167D02*
X007600Y009080D01*
X007643Y009037D01*
X007774Y009037D01*
X007774Y008950D02*
X007774Y009210D01*
X007643Y009210D01*
X007600Y009167D01*
X007687Y009037D02*
X007600Y008950D01*
X007479Y008950D02*
X007305Y009123D01*
X007305Y008950D02*
X007479Y008950D01*
X008701Y009413D02*
X008744Y009370D01*
X008831Y009370D01*
X008874Y009413D01*
X008788Y009500D02*
X008744Y009500D01*
X008701Y009457D01*
X008701Y009413D01*
X008744Y009500D02*
X008701Y009543D01*
X008701Y009587D01*
X008744Y009630D01*
X008831Y009630D01*
X008874Y009587D01*
X009082Y009630D02*
X009082Y009370D01*
X009169Y009370D02*
X008995Y009370D01*
X009169Y009543D02*
X009082Y009630D01*
X009290Y009587D02*
X009333Y009630D01*
X009420Y009630D01*
X009464Y009587D01*
X009464Y009413D01*
X009420Y009370D01*
X009333Y009370D01*
X009290Y009413D01*
X010771Y009037D02*
X010771Y008993D01*
X010814Y008950D01*
X010771Y008907D01*
X010771Y008863D01*
X010814Y008820D01*
X010901Y008820D01*
X010944Y008863D01*
X010858Y008950D02*
X010814Y008950D01*
X010771Y009037D02*
X010814Y009080D01*
X010901Y009080D01*
X010944Y009037D01*
X011065Y009037D02*
X011109Y009080D01*
X011196Y009080D01*
X011239Y009037D01*
X011360Y009037D02*
X011360Y008950D01*
X011403Y008907D01*
X011534Y008907D01*
X011534Y008820D02*
X011534Y009080D01*
X011403Y009080D01*
X011360Y009037D01*
X011447Y008907D02*
X011360Y008820D01*
X011239Y008820D02*
X011065Y008993D01*
X011065Y009037D01*
X011065Y008820D02*
X011239Y008820D01*
X011555Y009880D02*
X011729Y009880D01*
X011642Y009880D02*
X011642Y010140D01*
X011729Y010053D01*
X011850Y010097D02*
X011850Y010010D01*
X011893Y009967D01*
X012024Y009967D01*
X012024Y009880D02*
X012024Y010140D01*
X011893Y010140D01*
X011850Y010097D01*
X011937Y009967D02*
X011850Y009880D01*
X012531Y009120D02*
X012618Y009077D01*
X012704Y008990D01*
X012574Y008990D01*
X012531Y008947D01*
X012531Y008903D01*
X012574Y008860D01*
X012661Y008860D01*
X012704Y008903D01*
X012704Y008990D01*
X012825Y008860D02*
X012999Y008860D01*
X012912Y008860D02*
X012912Y009120D01*
X012999Y009033D01*
X013120Y009077D02*
X013163Y009120D01*
X013250Y009120D01*
X013294Y009077D01*
X013294Y008903D01*
X013250Y008860D01*
X013163Y008860D01*
X013120Y008903D01*
X014478Y009222D02*
X014652Y009222D01*
X014522Y009352D01*
X014522Y009092D01*
X014773Y009135D02*
X014773Y009309D01*
X014816Y009352D01*
X014946Y009352D01*
X014946Y009092D01*
X014816Y009092D01*
X014773Y009135D01*
X014772Y007500D02*
X014772Y007240D01*
X014859Y007240D02*
X014685Y007240D01*
X014564Y007283D02*
X014391Y007457D01*
X014391Y007283D01*
X014434Y007240D01*
X014521Y007240D01*
X014564Y007283D01*
X014564Y007457D01*
X014521Y007500D01*
X014434Y007500D01*
X014391Y007457D01*
X014772Y007500D02*
X014859Y007413D01*
X014980Y007457D02*
X014980Y007370D01*
X015023Y007327D01*
X015154Y007327D01*
X015154Y007240D02*
X015154Y007500D01*
X015023Y007500D01*
X014980Y007457D01*
X015067Y007327D02*
X014980Y007240D01*
X014214Y006507D02*
X014214Y006333D01*
X014170Y006290D01*
X014083Y006290D01*
X014040Y006333D01*
X013919Y006290D02*
X013745Y006290D01*
X013832Y006290D02*
X013832Y006550D01*
X013919Y006463D01*
X014040Y006507D02*
X014083Y006550D01*
X014170Y006550D01*
X014214Y006507D01*
X013624Y006550D02*
X013624Y006420D01*
X013538Y006463D01*
X013494Y006463D01*
X013451Y006420D01*
X013451Y006333D01*
X013494Y006290D01*
X013581Y006290D01*
X013624Y006333D01*
X013624Y006550D02*
X013451Y006550D01*
X013324Y007270D02*
X013324Y007530D01*
X013193Y007530D01*
X013150Y007487D01*
X013150Y007400D01*
X013193Y007357D01*
X013324Y007357D01*
X013237Y007357D02*
X013150Y007270D01*
X013029Y007313D02*
X012986Y007270D01*
X012899Y007270D01*
X012855Y007313D01*
X012855Y007357D01*
X012899Y007400D01*
X013029Y007400D01*
X013029Y007313D01*
X013029Y007400D02*
X012942Y007487D01*
X012855Y007530D01*
X011344Y006120D02*
X011213Y006120D01*
X011170Y006077D01*
X011170Y005990D01*
X011213Y005947D01*
X011344Y005947D01*
X011344Y005860D02*
X011344Y006120D01*
X011257Y005947D02*
X011170Y005860D01*
X011049Y005860D02*
X010875Y006033D01*
X010875Y006077D01*
X010919Y006120D01*
X011006Y006120D01*
X011049Y006077D01*
X011049Y005860D02*
X010875Y005860D01*
X010836Y007410D02*
X010879Y007453D01*
X010836Y007410D02*
X010749Y007410D01*
X010705Y007453D01*
X010705Y007497D01*
X010749Y007540D01*
X010792Y007540D01*
X010749Y007540D02*
X010705Y007583D01*
X010705Y007627D01*
X010749Y007670D01*
X010836Y007670D01*
X010879Y007627D01*
X011000Y007627D02*
X011043Y007670D01*
X011130Y007670D01*
X011174Y007627D01*
X011174Y007453D01*
X011130Y007410D01*
X011043Y007410D01*
X011000Y007453D01*
X013524Y005380D02*
X013524Y005120D01*
X013481Y005250D02*
X013654Y005250D01*
X013524Y005380D01*
X013862Y005380D02*
X013862Y005120D01*
X013949Y005120D02*
X013775Y005120D01*
X013949Y005293D02*
X013862Y005380D01*
X014070Y005337D02*
X014113Y005380D01*
X014200Y005380D01*
X014244Y005337D01*
X014244Y005163D01*
X014200Y005120D01*
X014113Y005120D01*
X014070Y005163D01*
X014294Y004120D02*
X014381Y004120D01*
X014424Y004077D01*
X014294Y004120D02*
X014251Y004077D01*
X014251Y004033D01*
X014424Y003860D01*
X014251Y003860D01*
X014545Y003860D02*
X014719Y003860D01*
X014632Y003860D02*
X014632Y004120D01*
X014719Y004033D01*
X014840Y004077D02*
X014883Y004120D01*
X014970Y004120D01*
X015014Y004077D01*
X015014Y003903D01*
X014970Y003860D01*
X014883Y003860D01*
X014840Y003903D01*
X011164Y003947D02*
X011164Y003773D01*
X011120Y003730D01*
X011033Y003730D01*
X010990Y003773D01*
X010869Y003730D02*
X010695Y003903D01*
X010695Y003947D01*
X010739Y003990D01*
X010826Y003990D01*
X010869Y003947D01*
X010990Y003947D02*
X011033Y003990D01*
X011120Y003990D01*
X011164Y003947D01*
X010869Y003730D02*
X010695Y003730D01*
X007084Y003913D02*
X007040Y003870D01*
X006953Y003870D01*
X006910Y003913D01*
X006789Y003913D02*
X006746Y003870D01*
X006659Y003870D01*
X006615Y003913D01*
X006615Y003957D01*
X006659Y004000D01*
X006746Y004000D01*
X006789Y004043D01*
X006789Y004087D01*
X006746Y004130D01*
X006659Y004130D01*
X006615Y004087D01*
X006615Y004043D01*
X006659Y004000D01*
X006746Y004000D02*
X006789Y003957D01*
X006789Y003913D01*
X006910Y004087D02*
X006953Y004130D01*
X007040Y004130D01*
X007084Y004087D01*
X007084Y003913D01*
X004124Y003440D02*
X004124Y003180D01*
X004124Y003267D02*
X003993Y003267D01*
X003950Y003310D01*
X003950Y003397D01*
X003993Y003440D01*
X004124Y003440D01*
X004037Y003267D02*
X003950Y003180D01*
X003829Y003180D02*
X003655Y003353D01*
X003655Y003397D01*
X003699Y003440D01*
X003786Y003440D01*
X003829Y003397D01*
X003534Y003397D02*
X003491Y003440D01*
X003404Y003440D01*
X003361Y003397D01*
X003361Y003353D01*
X003534Y003180D01*
X003361Y003180D01*
X003655Y003180D02*
X003829Y003180D01*
X003819Y004320D02*
X003645Y004320D01*
X003524Y004320D02*
X003524Y004363D01*
X003351Y004537D01*
X003351Y004580D01*
X003524Y004580D01*
X003645Y004537D02*
X003689Y004580D01*
X003776Y004580D01*
X003819Y004537D01*
X003940Y004537D02*
X003940Y004450D01*
X003983Y004407D01*
X004114Y004407D01*
X004114Y004320D02*
X004114Y004580D01*
X003983Y004580D01*
X003940Y004537D01*
X004027Y004407D02*
X003940Y004320D01*
X003819Y004320D02*
X003645Y004493D01*
X003645Y004537D01*
X003665Y005500D02*
X003839Y005500D01*
X003665Y005673D01*
X003665Y005717D01*
X003709Y005760D01*
X003796Y005760D01*
X003839Y005717D01*
X003960Y005717D02*
X003960Y005630D01*
X004003Y005587D01*
X004134Y005587D01*
X004134Y005500D02*
X004134Y005760D01*
X004003Y005760D01*
X003960Y005717D01*
X004047Y005587D02*
X003960Y005500D01*
X003544Y005543D02*
X003501Y005500D01*
X003414Y005500D01*
X003371Y005543D01*
X003371Y005587D01*
X003414Y005630D01*
X003544Y005630D01*
X003544Y005543D01*
X003544Y005630D02*
X003458Y005717D01*
X003371Y005760D01*
X008219Y012060D02*
X008175Y012103D01*
X008175Y012277D01*
X008219Y012320D01*
X008306Y012320D01*
X008349Y012277D01*
X008349Y012233D01*
X008306Y012190D01*
X008175Y012190D01*
X008219Y012060D02*
X008306Y012060D01*
X008349Y012103D01*
X008470Y012060D02*
X008557Y012147D01*
X008513Y012147D02*
X008644Y012147D01*
X008644Y012060D02*
X008644Y012320D01*
X008513Y012320D01*
X008470Y012277D01*
X008470Y012190D01*
X008513Y012147D01*
X008374Y012960D02*
X008374Y013220D01*
X008243Y013220D01*
X008200Y013177D01*
X008200Y013090D01*
X008243Y013047D01*
X008374Y013047D01*
X008287Y013047D02*
X008200Y012960D01*
X008079Y013003D02*
X008079Y013047D01*
X008036Y013090D01*
X007949Y013090D01*
X007905Y013047D01*
X007905Y013003D01*
X007949Y012960D01*
X008036Y012960D01*
X008079Y013003D01*
X008036Y013090D02*
X008079Y013133D01*
X008079Y013177D01*
X008036Y013220D01*
X007949Y013220D01*
X007905Y013177D01*
X007905Y013133D01*
X007949Y013090D01*
X009431Y012727D02*
X009431Y012553D01*
X009474Y012510D01*
X009561Y012510D01*
X009604Y012553D01*
X009431Y012727D01*
X009474Y012770D01*
X009561Y012770D01*
X009604Y012727D01*
X009604Y012553D01*
X009725Y012510D02*
X009899Y012510D01*
X009812Y012510D02*
X009812Y012770D01*
X009899Y012683D01*
X010020Y012727D02*
X010063Y012770D01*
X010150Y012770D01*
X010194Y012727D01*
X010194Y012553D01*
X010150Y012510D01*
X010063Y012510D01*
X010020Y012553D01*
M02*
