G75*
G70*
%OFA0B0*%
%FSLAX24Y24*%
%IPPOS*%
%LPD*%
%AMOC8*
5,1,8,0,0,1.08239X$1,22.5*
%
%ADD10C,0.0000*%
%ADD11R,0.0390X0.0120*%
%ADD12C,0.0700*%
%ADD13C,0.0100*%
D10*
X000100Y000100D02*
X000100Y012100D01*
X007100Y012100D01*
X007100Y000100D01*
X000100Y000100D01*
D11*
X002451Y005193D03*
X002451Y005448D03*
X002451Y005704D03*
X002451Y005960D03*
X002451Y006216D03*
X002451Y006472D03*
X002451Y006728D03*
X002451Y006984D03*
X002451Y007240D03*
X002451Y007496D03*
X002451Y007752D03*
X002451Y008007D03*
X004749Y008007D03*
X004749Y007752D03*
X004749Y007496D03*
X004749Y007240D03*
X004749Y006984D03*
X004749Y006728D03*
X004749Y006472D03*
X004749Y006216D03*
X004749Y005960D03*
X004749Y005704D03*
X004749Y005448D03*
X004749Y005193D03*
D12*
X006600Y005600D03*
X006600Y004600D03*
X006600Y003600D03*
X006600Y002600D03*
X006600Y001600D03*
X006600Y000600D03*
X006600Y006600D03*
X006600Y007600D03*
X006600Y008600D03*
X006600Y009600D03*
X006600Y010600D03*
X006600Y011600D03*
X000600Y011600D03*
X000600Y010600D03*
X000600Y009600D03*
X000600Y008600D03*
X000600Y007600D03*
X000600Y006600D03*
X000600Y005600D03*
X000600Y004600D03*
X000600Y003600D03*
X000600Y002600D03*
X000600Y001600D03*
X000600Y000600D03*
D13*
X002000Y002000D01*
X002000Y004740D01*
X002450Y005190D01*
X002451Y005193D01*
X002450Y005440D02*
X002451Y005448D01*
X002450Y005440D02*
X001780Y005440D01*
X001780Y002780D01*
X000600Y001600D01*
X000600Y002600D02*
X001560Y003560D01*
X001560Y005700D01*
X002450Y005700D01*
X002451Y005704D01*
X002450Y005960D02*
X002451Y005960D01*
X002450Y005960D02*
X001370Y005960D01*
X001370Y005830D01*
X001340Y005800D01*
X001340Y004340D01*
X000600Y003600D01*
X000600Y004600D02*
X000600Y004850D01*
X001120Y005370D01*
X001120Y006030D01*
X001270Y006180D01*
X001270Y006210D01*
X002450Y006210D01*
X002451Y006216D01*
X002450Y006470D02*
X002451Y006472D01*
X002450Y006470D02*
X001120Y006470D01*
X001120Y006380D01*
X000600Y005860D01*
X000600Y005600D01*
X000600Y006600D02*
X000600Y006720D01*
X002450Y006720D01*
X002451Y006728D01*
X002451Y006984D02*
X002450Y006990D01*
X000950Y006990D01*
X000950Y007110D01*
X000600Y007460D01*
X000600Y007600D01*
X001120Y007560D02*
X001120Y008080D01*
X000600Y008600D01*
X001340Y008860D02*
X000600Y009600D01*
X001560Y009640D02*
X000600Y010600D01*
X000600Y011600D02*
X001780Y010420D01*
X001780Y008680D01*
X002450Y008010D01*
X002451Y008007D01*
X002450Y007760D02*
X002451Y007752D01*
X002450Y007760D02*
X001560Y007760D01*
X001560Y009640D01*
X001340Y008860D02*
X001340Y007660D01*
X001360Y007640D01*
X001360Y007500D01*
X002450Y007500D01*
X002451Y007496D01*
X002450Y007240D02*
X002451Y007240D01*
X002450Y007240D02*
X001140Y007240D01*
X001140Y007540D01*
X001120Y007560D01*
X004749Y007496D02*
X004750Y007500D01*
X005860Y007500D01*
X005860Y008860D01*
X006600Y009600D01*
X005640Y009640D02*
X006600Y010600D01*
X006600Y011600D02*
X005420Y010420D01*
X005420Y008680D01*
X004750Y008010D01*
X004749Y008007D01*
X004750Y007760D02*
X004749Y007752D01*
X004750Y007760D02*
X005640Y007760D01*
X005640Y009640D01*
X006600Y008600D02*
X006080Y008080D01*
X006080Y007400D01*
X006060Y007380D01*
X006060Y007240D01*
X004750Y007240D01*
X004749Y007240D01*
X004750Y006990D02*
X004749Y006984D01*
X004750Y006990D02*
X006250Y006990D01*
X006250Y007110D01*
X006600Y007460D01*
X006600Y007600D01*
X006600Y006720D02*
X006600Y006600D01*
X006600Y006720D02*
X004750Y006720D01*
X004749Y006728D01*
X004749Y006472D02*
X004750Y006470D01*
X006080Y006470D01*
X006080Y006380D01*
X006600Y005860D01*
X006600Y005600D01*
X006080Y006030D02*
X006080Y005120D01*
X006600Y004600D01*
X005860Y004340D02*
X006600Y003600D01*
X005640Y003560D02*
X006600Y002600D01*
X006600Y001600D02*
X005420Y002780D01*
X005420Y005440D01*
X004750Y005440D01*
X004749Y005448D01*
X004750Y005700D02*
X004749Y005704D01*
X004750Y005700D02*
X005640Y005700D01*
X005640Y003560D01*
X005860Y004340D02*
X005860Y005800D01*
X005830Y005830D01*
X005830Y005960D01*
X004750Y005960D01*
X004749Y005960D01*
X004750Y006210D02*
X004749Y006216D01*
X004750Y006210D02*
X005930Y006210D01*
X005930Y006180D01*
X006080Y006030D01*
X005200Y004740D02*
X005200Y002000D01*
X006600Y000600D01*
X005200Y004740D02*
X004750Y005190D01*
X004749Y005193D01*
M02*
