G75*
G70*
%OFA0B0*%
%FSLAX24Y24*%
%IPPOS*%
%LPD*%
%AMOC8*
5,1,8,0,0,1.08239X$1,22.5*
%
%ADD10C,0.0000*%
%ADD11C,0.0160*%
%ADD12C,0.0050*%
%ADD13C,0.0279*%
%ADD14C,0.0080*%
D10*
X000100Y000100D02*
X000100Y012100D01*
X007100Y012100D01*
X007100Y000100D01*
X000100Y000100D01*
D11*
X001335Y011620D02*
X001337Y011638D01*
X001342Y011655D01*
X001351Y011670D01*
X001363Y011683D01*
X001377Y011694D01*
X001394Y011701D01*
X001411Y011705D01*
X001429Y011705D01*
X001446Y011701D01*
X001462Y011694D01*
X001477Y011683D01*
X001489Y011670D01*
X001498Y011655D01*
X001503Y011638D01*
X001505Y011620D01*
X001503Y011602D01*
X001498Y011585D01*
X001489Y011570D01*
X001477Y011557D01*
X001463Y011546D01*
X001446Y011539D01*
X001429Y011535D01*
X001411Y011535D01*
X001394Y011539D01*
X001378Y011546D01*
X001363Y011557D01*
X001351Y011570D01*
X001342Y011585D01*
X001337Y011602D01*
X001335Y011620D01*
D12*
X001740Y000995D02*
X001695Y000950D01*
X001740Y000995D02*
X001830Y000995D01*
X001875Y000950D01*
X001875Y000905D01*
X001695Y000725D01*
X001875Y000725D01*
X001936Y000515D02*
X002026Y000515D01*
X002071Y000470D01*
X002071Y000425D01*
X001891Y000425D01*
X001891Y000380D02*
X001891Y000470D01*
X001936Y000515D01*
X001891Y000380D02*
X001936Y000335D01*
X002026Y000335D01*
X002185Y000515D02*
X002275Y000335D01*
X002365Y000515D01*
X002374Y000725D02*
X002374Y000995D01*
X002284Y000995D02*
X002464Y000995D01*
X002579Y000950D02*
X002579Y000905D01*
X002624Y000860D01*
X002714Y000860D01*
X002759Y000815D01*
X002759Y000770D01*
X002714Y000725D01*
X002624Y000725D01*
X002579Y000770D01*
X002579Y000950D02*
X002624Y000995D01*
X002714Y000995D01*
X002759Y000950D01*
X002874Y000950D02*
X002874Y000905D01*
X002919Y000860D01*
X003009Y000860D01*
X003054Y000815D01*
X003054Y000770D01*
X003009Y000725D01*
X002919Y000725D01*
X002874Y000770D01*
X002874Y000950D02*
X002919Y000995D01*
X003009Y000995D01*
X003054Y000950D01*
X003168Y000950D02*
X003168Y000770D01*
X003213Y000725D01*
X003303Y000725D01*
X003348Y000770D01*
X003348Y000950D01*
X003303Y000995D01*
X003213Y000995D01*
X003168Y000950D01*
X003463Y000995D02*
X003463Y000725D01*
X003463Y000815D02*
X003598Y000815D01*
X003643Y000860D01*
X003643Y000950D01*
X003598Y000995D01*
X003463Y000995D01*
X003352Y000605D02*
X003262Y000605D01*
X003216Y000560D01*
X003114Y000380D02*
X003114Y000335D01*
X003069Y000335D01*
X003069Y000380D01*
X003114Y000380D01*
X003216Y000335D02*
X003397Y000515D01*
X003397Y000560D01*
X003352Y000605D01*
X003397Y000335D02*
X003216Y000335D01*
X002955Y000380D02*
X002910Y000335D01*
X002820Y000335D01*
X002774Y000380D01*
X002955Y000560D01*
X002955Y000380D01*
X002955Y000560D02*
X002910Y000605D01*
X002820Y000605D01*
X002774Y000560D01*
X002774Y000380D01*
X002170Y000860D02*
X001990Y000860D01*
X002125Y000995D01*
X002125Y000725D01*
X001780Y000515D02*
X001735Y000515D01*
X001645Y000425D01*
X001645Y000335D02*
X001645Y000515D01*
X003806Y000515D02*
X003806Y000425D01*
X003896Y000335D01*
X004002Y000380D02*
X004047Y000335D01*
X004182Y000335D01*
X004297Y000335D02*
X004387Y000425D01*
X004387Y000515D01*
X004297Y000605D01*
X004232Y000725D02*
X004232Y000905D01*
X004142Y000995D01*
X004052Y000905D01*
X004052Y000725D01*
X004047Y000515D02*
X004002Y000470D01*
X004002Y000380D01*
X004047Y000515D02*
X004182Y000515D01*
X004392Y000725D02*
X004347Y000770D01*
X004347Y000860D01*
X004392Y000905D01*
X004527Y000905D01*
X004527Y000995D02*
X004527Y000725D01*
X004392Y000725D01*
X004232Y000860D02*
X004052Y000860D01*
X003896Y000605D02*
X003806Y000515D01*
X004642Y000770D02*
X004687Y000815D01*
X004822Y000815D01*
X004822Y000860D02*
X004822Y000725D01*
X004687Y000725D01*
X004642Y000770D01*
X004687Y000905D02*
X004777Y000905D01*
X004822Y000860D01*
X004936Y000905D02*
X005071Y000905D01*
X005116Y000860D01*
X005116Y000770D01*
X005071Y000725D01*
X004936Y000725D01*
X004936Y000635D02*
X004936Y000905D01*
X004923Y000605D02*
X004833Y000605D01*
X004788Y000560D01*
X004923Y000605D02*
X004968Y000560D01*
X004968Y000515D01*
X004788Y000335D01*
X004968Y000335D01*
X005083Y000380D02*
X005263Y000560D01*
X005263Y000380D01*
X005218Y000335D01*
X005128Y000335D01*
X005083Y000380D01*
X005083Y000560D01*
X005128Y000605D01*
X005218Y000605D01*
X005263Y000560D01*
X005321Y000725D02*
X005276Y000770D01*
X005276Y000950D01*
X005231Y000905D02*
X005321Y000905D01*
X005427Y000860D02*
X005427Y000770D01*
X005472Y000725D01*
X005562Y000725D01*
X005607Y000815D02*
X005427Y000815D01*
X005427Y000860D02*
X005472Y000905D01*
X005562Y000905D01*
X005607Y000860D01*
X005607Y000815D01*
X005722Y000815D02*
X005812Y000905D01*
X005857Y000905D01*
X005722Y000905D02*
X005722Y000725D01*
X005717Y000605D02*
X005672Y000560D01*
X005717Y000605D02*
X005807Y000605D01*
X005852Y000560D01*
X005852Y000515D01*
X005807Y000470D01*
X005852Y000425D01*
X005852Y000380D01*
X005807Y000335D01*
X005717Y000335D01*
X005672Y000380D01*
X005557Y000335D02*
X005377Y000335D01*
X005467Y000335D02*
X005467Y000605D01*
X005377Y000515D01*
X005762Y000470D02*
X005807Y000470D01*
D13*
X003057Y007788D03*
D14*
X002760Y008102D02*
X004440Y008102D01*
X004440Y005098D01*
X002760Y005098D01*
X002760Y008102D01*
M02*
