%
M48
M72
T01C0.0400
%
T01
X600Y600
X600Y1600
X600Y2600
X600Y3600
X600Y4600
X600Y5600
X600Y6600
X600Y7600
X600Y8600
X600Y9600
X600Y10600
X600Y11600
X6600Y11600
X6600Y10600
X6600Y9600
X6600Y8600
X6600Y7600
X6600Y6600
X6600Y5600
X6600Y4600
X6600Y3600
X6600Y2600
X6600Y1600
X6600Y600
M30
