G75*
G70*
%OFA0B0*%
%FSLAX24Y24*%
%IPPOS*%
%LPD*%
%AMOC8*
5,1,8,0,0,1.08239X$1,22.5*
%
%ADD10C,0.0000*%
%ADD11R,0.0050X0.5050*%
%ADD12R,0.0050X0.1900*%
%ADD13R,0.0050X0.0200*%
%ADD14R,0.0050X0.0650*%
%ADD15R,0.0050X0.0100*%
%ADD16R,0.0050X0.0150*%
%ADD17R,0.0050X0.0700*%
%ADD18R,0.0050X0.0500*%
%ADD19R,0.0050X0.0850*%
%ADD20R,0.0050X0.0600*%
%ADD21R,0.0050X0.0050*%
%ADD22R,0.0050X0.0550*%
%ADD23R,0.0050X0.0450*%
%ADD24R,0.0050X0.0750*%
%ADD25R,0.0050X0.0400*%
%ADD26R,0.0050X0.0350*%
%ADD27R,0.0050X0.0300*%
%ADD28R,0.0050X0.0250*%
%ADD29R,0.0050X0.3600*%
%ADD30R,0.0050X0.3550*%
%ADD31R,0.0050X0.3500*%
%ADD32R,0.0050X0.4950*%
D10*
X000750Y004151D02*
X000750Y023836D01*
X020435Y023836D01*
X020435Y004151D01*
X000750Y004151D01*
D11*
X002730Y020981D03*
X002780Y020981D03*
D12*
X002680Y022556D03*
D13*
X002280Y022206D03*
X002230Y022156D03*
X002030Y022406D03*
X002030Y022806D03*
X001680Y022806D03*
X001380Y023006D03*
X001430Y023056D03*
X001480Y023106D03*
X001680Y022406D03*
X001380Y022256D03*
X001330Y022306D03*
X002030Y021556D03*
X002030Y021106D03*
X002030Y020456D03*
X002030Y020006D03*
X002030Y019356D03*
X002030Y018906D03*
X001580Y019256D03*
X002680Y021306D03*
X002280Y023406D03*
D14*
X002430Y022631D03*
X002580Y020831D03*
X002630Y020831D03*
X002680Y020831D03*
D15*
X002680Y020406D03*
X002630Y020406D03*
X002630Y020256D03*
X002580Y020256D03*
X002530Y020256D03*
X002480Y020256D03*
X002480Y020106D03*
X002630Y020106D03*
X002430Y020406D03*
X001880Y020606D03*
X001830Y020656D03*
X001780Y020656D03*
X001730Y020656D03*
X001680Y020656D03*
X001630Y020656D03*
X001580Y020656D03*
X001530Y020656D03*
X001430Y020606D03*
X001480Y020356D03*
X001480Y020106D03*
X001430Y019856D03*
X001380Y019856D03*
X001480Y019806D03*
X001530Y019806D03*
X001580Y019806D03*
X001630Y019806D03*
X001680Y019806D03*
X001730Y019806D03*
X001880Y019856D03*
X001780Y020106D03*
X001780Y019556D03*
X001730Y019556D03*
X001680Y019556D03*
X001630Y019556D03*
X001580Y019556D03*
X001530Y019556D03*
X001480Y019556D03*
X001430Y019506D03*
X001730Y019306D03*
X001880Y019506D03*
X001830Y019556D03*
X001730Y018956D03*
X001680Y018956D03*
X001630Y018956D03*
X001580Y018956D03*
X001430Y018756D03*
X001480Y018706D03*
X001530Y018706D03*
X001580Y018706D03*
X001630Y018706D03*
X001680Y018706D03*
X001730Y018706D03*
X001780Y018706D03*
X001830Y018706D03*
X001880Y018756D03*
X002530Y019056D03*
X002630Y019056D03*
X002680Y019056D03*
X002680Y019206D03*
X002630Y019306D03*
X002480Y019306D03*
X002480Y019156D03*
X001830Y020906D03*
X001780Y020906D03*
X001730Y020906D03*
X001680Y020906D03*
X001630Y020906D03*
X001580Y020906D03*
X001530Y020906D03*
X001480Y020906D03*
X001880Y020956D03*
X002430Y021356D03*
X002480Y021506D03*
X002580Y021506D03*
X002630Y021506D03*
X002030Y022056D03*
X001930Y022306D03*
X001780Y022306D03*
X001830Y022556D03*
X001880Y022556D03*
X001930Y022706D03*
X001780Y022706D03*
X001830Y022956D03*
X001880Y022956D03*
X001980Y023206D03*
X002030Y023206D03*
X002130Y023156D03*
X001680Y023206D03*
X001630Y022056D03*
X001630Y021756D03*
X001580Y021756D03*
X001530Y021756D03*
X001480Y021756D03*
X001430Y021706D03*
X001680Y021756D03*
X001730Y021756D03*
X001780Y021756D03*
X001830Y021756D03*
X001880Y021706D03*
D16*
X001930Y021681D03*
X001980Y021631D03*
X001980Y022031D03*
X001930Y022031D03*
X001880Y022031D03*
X001830Y022031D03*
X001780Y022031D03*
X001730Y022031D03*
X001680Y022031D03*
X001580Y022081D03*
X001530Y022131D03*
X001480Y022131D03*
X001430Y022181D03*
X001780Y022531D03*
X001930Y022531D03*
X002180Y022131D03*
X002130Y022081D03*
X002080Y022081D03*
X001930Y021331D03*
X001880Y021331D03*
X001830Y021331D03*
X001780Y021331D03*
X001730Y021331D03*
X001980Y021031D03*
X001930Y020981D03*
X001930Y020581D03*
X001980Y020531D03*
X001780Y020331D03*
X001880Y020231D03*
X001980Y019931D03*
X001930Y019881D03*
X001830Y019831D03*
X001930Y019481D03*
X001980Y019431D03*
X001780Y019281D03*
X001530Y019281D03*
X001380Y019481D03*
X001330Y019431D03*
X001280Y019381D03*
X001530Y018981D03*
X001780Y018981D03*
X001980Y018831D03*
X001930Y018781D03*
X002430Y019181D03*
X002530Y019231D03*
X002430Y020231D03*
X002680Y020231D03*
X002430Y021181D03*
X002530Y021331D03*
X002580Y021281D03*
X002630Y021281D03*
X001430Y021331D03*
X001380Y021331D03*
X001280Y021581D03*
X001330Y021631D03*
X001380Y021681D03*
X001280Y021081D03*
X001330Y021031D03*
X001380Y020981D03*
X001430Y020931D03*
X001380Y020581D03*
X001330Y020531D03*
X001280Y020481D03*
X001380Y020231D03*
X001280Y019981D03*
X001330Y019931D03*
X001280Y018881D03*
X001330Y018831D03*
X001380Y018781D03*
X001780Y022931D03*
X001930Y022931D03*
X002080Y023181D03*
X002180Y023131D03*
X002230Y023081D03*
X002280Y023031D03*
X001930Y023231D03*
X001880Y023231D03*
X001830Y023231D03*
X001780Y023231D03*
X001730Y023231D03*
X001630Y023181D03*
X001580Y023181D03*
X001530Y023131D03*
D17*
X002630Y023156D03*
X002580Y021956D03*
X002680Y019706D03*
X002430Y019706D03*
D18*
X002080Y020206D03*
X002080Y021306D03*
X002430Y021856D03*
X002530Y018706D03*
X002580Y018706D03*
X002630Y018706D03*
X002680Y018706D03*
D19*
X002580Y019731D03*
X002630Y022031D03*
D20*
X002530Y021906D03*
X002530Y020806D03*
X002480Y019706D03*
X002630Y019706D03*
D21*
X002530Y020381D03*
X002480Y020381D03*
X002580Y020431D03*
X001930Y020231D03*
X001330Y020231D03*
X001430Y019331D03*
X001430Y018481D03*
X001380Y018481D03*
X001330Y018481D03*
X001280Y018481D03*
X001230Y018481D03*
X001180Y018481D03*
X001130Y018481D03*
X001080Y018481D03*
X001480Y018481D03*
X001530Y018481D03*
X001580Y018481D03*
X001630Y018481D03*
X001680Y018481D03*
X001730Y018481D03*
X001780Y018481D03*
X001830Y018481D03*
X001880Y018481D03*
X001930Y018481D03*
X001980Y018481D03*
X002030Y018481D03*
X002080Y018481D03*
X002130Y018481D03*
X002180Y018481D03*
X002230Y018481D03*
X002580Y019181D03*
X002630Y019181D03*
X002480Y021181D03*
X002480Y021331D03*
X001330Y021331D03*
X001330Y023481D03*
X001280Y023481D03*
X001230Y023481D03*
X001180Y023481D03*
X001130Y023481D03*
X001080Y023481D03*
X001380Y023481D03*
X001430Y023481D03*
X001480Y023481D03*
X001530Y023481D03*
X001580Y023481D03*
X001630Y023481D03*
X001680Y023481D03*
X001730Y023481D03*
X001780Y023481D03*
X001830Y023481D03*
X001880Y023481D03*
X001930Y023481D03*
X001980Y023481D03*
X002030Y023481D03*
X002080Y023481D03*
X002130Y023481D03*
X002180Y023481D03*
X002230Y023481D03*
D22*
X002580Y023231D03*
X002480Y021881D03*
X002480Y020781D03*
X002430Y020781D03*
X001230Y021331D03*
X001230Y020231D03*
X001230Y019131D03*
X002080Y019131D03*
X002430Y018731D03*
X002480Y018731D03*
X001230Y022631D03*
D23*
X002480Y022631D03*
X002530Y023281D03*
D24*
X001280Y022631D03*
X002530Y019781D03*
D25*
X001480Y019156D03*
X002480Y023306D03*
D26*
X002430Y023331D03*
X001180Y021331D03*
X001180Y020231D03*
X001180Y019131D03*
X001830Y019131D03*
D27*
X001530Y020406D03*
X001730Y022406D03*
X001980Y022406D03*
X001980Y022806D03*
X001730Y022806D03*
X001180Y022606D03*
X002380Y022356D03*
X002380Y023356D03*
D28*
X002330Y023381D03*
X002330Y022981D03*
X002380Y022881D03*
X002330Y022281D03*
X002130Y021331D03*
X001680Y021331D03*
X001630Y021331D03*
X001580Y021331D03*
X001530Y021331D03*
X001480Y020581D03*
X001580Y020331D03*
X001630Y020231D03*
X001680Y020131D03*
X001730Y020031D03*
X001780Y019881D03*
X001830Y020231D03*
X002130Y020231D03*
X001430Y020231D03*
X001430Y019131D03*
X001880Y019131D03*
X002130Y019131D03*
X001330Y022931D03*
D29*
X002380Y020256D03*
D30*
X002330Y020231D03*
D31*
X002280Y020206D03*
D32*
X001030Y020981D03*
M02*
