%
M48
M72
T01C0.0130
T02C0.0320
T03C0.0394
T04C0.0400
T05C0.0787
%
T01
X2754Y3460
X3914Y2400
X4454Y3340
X4424Y4100
X4534Y4950
X5594Y6190
X5414Y6730
X4824Y6960
X5514Y7380
X5834Y7700
X6194Y7470
X6924Y7700
X7334Y7330
X7974Y8180
X8424Y7740
X8024Y9200
X8374Y9940
X8984Y9160
X9314Y9160
X9984Y8880
X10314Y8880
X11234Y10070
X11844Y8670
X11834Y7870
X13444Y7010
X13544Y8050
X13484Y8680
X14114Y9160
X14734Y7740
X14944Y6540
X14674Y6340
X14604Y5170
X13554Y4630
X14034Y2860
X11684Y3420
X11594Y3830
X11854Y5320
X11614Y5850
X9074Y3800
X8534Y3970
X8244Y5040
X7654Y5040
X7414Y5270
X7324Y5790
X6974Y5680
X6624Y5640
X6244Y5580
X6464Y5160
X6794Y5040
X7194Y4250
X6404Y3990
X5904Y3990
X6204Y2670
X5624Y2380
X7654Y2790
X7474Y6280
X6204Y8490
X6174Y8820
X4594Y8660
X4324Y7700
X3924Y6720
X2754Y5530
X6184Y11650
X6504Y11970
X7854Y12170
X8464Y12590
X8984Y12600
X10314Y12080
X6524Y13560
T02
X10904Y13880
X11904Y14880
X12904Y13880
X11904Y12040
X12904Y11040
X10904Y11040
X10454Y6090
X10454Y4190
T03
X5064Y11460
X5064Y12820
X13844Y12620
X14844Y12620
X14844Y13620
X14844Y14620
X13844Y14620
X13844Y13620
T04
X2893Y727
X3893Y727
X4893Y727
X5893Y727
X6893Y727
X7893Y727
X8893Y727
X9893Y727
X10893Y727
X11893Y727
X12893Y727
X13893Y727
X14893Y727
X14893Y1727
X13893Y1727
X12893Y1727
X11893Y1727
X10893Y1727
X9893Y1727
X8893Y1727
X7893Y1727
X6893Y1727
X5893Y1727
X4893Y1727
X3893Y1727
X2893Y1727
T05
X5377Y14515
M30
