G75*
G70*
%OFA0B0*%
%FSLAX24Y24*%
%IPPOS*%
%LPD*%
%AMOC8*
5,1,8,0,0,1.08239X$1,22.5*
%
%ADD10R,0.0591X0.0394*%
%ADD11C,0.0480*%
%ADD12R,0.0512X0.0591*%
%ADD13R,0.0394X0.0591*%
%ADD14OC8,0.0480*%
%ADD15C,0.0650*%
%ADD16C,0.0700*%
%ADD17C,0.0660*%
%ADD18R,0.0315X0.0472*%
%ADD19C,0.0060*%
%ADD20C,0.0250*%
%ADD21C,0.0150*%
%ADD22C,0.0160*%
D10*
X002993Y002800D03*
X003734Y002800D03*
X003744Y003860D03*
X003003Y003860D03*
X002993Y005130D03*
X003734Y005130D03*
X006703Y008630D03*
X007444Y008630D03*
X010433Y008480D03*
X011174Y008480D03*
X011214Y009540D03*
X010473Y009540D03*
X012203Y006960D03*
X012944Y006960D03*
X014003Y006940D03*
X014744Y006940D03*
X007954Y011770D03*
X007213Y011770D03*
X007223Y012630D03*
X007964Y012630D03*
D11*
X010454Y006090D03*
X010454Y004190D03*
D12*
X010708Y003300D03*
X010039Y003300D03*
X006498Y003490D03*
X005829Y003490D03*
X010159Y006970D03*
X010828Y006970D03*
X012299Y008430D03*
X012968Y008430D03*
X014009Y005840D03*
X014678Y005840D03*
X014678Y004670D03*
X014009Y004670D03*
X014029Y003360D03*
X014698Y003360D03*
X009178Y008660D03*
X008509Y008660D03*
X005718Y008660D03*
X005049Y008660D03*
X009189Y012080D03*
X009858Y012080D03*
D13*
X011114Y005440D03*
X011114Y004700D03*
D14*
X010904Y011040D03*
X011904Y012040D03*
X012904Y011040D03*
X012904Y013880D03*
X011904Y014880D03*
X010904Y013880D03*
D15*
X010893Y001727D03*
X010893Y000727D03*
X009893Y000727D03*
X008893Y000727D03*
X007893Y000727D03*
X006893Y000727D03*
X005893Y000727D03*
X004893Y000727D03*
X003893Y000727D03*
X002893Y000727D03*
X002893Y001727D03*
X003893Y001727D03*
X004893Y001727D03*
X005893Y001727D03*
X006893Y001727D03*
X007893Y001727D03*
X008893Y001727D03*
X009893Y001727D03*
X011893Y001727D03*
X011893Y000727D03*
X012893Y000727D03*
X013893Y000727D03*
X014893Y000727D03*
X014893Y001727D03*
X013893Y001727D03*
X012893Y001727D03*
D16*
X013844Y012620D03*
X014844Y012620D03*
X014844Y013620D03*
X014844Y014620D03*
X013844Y014620D03*
X013844Y013620D03*
D17*
X005064Y012820D03*
X005064Y011460D03*
D18*
X014099Y008720D03*
X014729Y008720D03*
D19*
X014114Y008740D02*
X014099Y008720D01*
X014094Y008720D01*
X013544Y008170D01*
X013544Y008050D01*
X013254Y008450D02*
X012974Y008450D01*
X012974Y008430D01*
X012968Y008430D01*
X013254Y008450D02*
X013484Y008680D01*
X014114Y008740D02*
X014114Y009160D01*
X012203Y006960D02*
X012194Y006960D01*
X012194Y005730D01*
X011854Y005320D01*
X011624Y005330D02*
X011114Y004820D01*
X011114Y004700D01*
X011094Y004830D01*
X010454Y004190D01*
X010454Y004080D01*
X010174Y003800D01*
X010174Y003430D01*
X010044Y003300D01*
X010039Y003300D01*
X009074Y003800D02*
X008964Y003690D01*
X008964Y002030D01*
X008894Y001960D01*
X008894Y001730D01*
X008893Y001727D01*
X008314Y001560D02*
X007964Y001210D01*
X007964Y001030D01*
X007894Y000960D01*
X007894Y000730D01*
X007893Y000727D01*
X007314Y001230D02*
X006894Y000810D01*
X006894Y000730D01*
X006893Y000727D01*
X007314Y001230D02*
X007314Y002070D01*
X007424Y002180D01*
X007424Y005260D01*
X007414Y005270D01*
X007654Y005040D02*
X007654Y002790D01*
X008304Y002220D02*
X008314Y002210D01*
X008314Y001560D01*
X007893Y001727D02*
X007884Y001730D01*
X007884Y005550D01*
X006694Y006740D01*
X006694Y008610D01*
X006703Y008630D01*
X006344Y008630D01*
X006204Y008490D01*
X006174Y008820D02*
X005744Y008390D01*
X005718Y008660D01*
X005724Y008690D01*
X005584Y008830D01*
X005584Y010810D01*
X005064Y011330D01*
X005064Y011460D01*
X006184Y011650D02*
X006504Y011970D01*
X007213Y011770D02*
X007214Y011770D01*
X007214Y012630D01*
X007223Y012630D01*
X007194Y012650D01*
X007044Y012800D01*
X007044Y013040D01*
X006524Y013560D01*
X007964Y012630D02*
X008464Y012630D01*
X008464Y012590D01*
X008984Y012600D02*
X009054Y012530D01*
X009054Y012210D01*
X009184Y012080D01*
X009189Y012080D01*
X009858Y012080D02*
X010314Y012080D01*
X010044Y010050D02*
X011214Y010050D01*
X011234Y010070D01*
X011214Y010050D02*
X011214Y009540D01*
X011214Y009540D01*
X010473Y009540D02*
X010464Y009540D01*
X010464Y009360D01*
X009984Y008880D01*
X010314Y008880D02*
X010314Y008590D01*
X010424Y008480D01*
X010433Y008480D01*
X009754Y008240D02*
X009754Y009390D01*
X009214Y009390D01*
X008984Y009160D01*
X009314Y009160D02*
X009314Y008790D01*
X009184Y008660D01*
X009178Y008660D01*
X009754Y008240D02*
X009584Y008070D01*
X009584Y005020D01*
X008534Y003970D01*
X008304Y004980D02*
X008304Y002220D01*
X005904Y003990D02*
X005834Y003920D01*
X005834Y003490D01*
X005829Y003490D01*
X004804Y003820D02*
X004804Y002560D01*
X004314Y002070D01*
X004314Y001230D01*
X003894Y000810D01*
X003894Y000730D01*
X003893Y000727D01*
X003474Y001420D02*
X002894Y000840D01*
X002894Y000730D01*
X002893Y000727D01*
X003474Y001420D02*
X003474Y002150D01*
X004024Y002150D01*
X004684Y002810D01*
X004684Y004020D01*
X006244Y005580D01*
X006234Y005910D02*
X007324Y005910D01*
X007324Y005790D01*
X006974Y005680D02*
X006974Y005670D01*
X006464Y005160D01*
X006624Y005640D02*
X004804Y003820D01*
X004424Y004100D02*
X004004Y003860D01*
X003744Y003860D01*
X004424Y003310D02*
X002994Y003310D01*
X002994Y002800D01*
X002993Y002800D01*
X003734Y002800D02*
X003744Y002800D01*
X003914Y002630D01*
X003914Y002400D01*
X004424Y003310D02*
X004454Y003340D01*
X005624Y002380D02*
X005314Y002070D01*
X005314Y001230D01*
X004894Y000810D01*
X004894Y000730D01*
X004893Y000727D01*
X008304Y004980D02*
X008244Y005040D01*
X007474Y006280D02*
X007974Y006780D01*
X007974Y008180D01*
X007454Y008630D02*
X007444Y008630D01*
X007454Y008630D02*
X008024Y009200D01*
X006964Y007700D02*
X006924Y007700D01*
X006964Y007700D02*
X007334Y007330D01*
X006194Y007470D02*
X006064Y007600D01*
X006064Y007950D01*
X005724Y008290D01*
X005724Y008660D01*
X005718Y008660D01*
X005049Y008660D02*
X004594Y008660D01*
X005834Y007700D02*
X005514Y007380D01*
X005414Y006730D02*
X006234Y005910D01*
X005594Y006190D02*
X004824Y006960D01*
X003924Y006720D02*
X003914Y005300D01*
X003744Y005130D01*
X003734Y005130D01*
X002993Y005130D02*
X002984Y005130D01*
X002984Y005300D01*
X002754Y005530D01*
X007954Y011770D02*
X007954Y011770D01*
X007854Y011870D01*
X007854Y012170D01*
X010044Y010050D02*
X009754Y009760D01*
X009754Y009390D01*
X011174Y008480D02*
X011184Y008480D01*
X014434Y011730D01*
X014434Y012400D01*
X014404Y012430D01*
X014404Y012810D01*
X014574Y012980D01*
X014574Y013200D01*
X014844Y013470D01*
X014844Y013620D01*
X010164Y006970D02*
X010159Y006970D01*
X010164Y006970D02*
X010204Y006930D01*
X010204Y006400D01*
X010434Y006170D01*
X010434Y006110D01*
X010454Y006090D01*
X010474Y006090D01*
X011114Y005450D01*
X011114Y005440D01*
X011624Y005330D02*
X011624Y005840D01*
X011614Y005850D01*
X011684Y003420D02*
X011684Y002320D01*
X011804Y002200D01*
X011804Y001810D01*
X011884Y001730D01*
X011893Y001727D01*
X014944Y006540D02*
X014754Y006730D01*
X014754Y006940D01*
X014744Y006940D01*
D20*
X014944Y006540D03*
X014674Y006340D03*
X013444Y007010D03*
X013544Y008050D03*
X013484Y008680D03*
X014114Y009160D03*
X014734Y007740D03*
X014604Y005170D03*
X013554Y004630D03*
X014034Y002860D03*
X011684Y003420D03*
X011594Y003830D03*
X011854Y005320D03*
X011614Y005850D03*
X011834Y007870D03*
X011844Y008670D03*
X011234Y010070D03*
X010314Y008880D03*
X009984Y008880D03*
X009314Y009160D03*
X008984Y009160D03*
X008024Y009200D03*
X008374Y009940D03*
X007974Y008180D03*
X008424Y007740D03*
X007334Y007330D03*
X006924Y007700D03*
X006194Y007470D03*
X005834Y007700D03*
X005514Y007380D03*
X005414Y006730D03*
X005594Y006190D03*
X006244Y005580D03*
X006624Y005640D03*
X006974Y005680D03*
X007324Y005790D03*
X007474Y006280D03*
X007414Y005270D03*
X007654Y005040D03*
X008244Y005040D03*
X007194Y004250D03*
X006404Y003990D03*
X005904Y003990D03*
X006464Y005160D03*
X006794Y005040D03*
X008534Y003970D03*
X009074Y003800D03*
X007654Y002790D03*
X006204Y002670D03*
X005624Y002380D03*
X004454Y003340D03*
X004424Y004100D03*
X004534Y004950D03*
X003924Y006720D03*
X004824Y006960D03*
X004324Y007700D03*
X004594Y008660D03*
X006174Y008820D03*
X006204Y008490D03*
X006184Y011650D03*
X006504Y011970D03*
X007854Y012170D03*
X008464Y012590D03*
X008984Y012600D03*
X010314Y012080D03*
X006524Y013560D03*
X002754Y005530D03*
X002754Y003460D03*
X003914Y002400D03*
D21*
X002824Y003530D02*
X002754Y003460D01*
X002824Y003530D02*
X002824Y003690D01*
X002994Y003860D01*
X003003Y003860D01*
X004534Y004950D02*
X004394Y007630D01*
X004324Y007700D01*
X006794Y005040D02*
X007194Y004640D01*
X007194Y004250D01*
X007124Y004220D01*
X007124Y002830D01*
X006364Y002830D01*
X006204Y002670D01*
X006494Y003490D02*
X006498Y003490D01*
X006494Y003490D02*
X006404Y003580D01*
X006404Y003990D01*
X008424Y007740D02*
X008424Y008580D01*
X008504Y008660D01*
X008509Y008660D01*
X008474Y008730D01*
X008474Y009840D01*
X008374Y009940D01*
X010828Y006970D02*
X010834Y006970D01*
X011784Y007920D01*
X011834Y007870D01*
X011784Y007920D02*
X012124Y008260D01*
X012124Y008410D01*
X012299Y008430D01*
X012294Y008430D01*
X012294Y008480D01*
X012034Y008480D01*
X011844Y008670D01*
X012944Y006960D02*
X012954Y006960D01*
X012954Y006940D01*
X013444Y006940D01*
X013444Y007010D01*
X013444Y006940D02*
X014003Y006940D01*
X013974Y006870D01*
X013974Y005910D01*
X014009Y005840D01*
X014014Y005840D01*
X014014Y004670D01*
X014009Y004670D01*
X013944Y004630D01*
X013554Y004630D01*
X014678Y004670D02*
X014704Y004600D01*
X014704Y003360D01*
X014698Y003360D01*
X014034Y003360D02*
X014034Y002860D01*
X014034Y003360D02*
X014029Y003360D01*
X014678Y004670D02*
X014684Y004670D01*
X014684Y005170D01*
X014604Y005170D01*
X014684Y005170D02*
X014684Y005840D01*
X014678Y005840D01*
X014674Y005910D01*
X014674Y006340D01*
X014734Y007740D02*
X014734Y008720D01*
X014729Y008720D01*
X011594Y003830D02*
X010874Y003110D01*
X010708Y003300D01*
X010714Y003300D01*
X010804Y003210D01*
X010804Y002260D01*
X010884Y002180D01*
X010884Y001730D01*
X010893Y001727D01*
D22*
X002603Y000360D02*
X002554Y000360D01*
X002554Y000409D01*
X002603Y000360D01*
X003183Y000360D02*
X003287Y000464D01*
X003358Y000635D01*
X003358Y000820D01*
X003287Y000991D01*
X003286Y000992D01*
X003628Y001335D01*
X003630Y001333D01*
X003801Y001262D01*
X003986Y001262D01*
X004144Y001328D01*
X004144Y001300D01*
X004021Y001178D01*
X003986Y001192D01*
X003801Y001192D01*
X003630Y001122D01*
X003499Y000991D01*
X003428Y000820D01*
X003428Y000635D01*
X003499Y000464D01*
X003603Y000360D01*
X003183Y000360D01*
X003301Y000497D02*
X003485Y000497D01*
X003428Y000656D02*
X003358Y000656D01*
X003358Y000814D02*
X003428Y000814D01*
X003491Y000973D02*
X003295Y000973D01*
X003425Y001131D02*
X003653Y001131D01*
X003583Y001290D02*
X003735Y001290D01*
X004051Y001290D02*
X004133Y001290D01*
X004296Y000973D02*
X004491Y000973D01*
X004499Y000991D02*
X004428Y000820D01*
X004428Y000635D01*
X004499Y000464D01*
X004603Y000360D01*
X004183Y000360D01*
X004287Y000464D01*
X004358Y000635D01*
X004358Y000820D01*
X004295Y000971D01*
X004484Y001160D01*
X004484Y001300D01*
X004484Y001501D01*
X004499Y001464D01*
X004630Y001333D01*
X004801Y001262D01*
X004986Y001262D01*
X005144Y001328D01*
X005144Y001300D01*
X005021Y001178D01*
X004986Y001192D01*
X004801Y001192D01*
X004630Y001122D01*
X004499Y000991D01*
X004455Y001131D02*
X004653Y001131D01*
X004735Y001290D02*
X004484Y001290D01*
X004484Y001448D02*
X004515Y001448D01*
X005051Y001290D02*
X005133Y001290D01*
X005296Y000973D02*
X005491Y000973D01*
X005499Y000991D02*
X005428Y000820D01*
X005428Y000635D01*
X005499Y000464D01*
X005603Y000360D01*
X005183Y000360D01*
X005287Y000464D01*
X005358Y000635D01*
X005358Y000820D01*
X005295Y000971D01*
X005484Y001160D01*
X005484Y001501D01*
X005499Y001464D01*
X005630Y001333D01*
X005801Y001262D01*
X005986Y001262D01*
X006157Y001333D01*
X006287Y001464D01*
X006358Y001635D01*
X006358Y001820D01*
X006287Y001991D01*
X006157Y002122D01*
X005986Y002192D01*
X005811Y002192D01*
X005848Y002230D01*
X005889Y002327D01*
X005889Y002433D01*
X005848Y002530D01*
X005774Y002605D01*
X005676Y002645D01*
X005571Y002645D01*
X005473Y002605D01*
X005399Y002530D01*
X005359Y002433D01*
X005359Y002355D01*
X005243Y002240D01*
X005144Y002140D01*
X005144Y002127D01*
X004986Y002192D01*
X004801Y002192D01*
X004630Y002122D01*
X004499Y001991D01*
X004484Y001953D01*
X004484Y002000D01*
X004974Y002490D01*
X004974Y003750D01*
X006237Y005013D01*
X006239Y005010D01*
X006313Y004935D01*
X006411Y004895D01*
X006516Y004895D01*
X006559Y004913D01*
X006569Y004890D01*
X006643Y004815D01*
X006741Y004775D01*
X006754Y004775D01*
X006979Y004551D01*
X006979Y004410D01*
X006969Y004400D01*
X006963Y004385D01*
X006957Y004383D01*
X006940Y004341D01*
X006909Y004309D01*
X006909Y004261D01*
X006891Y004217D01*
X006909Y004176D01*
X006909Y003045D01*
X006274Y003045D01*
X006164Y002935D01*
X006151Y002935D01*
X006053Y002895D01*
X005979Y002820D01*
X005939Y002723D01*
X005939Y002617D01*
X005979Y002520D01*
X006053Y002445D01*
X006151Y002405D01*
X006256Y002405D01*
X006354Y002445D01*
X006428Y002520D01*
X006468Y002615D01*
X007034Y002615D01*
X007213Y002615D01*
X007254Y002656D01*
X007254Y002250D01*
X007243Y002240D01*
X007144Y002140D01*
X007144Y002127D01*
X006986Y002192D01*
X006801Y002192D01*
X006630Y002122D01*
X006499Y001991D01*
X006428Y001820D01*
X006428Y001635D01*
X006499Y001464D01*
X006630Y001333D01*
X006801Y001262D01*
X006986Y001262D01*
X007144Y001328D01*
X007144Y001300D01*
X007021Y001178D01*
X006986Y001192D01*
X006801Y001192D01*
X006630Y001122D01*
X006499Y000991D01*
X006428Y000820D01*
X006428Y000635D01*
X006499Y000464D01*
X006603Y000360D01*
X006183Y000360D01*
X006287Y000464D01*
X006358Y000635D01*
X006358Y000820D01*
X006287Y000991D01*
X006157Y001122D01*
X005986Y001192D01*
X005801Y001192D01*
X005630Y001122D01*
X005499Y000991D01*
X005455Y001131D02*
X005653Y001131D01*
X005735Y001290D02*
X005484Y001290D01*
X005484Y001448D02*
X005515Y001448D01*
X006051Y001290D02*
X006735Y001290D01*
X006653Y001131D02*
X006134Y001131D01*
X006295Y000973D02*
X006491Y000973D01*
X006428Y000814D02*
X006358Y000814D01*
X006358Y000656D02*
X006428Y000656D01*
X006485Y000497D02*
X006301Y000497D01*
X005485Y000497D02*
X005301Y000497D01*
X005358Y000656D02*
X005428Y000656D01*
X005428Y000814D02*
X005358Y000814D01*
X006271Y001448D02*
X006515Y001448D01*
X006440Y001607D02*
X006346Y001607D01*
X006358Y001765D02*
X006428Y001765D01*
X006471Y001924D02*
X006315Y001924D01*
X006196Y002082D02*
X006590Y002082D01*
X006444Y002558D02*
X007254Y002558D01*
X007254Y002399D02*
X005889Y002399D01*
X005853Y002241D02*
X007244Y002241D01*
X007484Y002000D02*
X007594Y002110D01*
X007594Y002528D01*
X007601Y002525D01*
X007706Y002525D01*
X007714Y002528D01*
X007714Y002156D01*
X007630Y002122D01*
X007499Y001991D01*
X007484Y001953D01*
X007484Y002000D01*
X007566Y002082D02*
X007590Y002082D01*
X007594Y002241D02*
X007714Y002241D01*
X007714Y002399D02*
X007594Y002399D01*
X008054Y002399D02*
X008134Y002399D01*
X008134Y002290D02*
X008134Y004799D01*
X008093Y004815D01*
X008054Y004855D01*
X008054Y002164D01*
X008144Y002127D01*
X008144Y002140D01*
X008134Y002150D01*
X008134Y002290D01*
X008134Y002241D02*
X008054Y002241D01*
X008054Y002558D02*
X008134Y002558D01*
X008134Y002716D02*
X008054Y002716D01*
X008054Y002875D02*
X008134Y002875D01*
X008134Y003033D02*
X008054Y003033D01*
X008054Y003192D02*
X008134Y003192D01*
X008134Y003350D02*
X008054Y003350D01*
X008054Y003509D02*
X008134Y003509D01*
X008134Y003667D02*
X008054Y003667D01*
X008054Y003826D02*
X008134Y003826D01*
X008134Y003984D02*
X008054Y003984D01*
X008054Y004143D02*
X008134Y004143D01*
X008134Y004301D02*
X008054Y004301D01*
X008054Y004460D02*
X008134Y004460D01*
X008134Y004618D02*
X008054Y004618D01*
X008054Y004777D02*
X008134Y004777D01*
X008474Y004777D02*
X009100Y004777D01*
X009258Y004935D02*
X008487Y004935D01*
X008474Y004903D02*
X008509Y004987D01*
X008509Y005093D01*
X008468Y005190D01*
X008394Y005265D01*
X008296Y005305D01*
X008191Y005305D01*
X008093Y005265D01*
X008054Y005225D01*
X008054Y005620D01*
X007954Y005720D01*
X007620Y006054D01*
X007624Y006055D01*
X007698Y006130D01*
X007739Y006227D01*
X007739Y006305D01*
X008044Y006610D01*
X008144Y006710D01*
X008144Y007975D01*
X008198Y008030D01*
X008209Y008055D01*
X008209Y007900D01*
X008199Y007890D01*
X008159Y007793D01*
X008159Y007687D01*
X008199Y007590D01*
X008273Y007515D01*
X008371Y007475D01*
X008476Y007475D01*
X008574Y007515D01*
X008648Y007590D01*
X008689Y007687D01*
X008689Y007793D01*
X008648Y007890D01*
X008639Y007900D01*
X008639Y008225D01*
X008823Y008225D01*
X008844Y008245D01*
X008864Y008225D01*
X009492Y008225D01*
X009574Y008307D01*
X009574Y009013D01*
X009550Y009038D01*
X009579Y009107D01*
X009579Y009213D01*
X009576Y009220D01*
X009584Y009220D01*
X009584Y008310D01*
X009414Y008140D01*
X009414Y005090D01*
X008558Y004235D01*
X008481Y004235D01*
X008474Y004232D01*
X008474Y004903D01*
X008508Y005094D02*
X009414Y005094D01*
X009414Y005252D02*
X008406Y005252D01*
X008081Y005252D02*
X008054Y005252D01*
X008054Y005411D02*
X009414Y005411D01*
X009414Y005569D02*
X008054Y005569D01*
X007946Y005728D02*
X009414Y005728D01*
X009414Y005886D02*
X007788Y005886D01*
X007629Y006045D02*
X009414Y006045D01*
X009414Y006203D02*
X007728Y006203D01*
X007795Y006362D02*
X009414Y006362D01*
X009414Y006520D02*
X007954Y006520D01*
X008112Y006679D02*
X009414Y006679D01*
X009414Y006837D02*
X008144Y006837D01*
X008144Y006996D02*
X009414Y006996D01*
X009414Y007154D02*
X008144Y007154D01*
X008144Y007313D02*
X009414Y007313D01*
X009414Y007471D02*
X008144Y007471D01*
X008144Y007630D02*
X008182Y007630D01*
X008159Y007788D02*
X008144Y007788D01*
X008144Y007947D02*
X008209Y007947D01*
X008639Y007947D02*
X009414Y007947D01*
X009414Y008105D02*
X008639Y008105D01*
X008689Y007788D02*
X009414Y007788D01*
X009414Y007630D02*
X008665Y007630D01*
X007804Y007630D02*
X007274Y007630D01*
X007309Y007595D02*
X007189Y007715D01*
X007189Y007753D01*
X007148Y007850D01*
X007074Y007925D01*
X006976Y007965D01*
X006871Y007965D01*
X006864Y007962D01*
X006864Y008293D01*
X007057Y008293D01*
X007074Y008310D01*
X007090Y008293D01*
X007734Y008293D01*
X007709Y008233D01*
X007709Y008127D01*
X007749Y008030D01*
X007804Y007975D01*
X007804Y006850D01*
X007498Y006545D01*
X007421Y006545D01*
X007323Y006505D01*
X007249Y006430D01*
X007247Y006427D01*
X006864Y006810D01*
X006864Y007438D01*
X006871Y007435D01*
X006976Y007435D01*
X006985Y007438D01*
X007069Y007355D01*
X007069Y007277D01*
X007109Y007180D01*
X007183Y007105D01*
X007281Y007065D01*
X007386Y007065D01*
X007484Y007105D01*
X007558Y007180D01*
X007599Y007277D01*
X007599Y007383D01*
X007558Y007480D01*
X007484Y007555D01*
X007386Y007595D01*
X007309Y007595D01*
X007069Y007313D02*
X006864Y007313D01*
X006864Y007154D02*
X007135Y007154D01*
X006864Y006996D02*
X007804Y006996D01*
X007804Y007154D02*
X007532Y007154D01*
X007599Y007313D02*
X007804Y007313D01*
X007804Y007471D02*
X007562Y007471D01*
X007804Y007788D02*
X007174Y007788D01*
X007021Y007947D02*
X007804Y007947D01*
X007718Y008105D02*
X006864Y008105D01*
X006864Y008264D02*
X007721Y008264D01*
X007879Y008428D02*
X007879Y008815D01*
X007999Y008935D01*
X008076Y008935D01*
X008113Y008950D01*
X008113Y008409D01*
X008026Y008445D01*
X007921Y008445D01*
X007879Y008428D01*
X007879Y008581D02*
X008113Y008581D01*
X008113Y008739D02*
X007879Y008739D01*
X007961Y008898D02*
X008113Y008898D01*
X007759Y009175D02*
X007759Y009253D01*
X007799Y009350D01*
X007873Y009425D01*
X007971Y009465D01*
X008076Y009465D01*
X008174Y009425D01*
X008248Y009350D01*
X008259Y009325D01*
X008259Y009701D01*
X008223Y009715D01*
X008149Y009790D01*
X008109Y009887D01*
X008109Y009993D01*
X008149Y010090D01*
X008223Y010165D01*
X008321Y010205D01*
X008426Y010205D01*
X008524Y010165D01*
X008598Y010090D01*
X008639Y009993D01*
X008639Y009979D01*
X008689Y009929D01*
X008689Y009095D01*
X008724Y009095D01*
X008719Y009107D01*
X008719Y009213D01*
X008759Y009310D01*
X008833Y009385D01*
X008931Y009425D01*
X009008Y009425D01*
X009044Y009460D01*
X009143Y009560D01*
X009584Y009560D01*
X009584Y009830D01*
X009683Y009930D01*
X009683Y009930D01*
X009874Y010120D01*
X009874Y010120D01*
X009973Y010220D01*
X011009Y010220D01*
X011009Y010220D01*
X011083Y010295D01*
X011181Y010335D01*
X011286Y010335D01*
X011384Y010295D01*
X011458Y010220D01*
X011499Y010123D01*
X011499Y010017D01*
X011458Y009920D01*
X011415Y009877D01*
X011567Y009877D01*
X011649Y009795D01*
X011649Y009285D01*
X011567Y009203D01*
X010860Y009203D01*
X010844Y009220D01*
X010827Y009203D01*
X010547Y009203D01*
X010534Y009190D01*
X010453Y009109D01*
X010464Y009105D01*
X010538Y009030D01*
X010579Y008933D01*
X010579Y008827D01*
X010574Y008817D01*
X010787Y008817D01*
X010804Y008800D01*
X010820Y008817D01*
X011280Y008817D01*
X014264Y011800D01*
X014264Y012330D01*
X014255Y012338D01*
X014121Y012205D01*
X013941Y012130D01*
X013746Y012130D01*
X013566Y012205D01*
X013428Y012342D01*
X013354Y012523D01*
X013354Y012717D01*
X013428Y012898D01*
X013566Y013035D01*
X013746Y013110D01*
X013941Y013110D01*
X014121Y013035D01*
X014255Y012902D01*
X014404Y013050D01*
X014404Y013270D01*
X014452Y013319D01*
X014428Y013342D01*
X014354Y013523D01*
X014354Y013717D01*
X014428Y013898D01*
X014566Y014035D01*
X014746Y014110D01*
X014941Y014110D01*
X015121Y014035D01*
X015204Y013953D01*
X015204Y014287D01*
X015121Y014205D01*
X014941Y014130D01*
X014746Y014130D01*
X014566Y014205D01*
X014428Y014342D01*
X014354Y014523D01*
X014354Y014717D01*
X014428Y014898D01*
X014566Y015035D01*
X014746Y015110D01*
X014941Y015110D01*
X015121Y015035D01*
X015204Y014953D01*
X015204Y015354D01*
X002554Y015354D01*
X002554Y005705D01*
X002603Y005755D01*
X002701Y005795D01*
X002806Y005795D01*
X002904Y005755D01*
X002978Y005680D01*
X003019Y005583D01*
X003019Y005505D01*
X003054Y005470D01*
X003057Y005467D01*
X003347Y005467D01*
X003364Y005450D01*
X003380Y005467D01*
X003745Y005467D01*
X003752Y006517D01*
X003699Y006570D01*
X003659Y006667D01*
X003659Y006773D01*
X003699Y006870D01*
X003773Y006945D01*
X003871Y006985D01*
X003976Y006985D01*
X004074Y006945D01*
X004148Y006870D01*
X004189Y006773D01*
X004189Y006667D01*
X004148Y006570D01*
X004092Y006514D01*
X004085Y005467D01*
X004087Y005467D01*
X004169Y005385D01*
X004169Y004875D01*
X004087Y004793D01*
X003380Y004793D01*
X003364Y004810D01*
X003347Y004793D01*
X002640Y004793D01*
X002558Y004875D01*
X002558Y005351D01*
X002554Y005355D01*
X002554Y003635D01*
X002568Y003649D01*
X002568Y004115D01*
X002650Y004197D01*
X003357Y004197D01*
X003374Y004180D01*
X003390Y004197D01*
X004097Y004197D01*
X004153Y004141D01*
X004159Y004144D01*
X004159Y004153D01*
X004199Y004250D01*
X004273Y004325D01*
X004371Y004365D01*
X004476Y004365D01*
X004574Y004325D01*
X004648Y004250D01*
X004656Y004232D01*
X005979Y005555D01*
X005979Y005633D01*
X006019Y005730D01*
X006093Y005805D01*
X006097Y005806D01*
X006064Y005840D01*
X005831Y006072D01*
X005818Y006040D01*
X005744Y005965D01*
X005646Y005925D01*
X005541Y005925D01*
X005443Y005965D01*
X005369Y006040D01*
X005329Y006137D01*
X005329Y006215D01*
X004848Y006695D01*
X004771Y006695D01*
X004673Y006735D01*
X004655Y006754D01*
X004740Y005118D01*
X004758Y005100D01*
X004799Y005003D01*
X004799Y004897D01*
X004758Y004800D01*
X004684Y004725D01*
X004586Y004685D01*
X004481Y004685D01*
X004383Y004725D01*
X004309Y004800D01*
X004269Y004897D01*
X004269Y005003D01*
X004309Y005100D01*
X004310Y005102D01*
X004187Y007470D01*
X004173Y007475D01*
X004099Y007550D01*
X004059Y007647D01*
X004059Y007753D01*
X004099Y007850D01*
X004173Y007925D01*
X004271Y007965D01*
X004376Y007965D01*
X004474Y007925D01*
X004548Y007850D01*
X004589Y007753D01*
X004589Y007744D01*
X004604Y007730D01*
X004604Y007724D01*
X004609Y007719D01*
X004609Y007636D01*
X004634Y007145D01*
X004673Y007185D01*
X004771Y007225D01*
X004876Y007225D01*
X004974Y007185D01*
X005048Y007110D01*
X005089Y007013D01*
X005089Y006935D01*
X005176Y006848D01*
X005189Y006880D01*
X005263Y006955D01*
X005361Y006995D01*
X005466Y006995D01*
X005564Y006955D01*
X005638Y006880D01*
X005679Y006783D01*
X005679Y006705D01*
X006304Y006080D01*
X007113Y006080D01*
X006524Y006670D01*
X006524Y008293D01*
X006381Y008293D01*
X006354Y008265D01*
X006256Y008225D01*
X006151Y008225D01*
X006067Y008260D01*
X006032Y008225D01*
X006029Y008225D01*
X006234Y008020D01*
X006234Y007735D01*
X006246Y007735D01*
X006344Y007695D01*
X006418Y007620D01*
X006459Y007523D01*
X006459Y007417D01*
X006418Y007320D01*
X006344Y007245D01*
X006246Y007205D01*
X006141Y007205D01*
X006043Y007245D01*
X005969Y007320D01*
X005929Y007417D01*
X005929Y007453D01*
X005886Y007435D01*
X005809Y007435D01*
X005779Y007405D01*
X005779Y007327D01*
X005738Y007230D01*
X005664Y007155D01*
X005566Y007115D01*
X005461Y007115D01*
X005363Y007155D01*
X005289Y007230D01*
X005249Y007327D01*
X005249Y007433D01*
X005289Y007530D01*
X005363Y007605D01*
X005461Y007645D01*
X005538Y007645D01*
X005569Y007675D01*
X005569Y007753D01*
X005609Y007850D01*
X005683Y007925D01*
X005781Y007965D01*
X005808Y007965D01*
X005653Y008120D01*
X005554Y008220D01*
X005554Y008225D01*
X005404Y008225D01*
X005384Y008245D01*
X005363Y008225D01*
X004735Y008225D01*
X004653Y008307D01*
X004653Y008398D01*
X004646Y008395D01*
X004541Y008395D01*
X004443Y008435D01*
X004369Y008510D01*
X004329Y008607D01*
X004329Y008713D01*
X004369Y008810D01*
X004443Y008885D01*
X004541Y008925D01*
X004646Y008925D01*
X004653Y008922D01*
X004653Y009013D01*
X004735Y009095D01*
X005363Y009095D01*
X005384Y009075D01*
X005404Y009095D01*
X005414Y009095D01*
X005414Y010740D01*
X005161Y010992D01*
X005157Y010990D01*
X004970Y010990D01*
X004797Y011062D01*
X004665Y011194D01*
X004594Y011367D01*
X004594Y011553D01*
X004665Y011726D01*
X004797Y011858D01*
X004970Y011930D01*
X005157Y011930D01*
X005330Y011858D01*
X005462Y011726D01*
X005534Y011553D01*
X005534Y011367D01*
X005462Y011194D01*
X005451Y011183D01*
X005754Y010880D01*
X005754Y009095D01*
X006032Y009095D01*
X006065Y009062D01*
X006121Y009085D01*
X006226Y009085D01*
X006324Y009045D01*
X006398Y008970D01*
X006400Y008967D01*
X007057Y008967D01*
X007074Y008950D01*
X007090Y008967D01*
X007550Y008967D01*
X007759Y009175D01*
X007759Y009215D02*
X005754Y009215D01*
X005754Y009373D02*
X007822Y009373D01*
X007639Y009056D02*
X006296Y009056D01*
X005754Y009532D02*
X008259Y009532D01*
X008259Y009690D02*
X005754Y009690D01*
X005754Y009849D02*
X008125Y009849D01*
X008114Y010007D02*
X005754Y010007D01*
X005754Y010166D02*
X008226Y010166D01*
X008522Y010166D02*
X009919Y010166D01*
X009760Y010007D02*
X008633Y010007D01*
X008689Y009849D02*
X009602Y009849D01*
X009584Y009690D02*
X008689Y009690D01*
X008689Y009532D02*
X009115Y009532D01*
X008822Y009373D02*
X008689Y009373D01*
X008689Y009215D02*
X008719Y009215D01*
X008259Y009373D02*
X008225Y009373D01*
X008113Y008422D02*
X008082Y008422D01*
X009531Y008264D02*
X009537Y008264D01*
X009574Y008422D02*
X009584Y008422D01*
X009574Y008581D02*
X009584Y008581D01*
X009574Y008739D02*
X009584Y008739D01*
X009574Y008898D02*
X009584Y008898D01*
X009584Y009056D02*
X009557Y009056D01*
X009578Y009215D02*
X009584Y009215D01*
X009924Y009215D02*
X010078Y009215D01*
X010093Y009230D02*
X010008Y009145D01*
X009931Y009145D01*
X009924Y009142D01*
X009924Y009690D01*
X010038Y009690D01*
X010038Y009795D02*
X010038Y009285D01*
X010093Y009230D01*
X010038Y009373D02*
X009924Y009373D01*
X009924Y009532D02*
X010038Y009532D01*
X009924Y009690D02*
X010114Y009880D01*
X011044Y009880D01*
X011044Y009877D01*
X010860Y009877D01*
X010844Y009860D01*
X010827Y009877D01*
X010120Y009877D01*
X010038Y009795D01*
X010082Y009849D02*
X010092Y009849D01*
X010512Y009056D02*
X011519Y009056D01*
X011578Y009215D02*
X011678Y009215D01*
X011649Y009373D02*
X011836Y009373D01*
X011995Y009532D02*
X011649Y009532D01*
X011649Y009690D02*
X012153Y009690D01*
X012312Y009849D02*
X011595Y009849D01*
X011494Y010007D02*
X012470Y010007D01*
X012629Y010166D02*
X011481Y010166D01*
X011313Y010324D02*
X012787Y010324D01*
X012946Y010483D02*
X005754Y010483D01*
X005754Y010641D02*
X013104Y010641D01*
X013061Y010660D02*
X013284Y010883D01*
X013284Y011197D01*
X013061Y011420D01*
X012746Y011420D01*
X012524Y011197D01*
X012524Y010883D01*
X012746Y010660D01*
X013061Y010660D01*
X013200Y010800D02*
X013263Y010800D01*
X013284Y010958D02*
X013421Y010958D01*
X013284Y011117D02*
X013580Y011117D01*
X013738Y011275D02*
X013206Y011275D01*
X013743Y010800D02*
X015204Y010800D01*
X015204Y010958D02*
X013902Y010958D01*
X014060Y011117D02*
X015204Y011117D01*
X015204Y011275D02*
X014219Y011275D01*
X014377Y011434D02*
X015204Y011434D01*
X015204Y011592D02*
X014536Y011592D01*
X014504Y011560D02*
X014604Y011660D01*
X014604Y012189D01*
X014746Y012130D01*
X014941Y012130D01*
X015121Y012205D01*
X015204Y012287D01*
X015204Y006605D01*
X015173Y006679D01*
X015179Y006685D01*
X015179Y007195D01*
X015097Y007277D01*
X014390Y007277D01*
X014374Y007260D01*
X014357Y007277D01*
X013650Y007277D01*
X013601Y007227D01*
X013594Y007235D01*
X013496Y007275D01*
X013391Y007275D01*
X013340Y007254D01*
X013297Y007297D01*
X012590Y007297D01*
X012574Y007280D01*
X012557Y007297D01*
X011850Y007297D01*
X011768Y007215D01*
X011768Y006705D01*
X011850Y006623D01*
X012024Y006623D01*
X012024Y005791D01*
X011852Y005585D01*
X011801Y005585D01*
X011794Y005582D01*
X011794Y005655D01*
X011838Y005700D01*
X011879Y005797D01*
X011879Y005903D01*
X011838Y006000D01*
X011764Y006075D01*
X011666Y006115D01*
X011561Y006115D01*
X011463Y006075D01*
X011389Y006000D01*
X011349Y005903D01*
X011349Y005875D01*
X010929Y005875D01*
X010821Y005983D01*
X010834Y006014D01*
X010834Y006166D01*
X010776Y006305D01*
X010669Y006412D01*
X010529Y006470D01*
X010378Y006470D01*
X010375Y006469D01*
X010374Y006470D01*
X010374Y006535D01*
X010473Y006535D01*
X010494Y006555D01*
X010514Y006535D01*
X011142Y006535D01*
X011224Y006617D01*
X011224Y007056D01*
X011775Y007607D01*
X011781Y007605D01*
X011886Y007605D01*
X011984Y007645D01*
X012058Y007720D01*
X012099Y007817D01*
X012099Y007923D01*
X012096Y007929D01*
X012162Y007995D01*
X012613Y007995D01*
X012634Y008015D01*
X012654Y007995D01*
X013280Y007995D01*
X013319Y007900D01*
X013393Y007825D01*
X013491Y007785D01*
X013596Y007785D01*
X013694Y007825D01*
X013768Y007900D01*
X013809Y007997D01*
X013809Y008103D01*
X013782Y008168D01*
X013958Y008344D01*
X014314Y008344D01*
X014396Y008426D01*
X014396Y009014D01*
X014356Y009054D01*
X014379Y009107D01*
X014379Y009213D01*
X014338Y009310D01*
X014264Y009385D01*
X014166Y009425D01*
X014061Y009425D01*
X013963Y009385D01*
X013889Y009310D01*
X013849Y009213D01*
X013849Y009107D01*
X013862Y009075D01*
X013801Y009014D01*
X013801Y008668D01*
X013740Y008607D01*
X013749Y008627D01*
X013749Y008733D01*
X013708Y008830D01*
X013634Y008905D01*
X013536Y008945D01*
X013431Y008945D01*
X013333Y008905D01*
X013288Y008859D01*
X013282Y008865D01*
X012654Y008865D01*
X012634Y008845D01*
X012613Y008865D01*
X012023Y008865D01*
X011994Y008895D01*
X011896Y008935D01*
X011879Y008935D01*
X014504Y011560D01*
X014604Y011751D02*
X015204Y011751D01*
X015204Y011909D02*
X014604Y011909D01*
X014604Y012068D02*
X015204Y012068D01*
X015204Y012226D02*
X015143Y012226D01*
X015204Y012953D02*
X015121Y013035D01*
X014941Y013110D01*
X014746Y013110D01*
X014744Y013109D01*
X014744Y013130D01*
X014745Y013131D01*
X014746Y013130D01*
X014941Y013130D01*
X015121Y013205D01*
X015204Y013287D01*
X015204Y012953D01*
X015204Y013019D02*
X015138Y013019D01*
X015204Y013177D02*
X015055Y013177D01*
X014435Y013336D02*
X014252Y013336D01*
X014259Y013342D02*
X014334Y013523D01*
X014334Y013717D01*
X014259Y013898D01*
X014121Y014035D01*
X013941Y014110D01*
X013746Y014110D01*
X013566Y014035D01*
X013428Y013898D01*
X013354Y013717D01*
X013354Y013523D01*
X013428Y013342D01*
X013566Y013205D01*
X013746Y013130D01*
X013941Y013130D01*
X014121Y013205D01*
X014259Y013342D01*
X014322Y013494D02*
X014365Y013494D01*
X014354Y013653D02*
X014334Y013653D01*
X014295Y013811D02*
X014392Y013811D01*
X014500Y013970D02*
X014187Y013970D01*
X014121Y014205D02*
X013941Y014130D01*
X013746Y014130D01*
X013566Y014205D01*
X013428Y014342D01*
X013354Y014523D01*
X013354Y014717D01*
X013428Y014898D01*
X013566Y015035D01*
X013746Y015110D01*
X013941Y015110D01*
X014121Y015035D01*
X014259Y014898D01*
X014334Y014717D01*
X014334Y014523D01*
X014259Y014342D01*
X014121Y014205D01*
X014203Y014287D02*
X014484Y014287D01*
X014386Y014445D02*
X014301Y014445D01*
X014334Y014604D02*
X014354Y014604D01*
X014372Y014762D02*
X014315Y014762D01*
X014236Y014921D02*
X014451Y014921D01*
X014671Y015079D02*
X014016Y015079D01*
X013671Y015079D02*
X012242Y015079D01*
X012284Y015037D02*
X012061Y015260D01*
X011746Y015260D01*
X011524Y015037D01*
X011524Y014723D01*
X011746Y014500D01*
X012061Y014500D01*
X012284Y014723D01*
X012284Y015037D01*
X012284Y014921D02*
X013451Y014921D01*
X013372Y014762D02*
X012284Y014762D01*
X012164Y014604D02*
X013354Y014604D01*
X013386Y014445D02*
X005951Y014445D01*
X005951Y014401D02*
X005864Y014190D01*
X005702Y014028D01*
X005492Y013941D01*
X005263Y013941D01*
X005053Y014028D01*
X004891Y014190D01*
X004804Y014401D01*
X004804Y014629D01*
X004891Y014840D01*
X005053Y015001D01*
X005263Y015088D01*
X005492Y015088D01*
X005702Y015001D01*
X005864Y014840D01*
X005951Y014629D01*
X005951Y014401D01*
X005904Y014287D02*
X013484Y014287D01*
X013500Y013970D02*
X013284Y013970D01*
X013284Y014037D02*
X013061Y014260D01*
X012746Y014260D01*
X012524Y014037D01*
X012524Y013723D01*
X012746Y013500D01*
X013061Y013500D01*
X013284Y013723D01*
X013284Y014037D01*
X013193Y014128D02*
X015204Y014128D01*
X015187Y013970D02*
X015204Y013970D01*
X015203Y014287D02*
X015204Y014287D01*
X015204Y015079D02*
X015016Y015079D01*
X015204Y015238D02*
X012083Y015238D01*
X011724Y015238D02*
X002554Y015238D01*
X002554Y015079D02*
X005241Y015079D01*
X005514Y015079D02*
X011565Y015079D01*
X011524Y014921D02*
X005783Y014921D01*
X005896Y014762D02*
X011524Y014762D01*
X011643Y014604D02*
X005951Y014604D01*
X005802Y014128D02*
X010614Y014128D01*
X010524Y014037D02*
X010524Y013723D01*
X010746Y013500D01*
X011061Y013500D01*
X011284Y013723D01*
X011284Y014037D01*
X011061Y014260D01*
X010746Y014260D01*
X010524Y014037D01*
X010524Y013970D02*
X005561Y013970D01*
X005194Y013970D02*
X002554Y013970D01*
X002554Y014128D02*
X004953Y014128D01*
X004851Y014287D02*
X002554Y014287D01*
X002554Y014445D02*
X004804Y014445D01*
X004804Y014604D02*
X002554Y014604D01*
X002554Y014762D02*
X004859Y014762D01*
X004972Y014921D02*
X002554Y014921D01*
X002554Y013811D02*
X006437Y013811D01*
X006471Y013825D02*
X006373Y013785D01*
X006299Y013710D01*
X006259Y013613D01*
X006259Y013507D01*
X006299Y013410D01*
X006373Y013335D01*
X006471Y013295D01*
X006548Y013295D01*
X006874Y012970D01*
X006874Y012967D01*
X006870Y012967D01*
X006788Y012885D01*
X006788Y012375D01*
X006870Y012293D01*
X007044Y012293D01*
X007044Y012107D01*
X006860Y012107D01*
X006778Y012025D01*
X006778Y011515D01*
X006860Y011433D01*
X007567Y011433D01*
X007584Y011450D01*
X007600Y011433D01*
X008307Y011433D01*
X008389Y011515D01*
X008389Y012025D01*
X008307Y012107D01*
X008114Y012107D01*
X008119Y012117D01*
X008119Y012223D01*
X008089Y012293D01*
X008317Y012293D01*
X008367Y012343D01*
X008411Y012325D01*
X008516Y012325D01*
X008614Y012365D01*
X008688Y012440D01*
X008726Y012530D01*
X008759Y012450D01*
X008793Y012416D01*
X008793Y011727D01*
X008875Y011645D01*
X009503Y011645D01*
X009524Y011665D01*
X009544Y011645D01*
X010172Y011645D01*
X010254Y011727D01*
X010254Y011818D01*
X010261Y011815D01*
X010366Y011815D01*
X010464Y011855D01*
X010538Y011930D01*
X010579Y012027D01*
X010579Y012133D01*
X010538Y012230D01*
X010464Y012305D01*
X010366Y012345D01*
X010261Y012345D01*
X010254Y012342D01*
X010254Y012433D01*
X010172Y012515D01*
X009544Y012515D01*
X009524Y012495D01*
X009503Y012515D01*
X009235Y012515D01*
X009249Y012547D01*
X009249Y012653D01*
X009208Y012750D01*
X009134Y012825D01*
X009036Y012865D01*
X008931Y012865D01*
X008833Y012825D01*
X008759Y012750D01*
X008721Y012660D01*
X008688Y012740D01*
X008614Y012815D01*
X008516Y012855D01*
X008411Y012855D01*
X008399Y012850D01*
X008399Y012885D01*
X008317Y012967D01*
X007610Y012967D01*
X007594Y012950D01*
X007577Y012967D01*
X007214Y012967D01*
X007214Y013110D01*
X006789Y013535D01*
X006789Y013613D01*
X006748Y013710D01*
X006674Y013785D01*
X006576Y013825D01*
X006471Y013825D01*
X006610Y013811D02*
X010524Y013811D01*
X010594Y013653D02*
X006772Y013653D01*
X006830Y013494D02*
X013365Y013494D01*
X013354Y013653D02*
X013213Y013653D01*
X013284Y013811D02*
X013392Y013811D01*
X013435Y013336D02*
X006988Y013336D01*
X007147Y013177D02*
X013633Y013177D01*
X013549Y013019D02*
X007214Y013019D01*
X006825Y013019D02*
X005490Y013019D01*
X005462Y013086D02*
X005330Y013218D01*
X005157Y013290D01*
X004970Y013290D01*
X004797Y013218D01*
X004665Y013086D01*
X004594Y012913D01*
X004594Y012727D01*
X004665Y012554D01*
X004797Y012422D01*
X004970Y012350D01*
X005157Y012350D01*
X005330Y012422D01*
X005462Y012554D01*
X005534Y012727D01*
X005534Y012913D01*
X005462Y013086D01*
X005371Y013177D02*
X006666Y013177D01*
X006373Y013336D02*
X002554Y013336D01*
X002554Y013494D02*
X006264Y013494D01*
X006275Y013653D02*
X002554Y013653D01*
X002554Y013177D02*
X004756Y013177D01*
X004637Y013019D02*
X002554Y013019D01*
X002554Y012860D02*
X004594Y012860D01*
X004604Y012702D02*
X002554Y012702D01*
X002554Y012543D02*
X004676Y012543D01*
X004887Y012385D02*
X002554Y012385D01*
X002554Y012226D02*
X006429Y012226D01*
X006451Y012235D02*
X006353Y012195D01*
X006279Y012120D01*
X006239Y012023D01*
X006239Y011945D01*
X006208Y011915D01*
X006131Y011915D01*
X006033Y011875D01*
X005959Y011800D01*
X005919Y011703D01*
X005919Y011597D01*
X005959Y011500D01*
X006033Y011425D01*
X006131Y011385D01*
X006236Y011385D01*
X006334Y011425D01*
X006408Y011500D01*
X006449Y011597D01*
X006449Y011675D01*
X006479Y011705D01*
X006556Y011705D01*
X006654Y011745D01*
X006728Y011820D01*
X006769Y011917D01*
X006769Y012023D01*
X006728Y012120D01*
X006654Y012195D01*
X006556Y012235D01*
X006451Y012235D01*
X006578Y012226D02*
X007044Y012226D01*
X006821Y012068D02*
X006750Y012068D01*
X006765Y011909D02*
X006778Y011909D01*
X006778Y011751D02*
X006659Y011751D01*
X006778Y011592D02*
X006446Y011592D01*
X006342Y011434D02*
X006860Y011434D01*
X007567Y011434D02*
X007600Y011434D01*
X007584Y012090D02*
X007595Y012102D01*
X007589Y012117D01*
X007589Y012223D01*
X007618Y012293D01*
X007610Y012293D01*
X007594Y012310D01*
X007577Y012293D01*
X007384Y012293D01*
X007384Y012107D01*
X007567Y012107D01*
X007584Y012090D01*
X007590Y012226D02*
X007384Y012226D01*
X006788Y012385D02*
X005240Y012385D01*
X005451Y012543D02*
X006788Y012543D01*
X006788Y012702D02*
X005523Y012702D01*
X005534Y012860D02*
X006788Y012860D01*
X006257Y012068D02*
X002554Y012068D01*
X002554Y011909D02*
X004919Y011909D01*
X004689Y011751D02*
X002554Y011751D01*
X002554Y011592D02*
X004610Y011592D01*
X004594Y011434D02*
X002554Y011434D01*
X002554Y011275D02*
X004631Y011275D01*
X004742Y011117D02*
X002554Y011117D01*
X002554Y010958D02*
X005195Y010958D01*
X005354Y010800D02*
X002554Y010800D01*
X002554Y010641D02*
X005414Y010641D01*
X005414Y010483D02*
X002554Y010483D01*
X002554Y010324D02*
X005414Y010324D01*
X005414Y010166D02*
X002554Y010166D01*
X002554Y010007D02*
X005414Y010007D01*
X005414Y009849D02*
X002554Y009849D01*
X002554Y009690D02*
X005414Y009690D01*
X005414Y009532D02*
X002554Y009532D01*
X002554Y009373D02*
X005414Y009373D01*
X005414Y009215D02*
X002554Y009215D01*
X002554Y009056D02*
X004696Y009056D01*
X004474Y008898D02*
X002554Y008898D01*
X002554Y008739D02*
X004339Y008739D01*
X004340Y008581D02*
X002554Y008581D01*
X002554Y008422D02*
X004476Y008422D01*
X004696Y008264D02*
X002554Y008264D01*
X002554Y008105D02*
X005668Y008105D01*
X005736Y007947D02*
X004421Y007947D01*
X004226Y007947D02*
X002554Y007947D01*
X002554Y007788D02*
X004073Y007788D01*
X004066Y007630D02*
X002554Y007630D01*
X002554Y007471D02*
X004184Y007471D01*
X004195Y007313D02*
X002554Y007313D01*
X002554Y007154D02*
X004203Y007154D01*
X004211Y006996D02*
X002554Y006996D01*
X002554Y006837D02*
X003685Y006837D01*
X003659Y006679D02*
X002554Y006679D01*
X002554Y006520D02*
X003749Y006520D01*
X003751Y006362D02*
X002554Y006362D01*
X002554Y006203D02*
X003750Y006203D01*
X003749Y006045D02*
X002554Y006045D01*
X002554Y005886D02*
X003748Y005886D01*
X003747Y005728D02*
X002931Y005728D01*
X003019Y005569D02*
X003745Y005569D01*
X004085Y005569D02*
X004286Y005569D01*
X004294Y005411D02*
X004143Y005411D01*
X004169Y005252D02*
X004302Y005252D01*
X004306Y005094D02*
X004169Y005094D01*
X004169Y004935D02*
X004269Y004935D01*
X004332Y004777D02*
X002554Y004777D01*
X002554Y004935D02*
X002558Y004935D01*
X002554Y005094D02*
X002558Y005094D01*
X002554Y005252D02*
X002558Y005252D01*
X002554Y005728D02*
X002576Y005728D01*
X002554Y004618D02*
X005041Y004618D01*
X004883Y004460D02*
X002554Y004460D01*
X002554Y004301D02*
X004250Y004301D01*
X004155Y004143D02*
X004151Y004143D01*
X004331Y003851D02*
X004371Y003835D01*
X004476Y003835D01*
X004514Y003850D01*
X004514Y003602D01*
X004506Y003605D01*
X004401Y003605D01*
X004303Y003565D01*
X004229Y003490D01*
X004225Y003480D01*
X003039Y003480D01*
X003039Y003523D01*
X003357Y003523D01*
X003374Y003540D01*
X003390Y003523D01*
X004097Y003523D01*
X004179Y003605D01*
X004179Y003764D01*
X004331Y003851D01*
X004286Y003826D02*
X004514Y003826D01*
X004514Y003667D02*
X004179Y003667D01*
X004247Y003509D02*
X003039Y003509D01*
X002824Y003202D02*
X002824Y003137D01*
X002640Y003137D01*
X002558Y003055D01*
X002558Y002545D01*
X002640Y002463D01*
X003347Y002463D01*
X003364Y002480D01*
X003380Y002463D01*
X003653Y002463D01*
X003649Y002453D01*
X003649Y002347D01*
X003660Y002320D01*
X003403Y002320D01*
X003304Y002220D01*
X003304Y001952D01*
X003287Y001991D01*
X003157Y002122D01*
X002986Y002192D01*
X002801Y002192D01*
X002630Y002122D01*
X002554Y002045D01*
X002554Y003285D01*
X002603Y003235D01*
X002701Y003195D01*
X002806Y003195D01*
X002824Y003202D01*
X002824Y003192D02*
X002554Y003192D01*
X002554Y003033D02*
X002558Y003033D01*
X002554Y002875D02*
X002558Y002875D01*
X002554Y002716D02*
X002558Y002716D01*
X002554Y002558D02*
X002558Y002558D01*
X002554Y002399D02*
X003649Y002399D01*
X003324Y002241D02*
X002554Y002241D01*
X002554Y002082D02*
X002590Y002082D01*
X003196Y002082D02*
X003304Y002082D01*
X003304Y001503D02*
X003295Y001482D01*
X003304Y001490D01*
X003304Y001503D01*
X003139Y001326D02*
X003000Y001187D01*
X002986Y001192D01*
X002801Y001192D01*
X002630Y001122D01*
X002554Y001045D01*
X002554Y001409D01*
X002630Y001333D01*
X002801Y001262D01*
X002986Y001262D01*
X003139Y001326D01*
X003103Y001290D02*
X003051Y001290D01*
X002735Y001290D02*
X002554Y001290D01*
X002554Y001131D02*
X002653Y001131D01*
X004151Y002518D02*
X004149Y002525D01*
X004169Y002545D01*
X004169Y003055D01*
X004087Y003137D01*
X003380Y003137D01*
X003364Y003120D01*
X003347Y003137D01*
X003164Y003137D01*
X003164Y003140D01*
X004279Y003140D01*
X004303Y003115D01*
X004401Y003075D01*
X004506Y003075D01*
X004514Y003078D01*
X004514Y002880D01*
X004151Y002518D01*
X004169Y002558D02*
X004191Y002558D01*
X004169Y002716D02*
X004349Y002716D01*
X004508Y002875D02*
X004169Y002875D01*
X004169Y003033D02*
X004514Y003033D01*
X004974Y003033D02*
X006262Y003033D01*
X006184Y003055D02*
X006812Y003055D01*
X006894Y003137D01*
X006894Y003843D01*
X006812Y003925D01*
X006664Y003925D01*
X006669Y003937D01*
X006669Y004043D01*
X006628Y004140D01*
X006554Y004215D01*
X006456Y004255D01*
X006351Y004255D01*
X006253Y004215D01*
X006179Y004140D01*
X006154Y004079D01*
X006128Y004140D01*
X006054Y004215D01*
X005956Y004255D01*
X005851Y004255D01*
X005753Y004215D01*
X005679Y004140D01*
X005639Y004043D01*
X005639Y003937D01*
X005644Y003925D01*
X005515Y003925D01*
X005433Y003843D01*
X005433Y003137D01*
X005515Y003055D01*
X006143Y003055D01*
X006164Y003075D01*
X006184Y003055D01*
X006033Y002875D02*
X004974Y002875D01*
X004974Y002716D02*
X005939Y002716D01*
X005963Y002558D02*
X005821Y002558D01*
X005426Y002558D02*
X004974Y002558D01*
X004883Y002399D02*
X005359Y002399D01*
X005244Y002241D02*
X004724Y002241D01*
X004590Y002082D02*
X004566Y002082D01*
X005484Y002000D02*
X005599Y002115D01*
X005623Y002115D01*
X005499Y001991D01*
X005484Y001953D01*
X005484Y002000D01*
X005566Y002082D02*
X005590Y002082D01*
X005433Y003192D02*
X004974Y003192D01*
X004974Y003350D02*
X005433Y003350D01*
X005433Y003509D02*
X004974Y003509D01*
X004974Y003667D02*
X005433Y003667D01*
X005433Y003826D02*
X005049Y003826D01*
X005208Y003984D02*
X005639Y003984D01*
X005681Y004143D02*
X005366Y004143D01*
X005525Y004301D02*
X006909Y004301D01*
X006909Y004143D02*
X006626Y004143D01*
X006669Y003984D02*
X006909Y003984D01*
X006894Y003826D02*
X006909Y003826D01*
X006894Y003667D02*
X006909Y003667D01*
X006894Y003509D02*
X006909Y003509D01*
X006894Y003350D02*
X006909Y003350D01*
X006894Y003192D02*
X006909Y003192D01*
X006181Y004143D02*
X006126Y004143D01*
X005683Y004460D02*
X006979Y004460D01*
X006911Y004618D02*
X005842Y004618D01*
X006000Y004777D02*
X006737Y004777D01*
X007059Y005079D02*
X007059Y005093D01*
X007018Y005190D01*
X006944Y005265D01*
X006848Y005304D01*
X006959Y005415D01*
X007026Y005415D01*
X007124Y005455D01*
X007198Y005530D01*
X007207Y005551D01*
X007271Y005525D01*
X007337Y005525D01*
X007263Y005495D01*
X007189Y005420D01*
X007149Y005323D01*
X007149Y005217D01*
X007189Y005120D01*
X007254Y005055D01*
X007254Y004884D01*
X007059Y005079D01*
X007058Y005094D02*
X007215Y005094D01*
X007203Y004935D02*
X007254Y004935D01*
X007149Y005252D02*
X006956Y005252D01*
X006954Y005411D02*
X007185Y005411D01*
X007400Y005535D02*
X007474Y005565D01*
X007548Y005640D01*
X007550Y005643D01*
X007714Y005480D01*
X007714Y005302D01*
X007706Y005305D01*
X007679Y005305D01*
X007679Y005323D01*
X007638Y005420D01*
X007564Y005495D01*
X007466Y005535D01*
X007400Y005535D01*
X007477Y005569D02*
X007624Y005569D01*
X007642Y005411D02*
X007714Y005411D01*
X006990Y006203D02*
X006181Y006203D01*
X006022Y006362D02*
X006832Y006362D01*
X006673Y006520D02*
X005864Y006520D01*
X005705Y006679D02*
X006524Y006679D01*
X006524Y006837D02*
X005656Y006837D01*
X005660Y007154D02*
X006524Y007154D01*
X006524Y006996D02*
X005089Y006996D01*
X005004Y007154D02*
X005367Y007154D01*
X005255Y007313D02*
X004625Y007313D01*
X004617Y007471D02*
X005264Y007471D01*
X005423Y007630D02*
X004609Y007630D01*
X004574Y007788D02*
X005583Y007788D01*
X005772Y007313D02*
X005976Y007313D01*
X006411Y007313D02*
X006524Y007313D01*
X006524Y007471D02*
X006459Y007471D01*
X006409Y007630D02*
X006524Y007630D01*
X006524Y007788D02*
X006234Y007788D01*
X006234Y007947D02*
X006524Y007947D01*
X006524Y008105D02*
X006149Y008105D01*
X006349Y008264D02*
X006524Y008264D01*
X006864Y006837D02*
X007790Y006837D01*
X007632Y006679D02*
X006995Y006679D01*
X007154Y006520D02*
X007361Y006520D01*
X006017Y005886D02*
X004700Y005886D01*
X004708Y005728D02*
X006018Y005728D01*
X005979Y005569D02*
X004717Y005569D01*
X004725Y005411D02*
X005834Y005411D01*
X005675Y005252D02*
X004733Y005252D01*
X004761Y005094D02*
X005517Y005094D01*
X005358Y004935D02*
X004799Y004935D01*
X004735Y004777D02*
X005200Y004777D01*
X004724Y004301D02*
X004597Y004301D01*
X004278Y005728D02*
X004087Y005728D01*
X004088Y005886D02*
X004269Y005886D01*
X004261Y006045D02*
X004089Y006045D01*
X004090Y006203D02*
X004253Y006203D01*
X004245Y006362D02*
X004091Y006362D01*
X004098Y006520D02*
X004236Y006520D01*
X004228Y006679D02*
X004189Y006679D01*
X004162Y006837D02*
X004220Y006837D01*
X004659Y006679D02*
X004865Y006679D01*
X005023Y006520D02*
X004667Y006520D01*
X004675Y006362D02*
X005182Y006362D01*
X005329Y006203D02*
X004683Y006203D01*
X004692Y006045D02*
X005367Y006045D01*
X005820Y006045D02*
X005859Y006045D01*
X006159Y004935D02*
X006314Y004935D01*
X008474Y004618D02*
X008941Y004618D01*
X008783Y004460D02*
X008474Y004460D01*
X008474Y004301D02*
X008624Y004301D01*
X008799Y003995D02*
X009654Y004850D01*
X009754Y004950D01*
X009754Y008000D01*
X009824Y008070D01*
X009924Y008170D01*
X009924Y008618D01*
X009931Y008615D01*
X009998Y008615D01*
X009998Y008225D01*
X010080Y008143D01*
X010787Y008143D01*
X010804Y008160D01*
X010820Y008143D01*
X011527Y008143D01*
X011609Y008225D01*
X011609Y008544D01*
X011619Y008520D01*
X011693Y008445D01*
X011791Y008405D01*
X011804Y008405D01*
X011819Y008391D01*
X011884Y008325D01*
X011694Y008135D01*
X011569Y008009D01*
X010965Y007405D01*
X010514Y007405D01*
X010494Y007385D01*
X010473Y007405D01*
X009845Y007405D01*
X009763Y007323D01*
X009763Y006617D01*
X009845Y006535D01*
X010034Y006535D01*
X010034Y006330D01*
X010110Y006253D01*
X010074Y006166D01*
X010074Y006014D01*
X010131Y005875D01*
X010238Y005768D01*
X010378Y005710D01*
X010529Y005710D01*
X010589Y005735D01*
X010777Y005546D01*
X010777Y005087D01*
X010794Y005070D01*
X010777Y005053D01*
X010777Y004754D01*
X010574Y004551D01*
X010529Y004570D01*
X010378Y004570D01*
X010238Y004512D01*
X010131Y004405D01*
X010074Y004266D01*
X010074Y004114D01*
X010125Y003991D01*
X010004Y003870D01*
X010004Y003735D01*
X009725Y003735D01*
X009643Y003653D01*
X009643Y002947D01*
X009725Y002865D01*
X010353Y002865D01*
X010374Y002885D01*
X010394Y002865D01*
X010589Y002865D01*
X010589Y002171D01*
X010636Y002124D01*
X010630Y002122D01*
X010499Y001991D01*
X010428Y001820D01*
X010428Y001635D01*
X010499Y001464D01*
X010630Y001333D01*
X010801Y001262D01*
X010986Y001262D01*
X011157Y001333D01*
X011287Y001464D01*
X011358Y001635D01*
X011358Y001820D01*
X011287Y001991D01*
X011157Y002122D01*
X011099Y002146D01*
X011099Y002269D01*
X011019Y002349D01*
X011019Y002865D01*
X011022Y002865D01*
X011104Y002947D01*
X011104Y003036D01*
X011423Y003356D01*
X011459Y003270D01*
X011514Y003215D01*
X011514Y002250D01*
X011613Y002150D01*
X011634Y002130D01*
X011634Y002123D01*
X011630Y002122D01*
X011499Y001991D01*
X011428Y001820D01*
X011428Y001635D01*
X011499Y001464D01*
X011630Y001333D01*
X011801Y001262D01*
X011986Y001262D01*
X012157Y001333D01*
X012287Y001464D01*
X012358Y001635D01*
X012358Y001820D01*
X012287Y001991D01*
X012157Y002122D01*
X011986Y002192D01*
X011974Y002192D01*
X011974Y002270D01*
X011854Y002390D01*
X011854Y003215D01*
X011908Y003270D01*
X011949Y003367D01*
X011949Y003473D01*
X011908Y003570D01*
X011834Y003645D01*
X011798Y003660D01*
X011818Y003680D01*
X011859Y003777D01*
X011859Y003883D01*
X011818Y003980D01*
X011744Y004055D01*
X011646Y004095D01*
X011541Y004095D01*
X011443Y004055D01*
X011369Y003980D01*
X011329Y003883D01*
X011329Y003869D01*
X011104Y003645D01*
X011104Y003653D01*
X011022Y003735D01*
X010394Y003735D01*
X010374Y003715D01*
X010353Y003735D01*
X010349Y003735D01*
X010424Y003810D01*
X010529Y003810D01*
X010669Y003868D01*
X010776Y003975D01*
X010834Y004114D01*
X010834Y004266D01*
X010816Y004307D01*
X010859Y004265D01*
X011368Y004265D01*
X011450Y004347D01*
X011450Y004916D01*
X011666Y005132D01*
X011703Y005095D01*
X011801Y005055D01*
X011906Y005055D01*
X012004Y005095D01*
X012078Y005170D01*
X012119Y005267D01*
X012119Y005373D01*
X012118Y005373D01*
X012319Y005615D01*
X012364Y005660D01*
X012364Y005669D01*
X012369Y005676D01*
X012364Y005738D01*
X012364Y006623D01*
X012557Y006623D01*
X012574Y006640D01*
X012590Y006623D01*
X013297Y006623D01*
X013379Y006705D01*
X013379Y006725D01*
X013568Y006725D01*
X013568Y006685D01*
X013650Y006603D01*
X013759Y006603D01*
X013759Y006275D01*
X013695Y006275D01*
X013613Y006193D01*
X013613Y005487D01*
X013695Y005405D01*
X013799Y005405D01*
X013799Y005105D01*
X013695Y005105D01*
X013613Y005023D01*
X013613Y004892D01*
X013606Y004895D01*
X013501Y004895D01*
X013403Y004855D01*
X013329Y004780D01*
X013289Y004683D01*
X013289Y004577D01*
X013329Y004480D01*
X013403Y004405D01*
X013501Y004365D01*
X013606Y004365D01*
X013613Y004368D01*
X013613Y004317D01*
X013695Y004235D01*
X014323Y004235D01*
X014344Y004255D01*
X014364Y004235D01*
X014489Y004235D01*
X014489Y003795D01*
X014384Y003795D01*
X014364Y003775D01*
X014343Y003795D01*
X013715Y003795D01*
X013633Y003713D01*
X013633Y003007D01*
X013715Y002925D01*
X013774Y002925D01*
X013769Y002913D01*
X013769Y002807D01*
X013809Y002710D01*
X013883Y002635D01*
X013981Y002595D01*
X014086Y002595D01*
X014184Y002635D01*
X014258Y002710D01*
X014299Y002807D01*
X014299Y002913D01*
X014294Y002925D01*
X014343Y002925D01*
X014364Y002945D01*
X014384Y002925D01*
X015012Y002925D01*
X015094Y003007D01*
X015094Y003713D01*
X015012Y003795D01*
X014919Y003795D01*
X014919Y004235D01*
X014992Y004235D01*
X015074Y004317D01*
X015074Y005023D01*
X014992Y005105D01*
X014899Y005105D01*
X014899Y005405D01*
X014992Y005405D01*
X015074Y005487D01*
X015074Y006193D01*
X014992Y006275D01*
X014996Y006275D01*
X015094Y006315D01*
X015168Y006390D01*
X015204Y006475D01*
X015204Y002075D01*
X015157Y002122D01*
X014986Y002192D01*
X014801Y002192D01*
X014630Y002122D01*
X014499Y001991D01*
X014428Y001820D01*
X014428Y001635D01*
X014499Y001464D01*
X014630Y001333D01*
X014801Y001262D01*
X014986Y001262D01*
X015157Y001333D01*
X015204Y001380D01*
X015204Y001075D01*
X015157Y001122D01*
X014986Y001192D01*
X014801Y001192D01*
X014630Y001122D01*
X014499Y000991D01*
X014428Y000820D01*
X014428Y000635D01*
X014499Y000464D01*
X014603Y000360D01*
X014183Y000360D01*
X014287Y000464D01*
X014358Y000635D01*
X014358Y000820D01*
X014287Y000991D01*
X014157Y001122D01*
X013986Y001192D01*
X013801Y001192D01*
X013630Y001122D01*
X013499Y000991D01*
X013428Y000820D01*
X013428Y000635D01*
X013499Y000464D01*
X013603Y000360D01*
X013183Y000360D01*
X013287Y000464D01*
X013358Y000635D01*
X013358Y000820D01*
X013287Y000991D01*
X013157Y001122D01*
X012986Y001192D01*
X012801Y001192D01*
X012630Y001122D01*
X012499Y000991D01*
X012428Y000820D01*
X012428Y000635D01*
X012499Y000464D01*
X012603Y000360D01*
X012183Y000360D01*
X012287Y000464D01*
X012358Y000635D01*
X012358Y000820D01*
X012287Y000991D01*
X012157Y001122D01*
X011986Y001192D01*
X011801Y001192D01*
X011630Y001122D01*
X011499Y000991D01*
X011428Y000820D01*
X011428Y000635D01*
X011499Y000464D01*
X011603Y000360D01*
X011183Y000360D01*
X011287Y000464D01*
X011358Y000635D01*
X011358Y000820D01*
X011287Y000991D01*
X011157Y001122D01*
X010986Y001192D01*
X010801Y001192D01*
X010630Y001122D01*
X010499Y000991D01*
X010428Y000820D01*
X010428Y000635D01*
X010499Y000464D01*
X010603Y000360D01*
X010183Y000360D01*
X010287Y000464D01*
X010358Y000635D01*
X010358Y000820D01*
X010287Y000991D01*
X010157Y001122D01*
X009986Y001192D01*
X009801Y001192D01*
X009630Y001122D01*
X009499Y000991D01*
X009428Y000820D01*
X009428Y000635D01*
X009499Y000464D01*
X009603Y000360D01*
X009183Y000360D01*
X009287Y000464D01*
X009358Y000635D01*
X009358Y000820D01*
X009287Y000991D01*
X009157Y001122D01*
X008986Y001192D01*
X008801Y001192D01*
X008630Y001122D01*
X008499Y000991D01*
X008428Y000820D01*
X008428Y000635D01*
X008499Y000464D01*
X008603Y000360D01*
X008183Y000360D01*
X008287Y000464D01*
X008358Y000635D01*
X008358Y000820D01*
X008287Y000991D01*
X008157Y001122D01*
X008134Y001131D01*
X008653Y001131D01*
X008735Y001290D02*
X008283Y001290D01*
X008134Y001140D02*
X008134Y001131D01*
X008134Y001140D02*
X008484Y001490D01*
X008484Y001501D01*
X008499Y001464D01*
X008630Y001333D01*
X008801Y001262D01*
X008986Y001262D01*
X009157Y001333D01*
X009287Y001464D01*
X009358Y001635D01*
X009358Y001820D01*
X009287Y001991D01*
X009157Y002122D01*
X009134Y002131D01*
X009134Y003538D01*
X009224Y003575D01*
X009298Y003650D01*
X009339Y003747D01*
X009339Y003853D01*
X009298Y003950D01*
X009224Y004025D01*
X009126Y004065D01*
X009021Y004065D01*
X008923Y004025D01*
X008849Y003950D01*
X008809Y003853D01*
X008809Y003775D01*
X008794Y003760D01*
X008794Y002189D01*
X008630Y002122D01*
X008499Y001991D01*
X008484Y001953D01*
X008484Y002280D01*
X008474Y002290D01*
X008474Y003708D01*
X008481Y003705D01*
X008586Y003705D01*
X008684Y003745D01*
X008758Y003820D01*
X008799Y003917D01*
X008799Y003995D01*
X008799Y003984D02*
X008883Y003984D01*
X008946Y004143D02*
X010074Y004143D01*
X010088Y004301D02*
X009105Y004301D01*
X009263Y004460D02*
X010186Y004460D01*
X010117Y003984D02*
X009264Y003984D01*
X009339Y003826D02*
X010004Y003826D01*
X009657Y003667D02*
X009305Y003667D01*
X009134Y003509D02*
X009643Y003509D01*
X009643Y003350D02*
X009134Y003350D01*
X009134Y003192D02*
X009643Y003192D01*
X009643Y003033D02*
X009134Y003033D01*
X009134Y002875D02*
X009715Y002875D01*
X009134Y002716D02*
X010589Y002716D01*
X010589Y002558D02*
X009134Y002558D01*
X009134Y002399D02*
X010589Y002399D01*
X010589Y002241D02*
X009134Y002241D01*
X009196Y002082D02*
X009590Y002082D01*
X009630Y002122D02*
X009499Y001991D01*
X009428Y001820D01*
X009428Y001635D01*
X009499Y001464D01*
X009630Y001333D01*
X009801Y001262D01*
X009986Y001262D01*
X010157Y001333D01*
X010287Y001464D01*
X010358Y001635D01*
X010358Y001820D01*
X010287Y001991D01*
X010157Y002122D01*
X009986Y002192D01*
X009801Y002192D01*
X009630Y002122D01*
X009471Y001924D02*
X009315Y001924D01*
X009358Y001765D02*
X009428Y001765D01*
X009440Y001607D02*
X009346Y001607D01*
X009271Y001448D02*
X009515Y001448D01*
X009735Y001290D02*
X009051Y001290D01*
X009134Y001131D02*
X009653Y001131D01*
X009491Y000973D02*
X009295Y000973D01*
X009358Y000814D02*
X009428Y000814D01*
X009428Y000656D02*
X009358Y000656D01*
X009301Y000497D02*
X009485Y000497D01*
X010134Y001131D02*
X010653Y001131D01*
X010735Y001290D02*
X010051Y001290D01*
X010271Y001448D02*
X010515Y001448D01*
X010440Y001607D02*
X010346Y001607D01*
X010358Y001765D02*
X010428Y001765D01*
X010471Y001924D02*
X010315Y001924D01*
X010196Y002082D02*
X010590Y002082D01*
X011019Y002399D02*
X011514Y002399D01*
X011514Y002558D02*
X011019Y002558D01*
X011019Y002716D02*
X011514Y002716D01*
X011514Y002875D02*
X011032Y002875D01*
X011104Y003033D02*
X011514Y003033D01*
X011514Y003192D02*
X011259Y003192D01*
X011418Y003350D02*
X011426Y003350D01*
X011126Y003667D02*
X011090Y003667D01*
X011285Y003826D02*
X010567Y003826D01*
X010780Y003984D02*
X011373Y003984D01*
X011405Y004301D02*
X013629Y004301D01*
X013349Y004460D02*
X011450Y004460D01*
X011450Y004618D02*
X013289Y004618D01*
X013327Y004777D02*
X011450Y004777D01*
X011469Y004935D02*
X013613Y004935D01*
X013683Y005094D02*
X011999Y005094D01*
X012112Y005252D02*
X013799Y005252D01*
X013689Y005411D02*
X012149Y005411D01*
X012281Y005569D02*
X013613Y005569D01*
X013613Y005728D02*
X012365Y005728D01*
X012364Y005886D02*
X013613Y005886D01*
X013613Y006045D02*
X012364Y006045D01*
X012364Y006203D02*
X013623Y006203D01*
X013759Y006362D02*
X012364Y006362D01*
X012364Y006520D02*
X013759Y006520D01*
X013575Y006679D02*
X013352Y006679D01*
X014189Y006603D02*
X014189Y006275D01*
X014323Y006275D01*
X014344Y006255D01*
X014364Y006275D01*
X014414Y006275D01*
X014409Y006287D01*
X014409Y006393D01*
X014449Y006490D01*
X014523Y006565D01*
X014616Y006603D01*
X014390Y006603D01*
X014374Y006620D01*
X014357Y006603D01*
X014189Y006603D01*
X014189Y006520D02*
X014479Y006520D01*
X014409Y006362D02*
X014189Y006362D01*
X015064Y006203D02*
X015204Y006203D01*
X015204Y006045D02*
X015074Y006045D01*
X015074Y005886D02*
X015204Y005886D01*
X015204Y005728D02*
X015074Y005728D01*
X015074Y005569D02*
X015204Y005569D01*
X015204Y005411D02*
X014998Y005411D01*
X014899Y005252D02*
X015204Y005252D01*
X015204Y005094D02*
X015004Y005094D01*
X015074Y004935D02*
X015204Y004935D01*
X015204Y004777D02*
X015074Y004777D01*
X015074Y004618D02*
X015204Y004618D01*
X015204Y004460D02*
X015074Y004460D01*
X015058Y004301D02*
X015204Y004301D01*
X015204Y004143D02*
X014919Y004143D01*
X014919Y003984D02*
X015204Y003984D01*
X015204Y003826D02*
X014919Y003826D01*
X015094Y003667D02*
X015204Y003667D01*
X015204Y003509D02*
X015094Y003509D01*
X015094Y003350D02*
X015204Y003350D01*
X015204Y003192D02*
X015094Y003192D01*
X015094Y003033D02*
X015204Y003033D01*
X015204Y002875D02*
X014299Y002875D01*
X014261Y002716D02*
X015204Y002716D01*
X015204Y002558D02*
X011854Y002558D01*
X011854Y002716D02*
X013806Y002716D01*
X013769Y002875D02*
X011854Y002875D01*
X011854Y003033D02*
X013633Y003033D01*
X013633Y003192D02*
X011854Y003192D01*
X011941Y003350D02*
X013633Y003350D01*
X013633Y003509D02*
X011934Y003509D01*
X011805Y003667D02*
X013633Y003667D01*
X014489Y003826D02*
X011859Y003826D01*
X011814Y003984D02*
X014489Y003984D01*
X014489Y004143D02*
X010834Y004143D01*
X010819Y004301D02*
X010822Y004301D01*
X010641Y004618D02*
X009422Y004618D01*
X009580Y004777D02*
X010777Y004777D01*
X010777Y004935D02*
X009739Y004935D01*
X009754Y005094D02*
X010777Y005094D01*
X010777Y005252D02*
X009754Y005252D01*
X009754Y005411D02*
X010777Y005411D01*
X010754Y005569D02*
X009754Y005569D01*
X009754Y005728D02*
X010336Y005728D01*
X010127Y005886D02*
X009754Y005886D01*
X009754Y006045D02*
X010074Y006045D01*
X010089Y006203D02*
X009754Y006203D01*
X009754Y006362D02*
X010034Y006362D01*
X010034Y006520D02*
X009754Y006520D01*
X009754Y006679D02*
X009763Y006679D01*
X009754Y006837D02*
X009763Y006837D01*
X009754Y006996D02*
X009763Y006996D01*
X009754Y007154D02*
X009763Y007154D01*
X009754Y007313D02*
X009763Y007313D01*
X009754Y007471D02*
X011031Y007471D01*
X011189Y007630D02*
X009754Y007630D01*
X009754Y007788D02*
X011348Y007788D01*
X011506Y007947D02*
X009754Y007947D01*
X009859Y008105D02*
X011665Y008105D01*
X011694Y008135D02*
X011694Y008135D01*
X011609Y008264D02*
X011823Y008264D01*
X011750Y008422D02*
X011609Y008422D01*
X011569Y008009D02*
X011569Y008009D01*
X011945Y007630D02*
X014492Y007630D01*
X014509Y007590D02*
X014469Y007687D01*
X014469Y007793D01*
X014509Y007890D01*
X014519Y007900D01*
X014519Y008344D01*
X014513Y008344D01*
X014431Y008426D01*
X014431Y009014D01*
X014513Y009096D01*
X014944Y009096D01*
X015026Y009014D01*
X015026Y008426D01*
X014949Y008348D01*
X014949Y007900D01*
X014958Y007890D01*
X014999Y007793D01*
X014999Y007687D01*
X014958Y007590D01*
X014884Y007515D01*
X014786Y007475D01*
X014681Y007475D01*
X014583Y007515D01*
X014509Y007590D01*
X014469Y007788D02*
X013604Y007788D01*
X013484Y007788D02*
X012086Y007788D01*
X012114Y007947D02*
X013300Y007947D01*
X013364Y008245D02*
X013364Y008320D01*
X013424Y008380D01*
X013459Y008415D01*
X013536Y008415D01*
X013557Y008423D01*
X013473Y008340D01*
X013418Y008285D01*
X013393Y008275D01*
X013364Y008245D01*
X013364Y008264D02*
X013382Y008264D01*
X013424Y008380D02*
X013424Y008380D01*
X013553Y008422D02*
X013555Y008422D01*
X013877Y008264D02*
X014519Y008264D01*
X014519Y008105D02*
X013808Y008105D01*
X013788Y007947D02*
X014519Y007947D01*
X014949Y007947D02*
X015204Y007947D01*
X015204Y008105D02*
X014949Y008105D01*
X014949Y008264D02*
X015204Y008264D01*
X015204Y008422D02*
X015022Y008422D01*
X015026Y008581D02*
X015204Y008581D01*
X015204Y008739D02*
X015026Y008739D01*
X015026Y008898D02*
X015204Y008898D01*
X015204Y009056D02*
X014984Y009056D01*
X015204Y009215D02*
X014378Y009215D01*
X014357Y009056D02*
X014473Y009056D01*
X014431Y008898D02*
X014396Y008898D01*
X014396Y008739D02*
X014431Y008739D01*
X014431Y008581D02*
X014396Y008581D01*
X014392Y008422D02*
X014435Y008422D01*
X013801Y008739D02*
X013746Y008739D01*
X013801Y008898D02*
X013641Y008898D01*
X013843Y009056D02*
X012000Y009056D01*
X011987Y008898D02*
X013326Y008898D01*
X013849Y009215D02*
X012158Y009215D01*
X012317Y009373D02*
X013952Y009373D01*
X014275Y009373D02*
X015204Y009373D01*
X015204Y009532D02*
X012475Y009532D01*
X012634Y009690D02*
X015204Y009690D01*
X015204Y009849D02*
X012792Y009849D01*
X012951Y010007D02*
X015204Y010007D01*
X015204Y010166D02*
X013109Y010166D01*
X013268Y010324D02*
X015204Y010324D01*
X015204Y010483D02*
X013426Y010483D01*
X013585Y010641D02*
X015204Y010641D01*
X014055Y011592D02*
X008389Y011592D01*
X008389Y011751D02*
X008793Y011751D01*
X008793Y011909D02*
X008389Y011909D01*
X008346Y012068D02*
X008793Y012068D01*
X008793Y012226D02*
X008117Y012226D01*
X008633Y012385D02*
X008793Y012385D01*
X008739Y012702D02*
X008704Y012702D01*
X008919Y012860D02*
X008399Y012860D01*
X009048Y012860D02*
X013413Y012860D01*
X013354Y012702D02*
X009228Y012702D01*
X009247Y012543D02*
X013354Y012543D01*
X013411Y012385D02*
X012096Y012385D01*
X012061Y012420D02*
X011746Y012420D01*
X011524Y012197D01*
X011524Y011883D01*
X011746Y011660D01*
X012061Y011660D01*
X012284Y011883D01*
X012284Y012197D01*
X012061Y012420D01*
X012255Y012226D02*
X013545Y012226D01*
X014143Y012226D02*
X014264Y012226D01*
X014264Y012068D02*
X012284Y012068D01*
X012284Y011909D02*
X014264Y011909D01*
X014214Y011751D02*
X012151Y011751D01*
X011656Y011751D02*
X010254Y011751D01*
X010517Y011909D02*
X011524Y011909D01*
X011524Y012068D02*
X010579Y012068D01*
X010540Y012226D02*
X011552Y012226D01*
X011711Y012385D02*
X010254Y012385D01*
X010746Y011420D02*
X010524Y011197D01*
X010524Y010883D01*
X010746Y010660D01*
X011061Y010660D01*
X011284Y010883D01*
X011284Y011197D01*
X011061Y011420D01*
X010746Y011420D01*
X010601Y011275D02*
X005496Y011275D01*
X005517Y011117D02*
X010524Y011117D01*
X010524Y010958D02*
X005676Y010958D01*
X005754Y010800D02*
X010607Y010800D01*
X011154Y010324D02*
X005754Y010324D01*
X005534Y011434D02*
X006025Y011434D01*
X005921Y011592D02*
X005518Y011592D01*
X005438Y011751D02*
X005938Y011751D01*
X006116Y011909D02*
X005208Y011909D01*
X008307Y011434D02*
X013897Y011434D01*
X012601Y011275D02*
X011206Y011275D01*
X011284Y011117D02*
X012524Y011117D01*
X012524Y010958D02*
X011284Y010958D01*
X011200Y010800D02*
X012607Y010800D01*
X011361Y008898D02*
X010579Y008898D01*
X010838Y009215D02*
X010849Y009215D01*
X009998Y008581D02*
X009924Y008581D01*
X009924Y008422D02*
X009998Y008422D01*
X009998Y008264D02*
X009924Y008264D01*
X011322Y007154D02*
X011768Y007154D01*
X011768Y006996D02*
X011224Y006996D01*
X011224Y006837D02*
X011768Y006837D01*
X011795Y006679D02*
X011224Y006679D01*
X010719Y006362D02*
X012024Y006362D01*
X012024Y006520D02*
X010374Y006520D01*
X010818Y006203D02*
X012024Y006203D01*
X012024Y006045D02*
X011794Y006045D01*
X011879Y005886D02*
X012024Y005886D01*
X011971Y005728D02*
X011850Y005728D01*
X011454Y005635D02*
X011454Y005400D01*
X011450Y005397D01*
X011450Y005638D01*
X011454Y005635D01*
X011450Y005569D02*
X011454Y005569D01*
X011450Y005411D02*
X011454Y005411D01*
X011627Y005094D02*
X011708Y005094D01*
X011349Y005886D02*
X010918Y005886D01*
X010834Y006045D02*
X011433Y006045D01*
X010596Y005728D02*
X010571Y005728D01*
X011480Y007313D02*
X015204Y007313D01*
X015204Y007471D02*
X011639Y007471D01*
X014229Y005405D02*
X014229Y005105D01*
X014323Y005105D01*
X014344Y005085D01*
X014350Y005091D01*
X014339Y005117D01*
X014339Y005223D01*
X014379Y005320D01*
X014453Y005395D01*
X014469Y005401D01*
X014469Y005405D01*
X014364Y005405D01*
X014344Y005425D01*
X014323Y005405D01*
X014229Y005405D01*
X014329Y005411D02*
X014359Y005411D01*
X014351Y005252D02*
X014229Y005252D01*
X014335Y005094D02*
X014348Y005094D01*
X015140Y006362D02*
X015204Y006362D01*
X015204Y006679D02*
X015173Y006679D01*
X015179Y006837D02*
X015204Y006837D01*
X015204Y006996D02*
X015179Y006996D01*
X015179Y007154D02*
X015204Y007154D01*
X015204Y007630D02*
X014975Y007630D01*
X014999Y007788D02*
X015204Y007788D01*
X010385Y002875D02*
X010363Y002875D01*
X011099Y002241D02*
X011523Y002241D01*
X011590Y002082D02*
X011196Y002082D01*
X011315Y001924D02*
X011471Y001924D01*
X011428Y001765D02*
X011358Y001765D01*
X011346Y001607D02*
X011440Y001607D01*
X011515Y001448D02*
X011271Y001448D01*
X011051Y001290D02*
X011735Y001290D01*
X011653Y001131D02*
X011134Y001131D01*
X011295Y000973D02*
X011491Y000973D01*
X011428Y000814D02*
X011358Y000814D01*
X011358Y000656D02*
X011428Y000656D01*
X011485Y000497D02*
X011301Y000497D01*
X010485Y000497D02*
X010301Y000497D01*
X010358Y000656D02*
X010428Y000656D01*
X010428Y000814D02*
X010358Y000814D01*
X010295Y000973D02*
X010491Y000973D01*
X011854Y002399D02*
X015204Y002399D01*
X015204Y002241D02*
X011974Y002241D01*
X012196Y002082D02*
X012590Y002082D01*
X012630Y002122D02*
X012499Y001991D01*
X012428Y001820D01*
X012428Y001635D01*
X012499Y001464D01*
X012630Y001333D01*
X012801Y001262D01*
X012986Y001262D01*
X013157Y001333D01*
X013287Y001464D01*
X013358Y001635D01*
X013358Y001820D01*
X013287Y001991D01*
X013157Y002122D01*
X012986Y002192D01*
X012801Y002192D01*
X012630Y002122D01*
X012471Y001924D02*
X012315Y001924D01*
X012358Y001765D02*
X012428Y001765D01*
X012440Y001607D02*
X012346Y001607D01*
X012271Y001448D02*
X012515Y001448D01*
X012735Y001290D02*
X012051Y001290D01*
X012134Y001131D02*
X012653Y001131D01*
X012491Y000973D02*
X012295Y000973D01*
X012358Y000814D02*
X012428Y000814D01*
X012428Y000656D02*
X012358Y000656D01*
X012301Y000497D02*
X012485Y000497D01*
X013134Y001131D02*
X013653Y001131D01*
X013735Y001290D02*
X013051Y001290D01*
X013271Y001448D02*
X013515Y001448D01*
X013499Y001464D02*
X013630Y001333D01*
X013801Y001262D01*
X013986Y001262D01*
X014157Y001333D01*
X014287Y001464D01*
X014358Y001635D01*
X014358Y001820D01*
X014287Y001991D01*
X014157Y002122D01*
X013986Y002192D01*
X013801Y002192D01*
X013630Y002122D01*
X013499Y001991D01*
X013428Y001820D01*
X013428Y001635D01*
X013499Y001464D01*
X013440Y001607D02*
X013346Y001607D01*
X013358Y001765D02*
X013428Y001765D01*
X013471Y001924D02*
X013315Y001924D01*
X013196Y002082D02*
X013590Y002082D01*
X014196Y002082D02*
X014590Y002082D01*
X014471Y001924D02*
X014315Y001924D01*
X014358Y001765D02*
X014428Y001765D01*
X014440Y001607D02*
X014346Y001607D01*
X014271Y001448D02*
X014515Y001448D01*
X014735Y001290D02*
X014051Y001290D01*
X014134Y001131D02*
X014653Y001131D01*
X014491Y000973D02*
X014295Y000973D01*
X014358Y000814D02*
X014428Y000814D01*
X014428Y000656D02*
X014358Y000656D01*
X014301Y000497D02*
X014485Y000497D01*
X015183Y000360D02*
X015204Y000380D01*
X015204Y000360D01*
X015183Y000360D01*
X015204Y001131D02*
X015134Y001131D01*
X015204Y001290D02*
X015051Y001290D01*
X015196Y002082D02*
X015204Y002082D01*
X013491Y000973D02*
X013295Y000973D01*
X013358Y000814D02*
X013428Y000814D01*
X013428Y000656D02*
X013358Y000656D01*
X013301Y000497D02*
X013485Y000497D01*
X008794Y002241D02*
X008484Y002241D01*
X008474Y002399D02*
X008794Y002399D01*
X008794Y002558D02*
X008474Y002558D01*
X008474Y002716D02*
X008794Y002716D01*
X008794Y002875D02*
X008474Y002875D01*
X008474Y003033D02*
X008794Y003033D01*
X008794Y003192D02*
X008474Y003192D01*
X008474Y003350D02*
X008794Y003350D01*
X008794Y003509D02*
X008474Y003509D01*
X008474Y003667D02*
X008794Y003667D01*
X008809Y003826D02*
X008761Y003826D01*
X008590Y002082D02*
X008484Y002082D01*
X008515Y001448D02*
X008442Y001448D01*
X008491Y000973D02*
X008295Y000973D01*
X008358Y000814D02*
X008428Y000814D01*
X008428Y000656D02*
X008358Y000656D01*
X008301Y000497D02*
X008485Y000497D01*
X007794Y001189D02*
X007630Y001122D01*
X007499Y000991D01*
X007428Y000820D01*
X007428Y000635D01*
X007499Y000464D01*
X007603Y000360D01*
X007183Y000360D01*
X007287Y000464D01*
X007358Y000635D01*
X007358Y000820D01*
X007295Y000971D01*
X007484Y001160D01*
X007484Y001501D01*
X007499Y001464D01*
X007630Y001333D01*
X007794Y001265D01*
X007794Y001189D01*
X007735Y001290D02*
X007484Y001290D01*
X007484Y001448D02*
X007515Y001448D01*
X007455Y001131D02*
X007653Y001131D01*
X007491Y000973D02*
X007296Y000973D01*
X007358Y000814D02*
X007428Y000814D01*
X007428Y000656D02*
X007358Y000656D01*
X007301Y000497D02*
X007485Y000497D01*
X007133Y001290D02*
X007051Y001290D01*
X004428Y000814D02*
X004358Y000814D01*
X004358Y000656D02*
X004428Y000656D01*
X004485Y000497D02*
X004301Y000497D01*
X002568Y003667D02*
X002554Y003667D01*
X002554Y003826D02*
X002568Y003826D01*
X002554Y003984D02*
X002568Y003984D01*
X002554Y004143D02*
X002596Y004143D01*
X004634Y007154D02*
X004643Y007154D01*
X011213Y013653D02*
X012594Y013653D01*
X012524Y013811D02*
X011284Y013811D01*
X011284Y013970D02*
X012524Y013970D01*
X012614Y014128D02*
X011193Y014128D01*
X014055Y013177D02*
X014404Y013177D01*
X014372Y013019D02*
X014138Y013019D01*
M02*
