G75*
G70*
%OFA0B0*%
%FSLAX24Y24*%
%IPPOS*%
%LPD*%
%AMOC8*
5,1,8,0,0,1.08239X$1,22.5*
%
%ADD10C,0.0827*%
%ADD11R,0.0631X0.0434*%
%ADD12C,0.0520*%
%ADD13R,0.0552X0.0631*%
%ADD14R,0.0434X0.0631*%
%ADD15OC8,0.0520*%
%ADD16C,0.0690*%
%ADD17C,0.0740*%
%ADD18C,0.0700*%
%ADD19R,0.0355X0.0512*%
D10*
X005377Y014515D03*
D11*
X007223Y012630D03*
X007964Y012630D03*
X007954Y011770D03*
X007213Y011770D03*
X007444Y008630D03*
X006703Y008630D03*
X010433Y008480D03*
X011174Y008480D03*
X011214Y009540D03*
X010473Y009540D03*
X012203Y006960D03*
X012944Y006960D03*
X014003Y006940D03*
X014744Y006940D03*
X003734Y005130D03*
X002993Y005130D03*
X003003Y003860D03*
X003744Y003860D03*
X003734Y002800D03*
X002993Y002800D03*
D12*
X010454Y004190D03*
X010454Y006090D03*
D13*
X010159Y006970D03*
X010828Y006970D03*
X012299Y008430D03*
X012968Y008430D03*
X014009Y005840D03*
X014678Y005840D03*
X014678Y004670D03*
X014009Y004670D03*
X014029Y003360D03*
X014698Y003360D03*
X010708Y003300D03*
X010039Y003300D03*
X006498Y003490D03*
X005829Y003490D03*
X005718Y008660D03*
X005049Y008660D03*
X008509Y008660D03*
X009178Y008660D03*
X009189Y012080D03*
X009858Y012080D03*
D14*
X011114Y005440D03*
X011114Y004700D03*
D15*
X010904Y011040D03*
X011904Y012040D03*
X012904Y011040D03*
X012904Y013880D03*
X011904Y014880D03*
X010904Y013880D03*
D16*
X002893Y000727D03*
X003893Y000727D03*
X004893Y000727D03*
X005893Y000727D03*
X006893Y000727D03*
X007893Y000727D03*
X008893Y000727D03*
X009893Y000727D03*
X010893Y000727D03*
X011893Y000727D03*
X012893Y000727D03*
X013893Y000727D03*
X014893Y000727D03*
X014893Y001727D03*
X013893Y001727D03*
X012893Y001727D03*
X011893Y001727D03*
X010893Y001727D03*
X009893Y001727D03*
X008893Y001727D03*
X007893Y001727D03*
X006893Y001727D03*
X005893Y001727D03*
X004893Y001727D03*
X003893Y001727D03*
X002893Y001727D03*
D17*
X013844Y012620D03*
X014844Y012620D03*
X014844Y013620D03*
X014844Y014620D03*
X013844Y014620D03*
X013844Y013620D03*
D18*
X005064Y012820D03*
X005064Y011460D03*
D19*
X014099Y008720D03*
X014729Y008720D03*
M02*
