G75*
G70*
%OFA0B0*%
%FSLAX24Y24*%
%IPPOS*%
%LPD*%
%AMOC8*
5,1,8,0,0,1.08239X$1,22.5*
%
%ADD10OC8,0.0480*%
%ADD11C,0.0650*%
%ADD12OC8,0.0630*%
%ADD13OC8,0.0660*%
%ADD14C,0.0700*%
%ADD15C,0.0660*%
%ADD16C,0.0531*%
%ADD17OC8,0.0680*%
%ADD18R,0.0740X0.0740*%
%ADD19C,0.0740*%
%ADD20R,0.0480X0.0480*%
%ADD21C,0.0480*%
%ADD22C,0.0100*%
%ADD23C,0.0360*%
%ADD24C,0.0160*%
%ADD25C,0.0150*%
D10*
X001410Y006751D03*
X002410Y006751D03*
X003490Y006751D03*
X004490Y006751D03*
X005570Y006751D03*
X006570Y006751D03*
X008070Y007871D03*
X007570Y008621D03*
X008570Y008621D03*
X008060Y010091D03*
X007560Y010841D03*
X008560Y010841D03*
X010330Y011231D03*
X010330Y010231D03*
X010290Y009091D03*
X010290Y008091D03*
X011550Y008091D03*
X011550Y009091D03*
X011590Y010231D03*
X011590Y011231D03*
X012830Y011251D03*
X012830Y010251D03*
X014170Y010251D03*
X014170Y011251D03*
X013810Y012491D03*
X013810Y013491D03*
X012490Y013491D03*
X012490Y012491D03*
X011250Y012491D03*
X011250Y013491D03*
X016430Y013451D03*
X016430Y012451D03*
X017470Y012451D03*
X017470Y013451D03*
X018490Y013451D03*
X019440Y013451D03*
X019440Y012451D03*
X018490Y012451D03*
X019610Y010451D03*
X019610Y009451D03*
X018550Y021231D03*
X018550Y022231D03*
X004950Y014021D03*
X003950Y013021D03*
X004950Y012021D03*
X004930Y010881D03*
X003930Y009881D03*
X004930Y008881D03*
X003380Y017571D03*
X003380Y018571D03*
D11*
X004870Y019071D03*
X004870Y017071D03*
D12*
X003360Y016531D03*
X003360Y015531D03*
X002070Y014671D03*
X002070Y013671D03*
X001990Y009231D03*
X001990Y008231D03*
X007910Y006351D03*
X008910Y006351D03*
X010150Y006391D03*
X011150Y006391D03*
X012830Y008071D03*
X012830Y009071D03*
X014170Y009091D03*
X014170Y008091D03*
X016430Y006111D03*
X017430Y006111D03*
X019570Y007451D03*
X019570Y008451D03*
X015070Y012431D03*
X015070Y013431D03*
X019670Y015151D03*
X019670Y016151D03*
X019670Y017151D03*
X019670Y018151D03*
X019670Y019151D03*
X019670Y020151D03*
X019670Y021191D03*
X019670Y022191D03*
X009610Y013411D03*
X009610Y012411D03*
X003370Y019631D03*
X003370Y020631D03*
X004870Y021011D03*
X004870Y022011D03*
D13*
X005750Y005814D03*
X005750Y004814D03*
X003750Y004814D03*
X003750Y005814D03*
X001750Y005837D03*
X001750Y004837D03*
D14*
X001550Y010411D03*
X001550Y011411D03*
X001550Y012411D03*
X002550Y012411D03*
X002550Y011411D03*
X002550Y010411D03*
D15*
X007810Y012451D03*
X007810Y013411D03*
D16*
X012190Y006351D03*
X014990Y006351D03*
D17*
X015390Y007451D03*
X015390Y008451D03*
X015390Y009451D03*
X015390Y010451D03*
X018390Y010451D03*
X018390Y009451D03*
X018390Y008451D03*
X018390Y007451D03*
D18*
X012750Y023336D03*
X004250Y023336D03*
D19*
X005250Y023336D03*
X006250Y023336D03*
X007250Y023336D03*
X008250Y023336D03*
X009250Y023336D03*
X010250Y023336D03*
X011250Y023336D03*
X013750Y023336D03*
X014750Y023336D03*
X015750Y023336D03*
X016750Y023336D03*
X017750Y023336D03*
X018750Y023336D03*
X019750Y023336D03*
X019750Y004651D03*
X018750Y004651D03*
X017750Y004651D03*
X016750Y004651D03*
X015750Y004651D03*
X014750Y004651D03*
X012750Y004651D03*
X011750Y004651D03*
X010750Y004651D03*
X009750Y004651D03*
X008750Y004651D03*
X007750Y004651D03*
D20*
X006410Y015071D03*
D21*
X007410Y014831D02*
X007410Y015311D01*
X008410Y015311D02*
X008410Y014831D01*
X009410Y014831D02*
X009410Y015311D01*
X010410Y015311D02*
X010410Y014831D01*
X011410Y014831D02*
X011410Y015311D01*
X012410Y015311D02*
X012410Y014831D01*
X013410Y014831D02*
X013410Y015311D01*
X014410Y015311D02*
X014410Y014831D01*
X015410Y014831D02*
X015410Y015311D01*
X016410Y015311D02*
X016410Y014831D01*
X017410Y014831D02*
X017410Y015311D01*
X017410Y020831D02*
X017410Y021311D01*
X016410Y021311D02*
X016410Y020831D01*
X015410Y020831D02*
X015410Y021311D01*
X014410Y021311D02*
X014410Y020831D01*
X013410Y020831D02*
X013410Y021311D01*
X012410Y021311D02*
X012410Y020831D01*
X011410Y020831D02*
X011410Y021311D01*
X010410Y021311D02*
X010410Y020831D01*
X009410Y020831D02*
X009410Y021311D01*
X008410Y021311D02*
X008410Y020831D01*
X007410Y020831D02*
X007410Y021311D01*
X006410Y021311D02*
X006410Y020831D01*
D22*
X006330Y020271D02*
X009200Y017401D01*
X012110Y017401D01*
X011840Y018741D02*
X016260Y018741D01*
X017210Y019691D01*
X017080Y020161D02*
X016410Y020831D01*
X016410Y021071D01*
X017080Y020161D02*
X018660Y020161D01*
X019670Y019151D01*
X017690Y019701D02*
X014760Y016771D01*
X009930Y016771D01*
X010290Y015981D02*
X008080Y015981D01*
X008025Y015926D01*
X007990Y015961D01*
X007980Y015961D01*
X004870Y019071D01*
X004870Y017071D02*
X004870Y016591D01*
X004880Y016591D01*
X006400Y015071D01*
X006410Y015071D01*
X007410Y015071D02*
X007410Y015311D01*
X008025Y015926D01*
X008520Y014121D02*
X014630Y014121D01*
X015100Y014121D02*
X017750Y014121D01*
X018390Y013481D01*
X018450Y013481D01*
X018490Y013451D01*
X018530Y013491D01*
X019110Y013491D01*
X019150Y013451D01*
X019440Y013451D01*
X019440Y012451D02*
X018170Y011181D01*
X016130Y011181D01*
X015400Y010451D01*
X015390Y010451D01*
X014170Y010251D02*
X016160Y012241D01*
X016220Y012241D01*
X016430Y012451D01*
X016400Y013411D02*
X016430Y013451D01*
X016470Y013491D01*
X017140Y013491D01*
X017180Y013451D01*
X017470Y013451D01*
X016400Y013411D02*
X015090Y013411D01*
X015070Y013431D01*
X015100Y014121D02*
X014570Y014651D01*
X014410Y014651D01*
X014410Y015071D01*
X014090Y015981D02*
X015740Y015981D01*
X016410Y015311D01*
X016410Y015071D01*
X014090Y015981D02*
X013630Y016441D01*
X010750Y016441D02*
X010290Y015981D01*
X008520Y014121D02*
X007810Y013411D01*
X007810Y012451D02*
X007320Y011961D01*
X005900Y011961D01*
X006140Y011701D02*
X006070Y011631D01*
X005400Y011631D01*
X005220Y011811D01*
X005160Y011811D01*
X004950Y012021D01*
X005120Y011601D02*
X004750Y011601D01*
X004610Y011461D01*
X003560Y011461D01*
X002990Y012031D01*
X002860Y012031D01*
X002760Y011931D01*
X002070Y011931D01*
X001550Y011411D01*
X001550Y010411D02*
X001550Y010371D01*
X002240Y009681D01*
X002510Y009681D01*
X003960Y008231D01*
X007040Y008231D01*
X007240Y008391D01*
X007280Y008411D01*
X007570Y008621D01*
X008070Y007871D02*
X008230Y007681D01*
X008260Y007661D01*
X008470Y007451D01*
X010840Y007451D01*
X011480Y008091D01*
X011550Y008091D01*
X011580Y008051D01*
X012810Y008051D01*
X012830Y008071D01*
X011550Y009091D02*
X011340Y008881D01*
X011280Y008881D01*
X010520Y008121D01*
X010330Y008121D01*
X010290Y008091D01*
X010220Y008091D01*
X009830Y007701D01*
X008880Y007701D01*
X008800Y007781D01*
X009660Y008371D02*
X008760Y009271D01*
X005380Y009271D01*
X005190Y009081D01*
X005130Y009081D01*
X004930Y008881D01*
X005110Y007771D02*
X002450Y007771D01*
X001990Y008231D01*
X003160Y007441D02*
X006620Y007441D01*
X006620Y007491D01*
X006620Y007441D02*
X007520Y007441D01*
X007120Y005641D02*
X015240Y005641D01*
X015390Y008451D02*
X015100Y008741D01*
X015090Y008741D01*
X014760Y009071D01*
X014190Y009071D01*
X014170Y009091D01*
X014170Y011251D02*
X014100Y011251D01*
X013450Y011901D01*
X012560Y011901D01*
X012520Y011861D01*
X012220Y011861D01*
X012200Y011881D01*
X011320Y011881D01*
X011300Y011861D01*
X010060Y011861D01*
X009900Y011701D01*
X006140Y011701D01*
X006220Y011521D02*
X006150Y011451D01*
X005270Y011451D01*
X005120Y011601D01*
X006220Y011521D02*
X008860Y011521D01*
X009090Y011291D01*
X010270Y011291D01*
X010330Y011231D01*
X010360Y010271D02*
X010330Y010231D01*
X010040Y010231D01*
X010000Y010271D01*
X009820Y010271D01*
X009700Y010151D01*
X008200Y010151D01*
X008060Y010091D01*
X007730Y009601D02*
X007870Y009461D01*
X009050Y009461D01*
X009330Y009181D01*
X010360Y010271D02*
X011550Y010271D01*
X011590Y010231D01*
X008560Y010841D02*
X008550Y010841D01*
X008160Y011231D01*
X006400Y011231D01*
X006360Y011191D01*
X003950Y013021D02*
X003720Y013021D01*
X002070Y014671D01*
X005430Y016621D02*
X006090Y017281D01*
X007410Y021071D02*
X007410Y021311D01*
X008080Y021981D01*
X008820Y021981D01*
X009230Y022391D01*
X013410Y022391D01*
X013670Y022651D01*
X013950Y022651D01*
X014030Y022571D01*
X015090Y022571D01*
X015580Y023061D01*
X015750Y023061D01*
X015750Y023336D01*
X016580Y023061D02*
X015690Y022171D01*
X014130Y022171D01*
X013950Y021991D01*
X011190Y021991D01*
X011080Y021881D01*
X010940Y022211D02*
X010420Y021691D01*
X010420Y021071D01*
X010410Y021071D01*
X010940Y022211D02*
X013700Y022211D01*
X013810Y022321D01*
X014410Y021311D02*
X014410Y021071D01*
X014410Y021311D02*
X015090Y021991D01*
X017730Y021991D01*
X018290Y021431D01*
X018350Y021431D01*
X018550Y021231D01*
X018590Y022191D02*
X019090Y022191D01*
X019110Y022211D01*
X019650Y022211D01*
X019670Y022191D01*
X018590Y022191D02*
X018550Y022231D01*
X016750Y023061D02*
X016580Y023061D01*
X016750Y023061D02*
X016750Y023336D01*
X012750Y023331D02*
X012750Y023336D01*
X012750Y023331D02*
X012530Y023111D01*
X012100Y023111D01*
X011560Y022571D01*
X006580Y022571D01*
X005430Y021421D01*
X003160Y007441D02*
X002670Y006951D01*
X002610Y006951D01*
X002410Y006751D01*
X001750Y006121D02*
X001750Y005837D01*
X001750Y006121D02*
X001410Y006461D01*
X001410Y006751D01*
X003490Y006751D02*
X003490Y006461D01*
X003790Y006161D01*
X003790Y005821D01*
X003750Y005821D01*
X003750Y005814D01*
X018390Y007451D02*
X018420Y007451D01*
X018840Y007871D01*
X018860Y007871D01*
X018860Y007941D01*
X019080Y007941D01*
X019570Y007451D01*
X018860Y007941D02*
X018860Y008711D01*
X019290Y009141D01*
X019300Y009141D01*
X019610Y009451D01*
D23*
X015240Y005641D03*
X009660Y008371D03*
X009330Y009181D03*
X008800Y007781D03*
X007520Y007441D03*
X006620Y007491D03*
X005110Y007771D03*
X007120Y005641D03*
X007730Y009601D03*
X006360Y011191D03*
X005900Y011961D03*
X006680Y013051D03*
X005430Y016621D03*
X006090Y017281D03*
X007430Y017961D03*
X008380Y019851D03*
X006330Y020271D03*
X005430Y021421D03*
X009930Y016771D03*
X010750Y016441D03*
X012110Y017401D03*
X011050Y018571D03*
X011840Y018741D03*
X012560Y019701D03*
X011080Y021881D03*
X010440Y019221D03*
X013630Y016441D03*
X014250Y017181D03*
X014630Y014121D03*
X017210Y019691D03*
X017690Y019701D03*
X013810Y022321D03*
D24*
X000930Y023656D02*
X000930Y004331D01*
X001535Y004331D01*
X001240Y004626D01*
X001240Y004837D01*
X001750Y004837D01*
X001750Y004837D01*
X001750Y004837D01*
X002260Y004837D01*
X002260Y004626D01*
X001965Y004331D01*
X003511Y004331D01*
X003240Y004602D01*
X003240Y004814D01*
X003750Y004814D01*
X003750Y005324D01*
X003539Y005324D01*
X003240Y005025D01*
X003240Y004814D01*
X003750Y004814D01*
X003750Y004814D01*
X003750Y005324D01*
X003961Y005324D01*
X004260Y005025D01*
X004260Y004814D01*
X003750Y004814D01*
X003750Y004814D01*
X003750Y004814D01*
X004260Y004814D01*
X004260Y004602D01*
X003989Y004331D01*
X005511Y004331D01*
X005240Y004602D01*
X005240Y004814D01*
X005750Y004814D01*
X005750Y005324D01*
X005539Y005324D01*
X005240Y005025D01*
X005240Y004814D01*
X005750Y004814D01*
X005750Y004814D01*
X005750Y005324D01*
X005961Y005324D01*
X006260Y005025D01*
X006260Y004814D01*
X005750Y004814D01*
X005750Y004814D01*
X005750Y004814D01*
X006260Y004814D01*
X006260Y004602D01*
X005989Y004331D01*
X007349Y004331D01*
X007318Y004362D01*
X007240Y004550D01*
X007240Y004752D01*
X007318Y004940D01*
X007461Y005083D01*
X007649Y005161D01*
X007851Y005161D01*
X008039Y005083D01*
X008182Y004940D01*
X008250Y004777D01*
X008318Y004940D01*
X008461Y005083D01*
X008649Y005161D01*
X008851Y005161D01*
X009039Y005083D01*
X009182Y004940D01*
X009250Y004777D01*
X009318Y004940D01*
X009461Y005083D01*
X009649Y005161D01*
X009851Y005161D01*
X010039Y005083D01*
X010182Y004940D01*
X010229Y004827D01*
X010240Y004862D01*
X010280Y004939D01*
X010330Y005009D01*
X010392Y005071D01*
X010462Y005121D01*
X010539Y005161D01*
X010621Y005187D01*
X010707Y005201D01*
X010730Y005201D01*
X010730Y004671D01*
X010770Y004671D01*
X010770Y005201D01*
X010793Y005201D01*
X010879Y005187D01*
X010961Y005161D01*
X011038Y005121D01*
X011108Y005071D01*
X011170Y005009D01*
X011220Y004939D01*
X011250Y004881D01*
X011280Y004939D01*
X011330Y005009D01*
X011392Y005071D01*
X011462Y005121D01*
X011539Y005161D01*
X011621Y005187D01*
X011707Y005201D01*
X011730Y005201D01*
X011730Y004671D01*
X011770Y004671D01*
X011770Y005201D01*
X011793Y005201D01*
X011879Y005187D01*
X011961Y005161D01*
X012038Y005121D01*
X012108Y005071D01*
X012170Y005009D01*
X012220Y004939D01*
X012260Y004862D01*
X012271Y004827D01*
X012318Y004940D01*
X012461Y005083D01*
X012649Y005161D01*
X012851Y005161D01*
X013039Y005083D01*
X013182Y004940D01*
X013260Y004752D01*
X013260Y004550D01*
X013182Y004362D01*
X013151Y004331D01*
X014349Y004331D01*
X014318Y004362D01*
X014240Y004550D01*
X014240Y004752D01*
X014318Y004940D01*
X014461Y005083D01*
X014649Y005161D01*
X014851Y005161D01*
X015039Y005083D01*
X015182Y004940D01*
X015250Y004777D01*
X015318Y004940D01*
X015461Y005083D01*
X015649Y005161D01*
X015851Y005161D01*
X016039Y005083D01*
X016182Y004940D01*
X016250Y004777D01*
X016318Y004940D01*
X016461Y005083D01*
X016649Y005161D01*
X016851Y005161D01*
X017039Y005083D01*
X017182Y004940D01*
X017250Y004777D01*
X017318Y004940D01*
X017461Y005083D01*
X017649Y005161D01*
X017851Y005161D01*
X018039Y005083D01*
X018182Y004940D01*
X018250Y004777D01*
X018318Y004940D01*
X018461Y005083D01*
X018649Y005161D01*
X018851Y005161D01*
X019039Y005083D01*
X019182Y004940D01*
X019250Y004777D01*
X019318Y004940D01*
X019461Y005083D01*
X019649Y005161D01*
X019851Y005161D01*
X020039Y005083D01*
X020182Y004940D01*
X020255Y004764D01*
X020255Y023223D01*
X020182Y023047D01*
X020039Y022904D01*
X019851Y022826D01*
X019649Y022826D01*
X019461Y022904D01*
X019318Y023047D01*
X019250Y023210D01*
X019182Y023047D01*
X019039Y022904D01*
X018851Y022826D01*
X018649Y022826D01*
X018461Y022904D01*
X018318Y023047D01*
X018250Y023210D01*
X018182Y023047D01*
X018039Y022904D01*
X017851Y022826D01*
X017649Y022826D01*
X017461Y022904D01*
X017318Y023047D01*
X017250Y023210D01*
X017182Y023047D01*
X017039Y022904D01*
X016851Y022826D01*
X016649Y022826D01*
X016624Y022836D01*
X015969Y022181D01*
X017809Y022181D01*
X017920Y022070D01*
X018369Y021621D01*
X018429Y021621D01*
X018439Y021611D01*
X018707Y021611D01*
X018930Y021388D01*
X018930Y021074D01*
X018707Y020851D01*
X018393Y020851D01*
X018170Y021074D01*
X018170Y021282D01*
X017651Y021801D01*
X015169Y021801D01*
X014780Y021412D01*
X014790Y021387D01*
X014790Y020755D01*
X014732Y020616D01*
X014625Y020509D01*
X014486Y020451D01*
X014334Y020451D01*
X014195Y020509D01*
X014088Y020616D01*
X014030Y020755D01*
X014030Y021387D01*
X014088Y021526D01*
X014195Y021633D01*
X014334Y021691D01*
X014486Y021691D01*
X014511Y021681D01*
X014811Y021981D01*
X014209Y021981D01*
X014140Y021912D01*
X014029Y021801D01*
X011393Y021801D01*
X011351Y021700D01*
X011343Y021691D01*
X011486Y021691D01*
X011625Y021633D01*
X011732Y021526D01*
X011790Y021387D01*
X011790Y020755D01*
X011732Y020616D01*
X011625Y020509D01*
X011486Y020451D01*
X011334Y020451D01*
X011195Y020509D01*
X011088Y020616D01*
X011030Y020755D01*
X011030Y021387D01*
X011088Y021526D01*
X011123Y021561D01*
X011016Y021561D01*
X010899Y021610D01*
X010809Y021700D01*
X010776Y021778D01*
X010628Y021630D01*
X010732Y021526D01*
X010790Y021387D01*
X010790Y020755D01*
X010732Y020616D01*
X010625Y020509D01*
X010486Y020451D01*
X010334Y020451D01*
X010195Y020509D01*
X010088Y020616D01*
X010030Y020755D01*
X010030Y021387D01*
X010088Y021526D01*
X010195Y021633D01*
X010230Y021648D01*
X010230Y021770D01*
X010341Y021881D01*
X010661Y022201D01*
X009309Y022201D01*
X009010Y021902D01*
X008899Y021791D01*
X008159Y021791D01*
X007780Y021412D01*
X007790Y021387D01*
X007790Y020755D01*
X007732Y020616D01*
X007625Y020509D01*
X007486Y020451D01*
X007334Y020451D01*
X007195Y020509D01*
X007088Y020616D01*
X007030Y020755D01*
X007030Y021387D01*
X007088Y021526D01*
X007195Y021633D01*
X007334Y021691D01*
X007486Y021691D01*
X007511Y021681D01*
X008001Y022171D01*
X008741Y022171D01*
X008951Y022381D01*
X006659Y022381D01*
X005750Y021472D01*
X005750Y021357D01*
X005712Y021266D01*
X006030Y021266D01*
X006030Y021387D01*
X006088Y021526D01*
X006195Y021633D01*
X006334Y021691D01*
X006486Y021691D01*
X006625Y021633D01*
X006732Y021526D01*
X006790Y021387D01*
X006790Y020755D01*
X006784Y020741D01*
X008089Y019436D01*
X010202Y019436D01*
X010259Y019492D01*
X010376Y019541D01*
X010456Y019541D01*
X011125Y020210D01*
X011251Y020336D01*
X012631Y020336D01*
X013036Y020741D01*
X013030Y020755D01*
X013030Y021387D01*
X013088Y021526D01*
X013195Y021633D01*
X013334Y021691D01*
X013486Y021691D01*
X013625Y021633D01*
X013732Y021526D01*
X013790Y021387D01*
X013790Y020755D01*
X013732Y020616D01*
X013625Y020509D01*
X013486Y020451D01*
X013354Y020451D01*
X012809Y019906D01*
X012808Y019906D01*
X012831Y019882D01*
X012880Y019765D01*
X012880Y019637D01*
X012831Y019520D01*
X012741Y019430D01*
X012624Y019381D01*
X012496Y019381D01*
X012379Y019430D01*
X012289Y019520D01*
X012240Y019637D01*
X012240Y019765D01*
X012289Y019882D01*
X012312Y019906D01*
X011429Y019906D01*
X010760Y019237D01*
X010760Y019165D01*
X011034Y018891D01*
X011114Y018891D01*
X011231Y018842D01*
X011321Y018752D01*
X011370Y018635D01*
X011370Y018507D01*
X011321Y018390D01*
X011231Y018300D01*
X011114Y018251D01*
X010986Y018251D01*
X010869Y018300D01*
X010779Y018390D01*
X010730Y018507D01*
X010730Y018587D01*
X010416Y018901D01*
X010376Y018901D01*
X010259Y018950D01*
X010202Y019006D01*
X007911Y019006D01*
X007785Y019132D01*
X006650Y020267D01*
X006650Y020220D01*
X009279Y017591D01*
X011847Y017591D01*
X011929Y017672D01*
X012046Y017721D01*
X012174Y017721D01*
X012291Y017672D01*
X012381Y017582D01*
X012430Y017465D01*
X015185Y017465D01*
X015027Y017307D02*
X012417Y017307D01*
X012430Y017337D02*
X012430Y017465D01*
X012430Y017337D02*
X012381Y017220D01*
X012291Y017130D01*
X012174Y017081D01*
X012046Y017081D01*
X011929Y017130D01*
X011847Y017211D01*
X009121Y017211D01*
X009010Y017322D01*
X006381Y019951D01*
X006266Y019951D01*
X006149Y020000D01*
X006059Y020090D01*
X006010Y020207D01*
X006010Y020335D01*
X006059Y020452D01*
X006149Y020542D01*
X006158Y020546D01*
X006088Y020616D01*
X006030Y020755D01*
X006030Y020836D01*
X005329Y020836D01*
X005325Y020832D01*
X005325Y020823D01*
X005058Y020556D01*
X004682Y020556D01*
X004415Y020823D01*
X004415Y021199D01*
X004682Y021466D01*
X005058Y021466D01*
X005110Y021414D01*
X005110Y021485D01*
X005157Y021598D01*
X005075Y021516D01*
X004870Y021516D01*
X004870Y022011D01*
X004870Y022011D01*
X004870Y022506D01*
X005075Y022506D01*
X005365Y022216D01*
X005365Y022011D01*
X004870Y022011D01*
X004870Y022506D01*
X004665Y022506D01*
X004375Y022216D01*
X004375Y022011D01*
X004870Y022011D01*
X004870Y022011D01*
X004870Y022011D01*
X005365Y022011D01*
X005365Y021806D01*
X005253Y021694D01*
X005366Y021741D01*
X005481Y021741D01*
X006501Y022761D01*
X011481Y022761D01*
X012021Y023301D01*
X012240Y023301D01*
X012240Y023656D01*
X011651Y023656D01*
X011682Y023625D01*
X011760Y023437D01*
X011760Y023235D01*
X011682Y023047D01*
X011539Y022904D01*
X011351Y022826D01*
X011149Y022826D01*
X010961Y022904D01*
X010818Y023047D01*
X010750Y023210D01*
X010682Y023047D01*
X010539Y022904D01*
X010351Y022826D01*
X010149Y022826D01*
X009961Y022904D01*
X009818Y023047D01*
X009750Y023210D01*
X009682Y023047D01*
X009539Y022904D01*
X009351Y022826D01*
X009149Y022826D01*
X008961Y022904D01*
X008818Y023047D01*
X008750Y023210D01*
X008682Y023047D01*
X008539Y022904D01*
X008351Y022826D01*
X008149Y022826D01*
X007961Y022904D01*
X007818Y023047D01*
X007750Y023210D01*
X007682Y023047D01*
X007539Y022904D01*
X007351Y022826D01*
X007149Y022826D01*
X006961Y022904D01*
X006818Y023047D01*
X006750Y023210D01*
X006682Y023047D01*
X006539Y022904D01*
X006351Y022826D01*
X006149Y022826D01*
X005961Y022904D01*
X005818Y023047D01*
X005771Y023160D01*
X005760Y023125D01*
X005720Y023048D01*
X005670Y022978D01*
X005608Y022917D01*
X005538Y022866D01*
X005461Y022826D01*
X005379Y022800D01*
X005293Y022786D01*
X005270Y022786D01*
X005270Y023316D01*
X005230Y023316D01*
X005230Y022786D01*
X005207Y022786D01*
X005121Y022800D01*
X005039Y022826D01*
X004962Y022866D01*
X004892Y022917D01*
X004830Y022978D01*
X004780Y023048D01*
X004760Y023086D01*
X004760Y022908D01*
X004678Y022826D01*
X003822Y022826D01*
X003740Y022908D01*
X003740Y023656D01*
X000930Y023656D01*
X000930Y023647D02*
X003740Y023647D01*
X003740Y023488D02*
X000930Y023488D01*
X000930Y023330D02*
X003740Y023330D01*
X003740Y023171D02*
X000930Y023171D01*
X000930Y023013D02*
X003740Y023013D01*
X003794Y022854D02*
X000930Y022854D01*
X000930Y022696D02*
X006436Y022696D01*
X006419Y022854D02*
X007081Y022854D01*
X006852Y023013D02*
X006648Y023013D01*
X006734Y023171D02*
X006766Y023171D01*
X006081Y022854D02*
X005515Y022854D01*
X005695Y023013D02*
X005852Y023013D01*
X006277Y022537D02*
X000930Y022537D01*
X000930Y022379D02*
X004537Y022379D01*
X004379Y022220D02*
X000930Y022220D01*
X000930Y022062D02*
X004375Y022062D01*
X004375Y022011D02*
X004375Y021806D01*
X004665Y021516D01*
X004870Y021516D01*
X004870Y022011D01*
X004375Y022011D01*
X004375Y021903D02*
X000930Y021903D01*
X000930Y021745D02*
X004436Y021745D01*
X004595Y021586D02*
X000930Y021586D01*
X000930Y021428D02*
X004643Y021428D01*
X004485Y021269D02*
X000930Y021269D01*
X000930Y021111D02*
X003149Y021111D01*
X003165Y021126D02*
X002875Y020836D01*
X002875Y020631D01*
X003370Y020631D01*
X003370Y020631D01*
X003370Y021126D01*
X003575Y021126D01*
X003865Y020836D01*
X003865Y020631D01*
X003370Y020631D01*
X003370Y021126D01*
X003165Y021126D01*
X003370Y021111D02*
X003370Y021111D01*
X003370Y020952D02*
X003370Y020952D01*
X003370Y020794D02*
X003370Y020794D01*
X003370Y020635D02*
X003370Y020635D01*
X003370Y020631D02*
X003370Y020631D01*
X003370Y020631D01*
X003865Y020631D01*
X003865Y020426D01*
X003575Y020136D01*
X003370Y020136D01*
X003370Y020631D01*
X002875Y020631D01*
X002875Y020426D01*
X003165Y020136D01*
X003370Y020136D01*
X003370Y020631D01*
X003370Y020631D01*
X003370Y020477D02*
X003370Y020477D01*
X003370Y020318D02*
X003370Y020318D01*
X003370Y020160D02*
X003370Y020160D01*
X003558Y020086D02*
X003182Y020086D01*
X002915Y019819D01*
X002915Y019443D01*
X003182Y019176D01*
X003558Y019176D01*
X003825Y019443D01*
X003825Y019819D01*
X003558Y020086D01*
X003599Y020160D02*
X006030Y020160D01*
X006010Y020318D02*
X003757Y020318D01*
X003865Y020477D02*
X006083Y020477D01*
X006080Y020635D02*
X005137Y020635D01*
X005296Y020794D02*
X006030Y020794D01*
X006030Y021269D02*
X005713Y021269D01*
X005750Y021428D02*
X006047Y021428D01*
X006148Y021586D02*
X005864Y021586D01*
X006022Y021745D02*
X007575Y021745D01*
X007733Y021903D02*
X006181Y021903D01*
X006339Y022062D02*
X007892Y022062D01*
X008112Y021745D02*
X010230Y021745D01*
X010148Y021586D02*
X009672Y021586D01*
X009625Y021633D02*
X009732Y021526D01*
X009790Y021387D01*
X009790Y020755D01*
X009732Y020616D01*
X009625Y020509D01*
X009486Y020451D01*
X009334Y020451D01*
X009195Y020509D01*
X009088Y020616D01*
X009030Y020755D01*
X009030Y021387D01*
X009088Y021526D01*
X009195Y021633D01*
X009334Y021691D01*
X009486Y021691D01*
X009625Y021633D01*
X009773Y021428D02*
X010047Y021428D01*
X010030Y021269D02*
X009790Y021269D01*
X009790Y021111D02*
X010030Y021111D01*
X010030Y020952D02*
X009790Y020952D01*
X009790Y020794D02*
X010030Y020794D01*
X010080Y020635D02*
X009740Y020635D01*
X009547Y020477D02*
X010273Y020477D01*
X010547Y020477D02*
X011273Y020477D01*
X011233Y020318D02*
X007207Y020318D01*
X007273Y020477D02*
X007049Y020477D01*
X007080Y020635D02*
X006890Y020635D01*
X006790Y020794D02*
X007030Y020794D01*
X007030Y020952D02*
X006790Y020952D01*
X006790Y021111D02*
X007030Y021111D01*
X007030Y021269D02*
X006790Y021269D01*
X006773Y021428D02*
X007047Y021428D01*
X007148Y021586D02*
X006672Y021586D01*
X006498Y022220D02*
X008790Y022220D01*
X008949Y022379D02*
X006656Y022379D01*
X006119Y022379D02*
X005203Y022379D01*
X005361Y022220D02*
X005960Y022220D01*
X005802Y022062D02*
X005365Y022062D01*
X005365Y021903D02*
X005643Y021903D01*
X005485Y021745D02*
X005304Y021745D01*
X005152Y021586D02*
X005145Y021586D01*
X005110Y021428D02*
X005097Y021428D01*
X004870Y021586D02*
X004870Y021586D01*
X004870Y021745D02*
X004870Y021745D01*
X004870Y021903D02*
X004870Y021903D01*
X004870Y022011D02*
X004870Y022011D01*
X004870Y022062D02*
X004870Y022062D01*
X004870Y022220D02*
X004870Y022220D01*
X004870Y022379D02*
X004870Y022379D01*
X004985Y022854D02*
X004706Y022854D01*
X004760Y023013D02*
X004805Y023013D01*
X005230Y023013D02*
X005270Y023013D01*
X005270Y023171D02*
X005230Y023171D01*
X005230Y022854D02*
X005270Y022854D01*
X004415Y021111D02*
X003591Y021111D01*
X003749Y020952D02*
X004415Y020952D01*
X004444Y020794D02*
X003865Y020794D01*
X003865Y020635D02*
X004603Y020635D01*
X004778Y019536D02*
X004607Y019465D01*
X004476Y019334D01*
X004405Y019163D01*
X004405Y018978D01*
X004476Y018808D01*
X004607Y018677D01*
X004778Y018606D01*
X004962Y018606D01*
X005036Y018636D01*
X006071Y017601D01*
X006026Y017601D01*
X005909Y017552D01*
X005819Y017462D01*
X005770Y017345D01*
X005770Y017230D01*
X005481Y016941D01*
X005366Y016941D01*
X005310Y016918D01*
X005335Y016978D01*
X005335Y017163D01*
X005264Y017334D01*
X005133Y017465D01*
X004962Y017536D01*
X004778Y017536D01*
X004607Y017465D01*
X004476Y017334D01*
X004405Y017163D01*
X004405Y016978D01*
X004476Y016808D01*
X004607Y016677D01*
X004680Y016646D01*
X004680Y016512D01*
X004791Y016401D01*
X004801Y016401D01*
X006030Y015172D01*
X006030Y014773D01*
X006112Y014691D01*
X006708Y014691D01*
X006790Y014773D01*
X006790Y015369D01*
X006708Y015451D01*
X006289Y015451D01*
X005439Y016301D01*
X005494Y016301D01*
X005611Y016350D01*
X005701Y016440D01*
X005750Y016557D01*
X005750Y016672D01*
X006039Y016961D01*
X006154Y016961D01*
X006271Y017010D01*
X006361Y017100D01*
X006410Y017217D01*
X006410Y017262D01*
X007751Y015921D01*
X007511Y015681D01*
X007486Y015691D01*
X007334Y015691D01*
X007195Y015633D01*
X007088Y015526D01*
X007030Y015387D01*
X007030Y014755D01*
X007088Y014616D01*
X007195Y014509D01*
X007334Y014451D01*
X007486Y014451D01*
X007625Y014509D01*
X007732Y014616D01*
X007790Y014755D01*
X007790Y015387D01*
X007780Y015412D01*
X008104Y015736D01*
X008159Y015791D01*
X010369Y015791D01*
X010480Y015902D01*
X010699Y016121D01*
X010814Y016121D01*
X010931Y016170D01*
X011021Y016260D01*
X011070Y016377D01*
X011070Y016505D01*
X011038Y016581D01*
X013342Y016581D01*
X013310Y016505D01*
X013310Y016377D01*
X013359Y016260D01*
X013449Y016170D01*
X013566Y016121D01*
X013681Y016121D01*
X013900Y015902D01*
X014011Y015791D01*
X015661Y015791D01*
X016040Y015412D01*
X016030Y015387D01*
X016030Y014755D01*
X016088Y014616D01*
X016195Y014509D01*
X016334Y014451D01*
X016486Y014451D01*
X016625Y014509D01*
X016732Y014616D01*
X016790Y014755D01*
X016790Y015387D01*
X016732Y015526D01*
X016625Y015633D01*
X016486Y015691D01*
X016334Y015691D01*
X016309Y015681D01*
X015819Y016171D01*
X014169Y016171D01*
X013950Y016390D01*
X013950Y016505D01*
X013918Y016581D01*
X014839Y016581D01*
X014950Y016692D01*
X017639Y019381D01*
X017754Y019381D01*
X017871Y019430D01*
X017961Y019520D01*
X018010Y019637D01*
X018010Y019765D01*
X017961Y019882D01*
X017873Y019971D01*
X018581Y019971D01*
X019215Y019337D01*
X019215Y018963D01*
X019482Y018696D01*
X019858Y018696D01*
X020125Y018963D01*
X020125Y019339D01*
X019858Y019606D01*
X019484Y019606D01*
X018850Y020240D01*
X018739Y020351D01*
X017159Y020351D01*
X016780Y020730D01*
X016790Y020755D01*
X016790Y021387D01*
X016732Y021526D01*
X016625Y021633D01*
X016486Y021691D01*
X016334Y021691D01*
X016195Y021633D01*
X016088Y021526D01*
X016030Y021387D01*
X016030Y020755D01*
X016088Y020616D01*
X016195Y020509D01*
X016334Y020451D01*
X016486Y020451D01*
X016511Y020461D01*
X017001Y019971D01*
X017050Y019971D01*
X017029Y019962D01*
X016939Y019872D01*
X016890Y019755D01*
X016890Y019640D01*
X016181Y018931D01*
X012103Y018931D01*
X012021Y019012D01*
X011904Y019061D01*
X011776Y019061D01*
X011659Y019012D01*
X011569Y018922D01*
X011520Y018805D01*
X011520Y018677D01*
X011569Y018560D01*
X011659Y018470D01*
X011776Y018421D01*
X011904Y018421D01*
X012021Y018470D01*
X012103Y018551D01*
X016271Y018551D01*
X014681Y016961D01*
X010193Y016961D01*
X010111Y017042D01*
X009994Y017091D01*
X009866Y017091D01*
X009749Y017042D01*
X009659Y016952D01*
X009610Y016835D01*
X009610Y016707D01*
X009659Y016590D01*
X009749Y016500D01*
X009866Y016451D01*
X009994Y016451D01*
X010111Y016500D01*
X010193Y016581D01*
X010462Y016581D01*
X010430Y016505D01*
X010430Y016390D01*
X010211Y016171D01*
X008039Y016171D01*
X005305Y018905D01*
X005335Y018978D01*
X005335Y019163D01*
X005264Y019334D01*
X005133Y019465D01*
X004962Y019536D01*
X004778Y019536D01*
X004752Y019526D02*
X003825Y019526D01*
X003825Y019684D02*
X006648Y019684D01*
X006490Y019843D02*
X003802Y019843D01*
X003643Y020001D02*
X006147Y020001D01*
X006710Y020160D02*
X006757Y020160D01*
X006869Y020001D02*
X006916Y020001D01*
X007027Y019843D02*
X007074Y019843D01*
X007186Y019684D02*
X007233Y019684D01*
X007344Y019526D02*
X007391Y019526D01*
X007503Y019367D02*
X007550Y019367D01*
X007661Y019209D02*
X007708Y019209D01*
X007820Y019050D02*
X007867Y019050D01*
X007978Y018892D02*
X010425Y018892D01*
X010584Y018733D02*
X008137Y018733D01*
X008295Y018575D02*
X010730Y018575D01*
X010768Y018416D02*
X008454Y018416D01*
X008612Y018258D02*
X010971Y018258D01*
X011129Y018258D02*
X015978Y018258D01*
X016136Y018416D02*
X011332Y018416D01*
X011370Y018575D02*
X011563Y018575D01*
X011520Y018733D02*
X011329Y018733D01*
X011556Y018892D02*
X011034Y018892D01*
X010875Y019050D02*
X011750Y019050D01*
X011930Y019050D02*
X016300Y019050D01*
X016459Y019209D02*
X010760Y019209D01*
X010890Y019367D02*
X016617Y019367D01*
X016776Y019526D02*
X012834Y019526D01*
X012880Y019684D02*
X016890Y019684D01*
X016926Y019843D02*
X012848Y019843D01*
X012904Y020001D02*
X016971Y020001D01*
X016813Y020160D02*
X013063Y020160D01*
X013221Y020318D02*
X016654Y020318D01*
X016875Y020635D02*
X017080Y020635D01*
X017088Y020616D02*
X017195Y020509D01*
X017334Y020451D01*
X017486Y020451D01*
X017625Y020509D01*
X017732Y020616D01*
X017790Y020755D01*
X017790Y021387D01*
X017732Y021526D01*
X017625Y021633D01*
X017486Y021691D01*
X017334Y021691D01*
X017195Y021633D01*
X017088Y021526D01*
X017030Y021387D01*
X017030Y020755D01*
X017088Y020616D01*
X017033Y020477D02*
X017273Y020477D01*
X017547Y020477D02*
X019295Y020477D01*
X019175Y020356D02*
X019465Y020646D01*
X019670Y020646D01*
X019670Y020151D01*
X019670Y020151D01*
X019670Y020646D01*
X019875Y020646D01*
X020165Y020356D01*
X020165Y020151D01*
X019670Y020151D01*
X019670Y020151D01*
X019670Y020151D01*
X019175Y020151D01*
X019175Y020356D01*
X019175Y020318D02*
X018772Y020318D01*
X018930Y020160D02*
X019175Y020160D01*
X019175Y020151D02*
X019175Y019946D01*
X019465Y019656D01*
X019670Y019656D01*
X019875Y019656D01*
X020165Y019946D01*
X020165Y020151D01*
X019670Y020151D01*
X019175Y020151D01*
X019175Y020001D02*
X019089Y020001D01*
X019247Y019843D02*
X019278Y019843D01*
X019406Y019684D02*
X019437Y019684D01*
X019670Y019684D02*
X019670Y019684D01*
X019670Y019656D02*
X019670Y020151D01*
X019670Y020151D01*
X019670Y019656D01*
X019670Y019843D02*
X019670Y019843D01*
X019670Y020001D02*
X019670Y020001D01*
X019670Y020160D02*
X019670Y020160D01*
X019670Y020318D02*
X019670Y020318D01*
X019670Y020477D02*
X019670Y020477D01*
X019670Y020635D02*
X019670Y020635D01*
X019670Y020696D02*
X019465Y020696D01*
X019175Y020986D01*
X019175Y021191D01*
X019670Y021191D01*
X019670Y021191D01*
X019670Y021686D01*
X019875Y021686D01*
X020165Y021396D01*
X020165Y021191D01*
X019670Y021191D01*
X019670Y021686D01*
X019465Y021686D01*
X019175Y021396D01*
X019175Y021191D01*
X019670Y021191D01*
X019670Y021191D01*
X019670Y021191D01*
X020165Y021191D01*
X020165Y020986D01*
X019875Y020696D01*
X019670Y020696D01*
X019670Y021191D01*
X019670Y021191D01*
X019670Y020696D01*
X019670Y020794D02*
X019670Y020794D01*
X019670Y020952D02*
X019670Y020952D01*
X019670Y021111D02*
X019670Y021111D01*
X019670Y021269D02*
X019670Y021269D01*
X019670Y021428D02*
X019670Y021428D01*
X019670Y021586D02*
X019670Y021586D01*
X019482Y021736D02*
X019858Y021736D01*
X020125Y022003D01*
X020125Y022379D01*
X019858Y022646D01*
X019482Y022646D01*
X019237Y022401D01*
X019031Y022401D01*
X019011Y022381D01*
X018930Y022381D01*
X018930Y022388D01*
X018707Y022611D01*
X018393Y022611D01*
X018170Y022388D01*
X018170Y022074D01*
X018393Y021851D01*
X018707Y021851D01*
X018857Y022001D01*
X019169Y022001D01*
X019189Y022021D01*
X019215Y022021D01*
X019215Y022003D01*
X019482Y021736D01*
X019473Y021745D02*
X018245Y021745D01*
X018341Y021903D02*
X018087Y021903D01*
X018182Y022062D02*
X017928Y022062D01*
X018170Y022220D02*
X016008Y022220D01*
X016166Y022379D02*
X018170Y022379D01*
X018319Y022537D02*
X016325Y022537D01*
X016483Y022696D02*
X020255Y022696D01*
X020255Y022854D02*
X019919Y022854D01*
X020148Y023013D02*
X020255Y023013D01*
X020255Y023171D02*
X020234Y023171D01*
X020255Y022537D02*
X019967Y022537D01*
X020125Y022379D02*
X020255Y022379D01*
X020255Y022220D02*
X020125Y022220D01*
X020125Y022062D02*
X020255Y022062D01*
X020255Y021903D02*
X020025Y021903D01*
X019867Y021745D02*
X020255Y021745D01*
X020255Y021586D02*
X019975Y021586D01*
X020134Y021428D02*
X020255Y021428D01*
X020255Y021269D02*
X020165Y021269D01*
X020165Y021111D02*
X020255Y021111D01*
X020255Y020952D02*
X020131Y020952D01*
X020255Y020794D02*
X019973Y020794D01*
X019886Y020635D02*
X020255Y020635D01*
X020255Y020477D02*
X020045Y020477D01*
X020165Y020318D02*
X020255Y020318D01*
X020255Y020160D02*
X020165Y020160D01*
X020165Y020001D02*
X020255Y020001D01*
X020255Y019843D02*
X020062Y019843D01*
X019903Y019684D02*
X020255Y019684D01*
X020255Y019526D02*
X019939Y019526D01*
X020097Y019367D02*
X020255Y019367D01*
X020255Y019209D02*
X020125Y019209D01*
X020125Y019050D02*
X020255Y019050D01*
X020255Y018892D02*
X020054Y018892D01*
X019895Y018733D02*
X020255Y018733D01*
X020255Y018575D02*
X019947Y018575D01*
X019875Y018646D02*
X020165Y018356D01*
X020165Y018151D01*
X019670Y018151D01*
X019670Y018151D01*
X019670Y018646D01*
X019875Y018646D01*
X019670Y018646D02*
X019465Y018646D01*
X019175Y018356D01*
X019175Y018151D01*
X019670Y018151D01*
X019670Y018646D01*
X019670Y018575D02*
X019670Y018575D01*
X019670Y018416D02*
X019670Y018416D01*
X019670Y018258D02*
X019670Y018258D01*
X019670Y018151D02*
X019670Y018151D01*
X019670Y018151D01*
X020165Y018151D01*
X020165Y017946D01*
X019875Y017656D01*
X019670Y017656D01*
X019670Y018151D01*
X019175Y018151D01*
X019175Y017946D01*
X019465Y017656D01*
X019670Y017656D01*
X019670Y018151D01*
X019670Y018151D01*
X019670Y018099D02*
X019670Y018099D01*
X019670Y017941D02*
X019670Y017941D01*
X019670Y017782D02*
X019670Y017782D01*
X019858Y017606D02*
X019482Y017606D01*
X019215Y017339D01*
X019215Y016963D01*
X019482Y016696D01*
X019858Y016696D01*
X020125Y016963D01*
X020125Y017339D01*
X019858Y017606D01*
X019999Y017465D02*
X020255Y017465D01*
X020255Y017307D02*
X020125Y017307D01*
X020125Y017148D02*
X020255Y017148D01*
X020255Y016990D02*
X020125Y016990D01*
X020255Y016831D02*
X019993Y016831D01*
X019875Y016646D02*
X019670Y016646D01*
X019670Y016151D01*
X019670Y016151D01*
X019670Y016646D01*
X019465Y016646D01*
X019175Y016356D01*
X019175Y016151D01*
X019670Y016151D01*
X020165Y016151D01*
X020165Y016356D01*
X019875Y016646D01*
X020007Y016514D02*
X020255Y016514D01*
X020255Y016356D02*
X020165Y016356D01*
X020165Y016197D02*
X020255Y016197D01*
X020165Y016151D02*
X019670Y016151D01*
X019670Y016151D01*
X019670Y016151D01*
X019175Y016151D01*
X019175Y015946D01*
X019465Y015656D01*
X019670Y015656D01*
X019875Y015656D01*
X020165Y015946D01*
X020165Y016151D01*
X020165Y016039D02*
X020255Y016039D01*
X020255Y015880D02*
X020099Y015880D01*
X020255Y015722D02*
X019941Y015722D01*
X019858Y015606D02*
X019482Y015606D01*
X019215Y015339D01*
X019215Y014963D01*
X019482Y014696D01*
X019858Y014696D01*
X020125Y014963D01*
X020125Y015339D01*
X019858Y015606D01*
X019901Y015563D02*
X020255Y015563D01*
X020255Y015405D02*
X020060Y015405D01*
X020125Y015246D02*
X020255Y015246D01*
X020255Y015088D02*
X020125Y015088D01*
X020091Y014929D02*
X020255Y014929D01*
X020255Y014771D02*
X019933Y014771D01*
X020255Y014612D02*
X017770Y014612D01*
X017769Y014611D02*
X017799Y014670D01*
X017820Y014733D01*
X017830Y014798D01*
X017830Y015071D01*
X017830Y015344D01*
X017820Y015409D01*
X017799Y015472D01*
X017769Y015531D01*
X017730Y015585D01*
X017684Y015631D01*
X017630Y015670D01*
X017571Y015700D01*
X017508Y015721D01*
X017443Y015731D01*
X017410Y015731D01*
X017410Y015071D01*
X017410Y015071D01*
X017410Y015731D01*
X017377Y015731D01*
X017312Y015721D01*
X017249Y015700D01*
X017190Y015670D01*
X017136Y015631D01*
X017090Y015585D01*
X017051Y015531D01*
X017021Y015472D01*
X017000Y015409D01*
X016990Y015344D01*
X016990Y015071D01*
X017410Y015071D01*
X017830Y015071D01*
X017410Y015071D01*
X017410Y015071D01*
X017410Y015071D01*
X016990Y015071D01*
X016990Y014798D01*
X017000Y014733D01*
X017021Y014670D01*
X017051Y014611D01*
X017090Y014557D01*
X017136Y014511D01*
X017190Y014472D01*
X017249Y014442D01*
X017312Y014421D01*
X017377Y014411D01*
X017410Y014411D01*
X017443Y014411D01*
X017508Y014421D01*
X017571Y014442D01*
X017630Y014472D01*
X017684Y014511D01*
X017730Y014557D01*
X017769Y014611D01*
X017826Y014771D02*
X019407Y014771D01*
X019249Y014929D02*
X017830Y014929D01*
X017830Y015088D02*
X019215Y015088D01*
X019215Y015246D02*
X017830Y015246D01*
X017820Y015405D02*
X019280Y015405D01*
X019439Y015563D02*
X017746Y015563D01*
X017503Y015722D02*
X019399Y015722D01*
X019241Y015880D02*
X016110Y015880D01*
X016268Y015722D02*
X017317Y015722D01*
X017410Y015722D02*
X017410Y015722D01*
X017410Y015563D02*
X017410Y015563D01*
X017410Y015405D02*
X017410Y015405D01*
X017410Y015246D02*
X017410Y015246D01*
X017410Y015088D02*
X017410Y015088D01*
X017410Y015071D02*
X017410Y014411D01*
X017410Y015071D01*
X017410Y015071D01*
X017410Y014929D02*
X017410Y014929D01*
X017410Y014771D02*
X017410Y014771D01*
X017410Y014612D02*
X017410Y014612D01*
X017410Y014454D02*
X017410Y014454D01*
X017594Y014454D02*
X020255Y014454D01*
X020255Y014295D02*
X017845Y014295D01*
X017829Y014311D02*
X015179Y014311D01*
X014774Y014716D01*
X014790Y014755D01*
X014790Y015387D01*
X014732Y015526D01*
X014625Y015633D01*
X014486Y015691D01*
X014334Y015691D01*
X014195Y015633D01*
X014088Y015526D01*
X014030Y015387D01*
X014030Y014755D01*
X014088Y014616D01*
X014195Y014509D01*
X014334Y014451D01*
X014486Y014451D01*
X014497Y014456D01*
X014527Y014425D01*
X014449Y014392D01*
X014367Y014311D01*
X008441Y014311D01*
X008330Y014200D01*
X007980Y013849D01*
X007903Y013881D01*
X007717Y013881D01*
X007544Y013809D01*
X007412Y013677D01*
X007340Y013504D01*
X007340Y013318D01*
X007412Y013145D01*
X007544Y013013D01*
X007717Y012941D01*
X007903Y012941D01*
X008076Y013013D01*
X008208Y013145D01*
X008280Y013318D01*
X008280Y013504D01*
X008248Y013581D01*
X008599Y013931D01*
X014367Y013931D01*
X014449Y013850D01*
X014566Y013801D01*
X014694Y013801D01*
X014811Y013850D01*
X014901Y013940D01*
X014934Y014018D01*
X015021Y013931D01*
X017671Y013931D01*
X018110Y013492D01*
X018110Y013294D01*
X018333Y013071D01*
X018647Y013071D01*
X018870Y013294D01*
X018870Y013301D01*
X019031Y013301D01*
X019071Y013261D01*
X019093Y013261D01*
X019283Y013071D01*
X019597Y013071D01*
X019820Y013294D01*
X019820Y013608D01*
X019597Y013831D01*
X019283Y013831D01*
X019133Y013681D01*
X018797Y013681D01*
X018647Y013831D01*
X018333Y013831D01*
X018321Y013819D01*
X017829Y014311D01*
X018003Y014137D02*
X020255Y014137D01*
X020255Y013978D02*
X018162Y013978D01*
X018320Y013820D02*
X018321Y013820D01*
X018100Y013503D02*
X017850Y013503D01*
X017850Y013608D02*
X017627Y013831D01*
X017313Y013831D01*
X017163Y013681D01*
X016737Y013681D01*
X016587Y013831D01*
X016273Y013831D01*
X016050Y013608D01*
X016050Y013601D01*
X015525Y013601D01*
X015525Y013619D01*
X015258Y013886D01*
X014882Y013886D01*
X014615Y013619D01*
X014615Y013243D01*
X014882Y012976D01*
X015258Y012976D01*
X015503Y013221D01*
X016123Y013221D01*
X016273Y013071D01*
X016587Y013071D01*
X016810Y013294D01*
X016810Y013301D01*
X017061Y013301D01*
X017101Y013261D01*
X017123Y013261D01*
X017313Y013071D01*
X017627Y013071D01*
X017850Y013294D01*
X017850Y013608D01*
X017797Y013661D02*
X017941Y013661D01*
X017783Y013820D02*
X017639Y013820D01*
X017301Y013820D02*
X016599Y013820D01*
X016261Y013820D02*
X015325Y013820D01*
X015483Y013661D02*
X016103Y013661D01*
X016158Y013186D02*
X015468Y013186D01*
X015309Y013027D02*
X020255Y013027D01*
X020255Y012869D02*
X015276Y012869D01*
X015258Y012886D02*
X014882Y012886D01*
X014615Y012619D01*
X014615Y012243D01*
X014882Y011976D01*
X015258Y011976D01*
X015525Y012243D01*
X015525Y012619D01*
X015258Y012886D01*
X015434Y012710D02*
X016152Y012710D01*
X016050Y012608D02*
X016050Y012400D01*
X014281Y010631D01*
X014013Y010631D01*
X013790Y010408D01*
X013790Y010094D01*
X014013Y009871D01*
X014327Y009871D01*
X014550Y010094D01*
X014550Y010362D01*
X016239Y012051D01*
X016299Y012051D01*
X016319Y012071D01*
X016587Y012071D01*
X016810Y012294D01*
X016810Y012608D01*
X016587Y012831D01*
X016273Y012831D01*
X016050Y012608D01*
X016050Y012552D02*
X015525Y012552D01*
X015525Y012393D02*
X016043Y012393D01*
X015885Y012235D02*
X015517Y012235D01*
X015358Y012076D02*
X015726Y012076D01*
X015568Y011918D02*
X013702Y011918D01*
X013653Y012111D02*
X013967Y012111D01*
X014190Y012334D01*
X014190Y012648D01*
X013967Y012871D01*
X013734Y012871D01*
X013719Y012886D01*
X013629Y012886D01*
X013525Y012990D01*
X013399Y013116D01*
X013021Y013116D01*
X012712Y012807D01*
X012647Y012871D01*
X012333Y012871D01*
X012243Y012782D01*
X011909Y013116D01*
X011661Y013116D01*
X011535Y012990D01*
X011431Y012886D01*
X011341Y012886D01*
X011326Y012871D01*
X011134Y012871D01*
X011119Y012886D01*
X011069Y012886D01*
X010895Y013060D01*
X010769Y013186D01*
X010229Y013186D01*
X010065Y013350D01*
X010065Y013599D01*
X009798Y013866D01*
X009422Y013866D01*
X009155Y013599D01*
X009155Y013223D01*
X009422Y012956D01*
X009798Y012956D01*
X009825Y012982D01*
X010051Y012756D01*
X010591Y012756D01*
X010870Y012477D01*
X010870Y012334D01*
X011093Y012111D01*
X011407Y012111D01*
X011630Y012334D01*
X011630Y012477D01*
X011785Y012632D01*
X012015Y012402D01*
X012141Y012276D01*
X012168Y012276D01*
X012333Y012111D01*
X012647Y012111D01*
X012870Y012334D01*
X012870Y012357D01*
X012945Y012432D01*
X013199Y012686D01*
X013221Y012686D01*
X013430Y012477D01*
X013430Y012334D01*
X013653Y012111D01*
X013544Y012076D02*
X014782Y012076D01*
X014623Y012235D02*
X014091Y012235D01*
X014190Y012393D02*
X014615Y012393D01*
X014615Y012552D02*
X014190Y012552D01*
X014128Y012710D02*
X014706Y012710D01*
X014864Y012869D02*
X013970Y012869D01*
X013967Y013111D02*
X013653Y013111D01*
X013430Y013334D01*
X013430Y013648D01*
X013653Y013871D01*
X013967Y013871D01*
X014190Y013648D01*
X014190Y013334D01*
X013967Y013111D01*
X014042Y013186D02*
X014672Y013186D01*
X014615Y013344D02*
X014190Y013344D01*
X014190Y013503D02*
X014615Y013503D01*
X014657Y013661D02*
X014177Y013661D01*
X014019Y013820D02*
X014522Y013820D01*
X014738Y013820D02*
X014815Y013820D01*
X014917Y013978D02*
X014974Y013978D01*
X015036Y014454D02*
X015328Y014454D01*
X015334Y014451D02*
X015486Y014451D01*
X015625Y014509D01*
X015732Y014616D01*
X015790Y014755D01*
X015790Y015387D01*
X015732Y015526D01*
X015625Y015633D01*
X015486Y015691D01*
X015334Y015691D01*
X015195Y015633D01*
X015088Y015526D01*
X015030Y015387D01*
X015030Y014755D01*
X015088Y014616D01*
X015195Y014509D01*
X015334Y014451D01*
X015492Y014454D02*
X016328Y014454D01*
X016492Y014454D02*
X017226Y014454D01*
X017050Y014612D02*
X016728Y014612D01*
X016790Y014771D02*
X016994Y014771D01*
X016990Y014929D02*
X016790Y014929D01*
X016790Y015088D02*
X016990Y015088D01*
X016990Y015246D02*
X016790Y015246D01*
X016783Y015405D02*
X017000Y015405D01*
X017074Y015563D02*
X016695Y015563D01*
X016037Y015405D02*
X015783Y015405D01*
X015790Y015246D02*
X016030Y015246D01*
X016030Y015088D02*
X015790Y015088D01*
X015790Y014929D02*
X016030Y014929D01*
X016030Y014771D02*
X015790Y014771D01*
X015728Y014612D02*
X016092Y014612D01*
X015889Y015563D02*
X015695Y015563D01*
X015731Y015722D02*
X013503Y015722D01*
X013508Y015721D02*
X013443Y015731D01*
X013410Y015731D01*
X013410Y015071D01*
X013410Y015071D01*
X013410Y015731D01*
X013377Y015731D01*
X013312Y015721D01*
X013249Y015700D01*
X013190Y015670D01*
X013136Y015631D01*
X013090Y015585D01*
X013051Y015531D01*
X013021Y015472D01*
X013000Y015409D01*
X012990Y015344D01*
X012990Y015071D01*
X013410Y015071D01*
X013830Y015071D01*
X013830Y015344D01*
X013820Y015409D01*
X013799Y015472D01*
X013769Y015531D01*
X013730Y015585D01*
X013684Y015631D01*
X013630Y015670D01*
X013571Y015700D01*
X013508Y015721D01*
X013410Y015722D02*
X013410Y015722D01*
X013317Y015722D02*
X008089Y015722D01*
X008104Y015736D02*
X008104Y015736D01*
X008195Y015633D02*
X008088Y015526D01*
X008030Y015387D01*
X008030Y014755D01*
X008088Y014616D01*
X008195Y014509D01*
X008334Y014451D01*
X008486Y014451D01*
X008625Y014509D01*
X008732Y014616D01*
X008790Y014755D01*
X008790Y014856D01*
X009030Y014856D01*
X009030Y014755D01*
X009088Y014616D01*
X009195Y014509D01*
X009334Y014451D01*
X009486Y014451D01*
X009625Y014509D01*
X009732Y014616D01*
X009790Y014755D01*
X009790Y015387D01*
X009732Y015526D01*
X009625Y015633D01*
X009486Y015691D01*
X009334Y015691D01*
X009195Y015633D01*
X009088Y015526D01*
X009030Y015387D01*
X009030Y015286D01*
X008790Y015286D01*
X008790Y015387D01*
X008732Y015526D01*
X008625Y015633D01*
X008486Y015691D01*
X008334Y015691D01*
X008195Y015633D01*
X008125Y015563D02*
X007931Y015563D01*
X008037Y015405D02*
X007783Y015405D01*
X007790Y015246D02*
X008030Y015246D01*
X008030Y015088D02*
X007790Y015088D01*
X007790Y014929D02*
X008030Y014929D01*
X008030Y014771D02*
X007790Y014771D01*
X007728Y014612D02*
X008092Y014612D01*
X008328Y014454D02*
X007492Y014454D01*
X007328Y014454D02*
X002556Y014454D01*
X002525Y014485D02*
X002525Y014859D01*
X002258Y015126D01*
X001882Y015126D01*
X001615Y014859D01*
X001615Y014483D01*
X001882Y014216D01*
X002256Y014216D01*
X003530Y012942D01*
X003570Y012902D01*
X003570Y012864D01*
X003793Y012641D01*
X004107Y012641D01*
X004330Y012864D01*
X004330Y013178D01*
X004107Y013401D01*
X003793Y013401D01*
X003701Y013309D01*
X002525Y014485D01*
X002525Y014612D02*
X007092Y014612D01*
X007030Y014771D02*
X006788Y014771D01*
X006790Y014929D02*
X007030Y014929D01*
X007030Y015088D02*
X006790Y015088D01*
X006790Y015246D02*
X007030Y015246D01*
X007037Y015405D02*
X006754Y015405D01*
X007125Y015563D02*
X006177Y015563D01*
X006018Y015722D02*
X007552Y015722D01*
X007710Y015880D02*
X005860Y015880D01*
X005701Y016039D02*
X007634Y016039D01*
X007475Y016197D02*
X005543Y016197D01*
X005617Y016356D02*
X007317Y016356D01*
X007158Y016514D02*
X005732Y016514D01*
X005750Y016673D02*
X007000Y016673D01*
X006841Y016831D02*
X005909Y016831D01*
X005688Y017148D02*
X005335Y017148D01*
X005335Y016990D02*
X005530Y016990D01*
X005770Y017307D02*
X005276Y017307D01*
X005134Y017465D02*
X005821Y017465D01*
X006049Y017624D02*
X003760Y017624D01*
X003760Y017728D02*
X003537Y017951D01*
X003223Y017951D01*
X003000Y017728D01*
X003000Y017414D01*
X003223Y017191D01*
X003537Y017191D01*
X003760Y017414D01*
X003760Y017728D01*
X003706Y017782D02*
X005890Y017782D01*
X005732Y017941D02*
X003548Y017941D01*
X003537Y018191D02*
X003223Y018191D01*
X003000Y018414D01*
X003000Y018728D01*
X003223Y018951D01*
X003537Y018951D01*
X003760Y018728D01*
X003760Y018414D01*
X003537Y018191D01*
X003604Y018258D02*
X005415Y018258D01*
X005256Y018416D02*
X003760Y018416D01*
X003760Y018575D02*
X005098Y018575D01*
X005318Y018892D02*
X007441Y018892D01*
X007282Y019050D02*
X005335Y019050D01*
X005316Y019209D02*
X007124Y019209D01*
X006965Y019367D02*
X005232Y019367D01*
X004988Y019526D02*
X006807Y019526D01*
X007366Y020160D02*
X011074Y020160D01*
X010916Y020001D02*
X007524Y020001D01*
X007683Y019843D02*
X010757Y019843D01*
X010599Y019684D02*
X007841Y019684D01*
X008000Y019526D02*
X010339Y019526D01*
X011049Y019526D02*
X012286Y019526D01*
X012240Y019684D02*
X011207Y019684D01*
X011366Y019843D02*
X012272Y019843D01*
X012377Y020411D02*
X012410Y020411D01*
X012443Y020411D01*
X012508Y020421D01*
X012571Y020442D01*
X012630Y020472D01*
X012684Y020511D01*
X012730Y020557D01*
X012769Y020611D01*
X012799Y020670D01*
X012820Y020733D01*
X012830Y020798D01*
X012830Y021071D01*
X012830Y021344D01*
X012820Y021409D01*
X012799Y021472D01*
X012769Y021531D01*
X012730Y021585D01*
X012684Y021631D01*
X012630Y021670D01*
X012571Y021700D01*
X012508Y021721D01*
X012443Y021731D01*
X012410Y021731D01*
X012410Y021071D01*
X012410Y021071D01*
X012410Y021731D01*
X012377Y021731D01*
X012312Y021721D01*
X012249Y021700D01*
X012190Y021670D01*
X012136Y021631D01*
X012090Y021585D01*
X012051Y021531D01*
X012021Y021472D01*
X012000Y021409D01*
X011990Y021344D01*
X011990Y021071D01*
X012410Y021071D01*
X012830Y021071D01*
X012410Y021071D01*
X012410Y021071D01*
X012410Y021071D01*
X011990Y021071D01*
X011990Y020798D01*
X012000Y020733D01*
X012021Y020670D01*
X012051Y020611D01*
X012090Y020557D01*
X012136Y020511D01*
X012190Y020472D01*
X012249Y020442D01*
X012312Y020421D01*
X012377Y020411D01*
X012410Y020411D02*
X012410Y021071D01*
X012410Y020411D01*
X012410Y020477D02*
X012410Y020477D01*
X012410Y020635D02*
X012410Y020635D01*
X012410Y020794D02*
X012410Y020794D01*
X012410Y020952D02*
X012410Y020952D01*
X012410Y021071D02*
X012410Y021071D01*
X012410Y021111D02*
X012410Y021111D01*
X012410Y021269D02*
X012410Y021269D01*
X012410Y021428D02*
X012410Y021428D01*
X012410Y021586D02*
X012410Y021586D01*
X012091Y021586D02*
X011672Y021586D01*
X011773Y021428D02*
X012006Y021428D01*
X011990Y021269D02*
X011790Y021269D01*
X011790Y021111D02*
X011990Y021111D01*
X011990Y020952D02*
X011790Y020952D01*
X011790Y020794D02*
X011991Y020794D01*
X012038Y020635D02*
X011740Y020635D01*
X011547Y020477D02*
X012183Y020477D01*
X012637Y020477D02*
X012771Y020477D01*
X012782Y020635D02*
X012930Y020635D01*
X013030Y020794D02*
X012829Y020794D01*
X012830Y020952D02*
X013030Y020952D01*
X013030Y021111D02*
X012830Y021111D01*
X012830Y021269D02*
X013030Y021269D01*
X013047Y021428D02*
X012814Y021428D01*
X012729Y021586D02*
X013148Y021586D01*
X013672Y021586D02*
X014148Y021586D01*
X014047Y021428D02*
X013773Y021428D01*
X013790Y021269D02*
X014030Y021269D01*
X014030Y021111D02*
X013790Y021111D01*
X013790Y020952D02*
X014030Y020952D01*
X014030Y020794D02*
X013790Y020794D01*
X013740Y020635D02*
X014080Y020635D01*
X014273Y020477D02*
X013547Y020477D01*
X014547Y020477D02*
X015183Y020477D01*
X015190Y020472D02*
X015249Y020442D01*
X015312Y020421D01*
X015377Y020411D01*
X015410Y020411D01*
X015443Y020411D01*
X015508Y020421D01*
X015571Y020442D01*
X015630Y020472D01*
X015684Y020511D01*
X015730Y020557D01*
X015769Y020611D01*
X015799Y020670D01*
X015820Y020733D01*
X015830Y020798D01*
X015830Y021071D01*
X015830Y021344D01*
X015820Y021409D01*
X015799Y021472D01*
X015769Y021531D01*
X015730Y021585D01*
X015684Y021631D01*
X015630Y021670D01*
X015571Y021700D01*
X015508Y021721D01*
X015443Y021731D01*
X015410Y021731D01*
X015410Y021071D01*
X015410Y021071D01*
X015410Y021731D01*
X015377Y021731D01*
X015312Y021721D01*
X015249Y021700D01*
X015190Y021670D01*
X015136Y021631D01*
X015090Y021585D01*
X015051Y021531D01*
X015021Y021472D01*
X015000Y021409D01*
X014990Y021344D01*
X014990Y021071D01*
X015410Y021071D01*
X015830Y021071D01*
X015410Y021071D01*
X015410Y021071D01*
X015410Y021071D01*
X014990Y021071D01*
X014990Y020798D01*
X015000Y020733D01*
X015021Y020670D01*
X015051Y020611D01*
X015090Y020557D01*
X015136Y020511D01*
X015190Y020472D01*
X015410Y020477D02*
X015410Y020477D01*
X015410Y020411D02*
X015410Y021071D01*
X015410Y021071D01*
X015410Y020411D01*
X015410Y020635D02*
X015410Y020635D01*
X015410Y020794D02*
X015410Y020794D01*
X015410Y020952D02*
X015410Y020952D01*
X015410Y021111D02*
X015410Y021111D01*
X015410Y021269D02*
X015410Y021269D01*
X015410Y021428D02*
X015410Y021428D01*
X015410Y021586D02*
X015410Y021586D01*
X015091Y021586D02*
X014954Y021586D01*
X015006Y021428D02*
X014795Y021428D01*
X014790Y021269D02*
X014990Y021269D01*
X014990Y021111D02*
X014790Y021111D01*
X014790Y020952D02*
X014990Y020952D01*
X014991Y020794D02*
X014790Y020794D01*
X014740Y020635D02*
X015038Y020635D01*
X015637Y020477D02*
X016273Y020477D01*
X016080Y020635D02*
X015782Y020635D01*
X015829Y020794D02*
X016030Y020794D01*
X016030Y020952D02*
X015830Y020952D01*
X015830Y021111D02*
X016030Y021111D01*
X016030Y021269D02*
X015830Y021269D01*
X015814Y021428D02*
X016047Y021428D01*
X016148Y021586D02*
X015729Y021586D01*
X015112Y021745D02*
X017708Y021745D01*
X017672Y021586D02*
X017866Y021586D01*
X017773Y021428D02*
X018025Y021428D01*
X018170Y021269D02*
X017790Y021269D01*
X017790Y021111D02*
X018170Y021111D01*
X018292Y020952D02*
X017790Y020952D01*
X017790Y020794D02*
X019367Y020794D01*
X019454Y020635D02*
X017740Y020635D01*
X017030Y020794D02*
X016790Y020794D01*
X016790Y020952D02*
X017030Y020952D01*
X017030Y021111D02*
X016790Y021111D01*
X016790Y021269D02*
X017030Y021269D01*
X017047Y021428D02*
X016773Y021428D01*
X016672Y021586D02*
X017148Y021586D01*
X016919Y022854D02*
X017581Y022854D01*
X017919Y022854D02*
X018581Y022854D01*
X018352Y023013D02*
X018148Y023013D01*
X018234Y023171D02*
X018266Y023171D01*
X018919Y022854D02*
X019581Y022854D01*
X019352Y023013D02*
X019148Y023013D01*
X019234Y023171D02*
X019266Y023171D01*
X019373Y022537D02*
X018781Y022537D01*
X018759Y021903D02*
X019315Y021903D01*
X019365Y021586D02*
X018732Y021586D01*
X018891Y021428D02*
X019206Y021428D01*
X019175Y021269D02*
X018930Y021269D01*
X018930Y021111D02*
X019175Y021111D01*
X019209Y020952D02*
X018808Y020952D01*
X018710Y019843D02*
X017978Y019843D01*
X018010Y019684D02*
X018868Y019684D01*
X019027Y019526D02*
X017964Y019526D01*
X017625Y019367D02*
X019185Y019367D01*
X019215Y019209D02*
X017466Y019209D01*
X017308Y019050D02*
X019215Y019050D01*
X019286Y018892D02*
X017149Y018892D01*
X016991Y018733D02*
X019445Y018733D01*
X019393Y018575D02*
X016832Y018575D01*
X016674Y018416D02*
X019235Y018416D01*
X019175Y018258D02*
X016515Y018258D01*
X016357Y018099D02*
X019175Y018099D01*
X019180Y017941D02*
X016198Y017941D01*
X016040Y017782D02*
X019339Y017782D01*
X019341Y017465D02*
X015723Y017465D01*
X015881Y017624D02*
X020255Y017624D01*
X020255Y017782D02*
X020001Y017782D01*
X020160Y017941D02*
X020255Y017941D01*
X020255Y018099D02*
X020165Y018099D01*
X020165Y018258D02*
X020255Y018258D01*
X020255Y018416D02*
X020105Y018416D01*
X019215Y017307D02*
X015564Y017307D01*
X015406Y017148D02*
X019215Y017148D01*
X019215Y016990D02*
X015247Y016990D01*
X015089Y016831D02*
X019347Y016831D01*
X019333Y016514D02*
X013946Y016514D01*
X013984Y016356D02*
X019175Y016356D01*
X019175Y016197D02*
X014143Y016197D01*
X013900Y015902D02*
X013900Y015902D01*
X013922Y015880D02*
X010458Y015880D01*
X010486Y015691D02*
X010334Y015691D01*
X010195Y015633D01*
X010088Y015526D01*
X010030Y015387D01*
X010030Y014755D01*
X010088Y014616D01*
X010195Y014509D01*
X010334Y014451D01*
X010486Y014451D01*
X010625Y014509D01*
X010732Y014616D01*
X010790Y014755D01*
X010790Y015387D01*
X010732Y015526D01*
X010625Y015633D01*
X010486Y015691D01*
X010695Y015563D02*
X011125Y015563D01*
X011088Y015526D02*
X011030Y015387D01*
X011030Y014755D01*
X011088Y014616D01*
X011195Y014509D01*
X011334Y014451D01*
X011486Y014451D01*
X011625Y014509D01*
X011732Y014616D01*
X011790Y014755D01*
X011790Y015387D01*
X011732Y015526D01*
X011625Y015633D01*
X011486Y015691D01*
X011334Y015691D01*
X011195Y015633D01*
X011088Y015526D01*
X011037Y015405D02*
X010783Y015405D01*
X010790Y015246D02*
X011030Y015246D01*
X011030Y015088D02*
X010790Y015088D01*
X010790Y014929D02*
X011030Y014929D01*
X011030Y014771D02*
X010790Y014771D01*
X010728Y014612D02*
X011092Y014612D01*
X011328Y014454D02*
X010492Y014454D01*
X010328Y014454D02*
X009492Y014454D01*
X009328Y014454D02*
X008492Y014454D01*
X008425Y014295D02*
X005213Y014295D01*
X005107Y014401D02*
X004793Y014401D01*
X004570Y014178D01*
X004570Y013864D01*
X004793Y013641D01*
X005107Y013641D01*
X005330Y013864D01*
X005330Y014178D01*
X005107Y014401D01*
X005330Y014137D02*
X008267Y014137D01*
X008108Y013978D02*
X005330Y013978D01*
X005286Y013820D02*
X007568Y013820D01*
X007405Y013661D02*
X005127Y013661D01*
X004773Y013661D02*
X003349Y013661D01*
X003507Y013503D02*
X007340Y013503D01*
X007340Y013344D02*
X004164Y013344D01*
X004323Y013186D02*
X007395Y013186D01*
X007529Y013027D02*
X004330Y013027D01*
X004330Y012869D02*
X007590Y012869D01*
X007544Y012849D02*
X007412Y012717D01*
X007340Y012544D01*
X007340Y012358D01*
X007372Y012281D01*
X007241Y012151D01*
X006163Y012151D01*
X006081Y012232D01*
X005964Y012281D01*
X005836Y012281D01*
X005719Y012232D01*
X005629Y012142D01*
X005580Y012025D01*
X005580Y011897D01*
X005612Y011821D01*
X005479Y011821D01*
X005330Y011970D01*
X005330Y012178D01*
X005107Y012401D01*
X004793Y012401D01*
X004570Y012178D01*
X004570Y011864D01*
X004657Y011777D01*
X004531Y011651D01*
X003639Y011651D01*
X003180Y012110D01*
X003069Y012221D01*
X003002Y012221D01*
X003040Y012314D01*
X003040Y012508D01*
X002965Y012689D01*
X002828Y012826D01*
X002647Y012901D01*
X002453Y012901D01*
X002272Y012826D01*
X002135Y012689D01*
X002060Y012508D01*
X002060Y012314D01*
X002135Y012133D01*
X002147Y012121D01*
X001991Y012121D01*
X001735Y011865D01*
X001647Y011901D01*
X001453Y011901D01*
X001272Y011826D01*
X001135Y011689D01*
X001060Y011508D01*
X001060Y011314D01*
X001135Y011133D01*
X001272Y010996D01*
X001453Y010921D01*
X001647Y010921D01*
X001828Y010996D01*
X001965Y011133D01*
X002032Y011294D01*
X002033Y011287D01*
X002059Y011208D01*
X002097Y011133D01*
X002146Y011066D01*
X002205Y011007D01*
X002272Y010958D01*
X002347Y010920D01*
X002426Y010894D01*
X002433Y010893D01*
X002272Y010826D01*
X002135Y010689D01*
X002060Y010508D01*
X002060Y010314D01*
X002135Y010133D01*
X002272Y009996D01*
X002453Y009921D01*
X002647Y009921D01*
X002828Y009996D01*
X002965Y010133D01*
X003040Y010314D01*
X003040Y010508D01*
X002965Y010689D01*
X002828Y010826D01*
X002667Y010893D01*
X002674Y010894D01*
X002753Y010920D01*
X002828Y010958D01*
X002895Y011007D01*
X002954Y011066D01*
X003003Y011133D01*
X003041Y011208D01*
X003067Y011287D01*
X003080Y011369D01*
X003080Y011393D01*
X002568Y011393D01*
X002568Y011429D01*
X003080Y011429D01*
X003080Y011453D01*
X003067Y011535D01*
X003041Y011614D01*
X003003Y011689D01*
X002954Y011756D01*
X002904Y011806D01*
X002925Y011827D01*
X003481Y011271D01*
X004689Y011271D01*
X004800Y011382D01*
X004829Y011411D01*
X005041Y011411D01*
X005191Y011261D01*
X006043Y011261D01*
X006040Y011255D01*
X006040Y011127D01*
X006089Y011010D01*
X006179Y010920D01*
X006296Y010871D01*
X006424Y010871D01*
X006541Y010920D01*
X006631Y011010D01*
X006644Y011041D01*
X007223Y011041D01*
X007180Y010998D01*
X007180Y010684D01*
X007403Y010461D01*
X007717Y010461D01*
X007940Y010684D01*
X007940Y010998D01*
X007897Y011041D01*
X008081Y011041D01*
X008180Y010942D01*
X008180Y010684D01*
X008403Y010461D01*
X008717Y010461D01*
X008940Y010684D01*
X008940Y010998D01*
X008717Y011221D01*
X008439Y011221D01*
X008329Y011331D01*
X008781Y011331D01*
X009011Y011101D01*
X009950Y011101D01*
X009950Y011074D01*
X010173Y010851D01*
X010487Y010851D01*
X010710Y011074D01*
X010710Y011388D01*
X010487Y011611D01*
X010173Y011611D01*
X010043Y011481D01*
X009169Y011481D01*
X009139Y011511D01*
X009979Y011511D01*
X010139Y011671D01*
X011379Y011671D01*
X011399Y011691D01*
X012121Y011691D01*
X012141Y011671D01*
X012599Y011671D01*
X012639Y011711D01*
X013371Y011711D01*
X013790Y011292D01*
X013790Y011094D01*
X014013Y010871D01*
X014327Y010871D01*
X014550Y011094D01*
X014550Y011408D01*
X014327Y011631D01*
X014013Y011631D01*
X014001Y011619D01*
X013529Y012091D01*
X012481Y012091D01*
X012441Y012051D01*
X012299Y012051D01*
X012279Y012071D01*
X011241Y012071D01*
X011221Y012051D01*
X009981Y012051D01*
X009870Y011940D01*
X009821Y011891D01*
X007519Y011891D01*
X007640Y012013D01*
X007717Y011981D01*
X007903Y011981D01*
X008076Y012053D01*
X008208Y012185D01*
X008280Y012358D01*
X008280Y012544D01*
X008208Y012717D01*
X008076Y012849D01*
X007903Y012921D01*
X007717Y012921D01*
X007544Y012849D01*
X007409Y012710D02*
X004176Y012710D01*
X003724Y012710D02*
X002944Y012710D01*
X003022Y012552D02*
X007343Y012552D01*
X007340Y012393D02*
X005115Y012393D01*
X005274Y012235D02*
X005724Y012235D01*
X005601Y012076D02*
X005330Y012076D01*
X005382Y011918D02*
X005580Y011918D01*
X006076Y012235D02*
X007325Y012235D01*
X007545Y011918D02*
X009403Y011918D01*
X009405Y011916D02*
X009115Y012206D01*
X009115Y012411D01*
X009610Y012411D01*
X009610Y012411D01*
X009610Y012906D01*
X009815Y012906D01*
X010105Y012616D01*
X010105Y012411D01*
X009610Y012411D01*
X009610Y012906D01*
X009405Y012906D01*
X009115Y012616D01*
X009115Y012411D01*
X009610Y012411D01*
X009610Y012411D01*
X009610Y012411D01*
X010105Y012411D01*
X010105Y012206D01*
X009815Y011916D01*
X009610Y011916D01*
X009610Y012411D01*
X009610Y012411D01*
X009610Y011916D01*
X009405Y011916D01*
X009610Y011918D02*
X009610Y011918D01*
X009610Y012076D02*
X009610Y012076D01*
X009610Y012235D02*
X009610Y012235D01*
X009610Y012393D02*
X009610Y012393D01*
X009610Y012552D02*
X009610Y012552D01*
X009610Y012710D02*
X009610Y012710D01*
X009610Y012869D02*
X009610Y012869D01*
X009853Y012869D02*
X009938Y012869D01*
X010011Y012710D02*
X010637Y012710D01*
X010795Y012552D02*
X010105Y012552D01*
X010105Y012393D02*
X010870Y012393D01*
X010969Y012235D02*
X010105Y012235D01*
X009975Y012076D02*
X012466Y012076D01*
X012209Y012235D02*
X011531Y012235D01*
X011630Y012393D02*
X012024Y012393D01*
X011865Y012552D02*
X011705Y012552D01*
X011572Y013027D02*
X010928Y013027D01*
X011018Y013186D02*
X010770Y013186D01*
X010870Y013334D02*
X011093Y013111D01*
X011407Y013111D01*
X011630Y013334D01*
X011630Y013648D01*
X011407Y013871D01*
X011093Y013871D01*
X010870Y013648D01*
X010870Y013334D01*
X010870Y013344D02*
X010071Y013344D01*
X010065Y013503D02*
X010870Y013503D01*
X010883Y013661D02*
X010003Y013661D01*
X009845Y013820D02*
X011041Y013820D01*
X011459Y013820D02*
X012281Y013820D01*
X012333Y013871D02*
X012110Y013648D01*
X012110Y013334D01*
X012333Y013111D01*
X012647Y013111D01*
X012870Y013334D01*
X012870Y013648D01*
X012647Y013871D01*
X012333Y013871D01*
X012123Y013661D02*
X011617Y013661D01*
X011630Y013503D02*
X012110Y013503D01*
X012110Y013344D02*
X011630Y013344D01*
X011482Y013186D02*
X012258Y013186D01*
X011998Y013027D02*
X012932Y013027D01*
X012773Y012869D02*
X012650Y012869D01*
X012330Y012869D02*
X012157Y012869D01*
X012722Y013186D02*
X013578Y013186D01*
X013488Y013027D02*
X014831Y013027D01*
X015409Y011759D02*
X013861Y011759D01*
X013640Y011442D02*
X013233Y011442D01*
X013250Y011425D02*
X013004Y011671D01*
X012830Y011671D01*
X012830Y011251D01*
X012830Y011251D01*
X012830Y011671D01*
X012656Y011671D01*
X012410Y011425D01*
X012410Y011251D01*
X012830Y011251D01*
X013250Y011251D01*
X013250Y011425D01*
X013250Y011284D02*
X013790Y011284D01*
X013790Y011125D02*
X013250Y011125D01*
X013250Y011077D02*
X013250Y011251D01*
X012830Y011251D01*
X012830Y011251D01*
X012830Y011251D01*
X012410Y011251D01*
X012410Y011077D01*
X012656Y010831D01*
X012830Y010831D01*
X013004Y010831D01*
X013250Y011077D01*
X013139Y010967D02*
X013917Y010967D01*
X013873Y010491D02*
X013127Y010491D01*
X013210Y010408D02*
X012987Y010631D01*
X012673Y010631D01*
X012450Y010408D01*
X012450Y010094D01*
X012673Y009871D01*
X012987Y009871D01*
X013210Y010094D01*
X013210Y010408D01*
X013210Y010333D02*
X013790Y010333D01*
X013790Y010174D02*
X013210Y010174D01*
X013132Y010016D02*
X013868Y010016D01*
X013982Y009546D02*
X013715Y009279D01*
X013715Y008903D01*
X013982Y008636D01*
X014358Y008636D01*
X014603Y008881D01*
X014681Y008881D01*
X014911Y008651D01*
X014910Y008650D01*
X014910Y008252D01*
X015191Y007971D01*
X015589Y007971D01*
X015870Y008252D01*
X015870Y008650D01*
X015589Y008931D01*
X015191Y008931D01*
X015185Y008925D01*
X015179Y008931D01*
X015169Y008931D01*
X014950Y009150D01*
X014839Y009261D01*
X014625Y009261D01*
X014625Y009279D01*
X014358Y009546D01*
X013982Y009546D01*
X013976Y009540D02*
X013061Y009540D01*
X013035Y009566D02*
X012830Y009566D01*
X012830Y009071D01*
X012830Y009071D01*
X012830Y009566D01*
X012625Y009566D01*
X012335Y009276D01*
X012335Y009071D01*
X012830Y009071D01*
X013325Y009071D01*
X013325Y009276D01*
X013035Y009566D01*
X012830Y009540D02*
X012830Y009540D01*
X012830Y009382D02*
X012830Y009382D01*
X012830Y009223D02*
X012830Y009223D01*
X012830Y009071D02*
X012830Y009071D01*
X012830Y009071D01*
X013325Y009071D01*
X013325Y008866D01*
X013035Y008576D01*
X012830Y008576D01*
X012830Y009071D01*
X012335Y009071D01*
X012335Y008866D01*
X012625Y008576D01*
X012830Y008576D01*
X012830Y009071D01*
X012830Y009071D01*
X012830Y009065D02*
X012830Y009065D01*
X012830Y008906D02*
X012830Y008906D01*
X012830Y008748D02*
X012830Y008748D01*
X012830Y008589D02*
X012830Y008589D01*
X013018Y008526D02*
X012642Y008526D01*
X012375Y008259D01*
X012375Y008241D01*
X011930Y008241D01*
X011930Y008248D01*
X011707Y008471D01*
X011393Y008471D01*
X011170Y008248D01*
X011170Y008050D01*
X010761Y007641D01*
X010039Y007641D01*
X010121Y007723D01*
X010133Y007711D01*
X010447Y007711D01*
X010670Y007934D01*
X010670Y008002D01*
X010710Y008042D01*
X011359Y008691D01*
X011419Y008691D01*
X011439Y008711D01*
X011707Y008711D01*
X011930Y008934D01*
X011930Y009248D01*
X011707Y009471D01*
X011393Y009471D01*
X011170Y009248D01*
X011170Y009040D01*
X010524Y008394D01*
X010447Y008471D01*
X010133Y008471D01*
X009980Y008318D01*
X009980Y008435D01*
X009931Y008552D01*
X009841Y008642D01*
X009724Y008691D01*
X009609Y008691D01*
X009426Y008874D01*
X009511Y008910D01*
X009601Y009000D01*
X009650Y009117D01*
X009650Y009245D01*
X009601Y009362D01*
X009511Y009452D01*
X009394Y009501D01*
X009279Y009501D01*
X009240Y009540D01*
X009129Y009651D01*
X008050Y009651D01*
X008050Y009665D01*
X008031Y009711D01*
X008217Y009711D01*
X008440Y009934D01*
X008440Y009961D01*
X009779Y009961D01*
X009899Y010081D01*
X009921Y010081D01*
X009961Y010041D01*
X009983Y010041D01*
X010173Y009851D01*
X010487Y009851D01*
X010710Y010074D01*
X010710Y010081D01*
X011210Y010081D01*
X011210Y010074D01*
X011433Y009851D01*
X011747Y009851D01*
X011970Y010074D01*
X011970Y010388D01*
X011747Y010611D01*
X011433Y010611D01*
X011283Y010461D01*
X010637Y010461D01*
X010487Y010611D01*
X010173Y010611D01*
X010023Y010461D01*
X009741Y010461D01*
X009630Y010350D01*
X009630Y010350D01*
X009621Y010341D01*
X008347Y010341D01*
X008217Y010471D01*
X007903Y010471D01*
X007680Y010248D01*
X007680Y009934D01*
X007693Y009921D01*
X007666Y009921D01*
X007549Y009872D01*
X007459Y009782D01*
X007410Y009665D01*
X007410Y009537D01*
X007442Y009461D01*
X005301Y009461D01*
X005190Y009350D01*
X005111Y009271D01*
X005051Y009271D01*
X005041Y009261D01*
X004773Y009261D01*
X004550Y009038D01*
X004550Y008724D01*
X004773Y008501D01*
X005087Y008501D01*
X005310Y008724D01*
X005310Y008932D01*
X005459Y009081D01*
X008681Y009081D01*
X008721Y009041D01*
X008570Y009041D01*
X008396Y009041D01*
X008150Y008795D01*
X008150Y008621D01*
X008570Y008621D01*
X008570Y008621D01*
X008570Y009041D01*
X008570Y008621D01*
X008990Y008621D01*
X008990Y008772D01*
X009340Y008422D01*
X009340Y008307D01*
X009389Y008190D01*
X009479Y008100D01*
X009596Y008051D01*
X009724Y008051D01*
X009841Y008100D01*
X009910Y008168D01*
X009910Y008050D01*
X009751Y007891D01*
X009101Y007891D01*
X009071Y007962D01*
X008981Y008052D01*
X008864Y008101D01*
X008736Y008101D01*
X008619Y008052D01*
X008529Y007962D01*
X008480Y007845D01*
X008480Y007717D01*
X008485Y007704D01*
X008450Y007740D01*
X008450Y008028D01*
X008227Y008251D01*
X007913Y008251D01*
X007690Y008028D01*
X007690Y007717D01*
X007584Y007761D01*
X007456Y007761D01*
X007339Y007712D01*
X007257Y007631D01*
X006908Y007631D01*
X006891Y007672D01*
X006801Y007762D01*
X006684Y007811D01*
X006556Y007811D01*
X006439Y007762D01*
X006349Y007672D01*
X006332Y007631D01*
X005398Y007631D01*
X005430Y007707D01*
X005430Y007835D01*
X005381Y007952D01*
X005293Y008041D01*
X007029Y008041D01*
X007097Y008033D01*
X007107Y008041D01*
X007119Y008041D01*
X007167Y008089D01*
X007321Y008212D01*
X007328Y008211D01*
X007379Y008248D01*
X007397Y008257D01*
X007413Y008241D01*
X007727Y008241D01*
X007950Y008464D01*
X007950Y008778D01*
X007727Y009001D01*
X007413Y009001D01*
X007190Y008778D01*
X007190Y008588D01*
X007183Y008589D01*
X007137Y008552D01*
X007085Y008526D01*
X007077Y008504D01*
X006973Y008421D01*
X004039Y008421D01*
X002700Y009760D01*
X002589Y009871D01*
X002319Y009871D01*
X001992Y010198D01*
X002040Y010314D01*
X002040Y010508D01*
X001965Y010689D01*
X001828Y010826D01*
X001647Y010901D01*
X001453Y010901D01*
X001272Y010826D01*
X001135Y010689D01*
X001060Y010508D01*
X001060Y010314D01*
X001135Y010133D01*
X001272Y009996D01*
X001453Y009921D01*
X001647Y009921D01*
X001707Y009946D01*
X001966Y009686D01*
X001802Y009686D01*
X001535Y009419D01*
X001535Y009043D01*
X001802Y008776D01*
X002178Y008776D01*
X002445Y009043D01*
X002445Y009419D01*
X002373Y009491D01*
X002431Y009491D01*
X003881Y008041D01*
X004927Y008041D01*
X004847Y007961D01*
X002529Y007961D01*
X002445Y008045D01*
X002445Y008419D01*
X002178Y008686D01*
X001802Y008686D01*
X001535Y008419D01*
X001535Y008043D01*
X001802Y007776D01*
X002176Y007776D01*
X002260Y007692D01*
X002371Y007581D01*
X003031Y007581D01*
X002970Y007520D01*
X002970Y007520D01*
X002591Y007141D01*
X002531Y007141D01*
X002521Y007131D01*
X002253Y007131D01*
X002030Y006908D01*
X002030Y006594D01*
X002253Y006371D01*
X002567Y006371D01*
X002790Y006594D01*
X002790Y006802D01*
X003239Y007251D01*
X006407Y007251D01*
X006439Y007220D01*
X006556Y007171D01*
X006684Y007171D01*
X006801Y007220D01*
X006833Y007251D01*
X006856Y007251D01*
X006855Y007250D01*
X006751Y007146D01*
X006661Y007146D01*
X006646Y007131D01*
X006413Y007131D01*
X006190Y006908D01*
X006190Y006594D01*
X006413Y006371D01*
X006727Y006371D01*
X006950Y006594D01*
X006950Y006737D01*
X007159Y006946D01*
X007201Y006946D01*
X007281Y006866D01*
X009301Y006866D01*
X009695Y006472D01*
X009695Y006203D01*
X009962Y005936D01*
X010338Y005936D01*
X010605Y006203D01*
X010605Y006579D01*
X010594Y006591D01*
X011149Y007146D01*
X015016Y007146D01*
X015191Y006971D01*
X015589Y006971D01*
X015632Y007015D01*
X015861Y006786D01*
X016541Y006786D01*
X017001Y006326D01*
X016975Y006299D01*
X016975Y005923D01*
X017242Y005656D01*
X017618Y005656D01*
X017885Y005923D01*
X017885Y006299D01*
X017618Y006566D01*
X017369Y006566D01*
X016845Y007090D01*
X016719Y007216D01*
X016039Y007216D01*
X015870Y007385D01*
X015870Y007650D01*
X015589Y007931D01*
X015191Y007931D01*
X014910Y007650D01*
X014910Y007576D01*
X011234Y007576D01*
X011381Y007723D01*
X011393Y007711D01*
X011707Y007711D01*
X011857Y007861D01*
X012397Y007861D01*
X012642Y007616D01*
X013018Y007616D01*
X013285Y007883D01*
X013285Y008259D01*
X013018Y008526D01*
X013048Y008589D02*
X014910Y008589D01*
X014910Y008431D02*
X014474Y008431D01*
X014358Y008546D02*
X014625Y008279D01*
X014625Y007903D01*
X014358Y007636D01*
X013982Y007636D01*
X013715Y007903D01*
X013715Y008279D01*
X013982Y008546D01*
X014358Y008546D01*
X014470Y008748D02*
X014815Y008748D01*
X015035Y009065D02*
X015098Y009065D01*
X015191Y008971D02*
X015589Y008971D01*
X015870Y009252D01*
X015870Y009650D01*
X015589Y009931D01*
X015191Y009931D01*
X014910Y009650D01*
X014910Y009252D01*
X015191Y008971D01*
X014939Y009223D02*
X014877Y009223D01*
X014910Y009382D02*
X014523Y009382D01*
X014364Y009540D02*
X014910Y009540D01*
X014959Y009699D02*
X008036Y009699D01*
X007680Y010016D02*
X004310Y010016D01*
X004310Y010038D02*
X004087Y010261D01*
X003773Y010261D01*
X003550Y010038D01*
X003550Y009724D01*
X003773Y009501D01*
X004087Y009501D01*
X004310Y009724D01*
X004310Y010038D01*
X004310Y009857D02*
X007533Y009857D01*
X007424Y009699D02*
X004285Y009699D01*
X004126Y009540D02*
X007410Y009540D01*
X007318Y008906D02*
X005310Y008906D01*
X005310Y008748D02*
X007190Y008748D01*
X007190Y008589D02*
X005175Y008589D01*
X004685Y008589D02*
X003871Y008589D01*
X004029Y008431D02*
X006985Y008431D01*
X007197Y008114D02*
X007775Y008114D01*
X007758Y008272D02*
X008325Y008272D01*
X008396Y008201D02*
X008570Y008201D01*
X008744Y008201D01*
X008990Y008447D01*
X008990Y008621D01*
X008570Y008621D01*
X008570Y008621D01*
X008570Y008621D01*
X008150Y008621D01*
X008150Y008447D01*
X008396Y008201D01*
X008365Y008114D02*
X009465Y008114D01*
X009355Y008272D02*
X008815Y008272D01*
X008973Y008431D02*
X009332Y008431D01*
X009173Y008589D02*
X008990Y008589D01*
X008990Y008748D02*
X009015Y008748D01*
X008698Y009065D02*
X005442Y009065D01*
X005222Y009382D02*
X003078Y009382D01*
X002920Y009540D02*
X003734Y009540D01*
X003575Y009699D02*
X002761Y009699D01*
X002603Y009857D02*
X003550Y009857D01*
X003550Y010016D02*
X002847Y010016D01*
X002982Y010174D02*
X003686Y010174D01*
X004174Y010174D02*
X007680Y010174D01*
X007764Y010333D02*
X003040Y010333D01*
X003040Y010491D02*
X007373Y010491D01*
X007214Y010650D02*
X005236Y010650D01*
X005310Y010724D02*
X005087Y010501D01*
X004773Y010501D01*
X004550Y010724D01*
X004550Y011038D01*
X004773Y011261D01*
X005087Y011261D01*
X005310Y011038D01*
X005310Y010724D01*
X005310Y010808D02*
X007180Y010808D01*
X007180Y010967D02*
X006588Y010967D01*
X006132Y010967D02*
X005310Y010967D01*
X005223Y011125D02*
X006041Y011125D01*
X005169Y011284D02*
X004701Y011284D01*
X004637Y011125D02*
X002997Y011125D01*
X003066Y011284D02*
X003469Y011284D01*
X003310Y011442D02*
X003080Y011442D01*
X003046Y011601D02*
X003152Y011601D01*
X002993Y011759D02*
X002952Y011759D01*
X003214Y012076D02*
X004570Y012076D01*
X004570Y011918D02*
X003372Y011918D01*
X003531Y011759D02*
X004639Y011759D01*
X004626Y012235D02*
X003007Y012235D01*
X003040Y012393D02*
X004785Y012393D01*
X003736Y013344D02*
X003666Y013344D01*
X003445Y013027D02*
X000930Y013027D01*
X000930Y012869D02*
X001374Y012869D01*
X001453Y012901D02*
X001272Y012826D01*
X001135Y012689D01*
X001060Y012508D01*
X001060Y012314D01*
X001135Y012133D01*
X001272Y011996D01*
X001453Y011921D01*
X001647Y011921D01*
X001828Y011996D01*
X001965Y012133D01*
X002040Y012314D01*
X002040Y012508D01*
X001965Y012689D01*
X001828Y012826D01*
X001647Y012901D01*
X001453Y012901D01*
X001156Y012710D02*
X000930Y012710D01*
X000930Y012552D02*
X001078Y012552D01*
X001060Y012393D02*
X000930Y012393D01*
X000930Y012235D02*
X001093Y012235D01*
X001192Y012076D02*
X000930Y012076D01*
X000930Y011918D02*
X001788Y011918D01*
X001908Y012076D02*
X001946Y012076D01*
X002007Y012235D02*
X002093Y012235D01*
X002060Y012393D02*
X002040Y012393D01*
X002022Y012552D02*
X002078Y012552D01*
X002156Y012710D02*
X001944Y012710D01*
X001726Y012869D02*
X002374Y012869D01*
X002726Y012869D02*
X003570Y012869D01*
X003287Y013186D02*
X000930Y013186D01*
X000930Y013344D02*
X001754Y013344D01*
X001882Y013216D02*
X002258Y013216D01*
X002525Y013483D01*
X002525Y013859D01*
X002258Y014126D01*
X001882Y014126D01*
X001615Y013859D01*
X001615Y013483D01*
X001882Y013216D01*
X001615Y013503D02*
X000930Y013503D01*
X000930Y013661D02*
X001615Y013661D01*
X001615Y013820D02*
X000930Y013820D01*
X000930Y013978D02*
X001734Y013978D01*
X001803Y014295D02*
X000930Y014295D01*
X000930Y014137D02*
X002336Y014137D01*
X002406Y013978D02*
X002494Y013978D01*
X002525Y013820D02*
X002653Y013820D01*
X002525Y013661D02*
X002811Y013661D01*
X002970Y013503D02*
X002525Y013503D01*
X002386Y013344D02*
X003128Y013344D01*
X003190Y013820D02*
X004614Y013820D01*
X004570Y013978D02*
X003032Y013978D01*
X002873Y014137D02*
X004570Y014137D01*
X004687Y014295D02*
X002715Y014295D01*
X002525Y014771D02*
X006032Y014771D01*
X006030Y014929D02*
X002455Y014929D01*
X002297Y015088D02*
X003103Y015088D01*
X003155Y015036D02*
X002865Y015326D01*
X002865Y015531D01*
X003360Y015531D01*
X003360Y015531D01*
X003360Y016026D01*
X003565Y016026D01*
X003855Y015736D01*
X003855Y015531D01*
X003360Y015531D01*
X003360Y016026D01*
X003155Y016026D01*
X002865Y015736D01*
X002865Y015531D01*
X003360Y015531D01*
X003360Y015531D01*
X003360Y015531D01*
X003855Y015531D01*
X003855Y015326D01*
X003565Y015036D01*
X003360Y015036D01*
X003360Y015531D01*
X003360Y015531D01*
X003360Y015036D01*
X003155Y015036D01*
X003360Y015088D02*
X003360Y015088D01*
X003360Y015246D02*
X003360Y015246D01*
X003360Y015405D02*
X003360Y015405D01*
X003360Y015563D02*
X003360Y015563D01*
X003360Y015722D02*
X003360Y015722D01*
X003360Y015880D02*
X003360Y015880D01*
X003172Y016076D02*
X003548Y016076D01*
X003815Y016343D01*
X003815Y016719D01*
X003548Y016986D01*
X003172Y016986D01*
X002905Y016719D01*
X002905Y016343D01*
X003172Y016076D01*
X003051Y016197D02*
X000930Y016197D01*
X000930Y016039D02*
X005164Y016039D01*
X005005Y016197D02*
X003669Y016197D01*
X003815Y016356D02*
X004847Y016356D01*
X004680Y016514D02*
X003815Y016514D01*
X003815Y016673D02*
X004617Y016673D01*
X004466Y016831D02*
X003703Y016831D01*
X003653Y017307D02*
X004464Y017307D01*
X004405Y017148D02*
X000930Y017148D01*
X000930Y016990D02*
X004405Y016990D01*
X004606Y017465D02*
X003760Y017465D01*
X003212Y017941D02*
X000930Y017941D01*
X000930Y018099D02*
X005573Y018099D01*
X005794Y018416D02*
X007916Y018416D01*
X007758Y018575D02*
X005635Y018575D01*
X005477Y018733D02*
X007599Y018733D01*
X008075Y018258D02*
X005952Y018258D01*
X006111Y018099D02*
X008233Y018099D01*
X008392Y017941D02*
X006269Y017941D01*
X006428Y017782D02*
X008550Y017782D01*
X008709Y017624D02*
X006586Y017624D01*
X006745Y017465D02*
X008867Y017465D01*
X009026Y017307D02*
X006903Y017307D01*
X007062Y017148D02*
X011910Y017148D01*
X012310Y017148D02*
X014868Y017148D01*
X014710Y016990D02*
X010164Y016990D01*
X010126Y016514D02*
X010434Y016514D01*
X010396Y016356D02*
X007854Y016356D01*
X007696Y016514D02*
X009734Y016514D01*
X009624Y016673D02*
X007537Y016673D01*
X007379Y016831D02*
X009610Y016831D01*
X009696Y016990D02*
X007220Y016990D01*
X006683Y016990D02*
X006223Y016990D01*
X006381Y017148D02*
X006524Y017148D01*
X005322Y015880D02*
X003711Y015880D01*
X003855Y015722D02*
X005481Y015722D01*
X005639Y015563D02*
X003855Y015563D01*
X003855Y015405D02*
X005798Y015405D01*
X005956Y015246D02*
X003775Y015246D01*
X003617Y015088D02*
X006030Y015088D01*
X008013Y016197D02*
X010237Y016197D01*
X010616Y016039D02*
X013764Y016039D01*
X013421Y016197D02*
X010959Y016197D01*
X011061Y016356D02*
X013319Y016356D01*
X013314Y016514D02*
X011066Y016514D01*
X011695Y015563D02*
X012125Y015563D01*
X012088Y015526D02*
X012030Y015387D01*
X012030Y014755D01*
X012088Y014616D01*
X012195Y014509D01*
X012334Y014451D01*
X012486Y014451D01*
X012625Y014509D01*
X012732Y014616D01*
X012790Y014755D01*
X012790Y015387D01*
X012732Y015526D01*
X012625Y015633D01*
X012486Y015691D01*
X012334Y015691D01*
X012195Y015633D01*
X012088Y015526D01*
X012037Y015405D02*
X011783Y015405D01*
X011790Y015246D02*
X012030Y015246D01*
X012030Y015088D02*
X011790Y015088D01*
X011790Y014929D02*
X012030Y014929D01*
X012030Y014771D02*
X011790Y014771D01*
X011728Y014612D02*
X012092Y014612D01*
X012328Y014454D02*
X011492Y014454D01*
X012492Y014454D02*
X013226Y014454D01*
X013249Y014442D02*
X013312Y014421D01*
X013377Y014411D01*
X013410Y014411D01*
X013443Y014411D01*
X013508Y014421D01*
X013571Y014442D01*
X013630Y014472D01*
X013684Y014511D01*
X013730Y014557D01*
X013769Y014611D01*
X013799Y014670D01*
X013820Y014733D01*
X013830Y014798D01*
X013830Y015071D01*
X013410Y015071D01*
X013410Y015071D01*
X013410Y015071D01*
X012990Y015071D01*
X012990Y014798D01*
X013000Y014733D01*
X013021Y014670D01*
X013051Y014611D01*
X013090Y014557D01*
X013136Y014511D01*
X013190Y014472D01*
X013249Y014442D01*
X013410Y014454D02*
X013410Y014454D01*
X013410Y014411D02*
X013410Y015071D01*
X013410Y015071D01*
X013410Y014411D01*
X013594Y014454D02*
X014328Y014454D01*
X014492Y014454D02*
X014499Y014454D01*
X014790Y014771D02*
X015030Y014771D01*
X015030Y014929D02*
X014790Y014929D01*
X014790Y015088D02*
X015030Y015088D01*
X015030Y015246D02*
X014790Y015246D01*
X014783Y015405D02*
X015037Y015405D01*
X015125Y015563D02*
X014695Y015563D01*
X014125Y015563D02*
X013746Y015563D01*
X013820Y015405D02*
X014037Y015405D01*
X014030Y015246D02*
X013830Y015246D01*
X013830Y015088D02*
X014030Y015088D01*
X014030Y014929D02*
X013830Y014929D01*
X013826Y014771D02*
X014030Y014771D01*
X014092Y014612D02*
X013770Y014612D01*
X013410Y014612D02*
X013410Y014612D01*
X013410Y014771D02*
X013410Y014771D01*
X013410Y014929D02*
X013410Y014929D01*
X013410Y015088D02*
X013410Y015088D01*
X013410Y015246D02*
X013410Y015246D01*
X013410Y015405D02*
X013410Y015405D01*
X013410Y015563D02*
X013410Y015563D01*
X013074Y015563D02*
X012695Y015563D01*
X012783Y015405D02*
X013000Y015405D01*
X012990Y015246D02*
X012790Y015246D01*
X012790Y015088D02*
X012990Y015088D01*
X012990Y014929D02*
X012790Y014929D01*
X012790Y014771D02*
X012994Y014771D01*
X013050Y014612D02*
X012728Y014612D01*
X012699Y013820D02*
X013601Y013820D01*
X013443Y013661D02*
X012857Y013661D01*
X012870Y013503D02*
X013430Y013503D01*
X013430Y013344D02*
X012870Y013344D01*
X013065Y012552D02*
X013355Y012552D01*
X013430Y012393D02*
X012906Y012393D01*
X012771Y012235D02*
X013529Y012235D01*
X013482Y011601D02*
X013074Y011601D01*
X012830Y011601D02*
X012830Y011601D01*
X012830Y011442D02*
X012830Y011442D01*
X012830Y011284D02*
X012830Y011284D01*
X012830Y011251D02*
X012830Y010831D01*
X012830Y011251D01*
X012830Y011251D01*
X012830Y011125D02*
X012830Y011125D01*
X012830Y010967D02*
X012830Y010967D01*
X012521Y010967D02*
X011919Y010967D01*
X012010Y011057D02*
X012010Y011231D01*
X012010Y011405D01*
X011764Y011651D01*
X011590Y011651D01*
X011590Y011231D01*
X011590Y011231D01*
X011590Y011651D01*
X011416Y011651D01*
X011170Y011405D01*
X011170Y011231D01*
X011590Y011231D01*
X012010Y011231D01*
X011590Y011231D01*
X011590Y011231D01*
X011590Y011231D01*
X011170Y011231D01*
X011170Y011057D01*
X011416Y010811D01*
X011590Y010811D01*
X011764Y010811D01*
X012010Y011057D01*
X012010Y011125D02*
X012410Y011125D01*
X012410Y011284D02*
X012010Y011284D01*
X011973Y011442D02*
X012427Y011442D01*
X012586Y011601D02*
X011814Y011601D01*
X011590Y011601D02*
X011590Y011601D01*
X011590Y011442D02*
X011590Y011442D01*
X011590Y011284D02*
X011590Y011284D01*
X011590Y011231D02*
X011590Y010811D01*
X011590Y011231D01*
X011590Y011231D01*
X011590Y011125D02*
X011590Y011125D01*
X011590Y010967D02*
X011590Y010967D01*
X011261Y010967D02*
X010603Y010967D01*
X010710Y011125D02*
X011170Y011125D01*
X011170Y011284D02*
X010710Y011284D01*
X010656Y011442D02*
X011207Y011442D01*
X011366Y011601D02*
X010498Y011601D01*
X010162Y011601D02*
X010068Y011601D01*
X009848Y011918D02*
X009817Y011918D01*
X009245Y012076D02*
X008100Y012076D01*
X008229Y012235D02*
X009115Y012235D01*
X009115Y012393D02*
X008280Y012393D01*
X008277Y012552D02*
X009115Y012552D01*
X009209Y012710D02*
X008211Y012710D01*
X008030Y012869D02*
X009367Y012869D01*
X009351Y013027D02*
X008091Y013027D01*
X008225Y013186D02*
X009192Y013186D01*
X009155Y013344D02*
X008280Y013344D01*
X008280Y013503D02*
X009155Y013503D01*
X009217Y013661D02*
X008329Y013661D01*
X008487Y013820D02*
X009375Y013820D01*
X009092Y014612D02*
X008728Y014612D01*
X008790Y014771D02*
X009030Y014771D01*
X009037Y015405D02*
X008783Y015405D01*
X008695Y015563D02*
X009125Y015563D01*
X009695Y015563D02*
X010125Y015563D01*
X010037Y015405D02*
X009783Y015405D01*
X009790Y015246D02*
X010030Y015246D01*
X010030Y015088D02*
X009790Y015088D01*
X009790Y014929D02*
X010030Y014929D01*
X010030Y014771D02*
X009790Y014771D01*
X009728Y014612D02*
X010092Y014612D01*
X009246Y017624D02*
X011880Y017624D01*
X012340Y017624D02*
X015344Y017624D01*
X015502Y017782D02*
X009088Y017782D01*
X008929Y017941D02*
X015661Y017941D01*
X015819Y018099D02*
X008771Y018099D01*
X008486Y020451D02*
X008334Y020451D01*
X008195Y020509D01*
X008088Y020616D01*
X008030Y020755D01*
X008030Y021387D01*
X008088Y021526D01*
X008195Y021633D01*
X008334Y021691D01*
X008486Y021691D01*
X008625Y021633D01*
X008732Y021526D01*
X008790Y021387D01*
X008790Y020755D01*
X008732Y020616D01*
X008625Y020509D01*
X008486Y020451D01*
X008547Y020477D02*
X009273Y020477D01*
X009080Y020635D02*
X008740Y020635D01*
X008790Y020794D02*
X009030Y020794D01*
X009030Y020952D02*
X008790Y020952D01*
X008790Y021111D02*
X009030Y021111D01*
X009030Y021269D02*
X008790Y021269D01*
X008773Y021428D02*
X009047Y021428D01*
X009148Y021586D02*
X008672Y021586D01*
X009011Y021903D02*
X010363Y021903D01*
X010522Y022062D02*
X009169Y022062D01*
X009081Y022854D02*
X008419Y022854D01*
X008648Y023013D02*
X008852Y023013D01*
X008766Y023171D02*
X008734Y023171D01*
X008081Y022854D02*
X007419Y022854D01*
X007648Y023013D02*
X007852Y023013D01*
X007766Y023171D02*
X007734Y023171D01*
X007954Y021586D02*
X008148Y021586D01*
X008047Y021428D02*
X007795Y021428D01*
X007790Y021269D02*
X008030Y021269D01*
X008030Y021111D02*
X007790Y021111D01*
X007790Y020952D02*
X008030Y020952D01*
X008030Y020794D02*
X007790Y020794D01*
X007740Y020635D02*
X008080Y020635D01*
X008273Y020477D02*
X007547Y020477D01*
X009419Y022854D02*
X010081Y022854D01*
X009852Y023013D02*
X009648Y023013D01*
X009734Y023171D02*
X009766Y023171D01*
X010419Y022854D02*
X011081Y022854D01*
X010852Y023013D02*
X010648Y023013D01*
X010734Y023171D02*
X010766Y023171D01*
X011419Y022854D02*
X011574Y022854D01*
X011648Y023013D02*
X011733Y023013D01*
X011734Y023171D02*
X011891Y023171D01*
X011760Y023330D02*
X012240Y023330D01*
X012240Y023488D02*
X011739Y023488D01*
X011661Y023647D02*
X012240Y023647D01*
X011370Y021745D02*
X014575Y021745D01*
X014733Y021903D02*
X014131Y021903D01*
X011047Y021428D02*
X010773Y021428D01*
X010790Y021269D02*
X011030Y021269D01*
X011030Y021111D02*
X010790Y021111D01*
X010790Y020952D02*
X011030Y020952D01*
X011030Y020794D02*
X010790Y020794D01*
X010740Y020635D02*
X011080Y020635D01*
X010956Y021586D02*
X010672Y021586D01*
X010742Y021745D02*
X010790Y021745D01*
X014930Y016673D02*
X020255Y016673D01*
X019670Y016514D02*
X019670Y016514D01*
X019670Y016356D02*
X019670Y016356D01*
X019670Y016197D02*
X019670Y016197D01*
X019670Y016151D02*
X019670Y015656D01*
X019670Y016151D01*
X019670Y016151D01*
X019670Y016039D02*
X019670Y016039D01*
X019670Y015880D02*
X019670Y015880D01*
X019670Y015722D02*
X019670Y015722D01*
X019175Y016039D02*
X015951Y016039D01*
X015092Y014612D02*
X014878Y014612D01*
X016702Y013186D02*
X017198Y013186D01*
X017313Y012831D02*
X017090Y012608D01*
X017090Y012294D01*
X017313Y012071D01*
X017627Y012071D01*
X017850Y012294D01*
X017850Y012608D01*
X017627Y012831D01*
X017313Y012831D01*
X017192Y012710D02*
X016708Y012710D01*
X016810Y012552D02*
X017090Y012552D01*
X017090Y012393D02*
X016810Y012393D01*
X016751Y012235D02*
X017149Y012235D01*
X017308Y012076D02*
X016592Y012076D01*
X016105Y011918D02*
X018638Y011918D01*
X018647Y012071D02*
X018870Y012294D01*
X018870Y012608D01*
X018647Y012831D01*
X018333Y012831D01*
X018110Y012608D01*
X018110Y012294D01*
X018333Y012071D01*
X018647Y012071D01*
X018652Y012076D02*
X018796Y012076D01*
X018811Y012235D02*
X018955Y012235D01*
X019060Y012340D02*
X018091Y011371D01*
X016051Y011371D01*
X015600Y010920D01*
X015589Y010931D01*
X015191Y010931D01*
X014910Y010650D01*
X014910Y010252D01*
X015191Y009971D01*
X015589Y009971D01*
X015870Y010252D01*
X015870Y010650D01*
X015869Y010651D01*
X016209Y010991D01*
X018249Y010991D01*
X018360Y011102D01*
X019329Y012071D01*
X019597Y012071D01*
X019820Y012294D01*
X019820Y012608D01*
X019597Y012831D01*
X019283Y012831D01*
X019060Y012608D01*
X019060Y012340D01*
X019060Y012393D02*
X018870Y012393D01*
X018870Y012552D02*
X019060Y012552D01*
X019162Y012710D02*
X018768Y012710D01*
X018762Y013186D02*
X019168Y013186D01*
X019712Y013186D02*
X020255Y013186D01*
X020255Y013344D02*
X019820Y013344D01*
X019820Y013503D02*
X020255Y013503D01*
X020255Y013661D02*
X019767Y013661D01*
X019609Y013820D02*
X020255Y013820D01*
X019271Y013820D02*
X018659Y013820D01*
X018110Y013344D02*
X017850Y013344D01*
X017742Y013186D02*
X018218Y013186D01*
X018212Y012710D02*
X017748Y012710D01*
X017850Y012552D02*
X018110Y012552D01*
X018110Y012393D02*
X017850Y012393D01*
X017791Y012235D02*
X018169Y012235D01*
X018328Y012076D02*
X017632Y012076D01*
X018162Y011442D02*
X015630Y011442D01*
X015788Y011601D02*
X018321Y011601D01*
X018479Y011759D02*
X015947Y011759D01*
X015964Y011284D02*
X015471Y011284D01*
X015313Y011125D02*
X015805Y011125D01*
X015647Y010967D02*
X015154Y010967D01*
X015068Y010808D02*
X014996Y010808D01*
X014910Y010650D02*
X014837Y010650D01*
X014910Y010491D02*
X014679Y010491D01*
X014550Y010333D02*
X014910Y010333D01*
X014988Y010174D02*
X014550Y010174D01*
X014472Y010016D02*
X015147Y010016D01*
X015117Y009857D02*
X011753Y009857D01*
X011912Y010016D02*
X012528Y010016D01*
X012450Y010174D02*
X011970Y010174D01*
X011970Y010333D02*
X012450Y010333D01*
X012533Y010491D02*
X011867Y010491D01*
X011313Y010491D02*
X010607Y010491D01*
X010652Y010016D02*
X011268Y010016D01*
X011427Y009857D02*
X010493Y009857D01*
X010167Y009857D02*
X008363Y009857D01*
X008373Y010491D02*
X007747Y010491D01*
X007906Y010650D02*
X008214Y010650D01*
X008180Y010808D02*
X007940Y010808D01*
X007940Y010967D02*
X008156Y010967D01*
X008376Y011284D02*
X008829Y011284D01*
X008813Y011125D02*
X008987Y011125D01*
X008940Y010967D02*
X010057Y010967D01*
X010053Y010491D02*
X008747Y010491D01*
X008906Y010650D02*
X014300Y010650D01*
X014458Y010808D02*
X008940Y010808D01*
X009833Y010016D02*
X010008Y010016D01*
X010116Y009511D02*
X009870Y009265D01*
X009870Y009091D01*
X010290Y009091D01*
X010290Y009091D01*
X010290Y009511D01*
X010464Y009511D01*
X010710Y009265D01*
X010710Y009091D01*
X010290Y009091D01*
X010290Y009511D01*
X010116Y009511D01*
X009987Y009382D02*
X009582Y009382D01*
X009650Y009223D02*
X009870Y009223D01*
X009870Y009091D02*
X009870Y008917D01*
X010116Y008671D01*
X010290Y008671D01*
X010464Y008671D01*
X010710Y008917D01*
X010710Y009091D01*
X010290Y009091D01*
X010290Y009091D01*
X010290Y009091D01*
X009870Y009091D01*
X009870Y009065D02*
X009628Y009065D01*
X009502Y008906D02*
X009881Y008906D01*
X010040Y008748D02*
X009552Y008748D01*
X009895Y008589D02*
X010719Y008589D01*
X010561Y008431D02*
X010488Y008431D01*
X010290Y008671D02*
X010290Y009091D01*
X010290Y009091D01*
X010290Y008671D01*
X010290Y008748D02*
X010290Y008748D01*
X010290Y008906D02*
X010290Y008906D01*
X010290Y009065D02*
X010290Y009065D01*
X010290Y009223D02*
X010290Y009223D01*
X010290Y009382D02*
X010290Y009382D01*
X010593Y009382D02*
X011303Y009382D01*
X011170Y009223D02*
X010710Y009223D01*
X010710Y009065D02*
X011170Y009065D01*
X011036Y008906D02*
X010699Y008906D01*
X010540Y008748D02*
X010878Y008748D01*
X011098Y008431D02*
X011352Y008431D01*
X011257Y008589D02*
X012612Y008589D01*
X012546Y008431D02*
X011748Y008431D01*
X011906Y008272D02*
X012388Y008272D01*
X012453Y008748D02*
X011744Y008748D01*
X011902Y008906D02*
X012335Y008906D01*
X012335Y009065D02*
X011930Y009065D01*
X011930Y009223D02*
X012335Y009223D01*
X012440Y009382D02*
X011797Y009382D01*
X012599Y009540D02*
X009240Y009540D01*
X008570Y008906D02*
X008570Y008906D01*
X008570Y008748D02*
X008570Y008748D01*
X008570Y008621D02*
X008570Y008201D01*
X008570Y008621D01*
X008570Y008621D01*
X008570Y008589D02*
X008570Y008589D01*
X008570Y008431D02*
X008570Y008431D01*
X008570Y008272D02*
X008570Y008272D01*
X008526Y007955D02*
X008450Y007955D01*
X008450Y007796D02*
X008480Y007796D01*
X009074Y007955D02*
X009815Y007955D01*
X009855Y008114D02*
X009910Y008114D01*
X009980Y008431D02*
X010092Y008431D01*
X010670Y007955D02*
X011075Y007955D01*
X011170Y008114D02*
X010781Y008114D01*
X010940Y008272D02*
X011194Y008272D01*
X010917Y007796D02*
X010533Y007796D01*
X011007Y007004D02*
X015158Y007004D01*
X015094Y006786D02*
X015025Y006797D01*
X014999Y006797D01*
X014999Y006360D01*
X014981Y006360D01*
X014981Y006797D01*
X014955Y006797D01*
X014886Y006786D01*
X014819Y006764D01*
X014756Y006732D01*
X014700Y006691D01*
X014650Y006641D01*
X014609Y006585D01*
X014577Y006522D01*
X014555Y006455D01*
X014544Y006386D01*
X014544Y006360D01*
X014981Y006360D01*
X014981Y006342D01*
X014999Y006342D01*
X014999Y006360D01*
X015436Y006360D01*
X015436Y006386D01*
X015425Y006455D01*
X015403Y006522D01*
X015371Y006585D01*
X015330Y006641D01*
X015280Y006691D01*
X015224Y006732D01*
X015161Y006764D01*
X015094Y006786D01*
X014999Y006687D02*
X014981Y006687D01*
X014981Y006528D02*
X014999Y006528D01*
X014999Y006370D02*
X014981Y006370D01*
X014981Y006342D02*
X014544Y006342D01*
X014544Y006316D01*
X014555Y006247D01*
X014577Y006180D01*
X014609Y006117D01*
X014650Y006061D01*
X014700Y006011D01*
X014756Y005970D01*
X014819Y005938D01*
X014886Y005916D01*
X014955Y005905D01*
X014981Y005905D01*
X014981Y006342D01*
X014999Y006342D02*
X014999Y005905D01*
X015025Y005905D01*
X015057Y005910D01*
X014977Y005831D01*
X007383Y005831D01*
X007301Y005912D01*
X007184Y005961D01*
X007056Y005961D01*
X006939Y005912D01*
X006849Y005822D01*
X006800Y005705D01*
X006800Y005577D01*
X006849Y005460D01*
X006939Y005370D01*
X007056Y005321D01*
X007184Y005321D01*
X007301Y005370D01*
X007383Y005451D01*
X014977Y005451D01*
X015059Y005370D01*
X015176Y005321D01*
X015304Y005321D01*
X015421Y005370D01*
X015511Y005460D01*
X015560Y005577D01*
X015560Y005705D01*
X015511Y005822D01*
X015421Y005912D01*
X015304Y005961D01*
X015206Y005961D01*
X015224Y005970D01*
X015280Y006011D01*
X015330Y006061D01*
X015371Y006117D01*
X015403Y006180D01*
X015425Y006247D01*
X015436Y006316D01*
X015436Y006342D01*
X014999Y006342D01*
X014999Y006211D02*
X014981Y006211D01*
X014981Y006053D02*
X014999Y006053D01*
X015041Y005894D02*
X008154Y005894D01*
X008115Y005856D02*
X008405Y006146D01*
X008405Y006351D01*
X008405Y006556D01*
X008115Y006846D01*
X007910Y006846D01*
X007705Y006846D01*
X007415Y006556D01*
X007415Y006351D01*
X007910Y006351D01*
X007910Y006351D01*
X007910Y006846D01*
X007910Y006351D01*
X008405Y006351D01*
X007910Y006351D01*
X007910Y006351D01*
X007910Y006351D01*
X007415Y006351D01*
X007415Y006146D01*
X007705Y005856D01*
X007910Y005856D01*
X008115Y005856D01*
X007910Y005856D02*
X007910Y006351D01*
X007910Y006351D01*
X007910Y005856D01*
X007910Y005894D02*
X007910Y005894D01*
X007910Y006053D02*
X007910Y006053D01*
X007910Y006211D02*
X007910Y006211D01*
X007910Y006370D02*
X007910Y006370D01*
X007910Y006528D02*
X007910Y006528D01*
X007910Y006687D02*
X007910Y006687D01*
X007910Y006845D02*
X007910Y006845D01*
X008116Y006845D02*
X009321Y006845D01*
X009217Y006687D02*
X009480Y006687D01*
X009365Y006539D02*
X009098Y006806D01*
X008722Y006806D01*
X008455Y006539D01*
X008455Y006163D01*
X008722Y005896D01*
X009098Y005896D01*
X009365Y006163D01*
X009365Y006539D01*
X009365Y006528D02*
X009638Y006528D01*
X009695Y006370D02*
X009365Y006370D01*
X009365Y006211D02*
X009695Y006211D01*
X009845Y006053D02*
X009255Y006053D01*
X008565Y006053D02*
X008312Y006053D01*
X008405Y006211D02*
X008455Y006211D01*
X008455Y006370D02*
X008405Y006370D01*
X008405Y006528D02*
X008455Y006528D01*
X008603Y006687D02*
X008274Y006687D01*
X007704Y006845D02*
X007059Y006845D01*
X006950Y006687D02*
X007546Y006687D01*
X007415Y006528D02*
X006885Y006528D01*
X006767Y007162D02*
X003150Y007162D01*
X003206Y007004D02*
X002992Y007004D01*
X003110Y006908D02*
X003110Y006594D01*
X003300Y006404D01*
X003300Y006382D01*
X003411Y006271D01*
X003411Y006271D01*
X003477Y006205D01*
X003280Y006008D01*
X003280Y005619D01*
X003555Y005344D01*
X003945Y005344D01*
X004220Y005619D01*
X004220Y006008D01*
X003945Y006284D01*
X003936Y006284D01*
X003869Y006351D01*
X003869Y006351D01*
X003748Y006472D01*
X003870Y006594D01*
X003870Y006908D01*
X003647Y007131D01*
X003333Y007131D01*
X003110Y006908D01*
X003110Y006845D02*
X002833Y006845D01*
X002790Y006687D02*
X003110Y006687D01*
X003175Y006528D02*
X002725Y006528D01*
X002613Y007162D02*
X000930Y007162D01*
X000930Y007004D02*
X001126Y007004D01*
X001030Y006908D02*
X001253Y007131D01*
X001567Y007131D01*
X001790Y006908D01*
X001790Y006594D01*
X001668Y006472D01*
X001829Y006311D01*
X001832Y006307D01*
X001945Y006307D01*
X002220Y006032D01*
X002220Y005643D01*
X001945Y005367D01*
X001555Y005367D01*
X001280Y005643D01*
X001280Y006032D01*
X001425Y006177D01*
X001220Y006382D01*
X001220Y006404D01*
X001030Y006594D01*
X001030Y006908D01*
X001030Y006845D02*
X000930Y006845D01*
X000930Y006687D02*
X001030Y006687D01*
X001095Y006528D02*
X000930Y006528D01*
X000930Y006370D02*
X001232Y006370D01*
X001391Y006211D02*
X000930Y006211D01*
X000930Y006053D02*
X001301Y006053D01*
X001280Y005894D02*
X000930Y005894D01*
X000930Y005736D02*
X001280Y005736D01*
X001345Y005577D02*
X000930Y005577D01*
X000930Y005419D02*
X001504Y005419D01*
X001539Y005347D02*
X001240Y005049D01*
X001240Y004837D01*
X001750Y004837D01*
X002260Y004837D01*
X002260Y005049D01*
X001961Y005347D01*
X001750Y005347D01*
X001539Y005347D01*
X001452Y005260D02*
X000930Y005260D01*
X000930Y005102D02*
X001293Y005102D01*
X001240Y004943D02*
X000930Y004943D01*
X000930Y004785D02*
X001240Y004785D01*
X001240Y004626D02*
X000930Y004626D01*
X000930Y004468D02*
X001398Y004468D01*
X001750Y004837D02*
X001750Y005347D01*
X001750Y004837D01*
X001750Y004837D01*
X001750Y004943D02*
X001750Y004943D01*
X001750Y005102D02*
X001750Y005102D01*
X001750Y005260D02*
X001750Y005260D01*
X001996Y005419D02*
X003480Y005419D01*
X003476Y005260D02*
X002048Y005260D01*
X002207Y005102D02*
X003317Y005102D01*
X003240Y004943D02*
X002260Y004943D01*
X002260Y004785D02*
X003240Y004785D01*
X003240Y004626D02*
X002260Y004626D01*
X002102Y004468D02*
X003374Y004468D01*
X003750Y004943D02*
X003750Y004943D01*
X003750Y005102D02*
X003750Y005102D01*
X003750Y005260D02*
X003750Y005260D01*
X004020Y005419D02*
X005480Y005419D01*
X005555Y005344D02*
X005280Y005619D01*
X005280Y006008D01*
X005555Y006284D01*
X005945Y006284D01*
X006220Y006008D01*
X006220Y005619D01*
X005945Y005344D01*
X005555Y005344D01*
X005476Y005260D02*
X004024Y005260D01*
X004183Y005102D02*
X005317Y005102D01*
X005240Y004943D02*
X004260Y004943D01*
X004260Y004785D02*
X005240Y004785D01*
X005240Y004626D02*
X004260Y004626D01*
X004126Y004468D02*
X005374Y004468D01*
X005750Y004943D02*
X005750Y004943D01*
X005750Y005102D02*
X005750Y005102D01*
X005750Y005260D02*
X005750Y005260D01*
X006024Y005260D02*
X020255Y005260D01*
X020255Y005102D02*
X019994Y005102D01*
X020179Y004943D02*
X020255Y004943D01*
X020247Y004785D02*
X020255Y004785D01*
X020255Y005419D02*
X015471Y005419D01*
X015560Y005577D02*
X020255Y005577D01*
X020255Y005736D02*
X017698Y005736D01*
X017857Y005894D02*
X020255Y005894D01*
X020255Y006053D02*
X017885Y006053D01*
X017885Y006211D02*
X020255Y006211D01*
X020255Y006370D02*
X017814Y006370D01*
X017656Y006528D02*
X020255Y006528D01*
X020255Y006687D02*
X017248Y006687D01*
X017090Y006845D02*
X020255Y006845D01*
X020255Y007004D02*
X019766Y007004D01*
X019758Y006996D02*
X020025Y007263D01*
X020025Y007639D01*
X019758Y007906D01*
X019384Y007906D01*
X019159Y008131D01*
X019050Y008131D01*
X019050Y008632D01*
X019369Y008951D01*
X019379Y008951D01*
X019490Y009062D01*
X019499Y009071D01*
X019767Y009071D01*
X019990Y009294D01*
X019990Y009608D01*
X019767Y009831D01*
X019453Y009831D01*
X019230Y009608D01*
X019230Y009340D01*
X019221Y009331D01*
X019211Y009331D01*
X018781Y008901D01*
X018700Y008820D01*
X018589Y008931D01*
X018191Y008931D01*
X017910Y008650D01*
X017910Y008252D01*
X018191Y007971D01*
X018589Y007971D01*
X018670Y008052D01*
X018670Y007970D01*
X018610Y007910D01*
X018589Y007931D01*
X018191Y007931D01*
X017910Y007650D01*
X017910Y007252D01*
X018191Y006971D01*
X018589Y006971D01*
X018870Y007252D01*
X018870Y007632D01*
X018919Y007681D01*
X018939Y007681D01*
X019005Y007747D01*
X019115Y007637D01*
X019115Y007263D01*
X019382Y006996D01*
X019758Y006996D01*
X019925Y007162D02*
X020255Y007162D01*
X020255Y007321D02*
X020025Y007321D01*
X020025Y007479D02*
X020255Y007479D01*
X020255Y007638D02*
X020025Y007638D01*
X019868Y007796D02*
X020255Y007796D01*
X020255Y007955D02*
X019335Y007955D01*
X019382Y007996D02*
X019758Y007996D01*
X020025Y008263D01*
X020025Y008639D01*
X019758Y008906D01*
X019382Y008906D01*
X019115Y008639D01*
X019115Y008263D01*
X019382Y007996D01*
X019264Y008114D02*
X019176Y008114D01*
X019115Y008272D02*
X019050Y008272D01*
X019050Y008431D02*
X019115Y008431D01*
X019115Y008589D02*
X019050Y008589D01*
X019165Y008748D02*
X019223Y008748D01*
X019324Y008906D02*
X020255Y008906D01*
X020255Y008748D02*
X019917Y008748D01*
X020025Y008589D02*
X020255Y008589D01*
X020255Y008431D02*
X020025Y008431D01*
X020025Y008272D02*
X020255Y008272D01*
X020255Y008114D02*
X019876Y008114D01*
X019114Y007638D02*
X018876Y007638D01*
X018870Y007479D02*
X019115Y007479D01*
X019115Y007321D02*
X018870Y007321D01*
X018780Y007162D02*
X019215Y007162D01*
X019374Y007004D02*
X018622Y007004D01*
X018158Y007004D02*
X016931Y007004D01*
X016773Y007162D02*
X018000Y007162D01*
X017910Y007321D02*
X015934Y007321D01*
X015870Y007479D02*
X017910Y007479D01*
X017910Y007638D02*
X015870Y007638D01*
X015723Y007796D02*
X018057Y007796D01*
X018049Y008114D02*
X015731Y008114D01*
X015870Y008272D02*
X017910Y008272D01*
X017910Y008431D02*
X015870Y008431D01*
X015870Y008589D02*
X017910Y008589D01*
X018008Y008748D02*
X015772Y008748D01*
X015614Y008906D02*
X018166Y008906D01*
X018191Y008971D02*
X018589Y008971D01*
X018870Y009252D01*
X018870Y009650D01*
X018589Y009931D01*
X018191Y009931D01*
X017910Y009650D01*
X017910Y009252D01*
X018191Y008971D01*
X018098Y009065D02*
X015682Y009065D01*
X015841Y009223D02*
X017939Y009223D01*
X017910Y009382D02*
X015870Y009382D01*
X015870Y009540D02*
X017910Y009540D01*
X017959Y009699D02*
X015821Y009699D01*
X015663Y009857D02*
X018117Y009857D01*
X018175Y009931D02*
X017870Y010236D01*
X017870Y010451D01*
X018390Y010451D01*
X018390Y010451D01*
X018390Y010971D01*
X018175Y010971D01*
X017870Y010666D01*
X017870Y010451D01*
X018390Y010451D01*
X018390Y010971D01*
X018605Y010971D01*
X018910Y010666D01*
X018910Y010451D01*
X018390Y010451D01*
X018390Y010451D01*
X018390Y010451D01*
X018910Y010451D01*
X018910Y010236D01*
X018605Y009931D01*
X018390Y009931D01*
X018390Y010451D01*
X018390Y010451D01*
X018390Y009931D01*
X018175Y009931D01*
X018090Y010016D02*
X015633Y010016D01*
X015792Y010174D02*
X017932Y010174D01*
X017870Y010333D02*
X015870Y010333D01*
X015870Y010491D02*
X017870Y010491D01*
X017870Y010650D02*
X015870Y010650D01*
X016026Y010808D02*
X018012Y010808D01*
X018170Y010967D02*
X016184Y010967D01*
X015251Y011601D02*
X014358Y011601D01*
X014516Y011442D02*
X015092Y011442D01*
X014934Y011284D02*
X014550Y011284D01*
X014550Y011125D02*
X014775Y011125D01*
X014617Y010967D02*
X014423Y010967D01*
X013817Y009382D02*
X013220Y009382D01*
X013325Y009223D02*
X013715Y009223D01*
X013715Y009065D02*
X013325Y009065D01*
X013325Y008906D02*
X013715Y008906D01*
X013870Y008748D02*
X013207Y008748D01*
X013114Y008431D02*
X013866Y008431D01*
X013715Y008272D02*
X013272Y008272D01*
X013285Y008114D02*
X013715Y008114D01*
X013715Y007955D02*
X013285Y007955D01*
X013199Y007796D02*
X013821Y007796D01*
X013980Y007638D02*
X013040Y007638D01*
X012620Y007638D02*
X011296Y007638D01*
X011793Y007796D02*
X012461Y007796D01*
X012271Y006757D02*
X012109Y006757D01*
X011960Y006695D01*
X011846Y006581D01*
X011784Y006432D01*
X011784Y006270D01*
X011846Y006121D01*
X011960Y006007D01*
X012109Y005945D01*
X012271Y005945D01*
X012420Y006007D01*
X012534Y006121D01*
X012596Y006270D01*
X012596Y006432D01*
X012534Y006581D01*
X012420Y006695D01*
X012271Y006757D01*
X012428Y006687D02*
X014696Y006687D01*
X014580Y006528D02*
X012556Y006528D01*
X012596Y006370D02*
X014544Y006370D01*
X014567Y006211D02*
X012571Y006211D01*
X012466Y006053D02*
X014658Y006053D01*
X015322Y006053D02*
X015935Y006053D01*
X015935Y006111D02*
X015935Y005906D01*
X016225Y005616D01*
X016430Y005616D01*
X016635Y005616D01*
X016925Y005906D01*
X016925Y006111D01*
X016925Y006316D01*
X016635Y006606D01*
X016430Y006606D01*
X016225Y006606D01*
X015935Y006316D01*
X015935Y006111D01*
X016430Y006111D01*
X016430Y006111D01*
X016430Y006606D01*
X016430Y006111D01*
X016925Y006111D01*
X016430Y006111D01*
X016430Y006111D01*
X016430Y006111D01*
X015935Y006111D01*
X015935Y006211D02*
X015413Y006211D01*
X015436Y006370D02*
X015989Y006370D01*
X016147Y006528D02*
X015400Y006528D01*
X015284Y006687D02*
X016640Y006687D01*
X016713Y006528D02*
X016798Y006528D01*
X016871Y006370D02*
X016957Y006370D01*
X016975Y006211D02*
X016925Y006211D01*
X016925Y006053D02*
X016975Y006053D01*
X017003Y005894D02*
X016914Y005894D01*
X016755Y005736D02*
X017162Y005736D01*
X016994Y005102D02*
X017506Y005102D01*
X017321Y004943D02*
X017179Y004943D01*
X017247Y004785D02*
X017253Y004785D01*
X017994Y005102D02*
X018506Y005102D01*
X018321Y004943D02*
X018179Y004943D01*
X018247Y004785D02*
X018253Y004785D01*
X018994Y005102D02*
X019506Y005102D01*
X019321Y004943D02*
X019179Y004943D01*
X019247Y004785D02*
X019253Y004785D01*
X016506Y005102D02*
X015994Y005102D01*
X016179Y004943D02*
X016321Y004943D01*
X016253Y004785D02*
X016247Y004785D01*
X015506Y005102D02*
X014994Y005102D01*
X015179Y004943D02*
X015321Y004943D01*
X015253Y004785D02*
X015247Y004785D01*
X015009Y005419D02*
X007351Y005419D01*
X007506Y005102D02*
X006183Y005102D01*
X006260Y004943D02*
X007321Y004943D01*
X007253Y004785D02*
X006260Y004785D01*
X006260Y004626D02*
X007240Y004626D01*
X007274Y004468D02*
X006126Y004468D01*
X006020Y005419D02*
X006889Y005419D01*
X006800Y005577D02*
X006179Y005577D01*
X006220Y005736D02*
X006813Y005736D01*
X006921Y005894D02*
X006220Y005894D01*
X006175Y006053D02*
X007508Y006053D01*
X007415Y006211D02*
X006017Y006211D01*
X005727Y006371D02*
X005950Y006594D01*
X005950Y006908D01*
X005727Y007131D01*
X005413Y007131D01*
X005190Y006908D01*
X005190Y006594D01*
X005413Y006371D01*
X005727Y006371D01*
X005885Y006528D02*
X006255Y006528D01*
X006190Y006687D02*
X005950Y006687D01*
X005950Y006845D02*
X006190Y006845D01*
X006286Y007004D02*
X005854Y007004D01*
X005401Y007638D02*
X006335Y007638D01*
X006521Y007796D02*
X005430Y007796D01*
X005379Y007955D02*
X007690Y007955D01*
X007690Y007796D02*
X006719Y007796D01*
X006905Y007638D02*
X007264Y007638D01*
X007917Y008431D02*
X008167Y008431D01*
X008150Y008589D02*
X007950Y008589D01*
X007950Y008748D02*
X008150Y008748D01*
X008261Y008906D02*
X007822Y008906D01*
X007415Y006370D02*
X003850Y006370D01*
X003805Y006528D02*
X004175Y006528D01*
X004110Y006594D02*
X004333Y006371D01*
X004647Y006371D01*
X004870Y006594D01*
X004870Y006908D01*
X004647Y007131D01*
X004333Y007131D01*
X004110Y006908D01*
X004110Y006594D01*
X004110Y006687D02*
X003870Y006687D01*
X003870Y006845D02*
X004110Y006845D01*
X004206Y007004D02*
X003774Y007004D01*
X003312Y006370D02*
X001770Y006370D01*
X001725Y006528D02*
X002095Y006528D01*
X002030Y006687D02*
X001790Y006687D01*
X001790Y006845D02*
X002030Y006845D01*
X002126Y007004D02*
X001694Y007004D01*
X002314Y007638D02*
X000930Y007638D01*
X000930Y007479D02*
X002930Y007479D01*
X002771Y007321D02*
X000930Y007321D01*
X000930Y007796D02*
X001781Y007796D01*
X001623Y007955D02*
X000930Y007955D01*
X000930Y008114D02*
X001535Y008114D01*
X001535Y008272D02*
X000930Y008272D01*
X000930Y008431D02*
X001546Y008431D01*
X001705Y008589D02*
X000930Y008589D01*
X000930Y008748D02*
X003175Y008748D01*
X003016Y008906D02*
X002308Y008906D01*
X002445Y009065D02*
X002858Y009065D01*
X002699Y009223D02*
X002445Y009223D01*
X002445Y009382D02*
X002541Y009382D01*
X002253Y010016D02*
X002174Y010016D01*
X002118Y010174D02*
X002016Y010174D01*
X002040Y010333D02*
X002060Y010333D01*
X002060Y010491D02*
X002040Y010491D01*
X001982Y010650D02*
X002118Y010650D01*
X002254Y010808D02*
X001846Y010808D01*
X001757Y010967D02*
X002260Y010967D01*
X002103Y011125D02*
X001957Y011125D01*
X002028Y011284D02*
X002034Y011284D01*
X001343Y010967D02*
X000930Y010967D01*
X000930Y011125D02*
X001143Y011125D01*
X001072Y011284D02*
X000930Y011284D01*
X000930Y011442D02*
X001060Y011442D01*
X001098Y011601D02*
X000930Y011601D01*
X000930Y011759D02*
X001205Y011759D01*
X001254Y010808D02*
X000930Y010808D01*
X000930Y010650D02*
X001118Y010650D01*
X001060Y010491D02*
X000930Y010491D01*
X000930Y010333D02*
X001060Y010333D01*
X001118Y010174D02*
X000930Y010174D01*
X000930Y010016D02*
X001253Y010016D01*
X000930Y009857D02*
X001795Y009857D01*
X001954Y009699D02*
X000930Y009699D01*
X000930Y009540D02*
X001656Y009540D01*
X001535Y009382D02*
X000930Y009382D01*
X000930Y009223D02*
X001535Y009223D01*
X001535Y009065D02*
X000930Y009065D01*
X000930Y008906D02*
X001672Y008906D01*
X002275Y008589D02*
X003333Y008589D01*
X003492Y008431D02*
X002434Y008431D01*
X002445Y008272D02*
X003650Y008272D01*
X003809Y008114D02*
X002445Y008114D01*
X003395Y009065D02*
X004576Y009065D01*
X004550Y008906D02*
X003554Y008906D01*
X003712Y008748D02*
X004550Y008748D01*
X004735Y009223D02*
X003237Y009223D01*
X002982Y010650D02*
X004624Y010650D01*
X004550Y010808D02*
X002846Y010808D01*
X002840Y010967D02*
X004550Y010967D01*
X001644Y014454D02*
X000930Y014454D01*
X000930Y014612D02*
X001615Y014612D01*
X001615Y014771D02*
X000930Y014771D01*
X000930Y014929D02*
X001685Y014929D01*
X001843Y015088D02*
X000930Y015088D01*
X000930Y015246D02*
X002945Y015246D01*
X002865Y015405D02*
X000930Y015405D01*
X000930Y015563D02*
X002865Y015563D01*
X002865Y015722D02*
X000930Y015722D01*
X000930Y015880D02*
X003009Y015880D01*
X002905Y016356D02*
X000930Y016356D01*
X000930Y016514D02*
X002905Y016514D01*
X002905Y016673D02*
X000930Y016673D01*
X000930Y016831D02*
X003017Y016831D01*
X003107Y017307D02*
X000930Y017307D01*
X000930Y017465D02*
X003000Y017465D01*
X003000Y017624D02*
X000930Y017624D01*
X000930Y017782D02*
X003054Y017782D01*
X003156Y018258D02*
X000930Y018258D01*
X000930Y018416D02*
X003000Y018416D01*
X003000Y018575D02*
X000930Y018575D01*
X000930Y018733D02*
X003005Y018733D01*
X003163Y018892D02*
X000930Y018892D01*
X000930Y019050D02*
X004405Y019050D01*
X004424Y019209D02*
X003591Y019209D01*
X003749Y019367D02*
X004508Y019367D01*
X004441Y018892D02*
X003597Y018892D01*
X003755Y018733D02*
X004550Y018733D01*
X003149Y019209D02*
X000930Y019209D01*
X000930Y019367D02*
X002991Y019367D01*
X002915Y019526D02*
X000930Y019526D01*
X000930Y019684D02*
X002915Y019684D01*
X002938Y019843D02*
X000930Y019843D01*
X000930Y020001D02*
X003097Y020001D01*
X003141Y020160D02*
X000930Y020160D01*
X000930Y020318D02*
X002983Y020318D01*
X002875Y020477D02*
X000930Y020477D01*
X000930Y020635D02*
X002875Y020635D01*
X002875Y020794D02*
X000930Y020794D01*
X000930Y020952D02*
X002991Y020952D01*
X014625Y008272D02*
X014910Y008272D01*
X015049Y008114D02*
X014625Y008114D01*
X014625Y007955D02*
X018655Y007955D01*
X018614Y008906D02*
X018786Y008906D01*
X018682Y009065D02*
X018945Y009065D01*
X018841Y009223D02*
X019103Y009223D01*
X019230Y009382D02*
X018870Y009382D01*
X018870Y009540D02*
X019230Y009540D01*
X019320Y009699D02*
X018821Y009699D01*
X018663Y009857D02*
X020255Y009857D01*
X020255Y009699D02*
X019900Y009699D01*
X019990Y009540D02*
X020255Y009540D01*
X020255Y009382D02*
X019990Y009382D01*
X019919Y009223D02*
X020255Y009223D01*
X020255Y009065D02*
X019492Y009065D01*
X019453Y010071D02*
X019767Y010071D01*
X019990Y010294D01*
X019990Y010608D01*
X019767Y010831D01*
X019453Y010831D01*
X019230Y010608D01*
X019230Y010294D01*
X019453Y010071D01*
X019350Y010174D02*
X018848Y010174D01*
X018910Y010333D02*
X019230Y010333D01*
X019230Y010491D02*
X018910Y010491D01*
X018910Y010650D02*
X019271Y010650D01*
X019430Y010808D02*
X018768Y010808D01*
X018610Y010967D02*
X020255Y010967D01*
X020255Y011125D02*
X018383Y011125D01*
X018390Y010967D02*
X018390Y010967D01*
X018390Y010808D02*
X018390Y010808D01*
X018390Y010650D02*
X018390Y010650D01*
X018390Y010491D02*
X018390Y010491D01*
X018390Y010333D02*
X018390Y010333D01*
X018390Y010174D02*
X018390Y010174D01*
X018390Y010016D02*
X018390Y010016D01*
X018690Y010016D02*
X020255Y010016D01*
X020255Y010174D02*
X019870Y010174D01*
X019990Y010333D02*
X020255Y010333D01*
X020255Y010491D02*
X019990Y010491D01*
X019949Y010650D02*
X020255Y010650D01*
X020255Y010808D02*
X019790Y010808D01*
X020255Y011284D02*
X018541Y011284D01*
X018700Y011442D02*
X020255Y011442D01*
X020255Y011601D02*
X018858Y011601D01*
X019017Y011759D02*
X020255Y011759D01*
X020255Y011918D02*
X019175Y011918D01*
X019602Y012076D02*
X020255Y012076D01*
X020255Y012235D02*
X019761Y012235D01*
X019820Y012393D02*
X020255Y012393D01*
X020255Y012552D02*
X019820Y012552D01*
X019718Y012710D02*
X020255Y012710D01*
X015643Y007004D02*
X015622Y007004D01*
X015801Y006845D02*
X011396Y006845D01*
X011355Y006886D02*
X011150Y006886D01*
X010945Y006886D01*
X010655Y006596D01*
X010655Y006391D01*
X011150Y006391D01*
X011150Y006391D01*
X011150Y006886D01*
X011150Y006391D01*
X011645Y006391D01*
X011645Y006596D01*
X011355Y006886D01*
X011150Y006845D02*
X011150Y006845D01*
X011150Y006687D02*
X011150Y006687D01*
X011150Y006528D02*
X011150Y006528D01*
X011150Y006391D02*
X011150Y006391D01*
X011150Y006391D01*
X011645Y006391D01*
X011645Y006186D01*
X011355Y005896D01*
X011150Y005896D01*
X011150Y006391D01*
X010655Y006391D01*
X010655Y006186D01*
X010945Y005896D01*
X011150Y005896D01*
X011150Y006391D01*
X011150Y006391D01*
X011150Y006370D02*
X011150Y006370D01*
X011150Y006211D02*
X011150Y006211D01*
X011150Y006053D02*
X011150Y006053D01*
X011512Y006053D02*
X011914Y006053D01*
X011809Y006211D02*
X011645Y006211D01*
X011645Y006370D02*
X011784Y006370D01*
X011824Y006528D02*
X011645Y006528D01*
X011554Y006687D02*
X011952Y006687D01*
X010904Y006845D02*
X010849Y006845D01*
X010746Y006687D02*
X010690Y006687D01*
X010655Y006528D02*
X010605Y006528D01*
X010605Y006370D02*
X010655Y006370D01*
X010655Y006211D02*
X010605Y006211D01*
X010455Y006053D02*
X010788Y006053D01*
X010770Y005102D02*
X010730Y005102D01*
X010730Y004943D02*
X010770Y004943D01*
X010770Y004785D02*
X010730Y004785D01*
X010770Y004671D02*
X011730Y004671D01*
X011730Y004631D01*
X011200Y004631D01*
X010770Y004631D01*
X010770Y004671D01*
X011065Y005102D02*
X011435Y005102D01*
X011283Y004943D02*
X011217Y004943D01*
X011730Y004943D02*
X011770Y004943D01*
X011770Y004785D02*
X011730Y004785D01*
X011730Y005102D02*
X011770Y005102D01*
X012065Y005102D02*
X012506Y005102D01*
X012321Y004943D02*
X012217Y004943D01*
X012994Y005102D02*
X014506Y005102D01*
X014321Y004943D02*
X013179Y004943D01*
X013247Y004785D02*
X014253Y004785D01*
X014240Y004626D02*
X013260Y004626D01*
X013226Y004468D02*
X014274Y004468D01*
X015547Y005736D02*
X016105Y005736D01*
X015946Y005894D02*
X015439Y005894D01*
X016430Y005894D02*
X016430Y005894D01*
X016430Y005736D02*
X016430Y005736D01*
X016430Y005616D02*
X016430Y006111D01*
X016430Y006111D01*
X016430Y005616D01*
X016430Y006053D02*
X016430Y006053D01*
X016430Y006211D02*
X016430Y006211D01*
X016430Y006370D02*
X016430Y006370D01*
X016430Y006528D02*
X016430Y006528D01*
X015057Y007796D02*
X014519Y007796D01*
X014360Y007638D02*
X014910Y007638D01*
X010435Y005102D02*
X009994Y005102D01*
X010179Y004943D02*
X010283Y004943D01*
X009506Y005102D02*
X008994Y005102D01*
X009179Y004943D02*
X009321Y004943D01*
X009253Y004785D02*
X009247Y004785D01*
X008506Y005102D02*
X007994Y005102D01*
X008179Y004943D02*
X008321Y004943D01*
X008253Y004785D02*
X008247Y004785D01*
X007666Y005894D02*
X007319Y005894D01*
X005483Y006211D02*
X004017Y006211D01*
X004175Y006053D02*
X005325Y006053D01*
X005280Y005894D02*
X004220Y005894D01*
X004220Y005736D02*
X005280Y005736D01*
X005321Y005577D02*
X004179Y005577D01*
X003471Y006211D02*
X002040Y006211D01*
X002199Y006053D02*
X003325Y006053D01*
X003280Y005894D02*
X002220Y005894D01*
X002220Y005736D02*
X003280Y005736D01*
X003321Y005577D02*
X002155Y005577D01*
X004805Y006528D02*
X005255Y006528D01*
X005190Y006687D02*
X004870Y006687D01*
X004870Y006845D02*
X005190Y006845D01*
X005286Y007004D02*
X004774Y007004D01*
X017148Y023013D02*
X017352Y023013D01*
X017266Y023171D02*
X017234Y023171D01*
D25*
X013410Y021071D02*
X013410Y020811D01*
X012720Y020121D01*
X012560Y020121D01*
X012560Y019701D01*
X012560Y020121D02*
X011340Y020121D01*
X010440Y019221D01*
X008000Y019221D01*
X006560Y020661D01*
X006420Y020661D01*
X006420Y020981D01*
X006410Y021071D01*
X006390Y021051D01*
X005240Y021051D01*
X005200Y021011D01*
X004870Y021011D01*
X008410Y015071D02*
X009410Y015071D01*
X009610Y013411D02*
X009700Y013411D01*
X010140Y012971D01*
X010680Y012971D01*
X010980Y012671D01*
X011030Y012671D01*
X011180Y012521D01*
X011250Y012491D01*
X011430Y012671D01*
X011520Y012671D01*
X011750Y012901D01*
X011820Y012901D01*
X012230Y012491D01*
X012490Y012491D01*
X012560Y012521D01*
X012730Y012521D01*
X013110Y012901D01*
X013310Y012901D01*
X013540Y012671D01*
X013630Y012671D01*
X013810Y012491D01*
X015390Y007451D02*
X015320Y007421D01*
X015260Y007361D01*
X011060Y007361D01*
X010160Y006461D01*
X010150Y006391D01*
X010080Y006391D01*
X009390Y007081D01*
X007370Y007081D01*
X007290Y007161D01*
X007070Y007161D01*
X006840Y006931D01*
X006750Y006931D01*
X006570Y006751D01*
X015390Y007451D02*
X015500Y007451D01*
X015950Y007001D01*
X016630Y007001D01*
X017290Y006341D01*
X017430Y006341D01*
X017430Y006111D01*
X011050Y018571D02*
X010470Y019151D01*
X010440Y019221D01*
M02*
