G75*
G70*
%OFA0B0*%
%FSLAX24Y24*%
%IPPOS*%
%LPD*%
%AMOC8*
5,1,8,0,0,1.08239X$1,22.5*
%
%ADD10C,0.0000*%
%ADD11OC8,0.0480*%
%ADD12C,0.0650*%
%ADD13OC8,0.0630*%
%ADD14OC8,0.0660*%
%ADD15R,0.0120X0.0390*%
%ADD16C,0.0700*%
%ADD17C,0.0660*%
%ADD18C,0.0531*%
%ADD19OC8,0.0680*%
%ADD20R,0.0740X0.0740*%
%ADD21C,0.0740*%
%ADD22R,0.0480X0.0480*%
%ADD23C,0.0480*%
%ADD24C,0.0100*%
%ADD25C,0.0360*%
%ADD26C,0.0160*%
%ADD27C,0.0150*%
D10*
X000750Y004151D02*
X000750Y023836D01*
X020435Y023836D01*
X020435Y004151D01*
X000750Y004151D01*
D11*
X001410Y006751D03*
X002410Y006751D03*
X003490Y006751D03*
X004490Y006751D03*
X005570Y006751D03*
X006570Y006751D03*
X008070Y007871D03*
X007570Y008621D03*
X008570Y008621D03*
X008060Y010091D03*
X007560Y010841D03*
X008560Y010841D03*
X010330Y011231D03*
X010330Y010231D03*
X010290Y009091D03*
X010290Y008091D03*
X011550Y008091D03*
X011550Y009091D03*
X011590Y010231D03*
X011590Y011231D03*
X012830Y011251D03*
X012830Y010251D03*
X014170Y010251D03*
X014170Y011251D03*
X013810Y012491D03*
X013810Y013491D03*
X012490Y013491D03*
X012490Y012491D03*
X011250Y012491D03*
X011250Y013491D03*
X016430Y013451D03*
X016430Y012451D03*
X017470Y012451D03*
X017470Y013451D03*
X018490Y013451D03*
X019440Y013451D03*
X019440Y012451D03*
X018490Y012451D03*
X019610Y010451D03*
X019610Y009451D03*
X018550Y021231D03*
X018550Y022231D03*
X004950Y014021D03*
X003950Y013021D03*
X004950Y012021D03*
X004930Y010881D03*
X003930Y009881D03*
X004930Y008881D03*
X003380Y017571D03*
X003380Y018571D03*
D12*
X004870Y019071D03*
X004870Y017071D03*
D13*
X003360Y016531D03*
X003360Y015531D03*
X002070Y014671D03*
X002070Y013671D03*
X001990Y009231D03*
X001990Y008231D03*
X007910Y006351D03*
X008910Y006351D03*
X010150Y006391D03*
X011150Y006391D03*
X012830Y008071D03*
X012830Y009071D03*
X014170Y009091D03*
X014170Y008091D03*
X016430Y006111D03*
X017430Y006111D03*
X019570Y007451D03*
X019570Y008451D03*
X015070Y012431D03*
X015070Y013431D03*
X019670Y015151D03*
X019670Y016151D03*
X019670Y017151D03*
X019670Y018151D03*
X019670Y019151D03*
X019670Y020151D03*
X019670Y021191D03*
X019670Y022191D03*
X009610Y013411D03*
X009610Y012411D03*
X003370Y019631D03*
X003370Y020631D03*
X004870Y021011D03*
X004870Y022011D03*
D14*
X005750Y005814D03*
X005750Y004814D03*
X003750Y004814D03*
X003750Y005814D03*
X001750Y005837D03*
X001750Y004837D03*
D15*
X010783Y016922D03*
X011038Y016922D03*
X011294Y016922D03*
X011550Y016922D03*
X011806Y016922D03*
X012062Y016922D03*
X012318Y016922D03*
X012574Y016922D03*
X012830Y016922D03*
X013086Y016922D03*
X013342Y016922D03*
X013597Y016922D03*
X013597Y019220D03*
X013342Y019220D03*
X013086Y019220D03*
X012830Y019220D03*
X012574Y019220D03*
X012318Y019220D03*
X012062Y019220D03*
X011806Y019220D03*
X011550Y019220D03*
X011294Y019220D03*
X011038Y019220D03*
X010783Y019220D03*
D16*
X002550Y012411D03*
X002550Y011411D03*
X002550Y010411D03*
X001550Y010411D03*
X001550Y011411D03*
X001550Y012411D03*
D17*
X007810Y012451D03*
X007810Y013411D03*
D18*
X012190Y006351D03*
X014990Y006351D03*
D19*
X015390Y007451D03*
X015390Y008451D03*
X015390Y009451D03*
X015390Y010451D03*
X018390Y010451D03*
X018390Y009451D03*
X018390Y008451D03*
X018390Y007451D03*
D20*
X012750Y023336D03*
X004250Y023336D03*
D21*
X005250Y023336D03*
X006250Y023336D03*
X007250Y023336D03*
X008250Y023336D03*
X009250Y023336D03*
X010250Y023336D03*
X011250Y023336D03*
X013750Y023336D03*
X014750Y023336D03*
X015750Y023336D03*
X016750Y023336D03*
X017750Y023336D03*
X018750Y023336D03*
X019750Y023336D03*
X019750Y004651D03*
X018750Y004651D03*
X017750Y004651D03*
X016750Y004651D03*
X015750Y004651D03*
X014750Y004651D03*
X012750Y004651D03*
X011750Y004651D03*
X010750Y004651D03*
X009750Y004651D03*
X008750Y004651D03*
X007750Y004651D03*
D22*
X006410Y015071D03*
D23*
X007410Y014831D02*
X007410Y015311D01*
X008410Y015311D02*
X008410Y014831D01*
X009410Y014831D02*
X009410Y015311D01*
X010410Y015311D02*
X010410Y014831D01*
X011410Y014831D02*
X011410Y015311D01*
X012410Y015311D02*
X012410Y014831D01*
X013410Y014831D02*
X013410Y015311D01*
X014410Y015311D02*
X014410Y014831D01*
X015410Y014831D02*
X015410Y015311D01*
X016410Y015311D02*
X016410Y014831D01*
X017410Y014831D02*
X017410Y015311D01*
X017410Y020831D02*
X017410Y021311D01*
X016410Y021311D02*
X016410Y020831D01*
X015410Y020831D02*
X015410Y021311D01*
X014410Y021311D02*
X014410Y020831D01*
X013410Y020831D02*
X013410Y021311D01*
X012410Y021311D02*
X012410Y020831D01*
X011410Y020831D02*
X011410Y021311D01*
X010410Y021311D02*
X010410Y020831D01*
X009410Y020831D02*
X009410Y021311D01*
X008410Y021311D02*
X008410Y020831D01*
X007410Y020831D02*
X007410Y021311D01*
X006410Y021311D02*
X006410Y020831D01*
D24*
X006020Y020641D02*
X006330Y020331D01*
X006330Y020271D01*
X005940Y020361D02*
X005760Y020541D01*
X005760Y021581D01*
X006750Y022571D01*
X007770Y022571D01*
X007770Y022771D01*
X008250Y023251D01*
X008250Y023336D01*
X009250Y022221D02*
X006660Y022221D01*
X006020Y021581D01*
X006020Y020641D01*
X005940Y020361D02*
X005940Y017431D01*
X006090Y017281D01*
X005430Y016621D02*
X005430Y016601D01*
X003320Y014491D01*
X003320Y011411D01*
X003300Y011391D01*
X003300Y008001D01*
X004280Y007021D01*
X004280Y006961D01*
X004490Y006751D01*
X005110Y007771D02*
X006180Y006701D01*
X006180Y006581D01*
X007120Y005641D01*
X005750Y005814D02*
X005750Y005821D01*
X005740Y005831D01*
X005740Y006581D01*
X005570Y006751D01*
X006620Y007491D02*
X006620Y010021D01*
X006690Y010091D01*
X006690Y011901D01*
X005940Y012651D01*
X005940Y014551D01*
X006010Y014621D01*
X006010Y015461D01*
X005950Y015521D01*
X005950Y015791D01*
X006630Y016471D01*
X006630Y020131D01*
X007020Y020521D01*
X007020Y022041D01*
X009340Y022041D01*
X009460Y022161D01*
X010190Y022161D01*
X011030Y023001D01*
X011030Y023111D01*
X011250Y023331D01*
X011250Y023336D01*
X010250Y023331D02*
X010250Y023336D01*
X010250Y023331D02*
X010030Y023111D01*
X010030Y023001D01*
X009250Y022221D01*
X009540Y021981D02*
X009420Y021861D01*
X008850Y021861D01*
X008850Y021751D01*
X008440Y021341D01*
X008440Y021111D01*
X008410Y021071D01*
X008410Y020831D01*
X008850Y020391D01*
X008850Y019981D01*
X010720Y019981D01*
X011290Y019411D01*
X011290Y019221D01*
X011294Y019220D01*
X011038Y019220D02*
X011030Y019211D01*
X011030Y019001D01*
X010980Y018981D01*
X010980Y018971D01*
X010660Y018651D01*
X007850Y018651D01*
X007850Y020391D01*
X007410Y020831D01*
X007410Y021071D01*
X005580Y019181D02*
X005760Y019001D01*
X005760Y012571D01*
X006360Y011971D01*
X006360Y011191D01*
X005900Y011961D02*
X004960Y011021D01*
X004960Y010921D01*
X004930Y010881D01*
X004930Y010801D01*
X004130Y010001D01*
X004130Y009881D01*
X003930Y009881D01*
X002550Y010311D02*
X002550Y010411D01*
X002550Y010311D02*
X002090Y009851D01*
X002090Y009331D01*
X001990Y009231D01*
X002550Y012411D02*
X002550Y012521D01*
X002090Y012981D01*
X002090Y013651D01*
X002070Y013671D01*
X003950Y013021D02*
X004150Y013021D01*
X004150Y013141D01*
X004950Y013941D01*
X004950Y014021D01*
X006410Y015071D02*
X006410Y015311D01*
X006850Y015751D01*
X006850Y017101D01*
X010070Y017101D01*
X010200Y016971D01*
X010740Y016971D01*
X010780Y016931D01*
X010783Y016922D01*
X011030Y016741D02*
X010980Y016671D01*
X010750Y016441D01*
X011030Y016741D02*
X011030Y016921D01*
X011038Y016922D01*
X011800Y016921D02*
X011800Y016781D01*
X011810Y016781D01*
X011800Y016761D01*
X011800Y016641D01*
X010410Y015251D01*
X010410Y015071D01*
X010420Y015031D01*
X010420Y014381D01*
X011040Y013761D01*
X011040Y013701D01*
X011250Y013491D01*
X012280Y013761D02*
X011400Y014641D01*
X011400Y015031D01*
X011410Y015071D01*
X011410Y015511D01*
X011710Y015811D01*
X011710Y016031D01*
X012050Y016461D01*
X012050Y016881D01*
X012060Y016861D01*
X012070Y016921D01*
X012062Y016922D01*
X011806Y016922D02*
X011800Y016921D01*
X011800Y016781D02*
X011800Y016761D01*
X012318Y016922D02*
X012310Y016971D01*
X012310Y017091D01*
X012360Y017141D01*
X012360Y017151D01*
X012110Y017401D01*
X012318Y016922D02*
X012320Y016921D01*
X012320Y015801D01*
X012400Y015761D01*
X012400Y015081D01*
X012410Y015071D01*
X012440Y015031D01*
X012440Y014761D01*
X013600Y013601D01*
X013600Y013491D01*
X013810Y013491D01*
X014220Y013581D02*
X014220Y013291D01*
X015040Y012471D01*
X015070Y012431D01*
X015070Y012301D01*
X015480Y011891D01*
X015480Y011821D01*
X016700Y011821D01*
X017260Y012381D01*
X017260Y012451D01*
X017470Y012451D01*
X018280Y012181D02*
X017660Y011561D01*
X017660Y010141D01*
X018350Y009451D01*
X018390Y009451D01*
X018880Y009271D02*
X019055Y009096D01*
X018430Y008471D01*
X018390Y008451D01*
X018390Y008441D01*
X017500Y008441D01*
X015800Y006741D01*
X015600Y006741D01*
X015380Y006961D01*
X015380Y006981D01*
X015190Y006981D01*
X015140Y007031D01*
X014800Y007031D01*
X014680Y007151D01*
X014680Y007331D01*
X010150Y007331D01*
X009660Y007821D01*
X009660Y008371D01*
X009140Y008901D02*
X009140Y007651D01*
X009000Y007511D01*
X009000Y006441D01*
X008910Y006351D01*
X009330Y007151D02*
X009330Y009181D01*
X009140Y008901D02*
X008140Y009901D01*
X008060Y010091D01*
X007730Y009601D02*
X007530Y009401D01*
X007530Y008911D01*
X007570Y008621D01*
X007520Y007441D02*
X007720Y007241D01*
X008800Y007241D01*
X008800Y007781D01*
X009330Y007151D02*
X011390Y007151D01*
X012190Y006351D01*
X014170Y008091D02*
X014680Y008601D01*
X014680Y008631D01*
X014970Y008921D01*
X014970Y009041D01*
X015340Y009411D01*
X015340Y009421D01*
X015390Y009451D01*
X015380Y009451D01*
X014920Y009911D01*
X014920Y010441D01*
X014370Y010991D01*
X014370Y011051D01*
X014170Y011251D01*
X014170Y010251D02*
X014130Y010211D01*
X014130Y009741D01*
X014190Y009681D01*
X014190Y009111D01*
X014170Y009091D01*
X012830Y010241D02*
X012830Y010251D01*
X012830Y010241D02*
X012440Y009851D01*
X012440Y009831D01*
X009810Y009831D01*
X008840Y010801D01*
X008840Y010841D01*
X008560Y010841D01*
X007880Y012451D02*
X007810Y012451D01*
X007880Y012451D02*
X008870Y013441D01*
X008870Y014441D01*
X008800Y014511D01*
X008800Y015641D01*
X009930Y016771D01*
X011840Y018741D02*
X011610Y018971D01*
X011610Y018981D01*
X011550Y019041D01*
X011550Y019171D01*
X011550Y019220D01*
X011550Y019221D01*
X011550Y019571D01*
X011560Y019721D01*
X011430Y019811D01*
X010880Y020161D01*
X009850Y020161D01*
X009850Y020391D01*
X009410Y020831D01*
X009410Y021071D01*
X009540Y021981D02*
X010980Y021981D01*
X011080Y021881D01*
X011440Y021341D02*
X011440Y021111D01*
X011410Y021071D01*
X011410Y020641D01*
X011460Y020591D01*
X011460Y020581D01*
X011710Y020331D01*
X011890Y020101D01*
X012060Y019881D01*
X012060Y019221D01*
X012062Y019220D01*
X011806Y019220D02*
X011800Y019221D01*
X011800Y019661D01*
X011790Y019841D01*
X010410Y020891D01*
X010410Y021071D01*
X011440Y021341D02*
X011850Y021751D01*
X011850Y021991D01*
X012700Y021991D01*
X013660Y022951D01*
X013660Y023241D01*
X013750Y023331D01*
X013750Y023336D01*
X014530Y023111D02*
X014530Y023001D01*
X013850Y022321D01*
X013810Y022321D01*
X014530Y023111D02*
X014750Y023331D01*
X014750Y023336D01*
X014410Y021071D02*
X014410Y020791D01*
X013860Y020371D01*
X013810Y020341D01*
X013650Y020231D01*
X012890Y019471D01*
X012890Y019461D01*
X012840Y019421D01*
X012840Y019241D01*
X012830Y019221D01*
X012830Y019220D01*
X013342Y019220D02*
X013350Y019221D01*
X013360Y019241D01*
X013360Y019441D01*
X014080Y020151D01*
X015970Y020151D01*
X015970Y020391D01*
X016410Y020831D01*
X016410Y021071D01*
X016970Y020391D02*
X017410Y020831D01*
X017410Y021071D01*
X017820Y021061D02*
X017820Y021411D01*
X017980Y021571D01*
X017980Y021681D01*
X017920Y021741D01*
X017920Y022711D01*
X017840Y022791D01*
X017840Y023241D01*
X017750Y023331D01*
X017750Y023336D01*
X018940Y021461D02*
X018940Y021061D01*
X017690Y019811D01*
X017690Y019701D01*
X017210Y019691D02*
X018060Y020541D01*
X018060Y020821D01*
X017820Y021061D01*
X016970Y020391D02*
X016970Y019971D01*
X016880Y019971D01*
X016880Y019361D01*
X017230Y019361D01*
X019410Y017181D01*
X019410Y017151D01*
X019670Y017151D01*
X019670Y015151D02*
X019580Y015061D01*
X019580Y014141D01*
X019400Y013961D01*
X019400Y013781D01*
X019440Y013741D01*
X019440Y013451D01*
X018490Y012451D02*
X018280Y012241D01*
X018280Y012181D01*
X019610Y010451D02*
X019400Y010241D01*
X019400Y010181D01*
X018880Y009661D01*
X018880Y009271D01*
X019055Y009096D02*
X019570Y008581D01*
X019570Y008451D01*
X018390Y007451D02*
X018390Y007441D01*
X016760Y007441D01*
X015720Y006401D01*
X015720Y006121D01*
X015240Y005641D01*
X016430Y013451D02*
X016390Y013491D01*
X016390Y013981D01*
X016420Y014011D01*
X016420Y015061D01*
X016410Y015071D01*
X015410Y015071D02*
X015380Y015031D01*
X015380Y014871D01*
X014630Y014121D01*
X014600Y014081D01*
X014600Y013961D01*
X014220Y013581D01*
X014410Y015071D02*
X014410Y015311D01*
X013970Y015751D01*
X013960Y015741D01*
X013480Y015991D01*
X013000Y016471D01*
X012960Y016521D01*
X012830Y016641D01*
X012830Y016921D01*
X012830Y016922D01*
X013086Y016922D02*
X013090Y016931D01*
X013100Y016981D01*
X013100Y017161D01*
X013510Y017531D01*
X014970Y017531D01*
X014970Y015751D01*
X015410Y015311D01*
X015410Y015071D01*
X013630Y016441D02*
X013400Y016671D01*
X013400Y016681D01*
X013350Y016761D01*
X013350Y016921D01*
X013342Y016922D01*
X013350Y016921D02*
X013350Y016951D01*
X013597Y019220D02*
X013600Y019221D01*
X014350Y019971D01*
X016880Y019971D01*
X018940Y021461D02*
X019670Y022191D01*
X012280Y013761D02*
X012280Y013701D01*
X012490Y013491D01*
X005580Y019181D02*
X005580Y021271D01*
X005430Y021421D01*
X004090Y019611D02*
X003410Y019611D01*
X003370Y019631D01*
X003370Y019261D01*
X003340Y019231D01*
X003340Y018611D01*
X003380Y018571D01*
X003380Y017571D02*
X003340Y017531D01*
X003340Y016551D01*
X003360Y016531D01*
X003400Y016551D01*
X004110Y016551D01*
X004600Y017041D01*
X004600Y017071D01*
X004870Y017071D01*
X004870Y019071D02*
X004600Y019071D01*
X004600Y019101D01*
X004090Y019611D01*
D25*
X005430Y021421D03*
X006330Y020271D03*
X008380Y019851D03*
X007430Y017961D03*
X006090Y017281D03*
X005430Y016621D03*
X006680Y013051D03*
X005900Y011961D03*
X006360Y011191D03*
X007730Y009601D03*
X008800Y007781D03*
X009660Y008371D03*
X009330Y009181D03*
X007520Y007441D03*
X006620Y007491D03*
X005110Y007771D03*
X007120Y005641D03*
X014630Y014121D03*
X013630Y016441D03*
X014250Y017181D03*
X012110Y017401D03*
X011050Y018571D03*
X011840Y018741D03*
X012560Y019701D03*
X011080Y021881D03*
X010440Y019221D03*
X009930Y016771D03*
X010750Y016441D03*
X013810Y022321D03*
X017210Y019691D03*
X017690Y019701D03*
X015240Y005641D03*
D26*
X015009Y005419D02*
X010325Y005419D01*
X010325Y005412D02*
X010325Y005932D01*
X010329Y005936D01*
X010338Y005936D01*
X010605Y006203D01*
X010605Y006579D01*
X010338Y006846D01*
X009962Y006846D01*
X009695Y006579D01*
X009695Y006203D01*
X009895Y006003D01*
X009895Y005590D01*
X009595Y005290D01*
X009595Y005139D01*
X009461Y005083D01*
X009318Y004940D01*
X009250Y004777D01*
X009182Y004940D01*
X009039Y005083D01*
X008851Y005161D01*
X008649Y005161D01*
X008461Y005083D01*
X008318Y004940D01*
X008250Y004777D01*
X008182Y004940D01*
X008039Y005083D01*
X007851Y005161D01*
X007649Y005161D01*
X007461Y005083D01*
X007318Y004940D01*
X007240Y004752D01*
X007240Y004550D01*
X007318Y004362D01*
X007349Y004331D01*
X005989Y004331D01*
X006260Y004602D01*
X006260Y004814D01*
X006260Y005025D01*
X005961Y005324D01*
X005750Y005324D01*
X005539Y005324D01*
X005240Y005025D01*
X005240Y004814D01*
X005750Y004814D01*
X005750Y005324D01*
X005750Y004814D01*
X005750Y004814D01*
X005750Y004814D01*
X006260Y004814D01*
X005750Y004814D01*
X005750Y004814D01*
X005240Y004814D01*
X005240Y004602D01*
X005511Y004331D01*
X003989Y004331D01*
X004260Y004602D01*
X004260Y004814D01*
X004260Y005025D01*
X003961Y005324D01*
X003750Y005324D01*
X003539Y005324D01*
X003240Y005025D01*
X003240Y004814D01*
X003750Y004814D01*
X003750Y005324D01*
X003750Y004814D01*
X003750Y004814D01*
X003750Y004814D01*
X004260Y004814D01*
X003750Y004814D01*
X003750Y004814D01*
X003240Y004814D01*
X003240Y004602D01*
X003511Y004331D01*
X001965Y004331D01*
X002260Y004626D01*
X002260Y004837D01*
X001750Y004837D01*
X001240Y004837D01*
X001240Y004626D01*
X001535Y004331D01*
X000930Y004331D01*
X000930Y023656D01*
X003740Y023656D01*
X003740Y022908D01*
X003822Y022826D01*
X004678Y022826D01*
X004760Y022908D01*
X004760Y023086D01*
X004780Y023048D01*
X004830Y022978D01*
X004892Y022917D01*
X004962Y022866D01*
X005039Y022826D01*
X005121Y022800D01*
X005207Y022786D01*
X005230Y022786D01*
X005230Y023316D01*
X005270Y023316D01*
X005270Y022786D01*
X005293Y022786D01*
X005379Y022800D01*
X005461Y022826D01*
X005538Y022866D01*
X005608Y022917D01*
X005670Y022978D01*
X005720Y023048D01*
X005760Y023125D01*
X005771Y023160D01*
X005818Y023047D01*
X005961Y022904D01*
X006149Y022826D01*
X006351Y022826D01*
X006539Y022904D01*
X006682Y023047D01*
X006750Y023210D01*
X006818Y023047D01*
X006961Y022904D01*
X007149Y022826D01*
X007351Y022826D01*
X007539Y022904D01*
X007682Y023047D01*
X007750Y023210D01*
X007806Y023076D01*
X007580Y022850D01*
X007580Y022761D01*
X006671Y022761D01*
X006560Y022650D01*
X005605Y021695D01*
X005494Y021741D01*
X005366Y021741D01*
X005253Y021694D01*
X005365Y021806D01*
X005365Y022011D01*
X005365Y022216D01*
X005075Y022506D01*
X004870Y022506D01*
X004870Y022011D01*
X004870Y022011D01*
X004870Y022506D01*
X004665Y022506D01*
X004375Y022216D01*
X004375Y022011D01*
X004870Y022011D01*
X005365Y022011D01*
X004870Y022011D01*
X004870Y022011D01*
X004870Y022011D01*
X004375Y022011D01*
X004375Y021806D01*
X004665Y021516D01*
X004870Y021516D01*
X005075Y021516D01*
X005157Y021598D01*
X005110Y021485D01*
X005110Y021414D01*
X005058Y021466D01*
X004682Y021466D01*
X004415Y021199D01*
X004415Y020823D01*
X004682Y020556D01*
X005058Y020556D01*
X005325Y020823D01*
X005325Y021118D01*
X005366Y021101D01*
X005390Y021101D01*
X005390Y019102D01*
X005570Y018922D01*
X005570Y016909D01*
X005494Y016941D01*
X005366Y016941D01*
X005310Y016918D01*
X005335Y016978D01*
X005335Y017163D01*
X005264Y017334D01*
X005133Y017465D01*
X004962Y017536D01*
X004778Y017536D01*
X004607Y017465D01*
X004476Y017334D01*
X004405Y017163D01*
X004405Y017115D01*
X004031Y016741D01*
X003793Y016741D01*
X003548Y016986D01*
X003530Y016986D01*
X003530Y017191D01*
X003537Y017191D01*
X003760Y017414D01*
X003760Y017728D01*
X003537Y017951D01*
X003223Y017951D01*
X003000Y017728D01*
X003000Y017414D01*
X003150Y017264D01*
X003150Y016964D01*
X002905Y016719D01*
X002905Y016343D01*
X003172Y016076D01*
X003548Y016076D01*
X003815Y016343D01*
X003815Y016361D01*
X004189Y016361D01*
X004300Y016472D01*
X004556Y016728D01*
X004607Y016677D01*
X004778Y016606D01*
X004962Y016606D01*
X005110Y016667D01*
X005110Y016557D01*
X005112Y016552D01*
X003130Y014570D01*
X003130Y011490D01*
X003110Y011470D01*
X003110Y007922D01*
X003221Y007811D01*
X004090Y006942D01*
X004090Y006882D01*
X004110Y006862D01*
X004110Y006594D01*
X004333Y006371D01*
X004647Y006371D01*
X004870Y006594D01*
X004870Y006908D01*
X004647Y007131D01*
X004439Y007131D01*
X003490Y008080D01*
X003490Y011312D01*
X003510Y011332D01*
X003510Y014412D01*
X005399Y016301D01*
X005494Y016301D01*
X005570Y016333D01*
X005570Y012492D01*
X005797Y012265D01*
X005719Y012232D01*
X005629Y012142D01*
X005580Y012025D01*
X005580Y011910D01*
X004931Y011261D01*
X004773Y011261D01*
X004550Y011038D01*
X004550Y010724D01*
X004567Y010707D01*
X004104Y010244D01*
X004087Y010261D01*
X003773Y010261D01*
X003550Y010038D01*
X003550Y009724D01*
X003773Y009501D01*
X004087Y009501D01*
X004310Y009724D01*
X004310Y009792D01*
X004320Y009802D01*
X004320Y009922D01*
X004899Y010501D01*
X005087Y010501D01*
X005310Y010724D01*
X005310Y011038D01*
X005278Y011070D01*
X005849Y011641D01*
X005964Y011641D01*
X006081Y011690D01*
X006170Y011778D01*
X006170Y011454D01*
X006089Y011372D01*
X006040Y011255D01*
X006040Y011127D01*
X006089Y011010D01*
X006179Y010920D01*
X006296Y010871D01*
X006424Y010871D01*
X006500Y010903D01*
X006500Y010170D01*
X006430Y010100D01*
X006430Y007754D01*
X006349Y007672D01*
X006300Y007555D01*
X006300Y007427D01*
X006349Y007310D01*
X006439Y007220D01*
X006556Y007171D01*
X006596Y007171D01*
X006556Y007131D01*
X006413Y007131D01*
X006216Y006934D01*
X005430Y007720D01*
X005430Y007835D01*
X005381Y007952D01*
X005291Y008042D01*
X005174Y008091D01*
X005046Y008091D01*
X004929Y008042D01*
X004839Y007952D01*
X004790Y007835D01*
X004790Y007707D01*
X004839Y007590D01*
X004929Y007500D01*
X005046Y007451D01*
X005161Y007451D01*
X005481Y007131D01*
X005413Y007131D01*
X005190Y006908D01*
X005190Y006594D01*
X005413Y006371D01*
X005550Y006371D01*
X005550Y006278D01*
X005280Y006008D01*
X005280Y005619D01*
X005555Y005344D01*
X005945Y005344D01*
X006220Y005619D01*
X006220Y006008D01*
X005945Y006284D01*
X005930Y006284D01*
X005930Y006574D01*
X005950Y006594D01*
X005950Y006662D01*
X005990Y006622D01*
X005990Y006502D01*
X006800Y005692D01*
X006800Y005577D01*
X006849Y005460D01*
X006939Y005370D01*
X007056Y005321D01*
X007184Y005321D01*
X007301Y005370D01*
X007391Y005460D01*
X007440Y005577D01*
X007440Y005705D01*
X007391Y005822D01*
X007301Y005912D01*
X007184Y005961D01*
X007069Y005961D01*
X006659Y006371D01*
X006727Y006371D01*
X006950Y006594D01*
X006950Y006827D01*
X006965Y006842D01*
X006965Y006932D01*
X007069Y007036D01*
X007195Y007162D01*
X007195Y008290D01*
X007045Y008440D01*
X007045Y009732D01*
X007699Y010386D01*
X007825Y010512D01*
X007825Y010569D01*
X007940Y010684D01*
X007940Y010927D01*
X008969Y011956D01*
X009095Y012082D01*
X009095Y012652D01*
X009410Y012967D01*
X009422Y012956D01*
X009798Y012956D01*
X010065Y013223D01*
X010065Y013599D01*
X009865Y013799D01*
X009865Y014200D01*
X009625Y014440D01*
X009625Y014509D01*
X009625Y014509D01*
X009732Y014616D01*
X009790Y014755D01*
X009790Y015187D01*
X009795Y015192D01*
X009795Y015412D01*
X010249Y015866D01*
X010756Y015866D01*
X010553Y015663D01*
X010486Y015691D01*
X010334Y015691D01*
X010195Y015633D01*
X010088Y015526D01*
X010030Y015387D01*
X010030Y014755D01*
X010088Y014616D01*
X010195Y014509D01*
X010230Y014494D01*
X010230Y014302D01*
X010341Y014191D01*
X010850Y013682D01*
X010850Y013622D01*
X010870Y013602D01*
X010870Y013334D01*
X011093Y013111D01*
X011407Y013111D01*
X011630Y013334D01*
X011630Y013648D01*
X011407Y013871D01*
X011199Y013871D01*
X010610Y014460D01*
X010610Y014503D01*
X010625Y014509D01*
X010732Y014616D01*
X010790Y014755D01*
X010790Y015362D01*
X011512Y016085D01*
X011520Y016020D01*
X011520Y015890D01*
X011331Y015701D01*
X011312Y015682D01*
X011195Y015633D01*
X011088Y015526D01*
X011030Y015387D01*
X011030Y014755D01*
X011088Y014616D01*
X011195Y014509D01*
X011312Y014460D01*
X011321Y014451D01*
X012090Y013682D01*
X012090Y013622D01*
X012110Y013602D01*
X012110Y013334D01*
X012333Y013111D01*
X012647Y013111D01*
X012870Y013334D01*
X012870Y013648D01*
X012647Y013871D01*
X012439Y013871D01*
X011713Y014597D01*
X011732Y014616D01*
X011790Y014755D01*
X011790Y015387D01*
X011732Y015526D01*
X011713Y015545D01*
X011900Y015732D01*
X011900Y015965D01*
X012130Y016256D01*
X012130Y015846D01*
X012115Y015816D01*
X012130Y015770D01*
X012130Y015722D01*
X012154Y015698D01*
X012165Y015666D01*
X012207Y015645D01*
X012210Y015642D01*
X012210Y015639D01*
X012195Y015633D01*
X012088Y015526D01*
X012030Y015387D01*
X012030Y014755D01*
X012088Y014616D01*
X012195Y014509D01*
X012334Y014451D01*
X012481Y014451D01*
X013410Y013522D01*
X013410Y013412D01*
X013430Y013392D01*
X013430Y013334D01*
X013653Y013111D01*
X013967Y013111D01*
X014049Y013193D01*
X014141Y013101D01*
X014619Y012623D01*
X014615Y012619D01*
X014615Y012243D01*
X014882Y011976D01*
X015126Y011976D01*
X015290Y011812D01*
X015290Y011742D01*
X015401Y011631D01*
X016779Y011631D01*
X017266Y012118D01*
X017313Y012071D01*
X017627Y012071D01*
X017850Y012294D01*
X017850Y012608D01*
X017627Y012831D01*
X017313Y012831D01*
X017090Y012608D01*
X017090Y012550D01*
X017070Y012530D01*
X017070Y012460D01*
X016621Y012011D01*
X015629Y012011D01*
X015461Y012179D01*
X015525Y012243D01*
X015525Y012619D01*
X015258Y012886D01*
X014894Y012886D01*
X014410Y013370D01*
X014410Y013502D01*
X014679Y013771D01*
X014719Y013812D01*
X014811Y013850D01*
X014901Y013940D01*
X014950Y014057D01*
X014950Y014172D01*
X015260Y014482D01*
X015334Y014451D01*
X015486Y014451D01*
X015625Y014509D01*
X015732Y014616D01*
X015790Y014755D01*
X015790Y015387D01*
X015732Y015526D01*
X015625Y015633D01*
X015486Y015691D01*
X015334Y015691D01*
X015309Y015681D01*
X015160Y015830D01*
X015160Y017610D01*
X015049Y017721D01*
X013515Y017721D01*
X013441Y017725D01*
X013437Y017721D01*
X013431Y017721D01*
X013379Y017669D01*
X013027Y017351D01*
X013021Y017351D01*
X012969Y017299D01*
X012923Y017257D01*
X012748Y017257D01*
X012744Y017261D01*
X012703Y017285D01*
X012658Y017297D01*
X012574Y017297D01*
X012574Y016922D01*
X012574Y016547D01*
X012651Y016547D01*
X012698Y016504D01*
X012751Y016451D01*
X012756Y016451D01*
X012810Y016401D01*
X012810Y016392D01*
X012858Y016344D01*
X012901Y016291D01*
X012913Y016290D01*
X013313Y015890D01*
X013322Y015859D01*
X013366Y015836D01*
X013401Y015801D01*
X013433Y015801D01*
X013846Y015586D01*
X013881Y015551D01*
X013901Y015551D01*
X014040Y015412D01*
X014030Y015387D01*
X014030Y014755D01*
X014088Y014616D01*
X014195Y014509D01*
X014334Y014451D01*
X014486Y014451D01*
X014625Y014509D01*
X014732Y014616D01*
X014790Y014755D01*
X014790Y015387D01*
X014732Y015526D01*
X014625Y015633D01*
X014486Y015691D01*
X014334Y015691D01*
X014309Y015681D01*
X014118Y015872D01*
X014118Y015873D01*
X014115Y015874D01*
X014049Y015941D01*
X013987Y015941D01*
X013642Y016121D01*
X013694Y016121D01*
X013811Y016170D01*
X013901Y016260D01*
X013950Y016377D01*
X013950Y016505D01*
X013901Y016622D01*
X013834Y016690D01*
X013837Y016704D01*
X013837Y016922D01*
X013597Y016922D01*
X013597Y017297D01*
X013535Y017297D01*
X013583Y017341D01*
X014780Y017341D01*
X014780Y015672D01*
X015040Y015412D01*
X015030Y015387D01*
X015030Y014790D01*
X014681Y014441D01*
X014566Y014441D01*
X014449Y014392D01*
X014359Y014302D01*
X014310Y014185D01*
X014310Y014057D01*
X014344Y013974D01*
X014104Y013734D01*
X013967Y013871D01*
X013653Y013871D01*
X013626Y013844D01*
X012768Y014702D01*
X012790Y014755D01*
X012790Y015387D01*
X012732Y015526D01*
X012625Y015633D01*
X012590Y015648D01*
X012590Y015716D01*
X012605Y015746D01*
X012590Y015792D01*
X012590Y015840D01*
X012566Y015864D01*
X012555Y015896D01*
X012513Y015917D01*
X012510Y015920D01*
X012510Y016547D01*
X012574Y016547D01*
X012574Y016922D01*
X012574Y016922D01*
X012574Y016922D01*
X012574Y017297D01*
X012490Y017297D01*
X012484Y017296D01*
X012439Y017341D01*
X012430Y017350D01*
X012430Y017465D01*
X013153Y017465D01*
X013329Y017624D02*
X012340Y017624D01*
X012381Y017582D02*
X012291Y017672D01*
X012174Y017721D01*
X012046Y017721D01*
X011929Y017672D01*
X011839Y017582D01*
X011790Y017465D01*
X011635Y017465D01*
X011635Y017470D02*
X011634Y017471D01*
X011634Y017473D01*
X011571Y017534D01*
X011509Y017596D01*
X011507Y017596D01*
X011265Y017832D01*
X011265Y018333D01*
X011321Y018390D01*
X011370Y018507D01*
X011370Y018635D01*
X011321Y018752D01*
X011231Y018842D01*
X011178Y018864D01*
X011187Y018885D01*
X011412Y018885D01*
X011420Y018892D01*
X011520Y018792D01*
X011520Y018677D01*
X011569Y018560D01*
X011659Y018470D01*
X011776Y018421D01*
X011904Y018421D01*
X012021Y018470D01*
X012111Y018560D01*
X012160Y018677D01*
X012160Y018805D01*
X012127Y018885D01*
X012143Y018885D01*
X012147Y018881D01*
X012188Y018857D01*
X012234Y018845D01*
X012318Y018845D01*
X012402Y018845D01*
X012447Y018857D01*
X012488Y018881D01*
X012493Y018885D01*
X012692Y018885D01*
X012702Y018895D01*
X012712Y018885D01*
X012911Y018885D01*
X012915Y018881D01*
X012956Y018857D01*
X013002Y018845D01*
X013086Y018845D01*
X013169Y018845D01*
X013215Y018857D01*
X013256Y018881D01*
X013260Y018885D01*
X013460Y018885D01*
X013470Y018895D01*
X013479Y018885D01*
X013715Y018885D01*
X013797Y018967D01*
X013797Y019150D01*
X014429Y019781D01*
X016690Y019781D01*
X016690Y019282D01*
X016801Y019171D01*
X017151Y019171D01*
X019215Y017107D01*
X019215Y016963D01*
X019482Y016696D01*
X019858Y016696D01*
X020125Y016963D01*
X020125Y017339D01*
X019858Y017606D01*
X019482Y017606D01*
X019368Y017492D01*
X017420Y019440D01*
X017416Y019444D01*
X017455Y019483D01*
X017509Y019430D01*
X017626Y019381D01*
X017754Y019381D01*
X017871Y019430D01*
X017961Y019520D01*
X018010Y019637D01*
X018010Y019765D01*
X017981Y019834D01*
X019130Y020982D01*
X019130Y021382D01*
X019484Y021736D01*
X019858Y021736D01*
X020125Y022003D01*
X020125Y022379D01*
X019858Y022646D01*
X019482Y022646D01*
X019215Y022379D01*
X019215Y022005D01*
X018861Y021651D01*
X018764Y021554D01*
X018707Y021611D01*
X018393Y021611D01*
X018170Y021388D01*
X018170Y021074D01*
X018393Y020851D01*
X018461Y020851D01*
X018250Y020640D01*
X018250Y020900D01*
X018139Y021011D01*
X018010Y021140D01*
X018010Y021332D01*
X018170Y021492D01*
X018170Y021760D01*
X018110Y021820D01*
X018110Y022790D01*
X018030Y022870D01*
X018030Y022900D01*
X018039Y022904D01*
X018182Y023047D01*
X018250Y023210D01*
X018318Y023047D01*
X018461Y022904D01*
X018649Y022826D01*
X018851Y022826D01*
X019039Y022904D01*
X019182Y023047D01*
X019250Y023210D01*
X019318Y023047D01*
X019461Y022904D01*
X019649Y022826D01*
X019851Y022826D01*
X020039Y022904D01*
X020182Y023047D01*
X020255Y023223D01*
X020255Y004764D01*
X020182Y004940D01*
X020039Y005083D01*
X019851Y005161D01*
X019649Y005161D01*
X019461Y005083D01*
X019318Y004940D01*
X019250Y004777D01*
X019182Y004940D01*
X019039Y005083D01*
X018851Y005161D01*
X018649Y005161D01*
X018461Y005083D01*
X018318Y004940D01*
X018250Y004777D01*
X018182Y004940D01*
X018039Y005083D01*
X017851Y005161D01*
X017649Y005161D01*
X017461Y005083D01*
X017318Y004940D01*
X017250Y004777D01*
X017182Y004940D01*
X017039Y005083D01*
X016851Y005161D01*
X016649Y005161D01*
X016461Y005083D01*
X016318Y004940D01*
X016250Y004777D01*
X016182Y004940D01*
X016039Y005083D01*
X015851Y005161D01*
X015649Y005161D01*
X015461Y005083D01*
X015318Y004940D01*
X015250Y004777D01*
X015182Y004940D01*
X015039Y005083D01*
X014851Y005161D01*
X014649Y005161D01*
X014461Y005083D01*
X014318Y004940D01*
X014240Y004752D01*
X014240Y004550D01*
X014318Y004362D01*
X014349Y004331D01*
X013151Y004331D01*
X013182Y004362D01*
X013260Y004550D01*
X013260Y004752D01*
X013182Y004940D01*
X013039Y005083D01*
X012851Y005161D01*
X012649Y005161D01*
X012461Y005083D01*
X012318Y004940D01*
X012271Y004827D01*
X012260Y004862D01*
X012220Y004939D01*
X012170Y005009D01*
X012108Y005071D01*
X012038Y005121D01*
X011961Y005161D01*
X011879Y005187D01*
X011793Y005201D01*
X011770Y005201D01*
X011770Y004671D01*
X011730Y004671D01*
X011730Y005201D01*
X011707Y005201D01*
X011621Y005187D01*
X011539Y005161D01*
X011462Y005121D01*
X011392Y005071D01*
X011330Y005009D01*
X011280Y004939D01*
X011250Y004881D01*
X011220Y004939D01*
X011170Y005009D01*
X011108Y005071D01*
X011038Y005121D01*
X010961Y005161D01*
X010879Y005187D01*
X010793Y005201D01*
X010770Y005201D01*
X010770Y004671D01*
X010730Y004671D01*
X010730Y005201D01*
X010707Y005201D01*
X010621Y005187D01*
X010539Y005161D01*
X010462Y005121D01*
X010392Y005071D01*
X010330Y005009D01*
X010280Y004939D01*
X010240Y004862D01*
X010229Y004827D01*
X010182Y004940D01*
X010039Y005083D01*
X010025Y005089D01*
X010025Y005112D01*
X010199Y005286D01*
X010325Y005412D01*
X010325Y005577D02*
X014920Y005577D01*
X014969Y005460D01*
X015059Y005370D01*
X015176Y005321D01*
X015304Y005321D01*
X015421Y005370D01*
X015511Y005460D01*
X015560Y005577D01*
X015560Y005692D01*
X015799Y005931D01*
X015910Y006042D01*
X015910Y006322D01*
X016839Y007251D01*
X017911Y007251D01*
X018191Y006971D01*
X018589Y006971D01*
X018870Y007252D01*
X018870Y007650D01*
X018589Y007931D01*
X018191Y007931D01*
X017910Y007650D01*
X017910Y007631D01*
X016959Y007631D01*
X017579Y008251D01*
X017911Y008251D01*
X018191Y007971D01*
X018589Y007971D01*
X018870Y008252D01*
X018870Y008642D01*
X019055Y008827D01*
X019179Y008703D01*
X019115Y008639D01*
X019115Y008263D01*
X019382Y007996D01*
X019758Y007996D01*
X020025Y008263D01*
X020025Y008639D01*
X019758Y008906D01*
X019514Y008906D01*
X019245Y009175D01*
X019070Y009350D01*
X019070Y009582D01*
X019559Y010071D01*
X019767Y010071D01*
X019990Y010294D01*
X019990Y010608D01*
X019767Y010831D01*
X019453Y010831D01*
X019230Y010608D01*
X019230Y010340D01*
X019210Y010320D01*
X019210Y010260D01*
X018801Y009851D01*
X018735Y009785D01*
X018589Y009931D01*
X018191Y009931D01*
X018165Y009905D01*
X017850Y010220D01*
X017850Y011482D01*
X018439Y012071D01*
X018647Y012071D01*
X018870Y012294D01*
X018870Y012608D01*
X018647Y012831D01*
X018333Y012831D01*
X018110Y012608D01*
X018110Y012340D01*
X018090Y012320D01*
X018090Y012260D01*
X017581Y011751D01*
X017470Y011640D01*
X017470Y010062D01*
X017910Y009622D01*
X017910Y009252D01*
X018191Y008971D01*
X018589Y008971D01*
X018750Y009132D01*
X018786Y009096D01*
X018605Y008915D01*
X018589Y008931D01*
X018191Y008931D01*
X017910Y008650D01*
X017910Y008631D01*
X017421Y008631D01*
X017310Y008520D01*
X015721Y006931D01*
X015679Y006931D01*
X015614Y006996D01*
X015870Y007252D01*
X015870Y007650D01*
X015589Y007931D01*
X015191Y007931D01*
X014910Y007650D01*
X014910Y007252D01*
X014941Y007221D01*
X014879Y007221D01*
X014870Y007230D01*
X014870Y007410D01*
X014759Y007521D01*
X010229Y007521D01*
X009850Y007900D01*
X009850Y008108D01*
X009910Y008168D01*
X009910Y007934D01*
X010133Y007711D01*
X010447Y007711D01*
X010670Y007934D01*
X010670Y008248D01*
X010447Y008471D01*
X010133Y008471D01*
X009980Y008318D01*
X009980Y008435D01*
X009931Y008552D01*
X009841Y008642D01*
X009724Y008691D01*
X009596Y008691D01*
X009520Y008659D01*
X009520Y008918D01*
X009601Y009000D01*
X009650Y009117D01*
X009650Y009245D01*
X009601Y009362D01*
X009511Y009452D01*
X009394Y009501D01*
X009266Y009501D01*
X009149Y009452D01*
X009059Y009362D01*
X009026Y009284D01*
X008408Y009902D01*
X008440Y009934D01*
X008440Y010248D01*
X008217Y010471D01*
X007903Y010471D01*
X007680Y010248D01*
X007680Y009934D01*
X007693Y009921D01*
X007666Y009921D01*
X007549Y009872D01*
X007459Y009782D01*
X007410Y009665D01*
X007410Y009550D01*
X007340Y009480D01*
X007340Y008975D01*
X007331Y008963D01*
X007336Y008925D01*
X007190Y008778D01*
X007190Y008464D01*
X007413Y008241D01*
X007727Y008241D01*
X007950Y008464D01*
X007950Y008778D01*
X007727Y009001D01*
X007720Y009001D01*
X007720Y009281D01*
X007794Y009281D01*
X007911Y009330D01*
X008001Y009420D01*
X008050Y009537D01*
X008050Y009665D01*
X008031Y009711D01*
X008061Y009711D01*
X008731Y009041D01*
X008570Y009041D01*
X008396Y009041D01*
X008150Y008795D01*
X008150Y008621D01*
X008570Y008621D01*
X008570Y008621D01*
X008570Y009041D01*
X008570Y008621D01*
X008570Y008621D01*
X008150Y008621D01*
X008150Y008447D01*
X008396Y008201D01*
X008570Y008201D01*
X008744Y008201D01*
X008950Y008407D01*
X008950Y008065D01*
X008864Y008101D01*
X008736Y008101D01*
X008619Y008052D01*
X008529Y007962D01*
X008480Y007845D01*
X008480Y007717D01*
X008529Y007600D01*
X008610Y007518D01*
X008610Y007431D01*
X007840Y007431D01*
X007840Y007505D01*
X007798Y007605D01*
X007913Y007491D01*
X008227Y007491D01*
X008450Y007714D01*
X008450Y008028D01*
X008227Y008251D01*
X007913Y008251D01*
X007690Y008028D01*
X007690Y007717D01*
X007584Y007761D01*
X007456Y007761D01*
X007339Y007712D01*
X007249Y007622D01*
X007200Y007505D01*
X007200Y007377D01*
X007249Y007260D01*
X007339Y007170D01*
X007456Y007121D01*
X007571Y007121D01*
X007641Y007051D01*
X008810Y007051D01*
X008810Y006806D01*
X008722Y006806D01*
X008455Y006539D01*
X008455Y006163D01*
X008722Y005896D01*
X009098Y005896D01*
X009365Y006163D01*
X009365Y006539D01*
X009190Y006714D01*
X009190Y007022D01*
X009251Y006961D01*
X011311Y006961D01*
X011801Y006472D01*
X011784Y006432D01*
X011784Y006270D01*
X011846Y006121D01*
X011960Y006007D01*
X012109Y005945D01*
X012271Y005945D01*
X012420Y006007D01*
X012534Y006121D01*
X012596Y006270D01*
X012596Y006432D01*
X012534Y006581D01*
X012420Y006695D01*
X012271Y006757D01*
X012109Y006757D01*
X012069Y006740D01*
X011669Y007141D01*
X014490Y007141D01*
X014490Y007072D01*
X014610Y006952D01*
X014721Y006841D01*
X015061Y006841D01*
X015111Y006791D01*
X015281Y006791D01*
X015301Y006771D01*
X015301Y006771D01*
X015410Y006662D01*
X015521Y006551D01*
X015601Y006551D01*
X015530Y006480D01*
X015530Y006200D01*
X015291Y005961D01*
X015206Y005961D01*
X015224Y005970D01*
X015280Y006011D01*
X015330Y006061D01*
X015371Y006117D01*
X015403Y006180D01*
X015425Y006247D01*
X015436Y006316D01*
X015436Y006342D01*
X014999Y006342D01*
X014999Y006360D01*
X014981Y006360D01*
X014981Y006797D01*
X014955Y006797D01*
X014886Y006786D01*
X014819Y006764D01*
X014756Y006732D01*
X014700Y006691D01*
X014650Y006641D01*
X014609Y006585D01*
X014577Y006522D01*
X014555Y006455D01*
X014544Y006386D01*
X014544Y006360D01*
X014981Y006360D01*
X014981Y006342D01*
X014999Y006342D01*
X014999Y005905D01*
X015025Y005905D01*
X015057Y005910D01*
X014969Y005822D01*
X014920Y005705D01*
X014920Y005577D01*
X014933Y005736D02*
X010325Y005736D01*
X010325Y005894D02*
X015041Y005894D01*
X014981Y005905D02*
X014981Y006342D01*
X014544Y006342D01*
X014544Y006316D01*
X014555Y006247D01*
X014577Y006180D01*
X014609Y006117D01*
X014650Y006061D01*
X014700Y006011D01*
X014756Y005970D01*
X014819Y005938D01*
X014886Y005916D01*
X014955Y005905D01*
X014981Y005905D01*
X014981Y006053D02*
X014999Y006053D01*
X014999Y006211D02*
X014981Y006211D01*
X014999Y006360D02*
X015436Y006360D01*
X015436Y006386D01*
X015425Y006455D01*
X015403Y006522D01*
X015371Y006585D01*
X015330Y006641D01*
X015280Y006691D01*
X015224Y006732D01*
X015161Y006764D01*
X015094Y006786D01*
X015025Y006797D01*
X014999Y006797D01*
X014999Y006360D01*
X014999Y006370D02*
X014981Y006370D01*
X014981Y006528D02*
X014999Y006528D01*
X014999Y006687D02*
X014981Y006687D01*
X014696Y006687D02*
X012428Y006687D01*
X012556Y006528D02*
X014580Y006528D01*
X014544Y006370D02*
X012596Y006370D01*
X012571Y006211D02*
X014567Y006211D01*
X014658Y006053D02*
X012466Y006053D01*
X011914Y006053D02*
X011512Y006053D01*
X011645Y006186D02*
X011355Y005896D01*
X011150Y005896D01*
X011150Y006391D01*
X011150Y006391D01*
X011150Y006886D01*
X011355Y006886D01*
X011645Y006596D01*
X011645Y006391D01*
X011150Y006391D01*
X011150Y006886D01*
X010945Y006886D01*
X010655Y006596D01*
X010655Y006391D01*
X011150Y006391D01*
X011150Y006391D01*
X011150Y006391D01*
X011645Y006391D01*
X011645Y006186D01*
X011645Y006211D02*
X011809Y006211D01*
X011784Y006370D02*
X011645Y006370D01*
X011645Y006528D02*
X011744Y006528D01*
X011585Y006687D02*
X011554Y006687D01*
X011427Y006845D02*
X011396Y006845D01*
X011150Y006845D02*
X011150Y006845D01*
X011150Y006687D02*
X011150Y006687D01*
X011150Y006528D02*
X011150Y006528D01*
X011150Y006391D02*
X010655Y006391D01*
X010655Y006186D01*
X010945Y005896D01*
X011150Y005896D01*
X011150Y006391D01*
X011150Y006391D01*
X011150Y006370D02*
X011150Y006370D01*
X011150Y006211D02*
X011150Y006211D01*
X011150Y006053D02*
X011150Y006053D01*
X010788Y006053D02*
X010455Y006053D01*
X010605Y006211D02*
X010655Y006211D01*
X010655Y006370D02*
X010605Y006370D01*
X010605Y006528D02*
X010655Y006528D01*
X010746Y006687D02*
X010497Y006687D01*
X010339Y006845D02*
X010904Y006845D01*
X011806Y007004D02*
X014558Y007004D01*
X014717Y006845D02*
X011964Y006845D01*
X012642Y007616D02*
X013018Y007616D01*
X013285Y007883D01*
X013285Y008259D01*
X013018Y008526D01*
X012642Y008526D01*
X012375Y008259D01*
X012375Y007883D01*
X012642Y007616D01*
X012620Y007638D02*
X010112Y007638D01*
X010047Y007796D02*
X009953Y007796D01*
X009910Y007955D02*
X009850Y007955D01*
X009855Y008114D02*
X009910Y008114D01*
X009980Y008431D02*
X010092Y008431D01*
X010116Y008671D02*
X009870Y008917D01*
X009870Y009091D01*
X010290Y009091D01*
X010290Y009091D01*
X010290Y009511D01*
X010464Y009511D01*
X010710Y009265D01*
X010710Y009091D01*
X010290Y009091D01*
X010290Y009511D01*
X010116Y009511D01*
X009870Y009265D01*
X009870Y009091D01*
X010290Y009091D01*
X010290Y009091D01*
X010290Y009091D01*
X010710Y009091D01*
X010710Y008917D01*
X010464Y008671D01*
X010290Y008671D01*
X010290Y009091D01*
X010290Y009091D01*
X010290Y008671D01*
X010116Y008671D01*
X010040Y008748D02*
X009520Y008748D01*
X009520Y008906D02*
X009881Y008906D01*
X009870Y009065D02*
X009628Y009065D01*
X009650Y009223D02*
X009870Y009223D01*
X009987Y009382D02*
X009582Y009382D01*
X009731Y009641D02*
X012519Y009641D01*
X012630Y009752D01*
X012630Y009772D01*
X012729Y009871D01*
X012987Y009871D01*
X013210Y010094D01*
X013210Y010408D01*
X012987Y010631D01*
X012673Y010631D01*
X012450Y010408D01*
X012450Y010130D01*
X012341Y010021D01*
X011917Y010021D01*
X011970Y010074D01*
X011970Y010388D01*
X011747Y010611D01*
X011433Y010611D01*
X011210Y010388D01*
X011210Y010074D01*
X011263Y010021D01*
X010657Y010021D01*
X010710Y010074D01*
X010710Y010388D01*
X010487Y010611D01*
X010173Y010611D01*
X009950Y010388D01*
X009950Y010074D01*
X010003Y010021D01*
X009889Y010021D01*
X009030Y010880D01*
X009030Y010920D01*
X008919Y011031D01*
X008907Y011031D01*
X008717Y011221D01*
X008403Y011221D01*
X008180Y010998D01*
X008180Y010684D01*
X008403Y010461D01*
X008717Y010461D01*
X008814Y010558D01*
X009620Y009752D01*
X009731Y009641D01*
X009674Y009699D02*
X008611Y009699D01*
X008453Y009857D02*
X009515Y009857D01*
X009357Y010016D02*
X008440Y010016D01*
X008440Y010174D02*
X009198Y010174D01*
X009040Y010333D02*
X008356Y010333D01*
X008373Y010491D02*
X007804Y010491D01*
X007764Y010333D02*
X007646Y010333D01*
X007680Y010174D02*
X007487Y010174D01*
X007329Y010016D02*
X007680Y010016D01*
X007533Y009857D02*
X007170Y009857D01*
X007045Y009699D02*
X007424Y009699D01*
X007400Y009540D02*
X007045Y009540D01*
X007045Y009382D02*
X007340Y009382D01*
X007340Y009223D02*
X007045Y009223D01*
X007045Y009065D02*
X007340Y009065D01*
X007318Y008906D02*
X007045Y008906D01*
X007045Y008748D02*
X007190Y008748D01*
X007190Y008589D02*
X007045Y008589D01*
X007055Y008431D02*
X007223Y008431D01*
X007195Y008272D02*
X007382Y008272D01*
X007195Y008114D02*
X007775Y008114D01*
X007758Y008272D02*
X008325Y008272D01*
X008365Y008114D02*
X008950Y008114D01*
X008950Y008272D02*
X008815Y008272D01*
X008570Y008272D02*
X008570Y008272D01*
X008570Y008201D02*
X008570Y008621D01*
X008570Y008621D01*
X008570Y008201D01*
X008570Y008431D02*
X008570Y008431D01*
X008570Y008589D02*
X008570Y008589D01*
X008570Y008748D02*
X008570Y008748D01*
X008570Y008906D02*
X008570Y008906D01*
X008708Y009065D02*
X007720Y009065D01*
X007720Y009223D02*
X008549Y009223D01*
X008391Y009382D02*
X007963Y009382D01*
X008050Y009540D02*
X008232Y009540D01*
X008074Y009699D02*
X008036Y009699D01*
X007822Y008906D02*
X008261Y008906D01*
X008150Y008748D02*
X007950Y008748D01*
X007950Y008589D02*
X008150Y008589D01*
X008167Y008431D02*
X007917Y008431D01*
X007690Y007955D02*
X007195Y007955D01*
X007195Y007796D02*
X007690Y007796D01*
X007840Y007479D02*
X008610Y007479D01*
X008513Y007638D02*
X008374Y007638D01*
X008450Y007796D02*
X008480Y007796D01*
X008450Y007955D02*
X008526Y007955D01*
X008810Y007004D02*
X007037Y007004D01*
X006965Y006845D02*
X007704Y006845D01*
X007705Y006846D02*
X007415Y006556D01*
X007415Y006351D01*
X007910Y006351D01*
X007910Y006351D01*
X007910Y006846D01*
X008115Y006846D01*
X008405Y006556D01*
X008405Y006351D01*
X007910Y006351D01*
X007910Y006846D01*
X007705Y006846D01*
X007910Y006845D02*
X007910Y006845D01*
X007910Y006687D02*
X007910Y006687D01*
X007910Y006528D02*
X007910Y006528D01*
X007910Y006370D02*
X007910Y006370D01*
X007910Y006351D02*
X007910Y006351D01*
X007910Y006351D01*
X008405Y006351D01*
X008405Y006146D01*
X008115Y005856D01*
X007910Y005856D01*
X007910Y006351D01*
X007415Y006351D01*
X007415Y006146D01*
X007705Y005856D01*
X007910Y005856D01*
X007910Y006351D01*
X007910Y006351D01*
X007910Y006211D02*
X007910Y006211D01*
X007910Y006053D02*
X007910Y006053D01*
X007910Y005894D02*
X007910Y005894D01*
X008154Y005894D02*
X009895Y005894D01*
X009895Y005736D02*
X007427Y005736D01*
X007440Y005577D02*
X009882Y005577D01*
X009724Y005419D02*
X007351Y005419D01*
X007506Y005102D02*
X006183Y005102D01*
X006260Y004943D02*
X007321Y004943D01*
X007253Y004785D02*
X006260Y004785D01*
X006260Y004626D02*
X007240Y004626D01*
X007274Y004468D02*
X006126Y004468D01*
X005750Y004943D02*
X005750Y004943D01*
X005750Y005102D02*
X005750Y005102D01*
X005750Y005260D02*
X005750Y005260D01*
X006024Y005260D02*
X009595Y005260D01*
X009506Y005102D02*
X008994Y005102D01*
X009179Y004943D02*
X009321Y004943D01*
X009253Y004785D02*
X009247Y004785D01*
X008506Y005102D02*
X007994Y005102D01*
X008179Y004943D02*
X008321Y004943D01*
X008253Y004785D02*
X008247Y004785D01*
X007666Y005894D02*
X007319Y005894D01*
X007508Y006053D02*
X006977Y006053D01*
X006818Y006211D02*
X007415Y006211D01*
X007415Y006370D02*
X006660Y006370D01*
X006885Y006528D02*
X007415Y006528D01*
X007546Y006687D02*
X006950Y006687D01*
X007195Y007162D02*
X007356Y007162D01*
X007223Y007321D02*
X007195Y007321D01*
X007195Y007479D02*
X007200Y007479D01*
X007195Y007638D02*
X007264Y007638D01*
X006587Y007162D02*
X005987Y007162D01*
X006146Y007004D02*
X006286Y007004D01*
X006344Y007321D02*
X005829Y007321D01*
X005670Y007479D02*
X006300Y007479D01*
X006335Y007638D02*
X005512Y007638D01*
X005430Y007796D02*
X006430Y007796D01*
X006430Y007955D02*
X005379Y007955D01*
X005087Y008501D02*
X005310Y008724D01*
X005310Y009038D01*
X005087Y009261D01*
X004773Y009261D01*
X004550Y009038D01*
X004550Y008724D01*
X004773Y008501D01*
X005087Y008501D01*
X005175Y008589D02*
X006430Y008589D01*
X006430Y008431D02*
X003490Y008431D01*
X003490Y008589D02*
X004685Y008589D01*
X004550Y008748D02*
X003490Y008748D01*
X003490Y008906D02*
X004550Y008906D01*
X004576Y009065D02*
X003490Y009065D01*
X003490Y009223D02*
X004735Y009223D01*
X005125Y009223D02*
X006430Y009223D01*
X006430Y009065D02*
X005284Y009065D01*
X005310Y008906D02*
X006430Y008906D01*
X006430Y008748D02*
X005310Y008748D01*
X004841Y007955D02*
X003615Y007955D01*
X003490Y008114D02*
X006430Y008114D01*
X006430Y008272D02*
X003490Y008272D01*
X003110Y008272D02*
X002445Y008272D01*
X002445Y008419D02*
X002445Y008043D01*
X002178Y007776D01*
X001802Y007776D01*
X001535Y008043D01*
X001535Y008419D01*
X001802Y008686D01*
X002178Y008686D01*
X002445Y008419D01*
X002434Y008431D02*
X003110Y008431D01*
X003110Y008589D02*
X002275Y008589D01*
X002178Y008776D02*
X002445Y009043D01*
X002445Y009419D01*
X002280Y009584D01*
X002280Y009772D01*
X002436Y009928D01*
X002453Y009921D01*
X002647Y009921D01*
X002828Y009996D01*
X002965Y010133D01*
X003040Y010314D01*
X003040Y010508D01*
X002965Y010689D01*
X002828Y010826D01*
X002667Y010893D01*
X002674Y010894D01*
X002753Y010920D01*
X002828Y010958D01*
X002895Y011007D01*
X002954Y011066D01*
X003003Y011133D01*
X003041Y011208D01*
X003067Y011287D01*
X003080Y011369D01*
X003080Y011393D01*
X002568Y011393D01*
X002568Y011429D01*
X003080Y011429D01*
X003080Y011453D01*
X003067Y011535D01*
X003041Y011614D01*
X003003Y011689D01*
X002954Y011756D01*
X002895Y011815D01*
X002828Y011864D01*
X002753Y011902D01*
X002674Y011928D01*
X002667Y011929D01*
X002828Y011996D01*
X002965Y012133D01*
X003040Y012314D01*
X003040Y012508D01*
X002965Y012689D01*
X002828Y012826D01*
X002647Y012901D01*
X002453Y012901D01*
X002443Y012897D01*
X002280Y013060D01*
X002280Y013238D01*
X002525Y013483D01*
X002525Y013859D01*
X002258Y014126D01*
X001882Y014126D01*
X001615Y013859D01*
X001615Y013483D01*
X001882Y013216D01*
X001900Y013216D01*
X001900Y012902D01*
X002128Y012674D01*
X002060Y012508D01*
X002060Y012314D01*
X002135Y012133D01*
X002272Y011996D01*
X002433Y011929D01*
X002426Y011928D01*
X002347Y011902D01*
X002272Y011864D01*
X002205Y011815D01*
X002146Y011756D01*
X002097Y011689D01*
X002059Y011614D01*
X002033Y011535D01*
X002032Y011528D01*
X001965Y011689D01*
X001828Y011826D01*
X001647Y011901D01*
X001453Y011901D01*
X001272Y011826D01*
X001135Y011689D01*
X001060Y011508D01*
X001060Y011314D01*
X001135Y011133D01*
X001272Y010996D01*
X001453Y010921D01*
X001647Y010921D01*
X001828Y010996D01*
X001965Y011133D01*
X002032Y011294D01*
X002033Y011287D01*
X002059Y011208D01*
X002097Y011133D01*
X002146Y011066D01*
X002205Y011007D01*
X002272Y010958D01*
X002347Y010920D01*
X002426Y010894D01*
X002433Y010893D01*
X002272Y010826D01*
X002135Y010689D01*
X002060Y010508D01*
X002060Y010314D01*
X002126Y010155D01*
X001900Y009930D01*
X001900Y009686D01*
X001802Y009686D01*
X001535Y009419D01*
X001535Y009043D01*
X001802Y008776D01*
X002178Y008776D01*
X002308Y008906D02*
X003110Y008906D01*
X003110Y008748D02*
X000930Y008748D01*
X000930Y008906D02*
X001672Y008906D01*
X001535Y009065D02*
X000930Y009065D01*
X000930Y009223D02*
X001535Y009223D01*
X001535Y009382D02*
X000930Y009382D01*
X000930Y009540D02*
X001656Y009540D01*
X001900Y009699D02*
X000930Y009699D01*
X000930Y009857D02*
X001900Y009857D01*
X001828Y009996D02*
X001965Y010133D01*
X002040Y010314D01*
X002040Y010508D01*
X001965Y010689D01*
X001828Y010826D01*
X001647Y010901D01*
X001453Y010901D01*
X001272Y010826D01*
X001135Y010689D01*
X001060Y010508D01*
X001060Y010314D01*
X001135Y010133D01*
X001272Y009996D01*
X001453Y009921D01*
X001647Y009921D01*
X001828Y009996D01*
X001847Y010016D02*
X001986Y010016D01*
X001982Y010174D02*
X002118Y010174D01*
X002060Y010333D02*
X002040Y010333D01*
X002040Y010491D02*
X002060Y010491D01*
X002118Y010650D02*
X001982Y010650D01*
X001846Y010808D02*
X002254Y010808D01*
X002260Y010967D02*
X001757Y010967D01*
X001957Y011125D02*
X002103Y011125D01*
X002034Y011284D02*
X002028Y011284D01*
X002002Y011601D02*
X002054Y011601D01*
X002148Y011759D02*
X001895Y011759D01*
X001828Y011996D02*
X001647Y011921D01*
X001453Y011921D01*
X001272Y011996D01*
X001135Y012133D01*
X001060Y012314D01*
X001060Y012508D01*
X001135Y012689D01*
X001272Y012826D01*
X001453Y012901D01*
X001647Y012901D01*
X001828Y012826D01*
X001965Y012689D01*
X002040Y012508D01*
X002040Y012314D01*
X001965Y012133D01*
X001828Y011996D01*
X001908Y012076D02*
X002192Y012076D01*
X002093Y012235D02*
X002007Y012235D01*
X002040Y012393D02*
X002060Y012393D01*
X002078Y012552D02*
X002022Y012552D01*
X002092Y012710D02*
X001944Y012710D01*
X001934Y012869D02*
X001726Y012869D01*
X001900Y013027D02*
X000930Y013027D01*
X000930Y012869D02*
X001374Y012869D01*
X001156Y012710D02*
X000930Y012710D01*
X000930Y012552D02*
X001078Y012552D01*
X001060Y012393D02*
X000930Y012393D01*
X000930Y012235D02*
X001093Y012235D01*
X001192Y012076D02*
X000930Y012076D01*
X000930Y011918D02*
X002394Y011918D01*
X002706Y011918D02*
X003130Y011918D01*
X003130Y012076D02*
X002908Y012076D01*
X003007Y012235D02*
X003130Y012235D01*
X003130Y012393D02*
X003040Y012393D01*
X003022Y012552D02*
X003130Y012552D01*
X003130Y012710D02*
X002944Y012710D01*
X003130Y012869D02*
X002726Y012869D01*
X003130Y013027D02*
X002313Y013027D01*
X002280Y013186D02*
X003130Y013186D01*
X003130Y013344D02*
X002386Y013344D01*
X002525Y013503D02*
X003130Y013503D01*
X003130Y013661D02*
X002525Y013661D01*
X002525Y013820D02*
X003130Y013820D01*
X003130Y013978D02*
X002406Y013978D01*
X002258Y014216D02*
X002525Y014483D01*
X002525Y014859D01*
X002258Y015126D01*
X001882Y015126D01*
X001615Y014859D01*
X001615Y014483D01*
X001882Y014216D01*
X002258Y014216D01*
X002337Y014295D02*
X003130Y014295D01*
X003130Y014137D02*
X000930Y014137D01*
X000930Y014295D02*
X001803Y014295D01*
X001644Y014454D02*
X000930Y014454D01*
X000930Y014612D02*
X001615Y014612D01*
X001615Y014771D02*
X000930Y014771D01*
X000930Y014929D02*
X001685Y014929D01*
X001843Y015088D02*
X000930Y015088D01*
X000930Y015246D02*
X002945Y015246D01*
X002865Y015326D02*
X003155Y015036D01*
X003360Y015036D01*
X003565Y015036D01*
X003855Y015326D01*
X003855Y015531D01*
X003855Y015736D01*
X003565Y016026D01*
X003360Y016026D01*
X003360Y015531D01*
X003360Y015531D01*
X003360Y016026D01*
X003155Y016026D01*
X002865Y015736D01*
X002865Y015531D01*
X003360Y015531D01*
X003855Y015531D01*
X003360Y015531D01*
X003360Y015531D01*
X003360Y015531D01*
X002865Y015531D01*
X002865Y015326D01*
X002865Y015405D02*
X000930Y015405D01*
X000930Y015563D02*
X002865Y015563D01*
X002865Y015722D02*
X000930Y015722D01*
X000930Y015880D02*
X003009Y015880D01*
X003051Y016197D02*
X000930Y016197D01*
X000930Y016039D02*
X004599Y016039D01*
X004757Y016197D02*
X003669Y016197D01*
X003815Y016356D02*
X004916Y016356D01*
X005074Y016514D02*
X004342Y016514D01*
X004500Y016673D02*
X004617Y016673D01*
X004280Y016990D02*
X003530Y016990D01*
X003530Y017148D02*
X004405Y017148D01*
X004464Y017307D02*
X003653Y017307D01*
X003760Y017465D02*
X004606Y017465D01*
X004121Y016831D02*
X003703Y016831D01*
X003150Y016990D02*
X000930Y016990D01*
X000930Y017148D02*
X003150Y017148D01*
X003107Y017307D02*
X000930Y017307D01*
X000930Y017465D02*
X003000Y017465D01*
X003000Y017624D02*
X000930Y017624D01*
X000930Y017782D02*
X003054Y017782D01*
X003212Y017941D02*
X000930Y017941D01*
X000930Y018099D02*
X005570Y018099D01*
X005570Y017941D02*
X003548Y017941D01*
X003706Y017782D02*
X005570Y017782D01*
X005570Y017624D02*
X003760Y017624D01*
X003537Y018191D02*
X003223Y018191D01*
X003000Y018414D01*
X003000Y018728D01*
X003150Y018878D01*
X003150Y019208D01*
X002915Y019443D01*
X002915Y019819D01*
X003182Y020086D01*
X003558Y020086D01*
X003825Y019819D01*
X003825Y019801D01*
X004169Y019801D01*
X004280Y019690D01*
X004556Y019414D01*
X004607Y019465D01*
X004778Y019536D01*
X004962Y019536D01*
X005133Y019465D01*
X005264Y019334D01*
X005335Y019163D01*
X005335Y018978D01*
X005264Y018808D01*
X005133Y018677D01*
X004962Y018606D01*
X004778Y018606D01*
X004607Y018677D01*
X004476Y018808D01*
X004405Y018978D01*
X004405Y019027D01*
X004011Y019421D01*
X003803Y019421D01*
X003558Y019176D01*
X003554Y019176D01*
X003530Y019152D01*
X003530Y018951D01*
X003537Y018951D01*
X003760Y018728D01*
X003760Y018414D01*
X003537Y018191D01*
X003604Y018258D02*
X005570Y018258D01*
X005570Y018416D02*
X003760Y018416D01*
X003760Y018575D02*
X005570Y018575D01*
X005570Y018733D02*
X005190Y018733D01*
X005299Y018892D02*
X005570Y018892D01*
X005442Y019050D02*
X005335Y019050D01*
X005316Y019209D02*
X005390Y019209D01*
X005390Y019367D02*
X005232Y019367D01*
X005390Y019526D02*
X004988Y019526D01*
X004752Y019526D02*
X004444Y019526D01*
X004286Y019684D02*
X005390Y019684D01*
X005390Y019843D02*
X003802Y019843D01*
X003643Y020001D02*
X005390Y020001D01*
X005390Y020160D02*
X003599Y020160D01*
X003575Y020136D02*
X003865Y020426D01*
X003865Y020631D01*
X003865Y020836D01*
X003575Y021126D01*
X003370Y021126D01*
X003370Y020631D01*
X003370Y020631D01*
X003370Y021126D01*
X003165Y021126D01*
X002875Y020836D01*
X002875Y020631D01*
X003370Y020631D01*
X003865Y020631D01*
X003370Y020631D01*
X003370Y020631D01*
X003370Y020631D01*
X002875Y020631D01*
X002875Y020426D01*
X003165Y020136D01*
X003370Y020136D01*
X003575Y020136D01*
X003370Y020136D02*
X003370Y020631D01*
X003370Y020631D01*
X003370Y020136D01*
X003370Y020160D02*
X003370Y020160D01*
X003370Y020318D02*
X003370Y020318D01*
X003370Y020477D02*
X003370Y020477D01*
X003370Y020635D02*
X003370Y020635D01*
X003370Y020794D02*
X003370Y020794D01*
X003370Y020952D02*
X003370Y020952D01*
X003370Y021111D02*
X003370Y021111D01*
X003591Y021111D02*
X004415Y021111D01*
X004415Y020952D02*
X003749Y020952D01*
X003865Y020794D02*
X004444Y020794D01*
X004603Y020635D02*
X003865Y020635D01*
X003865Y020477D02*
X005390Y020477D01*
X005390Y020635D02*
X005137Y020635D01*
X005296Y020794D02*
X005390Y020794D01*
X005390Y020952D02*
X005325Y020952D01*
X005325Y021111D02*
X005343Y021111D01*
X005110Y021428D02*
X005097Y021428D01*
X005145Y021586D02*
X005152Y021586D01*
X005304Y021745D02*
X005655Y021745D01*
X005813Y021903D02*
X005365Y021903D01*
X005365Y022062D02*
X005972Y022062D01*
X006130Y022220D02*
X005361Y022220D01*
X005203Y022379D02*
X006289Y022379D01*
X006447Y022537D02*
X000930Y022537D01*
X000930Y022379D02*
X004537Y022379D01*
X004379Y022220D02*
X000930Y022220D01*
X000930Y022062D02*
X004375Y022062D01*
X004375Y021903D02*
X000930Y021903D01*
X000930Y021745D02*
X004436Y021745D01*
X004595Y021586D02*
X000930Y021586D01*
X000930Y021428D02*
X004643Y021428D01*
X004485Y021269D02*
X000930Y021269D01*
X000930Y021111D02*
X003149Y021111D01*
X002991Y020952D02*
X000930Y020952D01*
X000930Y020794D02*
X002875Y020794D01*
X002875Y020635D02*
X000930Y020635D01*
X000930Y020477D02*
X002875Y020477D01*
X002983Y020318D02*
X000930Y020318D01*
X000930Y020160D02*
X003141Y020160D01*
X003097Y020001D02*
X000930Y020001D01*
X000930Y019843D02*
X002938Y019843D01*
X002915Y019684D02*
X000930Y019684D01*
X000930Y019526D02*
X002915Y019526D01*
X002991Y019367D02*
X000930Y019367D01*
X000930Y019209D02*
X003149Y019209D01*
X003150Y019050D02*
X000930Y019050D01*
X000930Y018892D02*
X003150Y018892D01*
X003005Y018733D02*
X000930Y018733D01*
X000930Y018575D02*
X003000Y018575D01*
X003000Y018416D02*
X000930Y018416D01*
X000930Y018258D02*
X003156Y018258D01*
X003597Y018892D02*
X004441Y018892D01*
X004382Y019050D02*
X003530Y019050D01*
X003591Y019209D02*
X004224Y019209D01*
X004065Y019367D02*
X003749Y019367D01*
X003755Y018733D02*
X004550Y018733D01*
X005134Y017465D02*
X005570Y017465D01*
X005570Y017307D02*
X005276Y017307D01*
X005335Y017148D02*
X005570Y017148D01*
X005570Y016990D02*
X005335Y016990D01*
X005295Y016197D02*
X005570Y016197D01*
X005570Y016039D02*
X005136Y016039D01*
X004978Y015880D02*
X005570Y015880D01*
X005570Y015722D02*
X004819Y015722D01*
X004661Y015563D02*
X005570Y015563D01*
X005570Y015405D02*
X004502Y015405D01*
X004344Y015246D02*
X005570Y015246D01*
X005570Y015088D02*
X004185Y015088D01*
X004027Y014929D02*
X005570Y014929D01*
X005570Y014771D02*
X003868Y014771D01*
X003710Y014612D02*
X005570Y014612D01*
X005570Y014454D02*
X003551Y014454D01*
X003510Y014295D02*
X004687Y014295D01*
X004793Y014401D02*
X004570Y014178D01*
X004570Y013864D01*
X004587Y013847D01*
X004124Y013384D01*
X004107Y013401D01*
X003793Y013401D01*
X003570Y013178D01*
X003570Y012864D01*
X003793Y012641D01*
X004107Y012641D01*
X004330Y012864D01*
X004330Y012932D01*
X004340Y012942D01*
X004340Y013062D01*
X004919Y013641D01*
X005107Y013641D01*
X005330Y013864D01*
X005330Y014178D01*
X005107Y014401D01*
X004793Y014401D01*
X004570Y014137D02*
X003510Y014137D01*
X003510Y013978D02*
X004570Y013978D01*
X004560Y013820D02*
X003510Y013820D01*
X003510Y013661D02*
X004401Y013661D01*
X004243Y013503D02*
X003510Y013503D01*
X003510Y013344D02*
X003736Y013344D01*
X003577Y013186D02*
X003510Y013186D01*
X003510Y013027D02*
X003570Y013027D01*
X003570Y012869D02*
X003510Y012869D01*
X003510Y012710D02*
X003724Y012710D01*
X003510Y012552D02*
X005570Y012552D01*
X005570Y012710D02*
X004176Y012710D01*
X004330Y012869D02*
X005570Y012869D01*
X005570Y013027D02*
X004340Y013027D01*
X004463Y013186D02*
X005570Y013186D01*
X005570Y013344D02*
X004622Y013344D01*
X004780Y013503D02*
X005570Y013503D01*
X005570Y013661D02*
X005127Y013661D01*
X005286Y013820D02*
X005570Y013820D01*
X005570Y013978D02*
X005330Y013978D01*
X005330Y014137D02*
X005570Y014137D01*
X005570Y014295D02*
X005213Y014295D01*
X006130Y014295D02*
X008680Y014295D01*
X008680Y014362D02*
X008680Y013520D01*
X008029Y012869D01*
X007903Y012921D01*
X007717Y012921D01*
X007544Y012849D01*
X007412Y012717D01*
X007340Y012544D01*
X007340Y012358D01*
X007412Y012185D01*
X007544Y012053D01*
X007717Y011981D01*
X007903Y011981D01*
X008076Y012053D01*
X008208Y012185D01*
X008280Y012358D01*
X008280Y012544D01*
X008269Y012571D01*
X009060Y013362D01*
X009060Y014520D01*
X008990Y014590D01*
X008990Y015562D01*
X009879Y016451D01*
X009994Y016451D01*
X010111Y016500D01*
X010201Y016590D01*
X010250Y016707D01*
X010250Y016781D01*
X010583Y016781D01*
X010583Y016718D01*
X010569Y016712D01*
X010479Y016622D01*
X010430Y016505D01*
X010430Y016377D01*
X010464Y016296D01*
X010071Y016296D01*
X009945Y016170D01*
X009466Y015691D01*
X009334Y015691D01*
X009195Y015633D01*
X009088Y015526D01*
X009030Y015387D01*
X009030Y014755D01*
X009088Y014616D01*
X009195Y014509D01*
X009195Y014262D01*
X009435Y014022D01*
X009435Y013866D01*
X009422Y013866D01*
X009155Y013599D01*
X009155Y013320D01*
X008665Y012830D01*
X008665Y012260D01*
X007669Y011264D01*
X007666Y011264D01*
X007625Y011221D01*
X007403Y011221D01*
X007180Y010998D01*
X007180Y010684D01*
X007284Y010579D01*
X006880Y010175D01*
X006880Y011980D01*
X006769Y012091D01*
X006130Y012730D01*
X006130Y014472D01*
X006200Y014542D01*
X006200Y014691D01*
X006708Y014691D01*
X006790Y014773D01*
X006790Y015369D01*
X006763Y015396D01*
X006929Y015561D01*
X007040Y015672D01*
X007040Y016911D01*
X009642Y016911D01*
X009610Y016835D01*
X009610Y016720D01*
X008721Y015831D01*
X008610Y015720D01*
X008610Y015639D01*
X008486Y015691D01*
X008334Y015691D01*
X008195Y015633D01*
X008088Y015526D01*
X008030Y015387D01*
X008030Y014755D01*
X008088Y014616D01*
X008195Y014509D01*
X008334Y014451D01*
X008486Y014451D01*
X008610Y014503D01*
X008610Y014432D01*
X008680Y014362D01*
X008610Y014454D02*
X008492Y014454D01*
X008328Y014454D02*
X007492Y014454D01*
X007486Y014451D02*
X007625Y014509D01*
X007732Y014616D01*
X007790Y014755D01*
X007790Y015387D01*
X007732Y015526D01*
X007625Y015633D01*
X007486Y015691D01*
X007334Y015691D01*
X007195Y015633D01*
X007088Y015526D01*
X007030Y015387D01*
X007030Y014755D01*
X007088Y014616D01*
X007195Y014509D01*
X007334Y014451D01*
X007486Y014451D01*
X007328Y014454D02*
X006130Y014454D01*
X006200Y014612D02*
X007092Y014612D01*
X007030Y014771D02*
X006788Y014771D01*
X006790Y014929D02*
X007030Y014929D01*
X007030Y015088D02*
X006790Y015088D01*
X006790Y015246D02*
X007030Y015246D01*
X007037Y015405D02*
X006772Y015405D01*
X006929Y015561D02*
X006929Y015561D01*
X006931Y015563D02*
X007125Y015563D01*
X007040Y015722D02*
X008612Y015722D01*
X008770Y015880D02*
X007040Y015880D01*
X007040Y016039D02*
X008929Y016039D01*
X009087Y016197D02*
X007040Y016197D01*
X007040Y016356D02*
X009246Y016356D01*
X009404Y016514D02*
X007040Y016514D01*
X007040Y016673D02*
X009563Y016673D01*
X009610Y016831D02*
X007040Y016831D01*
X006820Y017291D02*
X006820Y020052D01*
X007210Y020442D01*
X007210Y020503D01*
X007334Y020451D01*
X007486Y020451D01*
X007511Y020461D01*
X007660Y020312D01*
X007660Y018572D01*
X007771Y018461D01*
X010739Y018461D01*
X010746Y018468D01*
X010779Y018390D01*
X010835Y018333D01*
X010835Y017828D01*
X010834Y017827D01*
X010835Y017740D01*
X010835Y017652D01*
X010836Y017651D01*
X010836Y017649D01*
X010899Y017588D01*
X010961Y017526D01*
X010963Y017526D01*
X011205Y017290D01*
X011205Y017257D01*
X011176Y017257D01*
X011166Y017247D01*
X011156Y017257D01*
X010920Y017257D01*
X010910Y017247D01*
X010901Y017257D01*
X010665Y017257D01*
X010583Y017175D01*
X010583Y017161D01*
X010279Y017161D01*
X010260Y017180D01*
X010149Y017291D01*
X006820Y017291D01*
X006820Y017307D02*
X011188Y017307D01*
X011025Y017465D02*
X006820Y017465D01*
X006820Y017624D02*
X010862Y017624D01*
X010834Y017782D02*
X006820Y017782D01*
X006820Y017941D02*
X010835Y017941D01*
X010835Y018099D02*
X006820Y018099D01*
X006820Y018258D02*
X010835Y018258D01*
X010768Y018416D02*
X006820Y018416D01*
X006820Y018575D02*
X007660Y018575D01*
X007660Y018733D02*
X006820Y018733D01*
X006820Y018892D02*
X007660Y018892D01*
X007660Y019050D02*
X006820Y019050D01*
X006820Y019209D02*
X007660Y019209D01*
X007660Y019367D02*
X006820Y019367D01*
X006820Y019526D02*
X007660Y019526D01*
X007660Y019684D02*
X006820Y019684D01*
X006820Y019843D02*
X007660Y019843D01*
X007660Y020001D02*
X006820Y020001D01*
X006927Y020160D02*
X007660Y020160D01*
X007654Y020318D02*
X007086Y020318D01*
X007210Y020477D02*
X007273Y020477D01*
X007780Y020730D02*
X007790Y020755D01*
X007790Y021387D01*
X007732Y021526D01*
X007625Y021633D01*
X007486Y021691D01*
X007334Y021691D01*
X007210Y021639D01*
X007210Y021851D01*
X008660Y021851D01*
X008660Y021830D01*
X008511Y021681D01*
X008486Y021691D01*
X008334Y021691D01*
X008195Y021633D01*
X008088Y021526D01*
X008030Y021387D01*
X008030Y020755D01*
X008088Y020616D01*
X008195Y020509D01*
X008334Y020451D01*
X008486Y020451D01*
X008511Y020461D01*
X008660Y020312D01*
X008660Y019902D01*
X008771Y019791D01*
X010641Y019791D01*
X010878Y019555D01*
X010665Y019555D01*
X010608Y019498D01*
X010504Y019541D01*
X010376Y019541D01*
X010259Y019492D01*
X010169Y019402D01*
X010120Y019285D01*
X010120Y019157D01*
X010169Y019040D01*
X010259Y018950D01*
X010376Y018901D01*
X010504Y018901D01*
X010606Y018943D01*
X010645Y018904D01*
X010581Y018841D01*
X008040Y018841D01*
X008040Y020470D01*
X007780Y020730D01*
X007790Y020794D02*
X008030Y020794D01*
X008030Y020952D02*
X007790Y020952D01*
X007790Y021111D02*
X008030Y021111D01*
X008030Y021269D02*
X007790Y021269D01*
X007773Y021428D02*
X008047Y021428D01*
X008148Y021586D02*
X007672Y021586D01*
X007210Y021745D02*
X008575Y021745D01*
X008080Y020635D02*
X007875Y020635D01*
X008033Y020477D02*
X008273Y020477D01*
X008040Y020318D02*
X008654Y020318D01*
X008660Y020160D02*
X008040Y020160D01*
X008040Y020001D02*
X008660Y020001D01*
X008720Y019843D02*
X008040Y019843D01*
X008040Y019684D02*
X010748Y019684D01*
X010635Y019526D02*
X010541Y019526D01*
X010339Y019526D02*
X008040Y019526D01*
X008040Y019367D02*
X010154Y019367D01*
X010120Y019209D02*
X008040Y019209D01*
X008040Y019050D02*
X010164Y019050D01*
X010632Y018892D02*
X008040Y018892D01*
X009783Y016356D02*
X010439Y016356D01*
X010434Y016514D02*
X010126Y016514D01*
X010236Y016673D02*
X010529Y016673D01*
X009972Y016197D02*
X009625Y016197D01*
X009466Y016039D02*
X009813Y016039D01*
X009655Y015880D02*
X009308Y015880D01*
X009149Y015722D02*
X009496Y015722D01*
X009125Y015563D02*
X008991Y015563D01*
X008990Y015405D02*
X009037Y015405D01*
X009030Y015246D02*
X008990Y015246D01*
X008990Y015088D02*
X009030Y015088D01*
X009030Y014929D02*
X008990Y014929D01*
X008990Y014771D02*
X009030Y014771D01*
X008990Y014612D02*
X009092Y014612D01*
X009195Y014509D02*
X009195Y014509D01*
X009195Y014454D02*
X009060Y014454D01*
X009060Y014295D02*
X009195Y014295D01*
X009320Y014137D02*
X009060Y014137D01*
X009060Y013978D02*
X009435Y013978D01*
X009375Y013820D02*
X009060Y013820D01*
X009060Y013661D02*
X009217Y013661D01*
X009155Y013503D02*
X009060Y013503D01*
X009042Y013344D02*
X009155Y013344D01*
X009020Y013186D02*
X008883Y013186D01*
X008862Y013027D02*
X008725Y013027D01*
X008703Y012869D02*
X008566Y012869D01*
X008665Y012710D02*
X008408Y012710D01*
X008277Y012552D02*
X008665Y012552D01*
X008665Y012393D02*
X008280Y012393D01*
X008229Y012235D02*
X008639Y012235D01*
X008481Y012076D02*
X008100Y012076D01*
X008322Y011918D02*
X006880Y011918D01*
X006880Y011759D02*
X008164Y011759D01*
X008005Y011601D02*
X006880Y011601D01*
X006880Y011442D02*
X007847Y011442D01*
X007688Y011284D02*
X006880Y011284D01*
X006880Y011125D02*
X007307Y011125D01*
X007180Y010967D02*
X006880Y010967D01*
X006880Y010808D02*
X007180Y010808D01*
X007214Y010650D02*
X006880Y010650D01*
X006880Y010491D02*
X007196Y010491D01*
X007037Y010333D02*
X006880Y010333D01*
X006500Y010333D02*
X004730Y010333D01*
X004889Y010491D02*
X006500Y010491D01*
X006500Y010650D02*
X005236Y010650D01*
X005310Y010808D02*
X006500Y010808D01*
X006132Y010967D02*
X005310Y010967D01*
X005333Y011125D02*
X006041Y011125D01*
X006052Y011284D02*
X005491Y011284D01*
X005650Y011442D02*
X006158Y011442D01*
X006170Y011601D02*
X005808Y011601D01*
X005580Y011918D02*
X005330Y011918D01*
X005330Y011864D02*
X005107Y011641D01*
X004793Y011641D01*
X004570Y011864D01*
X004570Y012178D01*
X004793Y012401D01*
X005107Y012401D01*
X005330Y012178D01*
X005330Y011864D01*
X005429Y011759D02*
X005225Y011759D01*
X005271Y011601D02*
X003510Y011601D01*
X003510Y011759D02*
X004675Y011759D01*
X004570Y011918D02*
X003510Y011918D01*
X003510Y012076D02*
X004570Y012076D01*
X004626Y012235D02*
X003510Y012235D01*
X003510Y012393D02*
X004785Y012393D01*
X005115Y012393D02*
X005669Y012393D01*
X005724Y012235D02*
X005274Y012235D01*
X005330Y012076D02*
X005601Y012076D01*
X006151Y011759D02*
X006170Y011759D01*
X006625Y012235D02*
X007391Y012235D01*
X007340Y012393D02*
X006467Y012393D01*
X006308Y012552D02*
X007343Y012552D01*
X007409Y012710D02*
X006150Y012710D01*
X006130Y012869D02*
X007590Y012869D01*
X007717Y012941D02*
X007544Y013013D01*
X007412Y013145D01*
X007340Y013318D01*
X007340Y013504D01*
X007412Y013677D01*
X007544Y013809D01*
X007717Y013881D01*
X007903Y013881D01*
X008076Y013809D01*
X008208Y013677D01*
X008280Y013504D01*
X008280Y013318D01*
X008208Y013145D01*
X008076Y013013D01*
X007903Y012941D01*
X007717Y012941D01*
X007529Y013027D02*
X006130Y013027D01*
X006130Y013186D02*
X007395Y013186D01*
X007340Y013344D02*
X006130Y013344D01*
X006130Y013503D02*
X007340Y013503D01*
X007405Y013661D02*
X006130Y013661D01*
X006130Y013820D02*
X007568Y013820D01*
X008052Y013820D02*
X008680Y013820D01*
X008680Y013978D02*
X006130Y013978D01*
X006130Y014137D02*
X008680Y014137D01*
X008680Y013661D02*
X008215Y013661D01*
X008280Y013503D02*
X008663Y013503D01*
X008504Y013344D02*
X008280Y013344D01*
X008225Y013186D02*
X008346Y013186D01*
X008187Y013027D02*
X008091Y013027D01*
X007520Y012076D02*
X006784Y012076D01*
X007980Y010967D02*
X008180Y010967D01*
X008180Y010808D02*
X007940Y010808D01*
X007906Y010650D02*
X008214Y010650D01*
X008138Y011125D02*
X008307Y011125D01*
X008297Y011284D02*
X009950Y011284D01*
X009950Y011388D02*
X009950Y011074D01*
X010173Y010851D01*
X010487Y010851D01*
X010710Y011074D01*
X010710Y011388D01*
X010487Y011611D01*
X010173Y011611D01*
X009950Y011388D01*
X010004Y011442D02*
X008455Y011442D01*
X008614Y011601D02*
X010162Y011601D01*
X010498Y011601D02*
X011366Y011601D01*
X011416Y011651D02*
X011170Y011405D01*
X011170Y011231D01*
X011590Y011231D01*
X011590Y011231D01*
X011590Y011651D01*
X011764Y011651D01*
X012010Y011405D01*
X012010Y011231D01*
X011590Y011231D01*
X011590Y011651D01*
X011416Y011651D01*
X011590Y011601D02*
X011590Y011601D01*
X011590Y011442D02*
X011590Y011442D01*
X011590Y011284D02*
X011590Y011284D01*
X011590Y011231D02*
X011590Y011231D01*
X011590Y011231D01*
X012010Y011231D01*
X012010Y011057D01*
X011764Y010811D01*
X011590Y010811D01*
X011590Y011231D01*
X011170Y011231D01*
X011170Y011057D01*
X011416Y010811D01*
X011590Y010811D01*
X011590Y011231D01*
X011590Y011231D01*
X011590Y011125D02*
X011590Y011125D01*
X011590Y010967D02*
X011590Y010967D01*
X011261Y010967D02*
X010603Y010967D01*
X010710Y011125D02*
X011170Y011125D01*
X011170Y011284D02*
X010710Y011284D01*
X010656Y011442D02*
X011207Y011442D01*
X011814Y011601D02*
X012586Y011601D01*
X012656Y011671D02*
X012410Y011425D01*
X012410Y011251D01*
X012830Y011251D01*
X012830Y011251D01*
X012830Y011671D01*
X013004Y011671D01*
X013250Y011425D01*
X013250Y011251D01*
X012830Y011251D01*
X012830Y011671D01*
X012656Y011671D01*
X012830Y011601D02*
X012830Y011601D01*
X012830Y011442D02*
X012830Y011442D01*
X012830Y011284D02*
X012830Y011284D01*
X012830Y011251D02*
X012830Y011251D01*
X012830Y011251D01*
X013250Y011251D01*
X013250Y011077D01*
X013004Y010831D01*
X012830Y010831D01*
X012830Y011251D01*
X012410Y011251D01*
X012410Y011077D01*
X012656Y010831D01*
X012830Y010831D01*
X012830Y011251D01*
X012830Y011251D01*
X012830Y011125D02*
X012830Y011125D01*
X012830Y010967D02*
X012830Y010967D01*
X012521Y010967D02*
X011919Y010967D01*
X012010Y011125D02*
X012410Y011125D01*
X012410Y011284D02*
X012010Y011284D01*
X011973Y011442D02*
X012427Y011442D01*
X013074Y011601D02*
X013982Y011601D01*
X014013Y011631D02*
X013790Y011408D01*
X013790Y011094D01*
X014013Y010871D01*
X014221Y010871D01*
X014730Y010362D01*
X014730Y009832D01*
X014911Y009651D01*
X014910Y009650D01*
X014910Y009252D01*
X014911Y009251D01*
X014780Y009120D01*
X014780Y009000D01*
X014490Y008710D01*
X014490Y008680D01*
X014356Y008546D01*
X013982Y008546D01*
X013715Y008279D01*
X013715Y007903D01*
X013982Y007636D01*
X014358Y007636D01*
X014625Y007903D01*
X014625Y008277D01*
X014759Y008411D01*
X014870Y008522D01*
X014870Y008552D01*
X014910Y008592D01*
X014910Y008252D01*
X015191Y007971D01*
X015589Y007971D01*
X015870Y008252D01*
X015870Y008650D01*
X015589Y008931D01*
X015191Y008931D01*
X015160Y008900D01*
X015160Y008962D01*
X015180Y008982D01*
X015191Y008971D01*
X015589Y008971D01*
X015870Y009252D01*
X015870Y009650D01*
X015589Y009931D01*
X015191Y009931D01*
X015180Y009920D01*
X015110Y009990D01*
X015110Y010052D01*
X015191Y009971D01*
X015589Y009971D01*
X015870Y010252D01*
X015870Y010650D01*
X015589Y010931D01*
X015191Y010931D01*
X014945Y010685D01*
X014560Y011070D01*
X014560Y011130D01*
X014550Y011140D01*
X014550Y011408D01*
X014327Y011631D01*
X014013Y011631D01*
X013824Y011442D02*
X013233Y011442D01*
X013250Y011284D02*
X013790Y011284D01*
X013790Y011125D02*
X013250Y011125D01*
X013139Y010967D02*
X013917Y010967D01*
X014013Y010631D02*
X013790Y010408D01*
X013790Y010094D01*
X013940Y009944D01*
X013940Y009662D01*
X014000Y009602D01*
X014000Y009546D01*
X013982Y009546D01*
X013715Y009279D01*
X013715Y008903D01*
X013982Y008636D01*
X014358Y008636D01*
X014625Y008903D01*
X014625Y009279D01*
X014380Y009524D01*
X014380Y009760D01*
X014320Y009820D01*
X014320Y009871D01*
X014327Y009871D01*
X014550Y010094D01*
X014550Y010408D01*
X014327Y010631D01*
X014013Y010631D01*
X013873Y010491D02*
X013127Y010491D01*
X013210Y010333D02*
X013790Y010333D01*
X013790Y010174D02*
X013210Y010174D01*
X013132Y010016D02*
X013868Y010016D01*
X013940Y009857D02*
X012715Y009857D01*
X012576Y009699D02*
X013940Y009699D01*
X013976Y009540D02*
X013061Y009540D01*
X013035Y009566D02*
X012830Y009566D01*
X012830Y009071D01*
X012830Y009071D01*
X012830Y009566D01*
X012625Y009566D01*
X012335Y009276D01*
X012335Y009071D01*
X012830Y009071D01*
X013325Y009071D01*
X013325Y009276D01*
X013035Y009566D01*
X012830Y009540D02*
X012830Y009540D01*
X012830Y009382D02*
X012830Y009382D01*
X012830Y009223D02*
X012830Y009223D01*
X012830Y009071D02*
X012830Y009071D01*
X012830Y009071D01*
X013325Y009071D01*
X013325Y008866D01*
X013035Y008576D01*
X012830Y008576D01*
X012830Y009071D01*
X012335Y009071D01*
X012335Y008866D01*
X012625Y008576D01*
X012830Y008576D01*
X012830Y009071D01*
X012830Y009071D01*
X012830Y009065D02*
X012830Y009065D01*
X012830Y008906D02*
X012830Y008906D01*
X012830Y008748D02*
X012830Y008748D01*
X012830Y008589D02*
X012830Y008589D01*
X013048Y008589D02*
X014399Y008589D01*
X014470Y008748D02*
X014528Y008748D01*
X014625Y008906D02*
X014686Y008906D01*
X014625Y009065D02*
X014780Y009065D01*
X014883Y009223D02*
X014625Y009223D01*
X014523Y009382D02*
X014910Y009382D01*
X014910Y009540D02*
X014380Y009540D01*
X014380Y009699D02*
X014864Y009699D01*
X014730Y009857D02*
X014320Y009857D01*
X014472Y010016D02*
X014730Y010016D01*
X014730Y010174D02*
X014550Y010174D01*
X014550Y010333D02*
X014730Y010333D01*
X014601Y010491D02*
X014467Y010491D01*
X014443Y010650D02*
X009260Y010650D01*
X009102Y010808D02*
X014284Y010808D01*
X014560Y011125D02*
X017470Y011125D01*
X017470Y010967D02*
X014663Y010967D01*
X014822Y010808D02*
X015068Y010808D01*
X015712Y010808D02*
X017470Y010808D01*
X017470Y010650D02*
X015870Y010650D01*
X015870Y010491D02*
X017470Y010491D01*
X017470Y010333D02*
X015870Y010333D01*
X015792Y010174D02*
X017470Y010174D01*
X017517Y010016D02*
X015633Y010016D01*
X015663Y009857D02*
X017675Y009857D01*
X017834Y009699D02*
X015821Y009699D01*
X015870Y009540D02*
X017910Y009540D01*
X017910Y009382D02*
X015870Y009382D01*
X015841Y009223D02*
X017939Y009223D01*
X018098Y009065D02*
X015682Y009065D01*
X015614Y008906D02*
X018166Y008906D01*
X018008Y008748D02*
X015772Y008748D01*
X015870Y008589D02*
X017379Y008589D01*
X017221Y008431D02*
X015870Y008431D01*
X015870Y008272D02*
X017062Y008272D01*
X016904Y008114D02*
X015731Y008114D01*
X015723Y007796D02*
X016587Y007796D01*
X016428Y007638D02*
X015870Y007638D01*
X015870Y007479D02*
X016270Y007479D01*
X016111Y007321D02*
X015870Y007321D01*
X015953Y007162D02*
X015780Y007162D01*
X015794Y007004D02*
X015622Y007004D01*
X015385Y006687D02*
X015284Y006687D01*
X015410Y006662D02*
X015410Y006662D01*
X015400Y006528D02*
X015579Y006528D01*
X015530Y006370D02*
X015436Y006370D01*
X015413Y006211D02*
X015530Y006211D01*
X015383Y006053D02*
X015322Y006053D01*
X015604Y005736D02*
X016105Y005736D01*
X016225Y005616D02*
X016430Y005616D01*
X016635Y005616D01*
X016925Y005906D01*
X016925Y006111D01*
X016925Y006316D01*
X016635Y006606D01*
X016430Y006606D01*
X016225Y006606D01*
X015935Y006316D01*
X015935Y006111D01*
X016430Y006111D01*
X016430Y006111D01*
X016430Y006606D01*
X016430Y006111D01*
X016925Y006111D01*
X016430Y006111D01*
X016430Y006111D01*
X016430Y006111D01*
X015935Y006111D01*
X015935Y005906D01*
X016225Y005616D01*
X016430Y005616D02*
X016430Y006111D01*
X016430Y005616D01*
X016430Y005736D02*
X016430Y005736D01*
X016430Y005894D02*
X016430Y005894D01*
X016430Y006053D02*
X016430Y006053D01*
X016430Y006111D02*
X016430Y006111D01*
X016430Y006211D02*
X016430Y006211D01*
X016430Y006370D02*
X016430Y006370D01*
X016430Y006528D02*
X016430Y006528D01*
X016275Y006687D02*
X020255Y006687D01*
X020255Y006845D02*
X016433Y006845D01*
X016592Y007004D02*
X018158Y007004D01*
X018000Y007162D02*
X016750Y007162D01*
X016966Y007638D02*
X017910Y007638D01*
X018057Y007796D02*
X017124Y007796D01*
X017283Y007955D02*
X020255Y007955D01*
X020255Y008114D02*
X019876Y008114D01*
X020025Y008272D02*
X020255Y008272D01*
X020255Y008431D02*
X020025Y008431D01*
X020025Y008589D02*
X020255Y008589D01*
X020255Y008748D02*
X019917Y008748D01*
X019767Y009071D02*
X019990Y009294D01*
X019990Y009608D01*
X019767Y009831D01*
X019453Y009831D01*
X019230Y009608D01*
X019230Y009294D01*
X019453Y009071D01*
X019767Y009071D01*
X019919Y009223D02*
X020255Y009223D01*
X020255Y009065D02*
X019355Y009065D01*
X019301Y009223D02*
X019197Y009223D01*
X019230Y009382D02*
X019070Y009382D01*
X019070Y009540D02*
X019230Y009540D01*
X019186Y009699D02*
X019320Y009699D01*
X019345Y009857D02*
X020255Y009857D01*
X020255Y009699D02*
X019900Y009699D01*
X019990Y009540D02*
X020255Y009540D01*
X020255Y009382D02*
X019990Y009382D01*
X020255Y008906D02*
X019514Y008906D01*
X019135Y008748D02*
X018975Y008748D01*
X018870Y008589D02*
X019115Y008589D01*
X019115Y008431D02*
X018870Y008431D01*
X018870Y008272D02*
X019115Y008272D01*
X019264Y008114D02*
X018731Y008114D01*
X018723Y007796D02*
X019272Y007796D01*
X019382Y007906D02*
X019115Y007639D01*
X019115Y007263D01*
X019382Y006996D01*
X019758Y006996D01*
X020025Y007263D01*
X020025Y007639D01*
X019758Y007906D01*
X019382Y007906D01*
X019115Y007638D02*
X018870Y007638D01*
X018870Y007479D02*
X019115Y007479D01*
X019115Y007321D02*
X018870Y007321D01*
X018780Y007162D02*
X019215Y007162D01*
X019374Y007004D02*
X018622Y007004D01*
X017885Y006299D02*
X017618Y006566D01*
X017242Y006566D01*
X016975Y006299D01*
X016975Y005923D01*
X017242Y005656D01*
X017618Y005656D01*
X017885Y005923D01*
X017885Y006299D01*
X017885Y006211D02*
X020255Y006211D01*
X020255Y006053D02*
X017885Y006053D01*
X017857Y005894D02*
X020255Y005894D01*
X020255Y005736D02*
X017698Y005736D01*
X017162Y005736D02*
X016755Y005736D01*
X016914Y005894D02*
X017003Y005894D01*
X016975Y006053D02*
X016925Y006053D01*
X016925Y006211D02*
X016975Y006211D01*
X017046Y006370D02*
X016871Y006370D01*
X016713Y006528D02*
X017204Y006528D01*
X017656Y006528D02*
X020255Y006528D01*
X020255Y006370D02*
X017814Y006370D01*
X017994Y005102D02*
X018506Y005102D01*
X018321Y004943D02*
X018179Y004943D01*
X018247Y004785D02*
X018253Y004785D01*
X018994Y005102D02*
X019506Y005102D01*
X019321Y004943D02*
X019179Y004943D01*
X019247Y004785D02*
X019253Y004785D01*
X019994Y005102D02*
X020255Y005102D01*
X020255Y005260D02*
X010174Y005260D01*
X010025Y005102D02*
X010435Y005102D01*
X010283Y004943D02*
X010179Y004943D01*
X010730Y004943D02*
X010770Y004943D01*
X010770Y004785D02*
X010730Y004785D01*
X010770Y004671D02*
X011730Y004671D01*
X011730Y004631D01*
X011200Y004631D01*
X010770Y004631D01*
X010770Y004671D01*
X010770Y005102D02*
X010730Y005102D01*
X011065Y005102D02*
X011435Y005102D01*
X011283Y004943D02*
X011217Y004943D01*
X011730Y004943D02*
X011770Y004943D01*
X011770Y004785D02*
X011730Y004785D01*
X011730Y005102D02*
X011770Y005102D01*
X012065Y005102D02*
X012506Y005102D01*
X012321Y004943D02*
X012217Y004943D01*
X012994Y005102D02*
X014506Y005102D01*
X014321Y004943D02*
X013179Y004943D01*
X013247Y004785D02*
X014253Y004785D01*
X014240Y004626D02*
X013260Y004626D01*
X013226Y004468D02*
X014274Y004468D01*
X014994Y005102D02*
X015506Y005102D01*
X015321Y004943D02*
X015179Y004943D01*
X015247Y004785D02*
X015253Y004785D01*
X015471Y005419D02*
X020255Y005419D01*
X020255Y005577D02*
X015560Y005577D01*
X015762Y005894D02*
X015946Y005894D01*
X015935Y006053D02*
X015910Y006053D01*
X015910Y006211D02*
X015935Y006211D01*
X015958Y006370D02*
X015989Y006370D01*
X016116Y006528D02*
X016147Y006528D01*
X015057Y007796D02*
X014519Y007796D01*
X014625Y007955D02*
X016745Y007955D01*
X017441Y008114D02*
X018049Y008114D01*
X018682Y009065D02*
X018755Y009065D01*
X018807Y009857D02*
X018663Y009857D01*
X018605Y009931D02*
X018910Y010236D01*
X018910Y010451D01*
X018910Y010666D01*
X018605Y010971D01*
X018390Y010971D01*
X018175Y010971D01*
X017870Y010666D01*
X017870Y010451D01*
X018390Y010451D01*
X018390Y010451D01*
X018390Y010971D01*
X018390Y010451D01*
X018910Y010451D01*
X018390Y010451D01*
X018390Y010451D01*
X018390Y010451D01*
X017870Y010451D01*
X017870Y010236D01*
X018175Y009931D01*
X018390Y009931D01*
X018605Y009931D01*
X018690Y010016D02*
X018966Y010016D01*
X018848Y010174D02*
X019124Y010174D01*
X019223Y010333D02*
X018910Y010333D01*
X018910Y010491D02*
X019230Y010491D01*
X019271Y010650D02*
X018910Y010650D01*
X018768Y010808D02*
X019430Y010808D01*
X019790Y010808D02*
X020255Y010808D01*
X020255Y010650D02*
X019949Y010650D01*
X019990Y010491D02*
X020255Y010491D01*
X020255Y010333D02*
X019990Y010333D01*
X019870Y010174D02*
X020255Y010174D01*
X020255Y010016D02*
X019503Y010016D01*
X020255Y010967D02*
X018610Y010967D01*
X018390Y010967D02*
X018390Y010967D01*
X018390Y010808D02*
X018390Y010808D01*
X018390Y010650D02*
X018390Y010650D01*
X018390Y010491D02*
X018390Y010491D01*
X018390Y010451D02*
X018390Y009931D01*
X018390Y010451D01*
X018390Y010451D01*
X018390Y010333D02*
X018390Y010333D01*
X018390Y010174D02*
X018390Y010174D01*
X018390Y010016D02*
X018390Y010016D01*
X018090Y010016D02*
X018054Y010016D01*
X017932Y010174D02*
X017896Y010174D01*
X017870Y010333D02*
X017850Y010333D01*
X017850Y010491D02*
X017870Y010491D01*
X017870Y010650D02*
X017850Y010650D01*
X017850Y010808D02*
X018012Y010808D01*
X018170Y010967D02*
X017850Y010967D01*
X017850Y011125D02*
X020255Y011125D01*
X020255Y011284D02*
X017850Y011284D01*
X017850Y011442D02*
X020255Y011442D01*
X020255Y011601D02*
X017968Y011601D01*
X018127Y011759D02*
X020255Y011759D01*
X020255Y011918D02*
X018285Y011918D01*
X018065Y012235D02*
X017791Y012235D01*
X017850Y012393D02*
X018110Y012393D01*
X018110Y012552D02*
X017850Y012552D01*
X017748Y012710D02*
X018212Y012710D01*
X018333Y013071D02*
X018647Y013071D01*
X018870Y013294D01*
X018870Y013608D01*
X018647Y013831D01*
X018333Y013831D01*
X018110Y013608D01*
X018110Y013294D01*
X018333Y013071D01*
X018218Y013186D02*
X017742Y013186D01*
X017850Y013294D02*
X017627Y013071D01*
X017313Y013071D01*
X017090Y013294D01*
X017090Y013608D01*
X017313Y013831D01*
X017627Y013831D01*
X017850Y013608D01*
X017850Y013294D01*
X017850Y013344D02*
X018110Y013344D01*
X018110Y013503D02*
X017850Y013503D01*
X017797Y013661D02*
X018163Y013661D01*
X018321Y013820D02*
X017639Y013820D01*
X017301Y013820D02*
X016599Y013820D01*
X016587Y013831D02*
X016580Y013831D01*
X016580Y013902D01*
X016610Y013932D01*
X016610Y014503D01*
X016625Y014509D01*
X016732Y014616D01*
X016790Y014755D01*
X016790Y015387D01*
X016732Y015526D01*
X016625Y015633D01*
X016486Y015691D01*
X016334Y015691D01*
X016195Y015633D01*
X016088Y015526D01*
X016030Y015387D01*
X016030Y014755D01*
X016088Y014616D01*
X016195Y014509D01*
X016230Y014494D01*
X016230Y014090D01*
X016200Y014060D01*
X016200Y013758D01*
X016050Y013608D01*
X016050Y013294D01*
X016273Y013071D01*
X016587Y013071D01*
X016810Y013294D01*
X016810Y013608D01*
X016587Y013831D01*
X016610Y013978D02*
X019210Y013978D01*
X019210Y014040D02*
X019210Y013758D01*
X019060Y013608D01*
X019060Y013294D01*
X019283Y013071D01*
X019597Y013071D01*
X019820Y013294D01*
X019820Y013608D01*
X019630Y013798D01*
X019630Y013820D01*
X019590Y013860D01*
X019590Y013882D01*
X019770Y014062D01*
X019770Y014696D01*
X019858Y014696D01*
X020125Y014963D01*
X020125Y015339D01*
X019858Y015606D01*
X019482Y015606D01*
X019215Y015339D01*
X019215Y014963D01*
X019390Y014788D01*
X019390Y014220D01*
X019321Y014151D01*
X019210Y014040D01*
X019307Y014137D02*
X016610Y014137D01*
X016610Y014295D02*
X019390Y014295D01*
X019390Y014454D02*
X017594Y014454D01*
X017571Y014442D02*
X017630Y014472D01*
X017684Y014511D01*
X017730Y014557D01*
X017769Y014611D01*
X017799Y014670D01*
X017820Y014733D01*
X017830Y014798D01*
X017830Y015071D01*
X017830Y015344D01*
X017820Y015409D01*
X017799Y015472D01*
X017769Y015531D01*
X017730Y015585D01*
X017684Y015631D01*
X017630Y015670D01*
X017571Y015700D01*
X017508Y015721D01*
X017443Y015731D01*
X017410Y015731D01*
X017410Y015071D01*
X017410Y015071D01*
X017410Y015731D01*
X017377Y015731D01*
X017312Y015721D01*
X017249Y015700D01*
X017190Y015670D01*
X017136Y015631D01*
X017090Y015585D01*
X017051Y015531D01*
X017021Y015472D01*
X017000Y015409D01*
X016990Y015344D01*
X016990Y015071D01*
X017410Y015071D01*
X017830Y015071D01*
X017410Y015071D01*
X017410Y015071D01*
X017410Y015071D01*
X016990Y015071D01*
X016990Y014798D01*
X017000Y014733D01*
X017021Y014670D01*
X017051Y014611D01*
X017090Y014557D01*
X017136Y014511D01*
X017190Y014472D01*
X017249Y014442D01*
X017312Y014421D01*
X017377Y014411D01*
X017410Y014411D01*
X017443Y014411D01*
X017508Y014421D01*
X017571Y014442D01*
X017410Y014454D02*
X017410Y014454D01*
X017410Y014411D02*
X017410Y015071D01*
X017410Y015071D01*
X017410Y014411D01*
X017226Y014454D02*
X016610Y014454D01*
X016728Y014612D02*
X017050Y014612D01*
X016994Y014771D02*
X016790Y014771D01*
X016790Y014929D02*
X016990Y014929D01*
X016990Y015088D02*
X016790Y015088D01*
X016790Y015246D02*
X016990Y015246D01*
X017000Y015405D02*
X016783Y015405D01*
X016695Y015563D02*
X017074Y015563D01*
X017317Y015722D02*
X015268Y015722D01*
X015160Y015880D02*
X019241Y015880D01*
X019175Y015946D02*
X019465Y015656D01*
X019670Y015656D01*
X019875Y015656D01*
X020165Y015946D01*
X020165Y016151D01*
X020165Y016356D01*
X019875Y016646D01*
X019670Y016646D01*
X019670Y016151D01*
X019670Y016151D01*
X019670Y016646D01*
X019465Y016646D01*
X019175Y016356D01*
X019175Y016151D01*
X019670Y016151D01*
X020165Y016151D01*
X019670Y016151D01*
X019670Y016151D01*
X019670Y016151D01*
X019175Y016151D01*
X019175Y015946D01*
X019175Y016039D02*
X015160Y016039D01*
X015160Y016197D02*
X019175Y016197D01*
X019175Y016356D02*
X015160Y016356D01*
X015160Y016514D02*
X019333Y016514D01*
X019670Y016514D02*
X019670Y016514D01*
X019670Y016356D02*
X019670Y016356D01*
X019670Y016197D02*
X019670Y016197D01*
X019670Y016151D02*
X019670Y015656D01*
X019670Y016151D01*
X019670Y016151D01*
X019670Y016039D02*
X019670Y016039D01*
X019670Y015880D02*
X019670Y015880D01*
X019670Y015722D02*
X019670Y015722D01*
X019399Y015722D02*
X017503Y015722D01*
X017410Y015722D02*
X017410Y015722D01*
X017410Y015563D02*
X017410Y015563D01*
X017410Y015405D02*
X017410Y015405D01*
X017410Y015246D02*
X017410Y015246D01*
X017410Y015088D02*
X017410Y015088D01*
X017410Y014929D02*
X017410Y014929D01*
X017410Y014771D02*
X017410Y014771D01*
X017410Y014612D02*
X017410Y014612D01*
X017770Y014612D02*
X019390Y014612D01*
X019390Y014771D02*
X017826Y014771D01*
X017830Y014929D02*
X019249Y014929D01*
X019215Y015088D02*
X017830Y015088D01*
X017830Y015246D02*
X019215Y015246D01*
X019280Y015405D02*
X017820Y015405D01*
X017746Y015563D02*
X019439Y015563D01*
X019901Y015563D02*
X020255Y015563D01*
X020255Y015405D02*
X020060Y015405D01*
X020125Y015246D02*
X020255Y015246D01*
X020255Y015088D02*
X020125Y015088D01*
X020091Y014929D02*
X020255Y014929D01*
X020255Y014771D02*
X019933Y014771D01*
X019770Y014612D02*
X020255Y014612D01*
X020255Y014454D02*
X019770Y014454D01*
X019770Y014295D02*
X020255Y014295D01*
X020255Y014137D02*
X019770Y014137D01*
X019686Y013978D02*
X020255Y013978D01*
X020255Y013820D02*
X019630Y013820D01*
X019767Y013661D02*
X020255Y013661D01*
X020255Y013503D02*
X019820Y013503D01*
X019820Y013344D02*
X020255Y013344D01*
X020255Y013186D02*
X019712Y013186D01*
X019597Y012831D02*
X019283Y012831D01*
X019060Y012608D01*
X019060Y012294D01*
X019283Y012071D01*
X019597Y012071D01*
X019820Y012294D01*
X019820Y012608D01*
X019597Y012831D01*
X019718Y012710D02*
X020255Y012710D01*
X020255Y012552D02*
X019820Y012552D01*
X019820Y012393D02*
X020255Y012393D01*
X020255Y012235D02*
X019761Y012235D01*
X019602Y012076D02*
X020255Y012076D01*
X020255Y012869D02*
X015276Y012869D01*
X015258Y012976D02*
X015525Y013243D01*
X015525Y013619D01*
X015258Y013886D01*
X014882Y013886D01*
X014615Y013619D01*
X014615Y013243D01*
X014882Y012976D01*
X015258Y012976D01*
X015309Y013027D02*
X020255Y013027D01*
X019278Y012076D02*
X018652Y012076D01*
X018811Y012235D02*
X019119Y012235D01*
X019060Y012393D02*
X018870Y012393D01*
X018870Y012552D02*
X019060Y012552D01*
X019162Y012710D02*
X018768Y012710D01*
X018762Y013186D02*
X019168Y013186D01*
X019060Y013344D02*
X018870Y013344D01*
X018870Y013503D02*
X019060Y013503D01*
X019113Y013661D02*
X018817Y013661D01*
X018659Y013820D02*
X019210Y013820D01*
X017906Y012076D02*
X017632Y012076D01*
X017748Y011918D02*
X017065Y011918D01*
X017224Y012076D02*
X017308Y012076D01*
X017003Y012393D02*
X016810Y012393D01*
X016810Y012294D02*
X016587Y012071D01*
X016273Y012071D01*
X016050Y012294D01*
X016050Y012608D01*
X016273Y012831D01*
X016587Y012831D01*
X016810Y012608D01*
X016810Y012294D01*
X016845Y012235D02*
X016751Y012235D01*
X016686Y012076D02*
X016592Y012076D01*
X016268Y012076D02*
X015564Y012076D01*
X015517Y012235D02*
X016109Y012235D01*
X016050Y012393D02*
X015525Y012393D01*
X015525Y012552D02*
X016050Y012552D01*
X016152Y012710D02*
X015434Y012710D01*
X015468Y013186D02*
X016158Y013186D01*
X016050Y013344D02*
X015525Y013344D01*
X015525Y013503D02*
X016050Y013503D01*
X016103Y013661D02*
X015483Y013661D01*
X015325Y013820D02*
X016200Y013820D01*
X016200Y013978D02*
X014917Y013978D01*
X014950Y014137D02*
X016230Y014137D01*
X016230Y014295D02*
X015073Y014295D01*
X015231Y014454D02*
X015328Y014454D01*
X015492Y014454D02*
X016230Y014454D01*
X016092Y014612D02*
X015728Y014612D01*
X015790Y014771D02*
X016030Y014771D01*
X016030Y014929D02*
X015790Y014929D01*
X015790Y015088D02*
X016030Y015088D01*
X016030Y015246D02*
X015790Y015246D01*
X015783Y015405D02*
X016037Y015405D01*
X016125Y015563D02*
X015695Y015563D01*
X015037Y015405D02*
X014783Y015405D01*
X014790Y015246D02*
X015030Y015246D01*
X015030Y015088D02*
X014790Y015088D01*
X014790Y014929D02*
X015030Y014929D01*
X015011Y014771D02*
X014790Y014771D01*
X014728Y014612D02*
X014852Y014612D01*
X014694Y014454D02*
X014492Y014454D01*
X014328Y014454D02*
X013594Y014454D01*
X013571Y014442D02*
X013630Y014472D01*
X013684Y014511D01*
X013730Y014557D01*
X013769Y014611D01*
X013799Y014670D01*
X013820Y014733D01*
X013830Y014798D01*
X013830Y015071D01*
X013830Y015344D01*
X013820Y015409D01*
X013799Y015472D01*
X013769Y015531D01*
X013730Y015585D01*
X013684Y015631D01*
X013630Y015670D01*
X013571Y015700D01*
X013508Y015721D01*
X013443Y015731D01*
X013410Y015731D01*
X013410Y015071D01*
X013410Y015071D01*
X013410Y015731D01*
X013377Y015731D01*
X013312Y015721D01*
X013249Y015700D01*
X013190Y015670D01*
X013136Y015631D01*
X013090Y015585D01*
X013051Y015531D01*
X013021Y015472D01*
X013000Y015409D01*
X012990Y015344D01*
X012990Y015071D01*
X013410Y015071D01*
X013830Y015071D01*
X013410Y015071D01*
X013410Y015071D01*
X013410Y015071D01*
X012990Y015071D01*
X012990Y014798D01*
X013000Y014733D01*
X013021Y014670D01*
X013051Y014611D01*
X013090Y014557D01*
X013136Y014511D01*
X013190Y014472D01*
X013249Y014442D01*
X013312Y014421D01*
X013377Y014411D01*
X013410Y014411D01*
X013443Y014411D01*
X013508Y014421D01*
X013571Y014442D01*
X013410Y014454D02*
X013410Y014454D01*
X013410Y014411D02*
X013410Y015071D01*
X013410Y015071D01*
X013410Y014411D01*
X013226Y014454D02*
X013016Y014454D01*
X013050Y014612D02*
X012858Y014612D01*
X012790Y014771D02*
X012994Y014771D01*
X012990Y014929D02*
X012790Y014929D01*
X012790Y015088D02*
X012990Y015088D01*
X012990Y015246D02*
X012790Y015246D01*
X012783Y015405D02*
X013000Y015405D01*
X013074Y015563D02*
X012695Y015563D01*
X012593Y015722D02*
X013317Y015722D01*
X013410Y015722D02*
X013410Y015722D01*
X013503Y015722D02*
X013586Y015722D01*
X013746Y015563D02*
X013869Y015563D01*
X013820Y015405D02*
X014037Y015405D01*
X014030Y015246D02*
X013830Y015246D01*
X013830Y015088D02*
X014030Y015088D01*
X014030Y014929D02*
X013830Y014929D01*
X013826Y014771D02*
X014030Y014771D01*
X014092Y014612D02*
X013770Y014612D01*
X013410Y014612D02*
X013410Y014612D01*
X013410Y014771D02*
X013410Y014771D01*
X013410Y014929D02*
X013410Y014929D01*
X013410Y015088D02*
X013410Y015088D01*
X013410Y015246D02*
X013410Y015246D01*
X013410Y015405D02*
X013410Y015405D01*
X013410Y015563D02*
X013410Y015563D01*
X013316Y015880D02*
X012561Y015880D01*
X012510Y016039D02*
X013164Y016039D01*
X013005Y016197D02*
X012510Y016197D01*
X012510Y016356D02*
X012847Y016356D01*
X012687Y016514D02*
X012510Y016514D01*
X012574Y016673D02*
X012574Y016673D01*
X012574Y016831D02*
X012574Y016831D01*
X012574Y016990D02*
X012574Y016990D01*
X012574Y017148D02*
X012574Y017148D01*
X012473Y017307D02*
X012977Y017307D01*
X013545Y017307D02*
X014780Y017307D01*
X014780Y017148D02*
X013836Y017148D01*
X013837Y017141D02*
X013825Y017187D01*
X013802Y017228D01*
X013768Y017261D01*
X013727Y017285D01*
X013681Y017297D01*
X013597Y017297D01*
X013597Y016922D01*
X013597Y016922D01*
X013597Y016922D01*
X013837Y016922D01*
X013837Y017141D01*
X013837Y016990D02*
X014780Y016990D01*
X014780Y016831D02*
X013837Y016831D01*
X013851Y016673D02*
X014780Y016673D01*
X014780Y016514D02*
X013946Y016514D01*
X013941Y016356D02*
X014780Y016356D01*
X014780Y016197D02*
X013839Y016197D01*
X013800Y016039D02*
X014780Y016039D01*
X014780Y015880D02*
X014110Y015880D01*
X014268Y015722D02*
X014780Y015722D01*
X014695Y015563D02*
X014889Y015563D01*
X015160Y016673D02*
X020255Y016673D01*
X020255Y016831D02*
X019993Y016831D01*
X020125Y016990D02*
X020255Y016990D01*
X020255Y017148D02*
X020125Y017148D01*
X020125Y017307D02*
X020255Y017307D01*
X020255Y017465D02*
X019999Y017465D01*
X019875Y017656D02*
X020165Y017946D01*
X020165Y018151D01*
X020165Y018356D01*
X019875Y018646D01*
X019670Y018646D01*
X019670Y018151D01*
X019670Y018151D01*
X019670Y018646D01*
X019465Y018646D01*
X019175Y018356D01*
X019175Y018151D01*
X019670Y018151D01*
X020165Y018151D01*
X019670Y018151D01*
X019670Y018151D01*
X019670Y018151D01*
X019175Y018151D01*
X019175Y017946D01*
X019465Y017656D01*
X019670Y017656D01*
X019875Y017656D01*
X020001Y017782D02*
X020255Y017782D01*
X020255Y017624D02*
X019236Y017624D01*
X019339Y017782D02*
X019078Y017782D01*
X019180Y017941D02*
X018919Y017941D01*
X018761Y018099D02*
X019175Y018099D01*
X019175Y018258D02*
X018602Y018258D01*
X018444Y018416D02*
X019235Y018416D01*
X019393Y018575D02*
X018285Y018575D01*
X018127Y018733D02*
X019445Y018733D01*
X019482Y018696D02*
X019858Y018696D01*
X020125Y018963D01*
X020125Y019339D01*
X019858Y019606D01*
X019482Y019606D01*
X019215Y019339D01*
X019215Y018963D01*
X019482Y018696D01*
X019670Y018575D02*
X019670Y018575D01*
X019670Y018416D02*
X019670Y018416D01*
X019670Y018258D02*
X019670Y018258D01*
X019670Y018151D02*
X019670Y017656D01*
X019670Y018151D01*
X019670Y018151D01*
X019670Y018099D02*
X019670Y018099D01*
X019670Y017941D02*
X019670Y017941D01*
X019670Y017782D02*
X019670Y017782D01*
X020105Y018416D02*
X020255Y018416D01*
X020255Y018258D02*
X020165Y018258D01*
X020165Y018099D02*
X020255Y018099D01*
X020255Y017941D02*
X020160Y017941D01*
X020255Y018575D02*
X019947Y018575D01*
X019895Y018733D02*
X020255Y018733D01*
X020255Y018892D02*
X020054Y018892D01*
X020125Y019050D02*
X020255Y019050D01*
X020255Y019209D02*
X020125Y019209D01*
X020097Y019367D02*
X020255Y019367D01*
X020255Y019526D02*
X019939Y019526D01*
X019875Y019656D02*
X020165Y019946D01*
X020165Y020151D01*
X020165Y020356D01*
X019875Y020646D01*
X019670Y020646D01*
X019670Y020151D01*
X019670Y020151D01*
X019670Y020646D01*
X019465Y020646D01*
X019175Y020356D01*
X019175Y020151D01*
X019670Y020151D01*
X020165Y020151D01*
X019670Y020151D01*
X019670Y020151D01*
X019670Y020151D01*
X019175Y020151D01*
X019175Y019946D01*
X019465Y019656D01*
X019670Y019656D01*
X019875Y019656D01*
X019903Y019684D02*
X020255Y019684D01*
X020255Y019843D02*
X020062Y019843D01*
X020165Y020001D02*
X020255Y020001D01*
X020255Y020160D02*
X020165Y020160D01*
X020165Y020318D02*
X020255Y020318D01*
X020255Y020477D02*
X020045Y020477D01*
X019886Y020635D02*
X020255Y020635D01*
X020255Y020794D02*
X019973Y020794D01*
X019875Y020696D02*
X020165Y020986D01*
X020165Y021191D01*
X020165Y021396D01*
X019875Y021686D01*
X019670Y021686D01*
X019670Y021191D01*
X019670Y021191D01*
X019670Y021686D01*
X019465Y021686D01*
X019175Y021396D01*
X019175Y021191D01*
X019670Y021191D01*
X020165Y021191D01*
X019670Y021191D01*
X019670Y021191D01*
X019670Y021191D01*
X019175Y021191D01*
X019175Y020986D01*
X019465Y020696D01*
X019670Y020696D01*
X019875Y020696D01*
X019670Y020696D02*
X019670Y021191D01*
X019670Y021191D01*
X019670Y020696D01*
X019670Y020635D02*
X019670Y020635D01*
X019670Y020477D02*
X019670Y020477D01*
X019670Y020318D02*
X019670Y020318D01*
X019670Y020160D02*
X019670Y020160D01*
X019670Y020151D02*
X019670Y019656D01*
X019670Y020151D01*
X019670Y020151D01*
X019670Y020001D02*
X019670Y020001D01*
X019670Y019843D02*
X019670Y019843D01*
X019670Y019684D02*
X019670Y019684D01*
X019437Y019684D02*
X018010Y019684D01*
X017990Y019843D02*
X019278Y019843D01*
X019175Y020001D02*
X018149Y020001D01*
X018307Y020160D02*
X019175Y020160D01*
X019175Y020318D02*
X018466Y020318D01*
X018624Y020477D02*
X019295Y020477D01*
X019454Y020635D02*
X018783Y020635D01*
X018941Y020794D02*
X019367Y020794D01*
X019209Y020952D02*
X019100Y020952D01*
X019130Y021111D02*
X019175Y021111D01*
X019175Y021269D02*
X019130Y021269D01*
X019175Y021428D02*
X019206Y021428D01*
X019334Y021586D02*
X019365Y021586D01*
X019670Y021586D02*
X019670Y021586D01*
X019670Y021428D02*
X019670Y021428D01*
X019670Y021269D02*
X019670Y021269D01*
X019670Y021111D02*
X019670Y021111D01*
X019670Y020952D02*
X019670Y020952D01*
X019670Y020794D02*
X019670Y020794D01*
X020131Y020952D02*
X020255Y020952D01*
X020255Y021111D02*
X020165Y021111D01*
X020165Y021269D02*
X020255Y021269D01*
X020255Y021428D02*
X020134Y021428D01*
X020255Y021586D02*
X019975Y021586D01*
X019867Y021745D02*
X020255Y021745D01*
X020255Y021903D02*
X020025Y021903D01*
X020125Y022062D02*
X020255Y022062D01*
X020255Y022220D02*
X020125Y022220D01*
X020125Y022379D02*
X020255Y022379D01*
X020255Y022537D02*
X019967Y022537D01*
X020255Y022696D02*
X018110Y022696D01*
X018110Y022537D02*
X018319Y022537D01*
X018393Y022611D02*
X018170Y022388D01*
X018170Y022074D01*
X018393Y021851D01*
X018707Y021851D01*
X018930Y022074D01*
X018930Y022388D01*
X018707Y022611D01*
X018393Y022611D01*
X018581Y022854D02*
X018046Y022854D01*
X018148Y023013D02*
X018352Y023013D01*
X018266Y023171D02*
X018234Y023171D01*
X017650Y022826D02*
X017650Y022712D01*
X017730Y022632D01*
X017730Y021662D01*
X017766Y021626D01*
X017741Y021601D01*
X017699Y021559D01*
X017625Y021633D01*
X017486Y021691D01*
X017334Y021691D01*
X017195Y021633D01*
X017088Y021526D01*
X017030Y021387D01*
X017030Y020755D01*
X017040Y020730D01*
X016780Y020470D01*
X016780Y020161D01*
X016160Y020161D01*
X016160Y020312D01*
X016309Y020461D01*
X016334Y020451D01*
X016486Y020451D01*
X016625Y020509D01*
X016732Y020616D01*
X016790Y020755D01*
X016790Y021387D01*
X016732Y021526D01*
X016625Y021633D01*
X016486Y021691D01*
X016334Y021691D01*
X016195Y021633D01*
X016088Y021526D01*
X016030Y021387D01*
X016030Y020755D01*
X016040Y020730D01*
X015780Y020470D01*
X015780Y020341D01*
X014134Y020341D01*
X014298Y020466D01*
X014334Y020451D01*
X014486Y020451D01*
X014625Y020509D01*
X014732Y020616D01*
X014790Y020755D01*
X014790Y021387D01*
X014732Y021526D01*
X014625Y021633D01*
X014486Y021691D01*
X014334Y021691D01*
X014195Y021633D01*
X014088Y021526D01*
X014030Y021387D01*
X014030Y020755D01*
X014035Y020744D01*
X013770Y020542D01*
X013767Y020542D01*
X013707Y020501D01*
X013645Y020463D01*
X013643Y020457D01*
X013591Y020421D01*
X013571Y020421D01*
X013528Y020378D01*
X013478Y020343D01*
X013474Y020324D01*
X012880Y019730D01*
X012880Y019765D01*
X012831Y019882D01*
X012741Y019972D01*
X012624Y020021D01*
X012496Y020021D01*
X012379Y019972D01*
X012289Y019882D01*
X012250Y019789D01*
X012250Y019869D01*
X012258Y019935D01*
X012250Y019946D01*
X012250Y019960D01*
X012203Y020007D01*
X012088Y020155D01*
X012088Y020156D01*
X012040Y020218D01*
X011992Y020279D01*
X011992Y020280D01*
X011900Y020397D01*
X011900Y020410D01*
X011853Y020457D01*
X011811Y020510D01*
X011798Y020512D01*
X011713Y020597D01*
X011732Y020616D01*
X011790Y020755D01*
X011790Y021387D01*
X011780Y021412D01*
X012040Y021672D01*
X012040Y021801D01*
X012779Y021801D01*
X013804Y022826D01*
X013851Y022826D01*
X014039Y022904D01*
X014182Y023047D01*
X014250Y023210D01*
X014315Y023054D01*
X013893Y022633D01*
X013874Y022641D01*
X013746Y022641D01*
X013629Y022592D01*
X013539Y022502D01*
X013490Y022385D01*
X013490Y022257D01*
X013539Y022140D01*
X013629Y022050D01*
X013746Y022001D01*
X013874Y022001D01*
X013991Y022050D01*
X014081Y022140D01*
X014130Y022257D01*
X014130Y022332D01*
X014631Y022833D01*
X014649Y022826D01*
X014851Y022826D01*
X015039Y022904D01*
X015182Y023047D01*
X015250Y023210D01*
X015318Y023047D01*
X015461Y022904D01*
X015649Y022826D01*
X015851Y022826D01*
X016039Y022904D01*
X016182Y023047D01*
X016250Y023210D01*
X016318Y023047D01*
X016461Y022904D01*
X016649Y022826D01*
X016851Y022826D01*
X017039Y022904D01*
X017182Y023047D01*
X017250Y023210D01*
X017318Y023047D01*
X017461Y022904D01*
X017649Y022826D01*
X017650Y022826D01*
X017581Y022854D02*
X016919Y022854D01*
X016581Y022854D02*
X015919Y022854D01*
X016148Y023013D02*
X016352Y023013D01*
X016266Y023171D02*
X016234Y023171D01*
X015581Y022854D02*
X014919Y022854D01*
X015148Y023013D02*
X015352Y023013D01*
X015266Y023171D02*
X015234Y023171D01*
X014493Y022696D02*
X017667Y022696D01*
X017730Y022537D02*
X014335Y022537D01*
X014176Y022379D02*
X017730Y022379D01*
X017730Y022220D02*
X014115Y022220D01*
X014003Y022062D02*
X017730Y022062D01*
X017730Y021903D02*
X012881Y021903D01*
X013039Y022062D02*
X013617Y022062D01*
X013505Y022220D02*
X013198Y022220D01*
X013356Y022379D02*
X013490Y022379D01*
X013515Y022537D02*
X013573Y022537D01*
X013673Y022696D02*
X013956Y022696D01*
X013919Y022854D02*
X014114Y022854D01*
X014148Y023013D02*
X014273Y023013D01*
X014266Y023171D02*
X014234Y023171D01*
X013625Y021633D02*
X013486Y021691D01*
X013334Y021691D01*
X013195Y021633D01*
X013088Y021526D01*
X013030Y021387D01*
X013030Y020755D01*
X013088Y020616D01*
X013195Y020509D01*
X013334Y020451D01*
X013486Y020451D01*
X013625Y020509D01*
X013732Y020616D01*
X013790Y020755D01*
X013790Y021387D01*
X013732Y021526D01*
X013625Y021633D01*
X013672Y021586D02*
X014148Y021586D01*
X014047Y021428D02*
X013773Y021428D01*
X013790Y021269D02*
X014030Y021269D01*
X014030Y021111D02*
X013790Y021111D01*
X013790Y020952D02*
X014030Y020952D01*
X014030Y020794D02*
X013790Y020794D01*
X013740Y020635D02*
X013893Y020635D01*
X013667Y020477D02*
X013547Y020477D01*
X013468Y020318D02*
X011961Y020318D01*
X011837Y020477D02*
X012183Y020477D01*
X012190Y020472D02*
X012249Y020442D01*
X012312Y020421D01*
X012377Y020411D01*
X012410Y020411D01*
X012443Y020411D01*
X012508Y020421D01*
X012571Y020442D01*
X012630Y020472D01*
X012684Y020511D01*
X012730Y020557D01*
X012769Y020611D01*
X012799Y020670D01*
X012820Y020733D01*
X012830Y020798D01*
X012830Y021071D01*
X012830Y021344D01*
X012820Y021409D01*
X012799Y021472D01*
X012769Y021531D01*
X012730Y021585D01*
X012684Y021631D01*
X012630Y021670D01*
X012571Y021700D01*
X012508Y021721D01*
X012443Y021731D01*
X012410Y021731D01*
X012410Y021071D01*
X012410Y021071D01*
X012410Y021731D01*
X012377Y021731D01*
X012312Y021721D01*
X012249Y021700D01*
X012190Y021670D01*
X012136Y021631D01*
X012090Y021585D01*
X012051Y021531D01*
X012021Y021472D01*
X012000Y021409D01*
X011990Y021344D01*
X011990Y021071D01*
X012410Y021071D01*
X012830Y021071D01*
X012410Y021071D01*
X012410Y021071D01*
X012410Y021071D01*
X011990Y021071D01*
X011990Y020798D01*
X012000Y020733D01*
X012021Y020670D01*
X012051Y020611D01*
X012090Y020557D01*
X012136Y020511D01*
X012190Y020472D01*
X012410Y020477D02*
X012410Y020477D01*
X012410Y020411D02*
X012410Y021071D01*
X012410Y021071D01*
X012410Y020411D01*
X012410Y020635D02*
X012410Y020635D01*
X012410Y020794D02*
X012410Y020794D01*
X012410Y020952D02*
X012410Y020952D01*
X012410Y021111D02*
X012410Y021111D01*
X012410Y021269D02*
X012410Y021269D01*
X012410Y021428D02*
X012410Y021428D01*
X012410Y021586D02*
X012410Y021586D01*
X012091Y021586D02*
X011954Y021586D01*
X012006Y021428D02*
X011795Y021428D01*
X011790Y021269D02*
X011990Y021269D01*
X011990Y021111D02*
X011790Y021111D01*
X011790Y020952D02*
X011990Y020952D01*
X011991Y020794D02*
X011790Y020794D01*
X011740Y020635D02*
X012038Y020635D01*
X012085Y020160D02*
X013310Y020160D01*
X013151Y020001D02*
X012672Y020001D01*
X012448Y020001D02*
X012209Y020001D01*
X012250Y019843D02*
X012272Y019843D01*
X012318Y019220D02*
X012318Y019220D01*
X012318Y018845D01*
X012318Y019220D01*
X012318Y019209D02*
X012318Y019209D01*
X012318Y019050D02*
X012318Y019050D01*
X012318Y018892D02*
X012318Y018892D01*
X012160Y018733D02*
X017589Y018733D01*
X017431Y018892D02*
X013722Y018892D01*
X013797Y019050D02*
X017272Y019050D01*
X017493Y019367D02*
X019243Y019367D01*
X019215Y019209D02*
X017651Y019209D01*
X017810Y019050D02*
X019215Y019050D01*
X019286Y018892D02*
X017968Y018892D01*
X017748Y018575D02*
X012117Y018575D01*
X012699Y018892D02*
X012705Y018892D01*
X013086Y018892D02*
X013086Y018892D01*
X013086Y018845D02*
X013086Y019220D01*
X013086Y019220D01*
X013086Y018845D01*
X013086Y019050D02*
X013086Y019050D01*
X013086Y019209D02*
X013086Y019209D01*
X013466Y018892D02*
X013473Y018892D01*
X013856Y019209D02*
X016764Y019209D01*
X016690Y019367D02*
X014015Y019367D01*
X014173Y019526D02*
X016690Y019526D01*
X016690Y019684D02*
X014332Y019684D01*
X014547Y020477D02*
X015183Y020477D01*
X015190Y020472D02*
X015249Y020442D01*
X015312Y020421D01*
X015377Y020411D01*
X015410Y020411D01*
X015443Y020411D01*
X015508Y020421D01*
X015571Y020442D01*
X015630Y020472D01*
X015684Y020511D01*
X015730Y020557D01*
X015769Y020611D01*
X015799Y020670D01*
X015820Y020733D01*
X015830Y020798D01*
X015830Y021071D01*
X015830Y021344D01*
X015820Y021409D01*
X015799Y021472D01*
X015769Y021531D01*
X015730Y021585D01*
X015684Y021631D01*
X015630Y021670D01*
X015571Y021700D01*
X015508Y021721D01*
X015443Y021731D01*
X015410Y021731D01*
X015410Y021071D01*
X015410Y021071D01*
X015410Y021731D01*
X015377Y021731D01*
X015312Y021721D01*
X015249Y021700D01*
X015190Y021670D01*
X015136Y021631D01*
X015090Y021585D01*
X015051Y021531D01*
X015021Y021472D01*
X015000Y021409D01*
X014990Y021344D01*
X014990Y021071D01*
X015410Y021071D01*
X015830Y021071D01*
X015410Y021071D01*
X015410Y021071D01*
X015410Y021071D01*
X014990Y021071D01*
X014990Y020798D01*
X015000Y020733D01*
X015021Y020670D01*
X015051Y020611D01*
X015090Y020557D01*
X015136Y020511D01*
X015190Y020472D01*
X015410Y020477D02*
X015410Y020477D01*
X015410Y020411D02*
X015410Y021071D01*
X015410Y021071D01*
X015410Y020411D01*
X015410Y020635D02*
X015410Y020635D01*
X015410Y020794D02*
X015410Y020794D01*
X015410Y020952D02*
X015410Y020952D01*
X015410Y021111D02*
X015410Y021111D01*
X015410Y021269D02*
X015410Y021269D01*
X015410Y021428D02*
X015410Y021428D01*
X015410Y021586D02*
X015410Y021586D01*
X015091Y021586D02*
X014672Y021586D01*
X014773Y021428D02*
X015006Y021428D01*
X014990Y021269D02*
X014790Y021269D01*
X014790Y021111D02*
X014990Y021111D01*
X014990Y020952D02*
X014790Y020952D01*
X014790Y020794D02*
X014991Y020794D01*
X015038Y020635D02*
X014740Y020635D01*
X015637Y020477D02*
X015787Y020477D01*
X015782Y020635D02*
X015945Y020635D01*
X016030Y020794D02*
X015829Y020794D01*
X015830Y020952D02*
X016030Y020952D01*
X016030Y021111D02*
X015830Y021111D01*
X015830Y021269D02*
X016030Y021269D01*
X016047Y021428D02*
X015814Y021428D01*
X015729Y021586D02*
X016148Y021586D01*
X016672Y021586D02*
X017148Y021586D01*
X017047Y021428D02*
X016773Y021428D01*
X016790Y021269D02*
X017030Y021269D01*
X017030Y021111D02*
X016790Y021111D01*
X016790Y020952D02*
X017030Y020952D01*
X017030Y020794D02*
X016790Y020794D01*
X016740Y020635D02*
X016945Y020635D01*
X016787Y020477D02*
X016547Y020477D01*
X016780Y020318D02*
X016166Y020318D01*
X017672Y021586D02*
X017726Y021586D01*
X017730Y021745D02*
X012040Y021745D01*
X012729Y021586D02*
X013148Y021586D01*
X013047Y021428D02*
X012814Y021428D01*
X012830Y021269D02*
X013030Y021269D01*
X013030Y021111D02*
X012830Y021111D01*
X012830Y020952D02*
X013030Y020952D01*
X013030Y020794D02*
X012829Y020794D01*
X012782Y020635D02*
X013080Y020635D01*
X013273Y020477D02*
X012637Y020477D01*
X012848Y019843D02*
X012993Y019843D01*
X011520Y018733D02*
X011329Y018733D01*
X011370Y018575D02*
X011563Y018575D01*
X011332Y018416D02*
X017906Y018416D01*
X018065Y018258D02*
X011265Y018258D01*
X011265Y018099D02*
X018223Y018099D01*
X018382Y017941D02*
X011265Y017941D01*
X011316Y017782D02*
X018540Y017782D01*
X018699Y017624D02*
X015146Y017624D01*
X015160Y017465D02*
X018857Y017465D01*
X019016Y017307D02*
X015160Y017307D01*
X015160Y017148D02*
X019174Y017148D01*
X019215Y016990D02*
X015160Y016990D01*
X015160Y016831D02*
X019347Y016831D01*
X020007Y016514D02*
X020255Y016514D01*
X020255Y016356D02*
X020165Y016356D01*
X020165Y016197D02*
X020255Y016197D01*
X020255Y016039D02*
X020165Y016039D01*
X020099Y015880D02*
X020255Y015880D01*
X020255Y015722D02*
X019941Y015722D01*
X017198Y013186D02*
X016702Y013186D01*
X016810Y013344D02*
X017090Y013344D01*
X017090Y013503D02*
X016810Y013503D01*
X016757Y013661D02*
X017143Y013661D01*
X017192Y012710D02*
X016708Y012710D01*
X016810Y012552D02*
X017090Y012552D01*
X016907Y011759D02*
X017589Y011759D01*
X017470Y011601D02*
X014358Y011601D01*
X014516Y011442D02*
X017470Y011442D01*
X017470Y011284D02*
X014550Y011284D01*
X015185Y011918D02*
X009817Y011918D01*
X009815Y011916D02*
X010105Y012206D01*
X010105Y012411D01*
X010105Y012616D01*
X009815Y012906D01*
X009610Y012906D01*
X009610Y012411D01*
X009610Y012411D01*
X009610Y012906D01*
X009405Y012906D01*
X009115Y012616D01*
X009115Y012411D01*
X009610Y012411D01*
X010105Y012411D01*
X009610Y012411D01*
X009610Y012411D01*
X009610Y012411D01*
X009115Y012411D01*
X009115Y012206D01*
X009405Y011916D01*
X009610Y011916D01*
X009815Y011916D01*
X009610Y011916D02*
X009610Y012411D01*
X009610Y012411D01*
X009610Y011916D01*
X009610Y011918D02*
X009610Y011918D01*
X009610Y012076D02*
X009610Y012076D01*
X009610Y012235D02*
X009610Y012235D01*
X009610Y012393D02*
X009610Y012393D01*
X009610Y012552D02*
X009610Y012552D01*
X009610Y012710D02*
X009610Y012710D01*
X009610Y012869D02*
X009610Y012869D01*
X009853Y012869D02*
X011090Y012869D01*
X011093Y012871D02*
X010870Y012648D01*
X010870Y012334D01*
X011093Y012111D01*
X011407Y012111D01*
X011630Y012334D01*
X011630Y012648D01*
X011407Y012871D01*
X011093Y012871D01*
X010932Y012710D02*
X010011Y012710D01*
X010105Y012552D02*
X010870Y012552D01*
X010870Y012393D02*
X010105Y012393D01*
X010105Y012235D02*
X010969Y012235D01*
X011531Y012235D02*
X012209Y012235D01*
X012110Y012334D02*
X012333Y012111D01*
X012647Y012111D01*
X012870Y012334D01*
X012870Y012648D01*
X012647Y012871D01*
X012333Y012871D01*
X012110Y012648D01*
X012110Y012334D01*
X012110Y012393D02*
X011630Y012393D01*
X011630Y012552D02*
X012110Y012552D01*
X012172Y012710D02*
X011568Y012710D01*
X011410Y012869D02*
X012330Y012869D01*
X012650Y012869D02*
X013650Y012869D01*
X013653Y012871D02*
X013430Y012648D01*
X013430Y012334D01*
X013653Y012111D01*
X013967Y012111D01*
X014190Y012334D01*
X014190Y012648D01*
X013967Y012871D01*
X013653Y012871D01*
X013492Y012710D02*
X012808Y012710D01*
X012870Y012552D02*
X013430Y012552D01*
X013430Y012393D02*
X012870Y012393D01*
X012771Y012235D02*
X013529Y012235D01*
X014091Y012235D02*
X014623Y012235D01*
X014615Y012393D02*
X014190Y012393D01*
X014190Y012552D02*
X014615Y012552D01*
X014532Y012710D02*
X014128Y012710D01*
X013970Y012869D02*
X014374Y012869D01*
X014215Y013027D02*
X009869Y013027D01*
X010028Y013186D02*
X011018Y013186D01*
X010870Y013344D02*
X010065Y013344D01*
X010065Y013503D02*
X010870Y013503D01*
X010850Y013661D02*
X010003Y013661D01*
X009865Y013820D02*
X010713Y013820D01*
X010554Y013978D02*
X009865Y013978D01*
X009865Y014137D02*
X010396Y014137D01*
X010237Y014295D02*
X009770Y014295D01*
X009625Y014454D02*
X010230Y014454D01*
X010092Y014612D02*
X009728Y014612D01*
X009790Y014771D02*
X010030Y014771D01*
X010030Y014929D02*
X009790Y014929D01*
X009790Y015088D02*
X010030Y015088D01*
X010030Y015246D02*
X009795Y015246D01*
X009795Y015405D02*
X010037Y015405D01*
X010125Y015563D02*
X009946Y015563D01*
X010105Y015722D02*
X010612Y015722D01*
X010832Y015405D02*
X011037Y015405D01*
X011030Y015246D02*
X010790Y015246D01*
X010790Y015088D02*
X011030Y015088D01*
X011030Y014929D02*
X010790Y014929D01*
X010790Y014771D02*
X011030Y014771D01*
X011092Y014612D02*
X010728Y014612D01*
X010616Y014454D02*
X011319Y014454D01*
X011477Y014295D02*
X010775Y014295D01*
X010933Y014137D02*
X011636Y014137D01*
X011794Y013978D02*
X011092Y013978D01*
X011459Y013820D02*
X011953Y013820D01*
X012090Y013661D02*
X011617Y013661D01*
X011630Y013503D02*
X012110Y013503D01*
X012110Y013344D02*
X011630Y013344D01*
X011482Y013186D02*
X012258Y013186D01*
X012722Y013186D02*
X013578Y013186D01*
X013430Y013344D02*
X012870Y013344D01*
X012870Y013503D02*
X013410Y013503D01*
X013271Y013661D02*
X012857Y013661D01*
X012699Y013820D02*
X013113Y013820D01*
X012954Y013978D02*
X012332Y013978D01*
X012173Y014137D02*
X012796Y014137D01*
X012637Y014295D02*
X012015Y014295D01*
X011856Y014454D02*
X012328Y014454D01*
X012092Y014612D02*
X011728Y014612D01*
X011790Y014771D02*
X012030Y014771D01*
X012030Y014929D02*
X011790Y014929D01*
X011790Y015088D02*
X012030Y015088D01*
X012030Y015246D02*
X011790Y015246D01*
X011783Y015405D02*
X012037Y015405D01*
X012125Y015563D02*
X011731Y015563D01*
X011889Y015722D02*
X012131Y015722D01*
X012130Y015880D02*
X011900Y015880D01*
X011958Y016039D02*
X012130Y016039D01*
X012130Y016197D02*
X012083Y016197D01*
X011518Y016039D02*
X011466Y016039D01*
X011510Y015880D02*
X011308Y015880D01*
X011352Y015722D02*
X011149Y015722D01*
X011125Y015563D02*
X010991Y015563D01*
X011635Y017257D02*
X011635Y017294D01*
X011636Y017295D01*
X011635Y017382D01*
X011635Y017470D01*
X011790Y017465D02*
X011790Y017337D01*
X011823Y017257D01*
X011688Y017257D01*
X011678Y017247D01*
X011668Y017257D01*
X011635Y017257D01*
X011636Y017307D02*
X011803Y017307D01*
X011880Y017624D02*
X011479Y017624D01*
X012381Y017582D02*
X012430Y017465D01*
X013597Y017148D02*
X013597Y017148D01*
X013597Y016990D02*
X013597Y016990D01*
X013175Y014295D02*
X014356Y014295D01*
X014310Y014137D02*
X013333Y014137D01*
X013492Y013978D02*
X014343Y013978D01*
X014190Y013820D02*
X014019Y013820D01*
X014410Y013503D02*
X014615Y013503D01*
X014615Y013344D02*
X014436Y013344D01*
X014594Y013186D02*
X014672Y013186D01*
X014753Y013027D02*
X014831Y013027D01*
X014657Y013661D02*
X014569Y013661D01*
X014738Y013820D02*
X014815Y013820D01*
X014057Y013186D02*
X014042Y013186D01*
X014782Y012076D02*
X009975Y012076D01*
X009403Y011918D02*
X008931Y011918D01*
X009089Y012076D02*
X009245Y012076D01*
X009115Y012235D02*
X009095Y012235D01*
X009095Y012393D02*
X009115Y012393D01*
X009115Y012552D02*
X009095Y012552D01*
X009153Y012710D02*
X009209Y012710D01*
X009312Y012869D02*
X009367Y012869D01*
X008772Y011759D02*
X015290Y011759D01*
X015147Y010016D02*
X015110Y010016D01*
X015160Y008906D02*
X015166Y008906D01*
X014910Y008589D02*
X014907Y008589D01*
X014910Y008431D02*
X014778Y008431D01*
X014910Y008272D02*
X014625Y008272D01*
X014625Y008114D02*
X015049Y008114D01*
X014910Y007638D02*
X014360Y007638D01*
X013980Y007638D02*
X013040Y007638D01*
X013199Y007796D02*
X013821Y007796D01*
X013715Y007955D02*
X013285Y007955D01*
X013285Y008114D02*
X013715Y008114D01*
X013715Y008272D02*
X013272Y008272D01*
X013114Y008431D02*
X013866Y008431D01*
X013870Y008748D02*
X013207Y008748D01*
X013325Y008906D02*
X013715Y008906D01*
X013715Y009065D02*
X013325Y009065D01*
X013325Y009223D02*
X013715Y009223D01*
X013817Y009382D02*
X013220Y009382D01*
X012599Y009540D02*
X008770Y009540D01*
X008928Y009382D02*
X009078Y009382D01*
X009736Y010174D02*
X009950Y010174D01*
X009950Y010333D02*
X009577Y010333D01*
X009419Y010491D02*
X010053Y010491D01*
X010057Y010967D02*
X008983Y010967D01*
X008813Y011125D02*
X009950Y011125D01*
X010607Y010491D02*
X011313Y010491D01*
X011210Y010333D02*
X010710Y010333D01*
X010710Y010174D02*
X011210Y010174D01*
X011393Y009471D02*
X011170Y009248D01*
X011170Y008934D01*
X011393Y008711D01*
X011707Y008711D01*
X011930Y008934D01*
X011930Y009248D01*
X011707Y009471D01*
X011393Y009471D01*
X011303Y009382D02*
X010593Y009382D01*
X010710Y009223D02*
X011170Y009223D01*
X011170Y009065D02*
X010710Y009065D01*
X010699Y008906D02*
X011198Y008906D01*
X011356Y008748D02*
X010540Y008748D01*
X010290Y008748D02*
X010290Y008748D01*
X010290Y008906D02*
X010290Y008906D01*
X010290Y009065D02*
X010290Y009065D01*
X010290Y009223D02*
X010290Y009223D01*
X010290Y009382D02*
X010290Y009382D01*
X009895Y008589D02*
X012612Y008589D01*
X012546Y008431D02*
X011748Y008431D01*
X011707Y008471D02*
X011393Y008471D01*
X011170Y008248D01*
X011170Y007934D01*
X011393Y007711D01*
X011707Y007711D01*
X011930Y007934D01*
X011930Y008248D01*
X011707Y008471D01*
X011744Y008748D02*
X012453Y008748D01*
X012335Y008906D02*
X011902Y008906D01*
X011930Y009065D02*
X012335Y009065D01*
X012335Y009223D02*
X011930Y009223D01*
X011797Y009382D02*
X012440Y009382D01*
X012450Y010174D02*
X011970Y010174D01*
X011970Y010333D02*
X012450Y010333D01*
X012533Y010491D02*
X011867Y010491D01*
X011352Y008431D02*
X010488Y008431D01*
X010646Y008272D02*
X011194Y008272D01*
X011170Y008114D02*
X010670Y008114D01*
X010670Y007955D02*
X011170Y007955D01*
X011307Y007796D02*
X010533Y007796D01*
X009961Y006845D02*
X009190Y006845D01*
X009190Y007004D02*
X009208Y007004D01*
X009217Y006687D02*
X009803Y006687D01*
X009695Y006528D02*
X009365Y006528D01*
X009365Y006370D02*
X009695Y006370D01*
X009695Y006211D02*
X009365Y006211D01*
X009255Y006053D02*
X009845Y006053D01*
X008810Y006845D02*
X008116Y006845D01*
X008274Y006687D02*
X008603Y006687D01*
X008455Y006528D02*
X008405Y006528D01*
X008405Y006370D02*
X008455Y006370D01*
X008455Y006211D02*
X008405Y006211D01*
X008312Y006053D02*
X008565Y006053D01*
X006889Y005419D02*
X006020Y005419D01*
X006179Y005577D02*
X006800Y005577D01*
X006756Y005736D02*
X006220Y005736D01*
X006220Y005894D02*
X006598Y005894D01*
X006439Y006053D02*
X006175Y006053D01*
X006281Y006211D02*
X006017Y006211D01*
X005930Y006370D02*
X006122Y006370D01*
X005990Y006528D02*
X005930Y006528D01*
X005550Y006370D02*
X000930Y006370D01*
X000930Y006528D02*
X001095Y006528D01*
X001030Y006594D02*
X001030Y006908D01*
X001253Y007131D01*
X001567Y007131D01*
X001790Y006908D01*
X001790Y006594D01*
X001567Y006371D01*
X001253Y006371D01*
X001030Y006594D01*
X001030Y006687D02*
X000930Y006687D01*
X000930Y006845D02*
X001030Y006845D01*
X001126Y007004D02*
X000930Y007004D01*
X000930Y007162D02*
X003870Y007162D01*
X003774Y007004D02*
X004028Y007004D01*
X004110Y006845D02*
X003870Y006845D01*
X003870Y006908D02*
X003647Y007131D01*
X003333Y007131D01*
X003110Y006908D01*
X003110Y006594D01*
X003333Y006371D01*
X003647Y006371D01*
X003870Y006594D01*
X003870Y006908D01*
X003870Y006687D02*
X004110Y006687D01*
X004175Y006528D02*
X003805Y006528D01*
X003945Y006284D02*
X003555Y006284D01*
X003280Y006008D01*
X003280Y005619D01*
X003555Y005344D01*
X003945Y005344D01*
X004220Y005619D01*
X004220Y006008D01*
X003945Y006284D01*
X004017Y006211D02*
X005483Y006211D01*
X005325Y006053D02*
X004175Y006053D01*
X004220Y005894D02*
X005280Y005894D01*
X005280Y005736D02*
X004220Y005736D01*
X004179Y005577D02*
X005321Y005577D01*
X005480Y005419D02*
X004020Y005419D01*
X004024Y005260D02*
X005476Y005260D01*
X005317Y005102D02*
X004183Y005102D01*
X004260Y004943D02*
X005240Y004943D01*
X005240Y004785D02*
X004260Y004785D01*
X004260Y004626D02*
X005240Y004626D01*
X005374Y004468D02*
X004126Y004468D01*
X003750Y004943D02*
X003750Y004943D01*
X003750Y005102D02*
X003750Y005102D01*
X003750Y005260D02*
X003750Y005260D01*
X003476Y005260D02*
X002048Y005260D01*
X001961Y005347D02*
X001750Y005347D01*
X001539Y005347D01*
X001240Y005049D01*
X001240Y004837D01*
X001750Y004837D01*
X001750Y004837D01*
X001750Y004837D01*
X002260Y004837D01*
X002260Y005049D01*
X001961Y005347D01*
X001945Y005367D02*
X002220Y005643D01*
X002220Y006032D01*
X001945Y006307D01*
X001555Y006307D01*
X001280Y006032D01*
X001280Y005643D01*
X001555Y005367D01*
X001945Y005367D01*
X001996Y005419D02*
X003480Y005419D01*
X003321Y005577D02*
X002155Y005577D01*
X002220Y005736D02*
X003280Y005736D01*
X003280Y005894D02*
X002220Y005894D01*
X002199Y006053D02*
X003325Y006053D01*
X003483Y006211D02*
X002040Y006211D01*
X002253Y006371D02*
X002567Y006371D01*
X002790Y006594D01*
X002790Y006908D01*
X002567Y007131D01*
X002253Y007131D01*
X002030Y006908D01*
X002030Y006594D01*
X002253Y006371D01*
X002095Y006528D02*
X001725Y006528D01*
X001790Y006687D02*
X002030Y006687D01*
X002030Y006845D02*
X001790Y006845D01*
X001694Y007004D02*
X002126Y007004D01*
X002694Y007004D02*
X003206Y007004D01*
X003110Y006845D02*
X002790Y006845D01*
X002790Y006687D02*
X003110Y006687D01*
X003175Y006528D02*
X002725Y006528D01*
X003553Y007479D02*
X000930Y007479D01*
X000930Y007321D02*
X003711Y007321D01*
X003932Y007638D02*
X004819Y007638D01*
X004790Y007796D02*
X003773Y007796D01*
X003394Y007638D02*
X000930Y007638D01*
X000930Y007796D02*
X001781Y007796D01*
X001623Y007955D02*
X000930Y007955D01*
X000930Y008114D02*
X001535Y008114D01*
X001535Y008272D02*
X000930Y008272D01*
X000930Y008431D02*
X001546Y008431D01*
X001705Y008589D02*
X000930Y008589D01*
X000930Y010016D02*
X001253Y010016D01*
X001118Y010174D02*
X000930Y010174D01*
X000930Y010333D02*
X001060Y010333D01*
X001060Y010491D02*
X000930Y010491D01*
X000930Y010650D02*
X001118Y010650D01*
X001254Y010808D02*
X000930Y010808D01*
X000930Y010967D02*
X001343Y010967D01*
X001143Y011125D02*
X000930Y011125D01*
X000930Y011284D02*
X001072Y011284D01*
X001060Y011442D02*
X000930Y011442D01*
X000930Y011601D02*
X001098Y011601D01*
X001205Y011759D02*
X000930Y011759D01*
X000930Y013186D02*
X001900Y013186D01*
X001754Y013344D02*
X000930Y013344D01*
X000930Y013503D02*
X001615Y013503D01*
X001615Y013661D02*
X000930Y013661D01*
X000930Y013820D02*
X001615Y013820D01*
X001734Y013978D02*
X000930Y013978D01*
X002297Y015088D02*
X003103Y015088D01*
X003360Y015088D02*
X003360Y015088D01*
X003360Y015036D02*
X003360Y015531D01*
X003360Y015531D01*
X003360Y015036D01*
X003489Y014929D02*
X002455Y014929D01*
X002525Y014771D02*
X003331Y014771D01*
X003172Y014612D02*
X002525Y014612D01*
X002496Y014454D02*
X003130Y014454D01*
X003617Y015088D02*
X003648Y015088D01*
X003775Y015246D02*
X003806Y015246D01*
X003855Y015405D02*
X003965Y015405D01*
X003855Y015563D02*
X004123Y015563D01*
X004282Y015722D02*
X003855Y015722D01*
X003711Y015880D02*
X004440Y015880D01*
X003360Y015880D02*
X003360Y015880D01*
X003360Y015722D02*
X003360Y015722D01*
X003360Y015563D02*
X003360Y015563D01*
X003360Y015405D02*
X003360Y015405D01*
X003360Y015246D02*
X003360Y015246D01*
X002905Y016356D02*
X000930Y016356D01*
X000930Y016514D02*
X002905Y016514D01*
X002905Y016673D02*
X000930Y016673D01*
X000930Y016831D02*
X003017Y016831D01*
X003757Y020318D02*
X005390Y020318D01*
X004870Y021516D02*
X004870Y022011D01*
X004870Y022011D01*
X004870Y021516D01*
X004870Y021586D02*
X004870Y021586D01*
X004870Y021745D02*
X004870Y021745D01*
X004870Y021903D02*
X004870Y021903D01*
X004870Y022062D02*
X004870Y022062D01*
X004870Y022220D02*
X004870Y022220D01*
X004870Y022379D02*
X004870Y022379D01*
X004985Y022854D02*
X004706Y022854D01*
X004760Y023013D02*
X004805Y023013D01*
X005230Y023013D02*
X005270Y023013D01*
X005270Y023171D02*
X005230Y023171D01*
X005230Y022854D02*
X005270Y022854D01*
X005515Y022854D02*
X006081Y022854D01*
X005852Y023013D02*
X005695Y023013D01*
X006419Y022854D02*
X007081Y022854D01*
X006852Y023013D02*
X006648Y023013D01*
X006734Y023171D02*
X006766Y023171D01*
X006606Y022696D02*
X000930Y022696D01*
X000930Y022854D02*
X003794Y022854D01*
X003740Y023013D02*
X000930Y023013D01*
X000930Y023171D02*
X003740Y023171D01*
X003740Y023330D02*
X000930Y023330D01*
X000930Y023488D02*
X003740Y023488D01*
X003740Y023647D02*
X000930Y023647D01*
X007419Y022854D02*
X007584Y022854D01*
X007648Y023013D02*
X007743Y023013D01*
X007734Y023171D02*
X007766Y023171D01*
X011420Y018892D02*
X011420Y018892D01*
X011419Y018892D02*
X011421Y018892D01*
X008125Y015563D02*
X007695Y015563D01*
X007783Y015405D02*
X008037Y015405D01*
X008030Y015246D02*
X007790Y015246D01*
X007790Y015088D02*
X008030Y015088D01*
X008030Y014929D02*
X007790Y014929D01*
X007790Y014771D02*
X008030Y014771D01*
X008092Y014612D02*
X007728Y014612D01*
X005112Y011442D02*
X003510Y011442D01*
X003490Y011284D02*
X004954Y011284D01*
X004637Y011125D02*
X003490Y011125D01*
X003490Y010967D02*
X004550Y010967D01*
X004550Y010808D02*
X003490Y010808D01*
X003490Y010650D02*
X004510Y010650D01*
X004351Y010491D02*
X003490Y010491D01*
X003490Y010333D02*
X004193Y010333D01*
X004413Y010016D02*
X006430Y010016D01*
X006430Y009857D02*
X004320Y009857D01*
X004285Y009699D02*
X006430Y009699D01*
X006430Y009540D02*
X004126Y009540D01*
X003734Y009540D02*
X003490Y009540D01*
X003490Y009382D02*
X006430Y009382D01*
X006500Y010174D02*
X004572Y010174D01*
X003686Y010174D02*
X003490Y010174D01*
X003490Y010016D02*
X003550Y010016D01*
X003550Y009857D02*
X003490Y009857D01*
X003490Y009699D02*
X003575Y009699D01*
X003110Y009699D02*
X002280Y009699D01*
X002324Y009540D02*
X003110Y009540D01*
X003110Y009382D02*
X002445Y009382D01*
X002445Y009223D02*
X003110Y009223D01*
X003110Y009065D02*
X002445Y009065D01*
X002365Y009857D02*
X003110Y009857D01*
X003110Y010016D02*
X002847Y010016D01*
X002982Y010174D02*
X003110Y010174D01*
X003110Y010333D02*
X003040Y010333D01*
X003040Y010491D02*
X003110Y010491D01*
X003110Y010650D02*
X002982Y010650D01*
X003110Y010808D02*
X002846Y010808D01*
X002840Y010967D02*
X003110Y010967D01*
X003110Y011125D02*
X002997Y011125D01*
X003066Y011284D02*
X003110Y011284D01*
X003110Y011442D02*
X003080Y011442D01*
X003046Y011601D02*
X003130Y011601D01*
X003130Y011759D02*
X002952Y011759D01*
X003110Y008114D02*
X002445Y008114D01*
X002357Y007955D02*
X003110Y007955D01*
X003236Y007796D02*
X002199Y007796D01*
X001460Y006211D02*
X000930Y006211D01*
X000930Y006053D02*
X001301Y006053D01*
X001280Y005894D02*
X000930Y005894D01*
X000930Y005736D02*
X001280Y005736D01*
X001345Y005577D02*
X000930Y005577D01*
X000930Y005419D02*
X001504Y005419D01*
X001452Y005260D02*
X000930Y005260D01*
X000930Y005102D02*
X001293Y005102D01*
X001240Y004943D02*
X000930Y004943D01*
X000930Y004785D02*
X001240Y004785D01*
X001240Y004626D02*
X000930Y004626D01*
X000930Y004468D02*
X001398Y004468D01*
X001750Y004837D02*
X001750Y005347D01*
X001750Y004837D01*
X001750Y004837D01*
X001750Y004943D02*
X001750Y004943D01*
X001750Y005102D02*
X001750Y005102D01*
X001750Y005260D02*
X001750Y005260D01*
X002207Y005102D02*
X003317Y005102D01*
X003240Y004943D02*
X002260Y004943D01*
X002260Y004785D02*
X003240Y004785D01*
X003240Y004626D02*
X002260Y004626D01*
X002102Y004468D02*
X003374Y004468D01*
X004805Y006528D02*
X005255Y006528D01*
X005190Y006687D02*
X004870Y006687D01*
X004870Y006845D02*
X005190Y006845D01*
X005286Y007004D02*
X004774Y007004D01*
X004407Y007162D02*
X005450Y007162D01*
X005291Y007321D02*
X004249Y007321D01*
X004090Y007479D02*
X004978Y007479D01*
X008747Y010491D02*
X008881Y010491D01*
X011793Y007796D02*
X012461Y007796D01*
X012375Y007955D02*
X011930Y007955D01*
X011930Y008114D02*
X012375Y008114D01*
X012388Y008272D02*
X011906Y008272D01*
X014800Y007479D02*
X014910Y007479D01*
X014910Y007321D02*
X014870Y007321D01*
X015994Y005102D02*
X016506Y005102D01*
X016321Y004943D02*
X016179Y004943D01*
X016247Y004785D02*
X016253Y004785D01*
X016994Y005102D02*
X017506Y005102D01*
X017321Y004943D02*
X017179Y004943D01*
X017247Y004785D02*
X017253Y004785D01*
X019766Y007004D02*
X020255Y007004D01*
X020255Y007162D02*
X019925Y007162D01*
X020025Y007321D02*
X020255Y007321D01*
X020255Y007479D02*
X020025Y007479D01*
X020025Y007638D02*
X020255Y007638D01*
X020255Y007796D02*
X019868Y007796D01*
X020179Y004943D02*
X020255Y004943D01*
X020247Y004785D02*
X020255Y004785D01*
X019401Y019526D02*
X017964Y019526D01*
X018250Y020794D02*
X018404Y020794D01*
X018292Y020952D02*
X018198Y020952D01*
X018170Y021111D02*
X018039Y021111D01*
X018010Y021269D02*
X018170Y021269D01*
X018209Y021428D02*
X018105Y021428D01*
X018170Y021586D02*
X018368Y021586D01*
X018170Y021745D02*
X018955Y021745D01*
X019113Y021903D02*
X018759Y021903D01*
X018918Y022062D02*
X019215Y022062D01*
X019215Y022220D02*
X018930Y022220D01*
X018930Y022379D02*
X019215Y022379D01*
X019373Y022537D02*
X018781Y022537D01*
X018919Y022854D02*
X019581Y022854D01*
X019352Y023013D02*
X019148Y023013D01*
X019234Y023171D02*
X019266Y023171D01*
X019919Y022854D02*
X020255Y022854D01*
X020255Y023013D02*
X020148Y023013D01*
X020234Y023171D02*
X020255Y023171D01*
X018796Y021586D02*
X018732Y021586D01*
X018341Y021903D02*
X018110Y021903D01*
X018110Y022062D02*
X018182Y022062D01*
X018170Y022220D02*
X018110Y022220D01*
X018110Y022379D02*
X018170Y022379D01*
X017352Y023013D02*
X017148Y023013D01*
X017234Y023171D02*
X017266Y023171D01*
D27*
X012560Y019701D02*
X012560Y019231D01*
X012570Y019221D01*
X012574Y019220D01*
X011050Y018571D02*
X011050Y017741D01*
X011420Y017381D01*
X011420Y017001D01*
X011480Y017001D01*
X011510Y016931D01*
X011511Y016917D01*
X011550Y016921D01*
X011550Y016922D01*
X011511Y016917D02*
X011520Y016821D01*
X011520Y016661D01*
X011390Y016541D01*
X010930Y016081D01*
X010160Y016081D01*
X009580Y015501D01*
X009580Y015281D01*
X009440Y015141D01*
X009410Y015071D01*
X009410Y014351D01*
X009650Y014111D01*
X009650Y013471D01*
X009610Y013411D01*
X009550Y013411D01*
X008880Y012741D01*
X008880Y012171D01*
X007760Y011051D01*
X007560Y010841D01*
X007610Y010771D01*
X007610Y010601D01*
X006830Y009821D01*
X006830Y008351D01*
X006980Y008201D01*
X006980Y007251D01*
X006750Y007021D01*
X006750Y006931D01*
X006570Y006751D01*
X009810Y005201D02*
X009810Y004711D01*
X009750Y004651D01*
X009810Y005201D02*
X010110Y005501D01*
X010110Y006021D01*
X010150Y006061D01*
X010150Y006391D01*
X011300Y016921D02*
X011420Y016921D01*
X011420Y017001D01*
X011420Y016921D02*
X011480Y016931D01*
X011300Y016921D02*
X011294Y016922D01*
X010783Y019220D02*
X010780Y019221D01*
X010440Y019221D01*
M02*
