G75*
G70*
%OFA0B0*%
%FSLAX24Y24*%
%IPPOS*%
%LPD*%
%AMOC8*
5,1,8,0,0,1.08239X$1,22.5*
%
%ADD10C,0.0000*%
%ADD11OC8,0.0520*%
%ADD12C,0.0690*%
%ADD13OC8,0.0670*%
%ADD14OC8,0.0700*%
%ADD15C,0.0740*%
%ADD16C,0.0700*%
%ADD17C,0.0571*%
%ADD18OC8,0.0720*%
%ADD19R,0.0780X0.0780*%
%ADD20C,0.0780*%
%ADD21R,0.0520X0.0520*%
%ADD22C,0.0520*%
D10*
X000750Y004151D02*
X000750Y023836D01*
X020435Y023836D01*
X020435Y004151D01*
X000750Y004151D01*
D11*
X001410Y006751D03*
X002410Y006751D03*
X003490Y006751D03*
X004490Y006751D03*
X005570Y006751D03*
X006570Y006751D03*
X008070Y007871D03*
X007570Y008621D03*
X008570Y008621D03*
X008060Y010091D03*
X007560Y010841D03*
X008560Y010841D03*
X010330Y011231D03*
X010330Y010231D03*
X010290Y009091D03*
X010290Y008091D03*
X011550Y008091D03*
X011550Y009091D03*
X011590Y010231D03*
X011590Y011231D03*
X012830Y011251D03*
X012830Y010251D03*
X014170Y010251D03*
X014170Y011251D03*
X013810Y012491D03*
X013810Y013491D03*
X012490Y013491D03*
X012490Y012491D03*
X011250Y012491D03*
X011250Y013491D03*
X016430Y013451D03*
X016430Y012451D03*
X017470Y012451D03*
X017470Y013451D03*
X018490Y013451D03*
X019440Y013451D03*
X019440Y012451D03*
X018490Y012451D03*
X019610Y010451D03*
X019610Y009451D03*
X018550Y021231D03*
X018550Y022231D03*
X004950Y014021D03*
X003950Y013021D03*
X004950Y012021D03*
X004930Y010881D03*
X003930Y009881D03*
X004930Y008881D03*
X003380Y017571D03*
X003380Y018571D03*
D12*
X004870Y019071D03*
X004870Y017071D03*
D13*
X003360Y016531D03*
X003360Y015531D03*
X002070Y014671D03*
X002070Y013671D03*
X001990Y009231D03*
X001990Y008231D03*
X007910Y006351D03*
X008910Y006351D03*
X010150Y006391D03*
X011150Y006391D03*
X012830Y008071D03*
X012830Y009071D03*
X014170Y009091D03*
X014170Y008091D03*
X016430Y006111D03*
X017430Y006111D03*
X019570Y007451D03*
X019570Y008451D03*
X015070Y012431D03*
X015070Y013431D03*
X019670Y015151D03*
X019670Y016151D03*
X019670Y017151D03*
X019670Y018151D03*
X019670Y019151D03*
X019670Y020151D03*
X019670Y021191D03*
X019670Y022191D03*
X009610Y013411D03*
X009610Y012411D03*
X003370Y019631D03*
X003370Y020631D03*
X004870Y021011D03*
X004870Y022011D03*
D14*
X005750Y005814D03*
X005750Y004814D03*
X003750Y004814D03*
X003750Y005814D03*
X001750Y005837D03*
X001750Y004837D03*
D15*
X001550Y010411D03*
X001550Y011411D03*
X001550Y012411D03*
X002550Y012411D03*
X002550Y011411D03*
X002550Y010411D03*
D16*
X007810Y012451D03*
X007810Y013411D03*
D17*
X012190Y006351D03*
X014990Y006351D03*
D18*
X015390Y007451D03*
X015390Y008451D03*
X015390Y009451D03*
X015390Y010451D03*
X018390Y010451D03*
X018390Y009451D03*
X018390Y008451D03*
X018390Y007451D03*
D19*
X012750Y023336D03*
X004250Y023336D03*
D20*
X005250Y023336D03*
X006250Y023336D03*
X007250Y023336D03*
X008250Y023336D03*
X009250Y023336D03*
X010250Y023336D03*
X011250Y023336D03*
X013750Y023336D03*
X014750Y023336D03*
X015750Y023336D03*
X016750Y023336D03*
X017750Y023336D03*
X018750Y023336D03*
X019750Y023336D03*
X019750Y004651D03*
X018750Y004651D03*
X017750Y004651D03*
X016750Y004651D03*
X015750Y004651D03*
X014750Y004651D03*
X012750Y004651D03*
X011750Y004651D03*
X010750Y004651D03*
X009750Y004651D03*
X008750Y004651D03*
X007750Y004651D03*
D21*
X006410Y015071D03*
D22*
X007410Y014831D02*
X007410Y015311D01*
X008410Y015311D02*
X008410Y014831D01*
X009410Y014831D02*
X009410Y015311D01*
X010410Y015311D02*
X010410Y014831D01*
X011410Y014831D02*
X011410Y015311D01*
X012410Y015311D02*
X012410Y014831D01*
X013410Y014831D02*
X013410Y015311D01*
X014410Y015311D02*
X014410Y014831D01*
X015410Y014831D02*
X015410Y015311D01*
X016410Y015311D02*
X016410Y014831D01*
X017410Y014831D02*
X017410Y015311D01*
X017410Y020831D02*
X017410Y021311D01*
X016410Y021311D02*
X016410Y020831D01*
X015410Y020831D02*
X015410Y021311D01*
X014410Y021311D02*
X014410Y020831D01*
X013410Y020831D02*
X013410Y021311D01*
X012410Y021311D02*
X012410Y020831D01*
X011410Y020831D02*
X011410Y021311D01*
X010410Y021311D02*
X010410Y020831D01*
X009410Y020831D02*
X009410Y021311D01*
X008410Y021311D02*
X008410Y020831D01*
X007410Y020831D02*
X007410Y021311D01*
X006410Y021311D02*
X006410Y020831D01*
M02*
