%
M48
M72
T01C0.0240
T02C0.0276
T03C0.0320
T04C0.0354
T05C0.0394
T06C0.0400
%
T01
X6620Y7491
X7520Y7441
X8800Y7781
X9660Y8371
X9330Y9181
X7730Y9601
X6360Y11191
X5900Y11961
X6680Y13051
X5430Y16621
X6090Y17281
X7430Y17961
X8380Y19851
X6330Y20271
X5430Y21421
X9930Y16771
X10750Y16441
X12110Y17401
X11050Y18571
X11840Y18741
X12560Y19701
X11080Y21881
X10440Y19221
X13630Y16441
X14250Y17181
X14630Y14121
X17210Y19691
X17690Y19701
X13810Y22321
X5110Y7771
X7120Y5641
X15240Y5641
T02
X4870Y17071
X4870Y19071
T03
X1750Y4837
X1750Y5837
X1410Y6751
X2410Y6751
X3490Y6751
X3750Y5814
X3750Y4814
X4490Y6751
X5570Y6751
X5750Y5814
X5750Y4814
X6570Y6751
X7910Y6351
X8910Y6351
X10150Y6391
X11150Y6391
X11550Y8091
X11550Y9091
X11590Y10231
X11590Y11231
X12830Y11251
X12830Y10251
X12830Y9071
X12830Y8071
X14170Y8091
X14170Y9091
X14170Y10251
X14170Y11251
X15070Y12431
X15070Y13431
X13810Y13491
X13810Y12491
X12490Y12491
X12490Y13491
X11250Y13491
X11250Y12491
X10330Y11231
X10330Y10231
X10290Y9091
X10290Y8091
X8570Y8621
X8070Y7871
X7570Y8621
X8060Y10091
X7560Y10841
X8560Y10841
X9610Y12411
X9610Y13411
X9410Y15071
X8410Y15071
X7410Y15071
X6410Y15071
X4950Y14021
X3950Y13021
X4950Y12021
X4930Y10881
X3930Y9881
X4930Y8881
X1990Y9231
X1990Y8231
X2070Y13671
X2070Y14671
X3360Y15531
X3360Y16531
X3380Y17571
X3380Y18571
X3370Y19631
X3370Y20631
X4870Y21011
X4870Y22011
X6410Y21071
X7410Y21071
X8410Y21071
X9410Y21071
X10410Y21071
X11410Y21071
X12410Y21071
X13410Y21071
X14410Y21071
X15410Y21071
X16410Y21071
X17410Y21071
X18550Y21231
X18550Y22231
X19670Y22191
X19670Y21191
X19670Y20151
X19670Y19151
X19670Y18151
X19670Y17151
X19670Y16151
X19670Y15151
X19440Y13451
X18490Y13451
X18490Y12451
X19440Y12451
X19610Y10451
X19610Y9451
X19570Y8451
X19570Y7451
X18390Y7451
X18390Y8451
X18390Y9451
X18390Y10451
X17470Y12451
X17470Y13451
X16430Y13451
X16430Y12451
X15390Y10451
X15390Y9451
X15390Y8451
X15390Y7451
X16430Y6111
X17430Y6111
X17410Y15071
X16410Y15071
X15410Y15071
X14410Y15071
X13410Y15071
X12410Y15071
X11410Y15071
X10410Y15071
T04
X12190Y6351
X14990Y6351
T05
X7810Y12451
X7810Y13411
X2550Y12411
X2550Y11411
X2550Y10411
X1550Y10411
X1550Y11411
X1550Y12411
T06
X7750Y4651
X8750Y4651
X9750Y4651
X10750Y4651
X11750Y4651
X12750Y4651
X14750Y4651
X15750Y4651
X16750Y4651
X17750Y4651
X18750Y4651
X19750Y4651
X19750Y23336
X18750Y23336
X17750Y23336
X16750Y23336
X15750Y23336
X14750Y23336
X13750Y23336
X12750Y23336
X11250Y23336
X10250Y23336
X9250Y23336
X8250Y23336
X7250Y23336
X6250Y23336
X5250Y23336
X4250Y23336
M30
